M48
; DRILL file {KiCad (5.1.10)-1} date 05/13/21 19:21:09
; FORMAT={-:-/ absolute / metric / decimal}
; #@! TF.CreationDate,2021-05-13T19:21:09+02:00
; #@! TF.GenerationSoftware,Kicad,Pcbnew,(5.1.10)-1
; #@! TF.FileFunction,Plated,1,2,PTH
FMAT,2
METRIC
T1C0.400
T2C0.750
T3C1.000
T4C1.400
%
G90
G05
T1
X28.435Y-80.124
X30.924Y-81.915
X32.309Y-83.617
X35.738Y-79.934
X35.941Y-82.804
X36.131Y-88.011
X36.386Y-128.841
X36.449Y-127.762
X36.627Y-76.124
X37.643Y-79.299
X38.573Y-79.277
X41.212Y-85.725
X41.58Y-74.219
X41.672Y-79.819
X42.355Y-130.874
X42.596Y-86.284
X46.152Y-90.602
X46.777Y-78.8
X46.799Y-77.533
X47.177Y-89.849
X47.371Y-112.649
X47.422Y-91.872
X47.625Y-126.047
X48.311Y-90.983
X48.438Y-92.888
X48.438Y-92.888
X48.438Y-92.888
X48.438Y-92.888
X48.438Y-92.888
X48.514Y-165.1
X48.565Y-88.57
X48.565Y-89.84
X55.372Y-138.557
X55.435Y-105.283
X55.88Y-144.145
X55.88Y-145.415
X56.007Y-141.097
X56.007Y-141.097
X56.007Y-141.097
X56.007Y-141.097
X56.007Y-141.097
X56.134Y-143.002
X57.023Y-142.113
X57.267Y-144.135
X57.658Y-156.487
X57.667Y-155.185
X58.229Y-109.982
X58.293Y-143.383
X61.849Y-147.701
X62.158Y-107.815
X62.388Y-67.402
X62.865Y-159.766
X63.691Y-113.157
X63.7Y-105.791
X64.325Y-101.473
X64.325Y-107.061
X65.151Y-100.203
X65.151Y-107.823
X65.849Y-154.495
X66.421Y-175.895
X66.865Y-154.495
X67.818Y-157.861
X68.135Y-104.457
X68.135Y-109.94
X68.707Y-154.051
X70.424Y-112.144
X71.247Y-103.188
X71.819Y-111.633
X72.015Y-102.547
X72.072Y-81.661
X73.152Y-108.902
X73.375Y-107.54
X73.406Y-152.209
X73.469Y-57.213
X73.787Y-111.887
X74.358Y-151.194
X75.12Y-59.944
X75.248Y-108.458
X75.692Y-111.697
X75.946Y-71.183
X76.073Y-153.797
X76.708Y-68.58
X76.793Y-111.772
X77.343Y-164.465
X78.359Y-103.404
X78.867Y-178.308
X79.947Y-111.506
X80.518Y-103.404
X80.581Y-108.521
X81.28Y-113.284
X81.915Y-81.661
X82.486Y-102.679
X84.074Y-104.521
X84.709Y-105.918
X85.788Y-106.617
X92.126Y-80.23
X94.742Y-81.661
X94.838Y-86.281
X97.028Y-100.139
X99.187Y-67.12
X99.492Y-79.976
X100.33Y-140.779
X100.381Y-76.166
X100.393Y-102.616
X100.647Y-87.884
X100.711Y-82.74
X101.397Y-79.341
X102.317Y-79.33
X103.314Y-82.74
X104.838Y-82.677
X105.334Y-74.261
X106.35Y-86.326
X109.22Y-99.631
X109.728Y-166.814
X109.906Y-90.644
X110.531Y-78.842
X110.553Y-77.597
X110.931Y-89.891
X111.176Y-91.914
X112.065Y-91.025
X112.192Y-92.93
X112.192Y-92.93
X112.192Y-92.93
X112.192Y-92.93
X112.192Y-92.93
X112.319Y-88.612
X112.319Y-89.882
X112.522Y-166.878
X119.964Y-146.084
X119.964Y-146.084
X119.964Y-147.354
X119.964Y-147.354
X120.091Y-143.036
X120.091Y-143.036
X120.091Y-143.036
X120.091Y-143.036
X120.091Y-143.036
X120.091Y-143.036
X120.091Y-143.036
X120.091Y-143.036
X120.091Y-143.036
X120.091Y-143.036
X120.218Y-144.941
X120.218Y-144.941
X120.523Y-67.137
X121.107Y-144.052
X121.107Y-144.052
X121.352Y-146.075
X121.352Y-146.075
X121.742Y-158.426
X121.742Y-158.426
X121.752Y-157.124
X121.752Y-157.124
X122.377Y-145.322
X122.377Y-145.322
X125.933Y-149.64
X125.933Y-149.64
X126.949Y-161.705
X126.949Y-161.705
X129.862Y-156.396
X130.937Y-156.35
X131.064Y-162.433
X131.902Y-159.8
X131.902Y-159.8
X132.791Y-155.99
X132.791Y-155.99
X134.81Y-146.368
X136.017Y-145.288
X137.605Y-154.114
X138.303Y-102.425
X140.157Y-155.736
T2
X41.072Y-92.761
X42.342Y-92.761
X43.612Y-92.761
X60.833Y-141.224
X62.103Y-141.224
X63.373Y-141.224
X104.826Y-92.803
X106.096Y-92.803
X107.366Y-92.803
X124.917Y-143.163
X126.187Y-143.163
X127.457Y-143.163
T3
X29.019Y-128.524
X29.019Y-131.064
X33.401Y-125.984
X33.401Y-128.524
X33.401Y-131.064
X53.34Y-96.456
X53.34Y-98.996
X53.34Y-101.536
X53.34Y-105.283
X53.34Y-107.823
X53.34Y-110.363
T4
X37.465Y-173.863
X42.545Y-173.863
X61.9Y-60.122
X66.98Y-60.122
X101.549Y-175.802
X106.629Y-175.802
X125.654Y-60.164
X130.734Y-60.164
X145.542Y-113.665
X145.542Y-118.745
T0
M30
