M48
; DRILL file {KiCad (5.1.9)-1} date 05/20/21 13:27:58
; FORMAT={-:-/ absolute / inch / decimal}
; #@! TF.CreationDate,2021-05-20T13:27:58+02:00
; #@! TF.GenerationSoftware,Kicad,Pcbnew,(5.1.9)-1
; #@! TF.FileFunction,Plated,1,2,PTH
FMAT,2
INCH
T1C0.0157
T2C0.0394
T3C0.0433
T4C0.0551
T5C0.0827
%
G90
G05
T1
X0.9961Y-1.4449
X0.9961Y-1.689
X1.2244Y-1.185
X1.3031Y-1.7165
X1.5303Y-1.4224
X1.5315Y-1.4685
X1.5315Y-1.5157
X1.5669Y-1.7008
X1.5887Y-1.6647
X1.5945Y-1.6142
X1.6102Y-1.189
X1.7953Y-1.3898
X1.8543Y-1.2992
X1.8898Y-1.7491
X1.9213Y-1.0709
X1.9338Y-1.3189
X1.9449Y-1.2087
X1.9921Y-1.2835
X2.0433Y-0.9646
X2.0472Y-1.0866
X2.0512Y-1.2756
X2.0687Y-1.4753
X2.0727Y-1.388
X2.0945Y-1.5157
X2.0983Y-1.4492
X2.0984Y-1.3583
X2.126Y-1.6181
X2.1269Y-1.7315
X2.1299Y-1.3268
X2.1339Y-1.2835
X2.141Y-1.7685
X2.1417Y-1.4016
X2.1614Y-1.6614
X2.1654Y-1.5984
X2.1701Y-1.3743
X2.2362Y-1.3252
X2.3425Y-1.189
X2.3465Y-1.2835
X2.625Y-1.1142
X2.626Y-1.0079
X2.7441Y-1.0197
T2
X0.6648Y-1.1757
X0.6648Y-1.2757
X0.6648Y-1.3757
X0.6648Y-1.4757
X0.752Y-1.778
X0.752Y-1.878
X0.752Y-1.978
X0.752Y-2.078
X0.752Y-2.178
X0.752Y-2.278
X0.752Y-2.378
X0.8228Y-1.1764
X0.8228Y-1.2764
X0.8228Y-1.3764
X0.8228Y-1.4764
X1.0669Y-1.2244
X1.3701Y-1.0866
X1.4055Y-1.7835
X1.9528Y-1.815
X2.0984Y-1.815
X2.2441Y-1.8189
X2.3898Y-1.8189
T3
X1.0866Y-1.9016
X1.0866Y-2.1575
X1.2638Y-1.9016
X1.2638Y-2.1575
X2.8508Y-0.6831
X2.9409Y-0.6831
X3.0311Y-0.6831
T4
X0.8583Y-0.7795
X0.8583Y-0.9961
X1.0236Y-0.7795
X1.0236Y-0.9961
X1.5669Y-0.7795
X1.5669Y-0.9961
X1.7323Y-0.7795
X1.7323Y-0.9961
T5
X2.6693Y-1.3819
X2.9055Y-1.3819
T0
M30
