%TF.GenerationSoftware,KiCad,Pcbnew,(5.1.9)-1*%
%TF.CreationDate,2021-05-20T13:27:56+02:00*%
%TF.ProjectId,PEE50-CurrentProtectionTemplate,50454535-302d-4437-9572-72656e745072,rev?*%
%TF.SameCoordinates,Original*%
%TF.FileFunction,Legend,Bot*%
%TF.FilePolarity,Positive*%
%FSLAX46Y46*%
G04 Gerber Fmt 4.6, Leading zero omitted, Abs format (unit mm)*
G04 Created by KiCad (PCBNEW (5.1.9)-1) date 2021-05-20 13:27:56*
%MOMM*%
%LPD*%
G01*
G04 APERTURE LIST*
%ADD10C,0.300000*%
G04 APERTURE END LIST*
D10*
X24197571Y-44432000D02*
X24340428Y-44360571D01*
X24554714Y-44360571D01*
X24769000Y-44432000D01*
X24911857Y-44574857D01*
X24983285Y-44717714D01*
X25054714Y-45003428D01*
X25054714Y-45217714D01*
X24983285Y-45503428D01*
X24911857Y-45646285D01*
X24769000Y-45789142D01*
X24554714Y-45860571D01*
X24411857Y-45860571D01*
X24197571Y-45789142D01*
X24126142Y-45717714D01*
X24126142Y-45217714D01*
X24411857Y-45217714D01*
X23483285Y-45860571D02*
X23483285Y-44360571D01*
X22626142Y-45860571D01*
X22626142Y-44360571D01*
X21911857Y-45860571D02*
X21911857Y-44360571D01*
X21554714Y-44360571D01*
X21340428Y-44432000D01*
X21197571Y-44574857D01*
X21126142Y-44717714D01*
X21054714Y-45003428D01*
X21054714Y-45217714D01*
X21126142Y-45503428D01*
X21197571Y-45646285D01*
X21340428Y-45789142D01*
X21554714Y-45860571D01*
X21911857Y-45860571D01*
X22411857Y-46910571D02*
X23126142Y-46910571D01*
X23197571Y-47624857D01*
X23126142Y-47553428D01*
X22983285Y-47482000D01*
X22626142Y-47482000D01*
X22483285Y-47553428D01*
X22411857Y-47624857D01*
X22340428Y-47767714D01*
X22340428Y-48124857D01*
X22411857Y-48267714D01*
X22483285Y-48339142D01*
X22626142Y-48410571D01*
X22983285Y-48410571D01*
X23126142Y-48339142D01*
X23197571Y-48267714D01*
X21911857Y-46910571D02*
X21411857Y-48410571D01*
X20911857Y-46910571D01*
X24697571Y-49460571D02*
X23769000Y-49460571D01*
X24269000Y-50032000D01*
X24054714Y-50032000D01*
X23911857Y-50103428D01*
X23840428Y-50174857D01*
X23769000Y-50317714D01*
X23769000Y-50674857D01*
X23840428Y-50817714D01*
X23911857Y-50889142D01*
X24054714Y-50960571D01*
X24483285Y-50960571D01*
X24626142Y-50889142D01*
X24697571Y-50817714D01*
X23340428Y-49460571D02*
X22840428Y-50960571D01*
X22340428Y-49460571D01*
X21983285Y-49460571D02*
X21054714Y-49460571D01*
X21554714Y-50032000D01*
X21340428Y-50032000D01*
X21197571Y-50103428D01*
X21126142Y-50174857D01*
X21054714Y-50317714D01*
X21054714Y-50674857D01*
X21126142Y-50817714D01*
X21197571Y-50889142D01*
X21340428Y-50960571D01*
X21769000Y-50960571D01*
X21911857Y-50889142D01*
X21983285Y-50817714D01*
X28554714Y-52510571D02*
X27411857Y-52939142D01*
X28554714Y-53367714D01*
X26697571Y-52510571D02*
X25554714Y-52939142D01*
X26697571Y-53367714D01*
X23983285Y-53510571D02*
X24483285Y-52796285D01*
X24840428Y-53510571D02*
X24840428Y-52010571D01*
X24269000Y-52010571D01*
X24126142Y-52082000D01*
X24054714Y-52153428D01*
X23983285Y-52296285D01*
X23983285Y-52510571D01*
X24054714Y-52653428D01*
X24126142Y-52724857D01*
X24269000Y-52796285D01*
X24840428Y-52796285D01*
X23483285Y-52010571D02*
X22483285Y-53510571D01*
X22483285Y-52010571D02*
X23483285Y-53510571D01*
X21911857Y-53510571D02*
X21911857Y-52010571D01*
X21554714Y-52010571D01*
X21340428Y-52082000D01*
X21197571Y-52224857D01*
X21126142Y-52367714D01*
X21054714Y-52653428D01*
X21054714Y-52867714D01*
X21126142Y-53153428D01*
X21197571Y-53296285D01*
X21340428Y-53439142D01*
X21554714Y-53510571D01*
X21911857Y-53510571D01*
X27054714Y-55060571D02*
X28197571Y-55489142D01*
X27054714Y-55917714D01*
X25197571Y-55060571D02*
X26340428Y-55489142D01*
X25197571Y-55917714D01*
X24697571Y-54560571D02*
X23840428Y-54560571D01*
X24269000Y-56060571D02*
X24269000Y-54560571D01*
X23483285Y-54560571D02*
X22483285Y-56060571D01*
X22483285Y-54560571D02*
X23483285Y-56060571D01*
X21911857Y-56060571D02*
X21911857Y-54560571D01*
X21554714Y-54560571D01*
X21340428Y-54632000D01*
X21197571Y-54774857D01*
X21126142Y-54917714D01*
X21054714Y-55203428D01*
X21054714Y-55417714D01*
X21126142Y-55703428D01*
X21197571Y-55846285D01*
X21340428Y-55989142D01*
X21554714Y-56060571D01*
X21911857Y-56060571D01*
X30054714Y-58539142D02*
X29840428Y-58610571D01*
X29483285Y-58610571D01*
X29340428Y-58539142D01*
X29269000Y-58467714D01*
X29197571Y-58324857D01*
X29197571Y-58182000D01*
X29269000Y-58039142D01*
X29340428Y-57967714D01*
X29483285Y-57896285D01*
X29769000Y-57824857D01*
X29911857Y-57753428D01*
X29983285Y-57682000D01*
X30054714Y-57539142D01*
X30054714Y-57396285D01*
X29983285Y-57253428D01*
X29911857Y-57182000D01*
X29769000Y-57110571D01*
X29411857Y-57110571D01*
X29197571Y-57182000D01*
X28054714Y-57824857D02*
X27840428Y-57896285D01*
X27769000Y-57967714D01*
X27697571Y-58110571D01*
X27697571Y-58324857D01*
X27769000Y-58467714D01*
X27840428Y-58539142D01*
X27983285Y-58610571D01*
X28554714Y-58610571D01*
X28554714Y-57110571D01*
X28054714Y-57110571D01*
X27911857Y-57182000D01*
X27840428Y-57253428D01*
X27769000Y-57396285D01*
X27769000Y-57539142D01*
X27840428Y-57682000D01*
X27911857Y-57753428D01*
X28054714Y-57824857D01*
X28554714Y-57824857D01*
X27197571Y-57110571D02*
X26840428Y-58610571D01*
X26554714Y-57539142D01*
X26269000Y-58610571D01*
X25911857Y-57110571D01*
X25554714Y-57110571D02*
X24697571Y-57110571D01*
X25126142Y-58610571D02*
X25126142Y-57110571D01*
X24197571Y-58610571D02*
X24197571Y-57110571D01*
X23840428Y-57110571D01*
X23626142Y-57182000D01*
X23483285Y-57324857D01*
X23411857Y-57467714D01*
X23340428Y-57753428D01*
X23340428Y-57967714D01*
X23411857Y-58253428D01*
X23483285Y-58396285D01*
X23626142Y-58539142D01*
X23840428Y-58610571D01*
X24197571Y-58610571D01*
X22697571Y-58610571D02*
X22697571Y-57110571D01*
X21697571Y-57110571D02*
X21411857Y-57110571D01*
X21269000Y-57182000D01*
X21126142Y-57324857D01*
X21054714Y-57610571D01*
X21054714Y-58110571D01*
X21126142Y-58396285D01*
X21269000Y-58539142D01*
X21411857Y-58610571D01*
X21697571Y-58610571D01*
X21840428Y-58539142D01*
X21983285Y-58396285D01*
X22054714Y-58110571D01*
X22054714Y-57610571D01*
X21983285Y-57324857D01*
X21840428Y-57182000D01*
X21697571Y-57110571D01*
X29269000Y-61089142D02*
X29054714Y-61160571D01*
X28697571Y-61160571D01*
X28554714Y-61089142D01*
X28483285Y-61017714D01*
X28411857Y-60874857D01*
X28411857Y-60732000D01*
X28483285Y-60589142D01*
X28554714Y-60517714D01*
X28697571Y-60446285D01*
X28983285Y-60374857D01*
X29126142Y-60303428D01*
X29197571Y-60232000D01*
X29269000Y-60089142D01*
X29269000Y-59946285D01*
X29197571Y-59803428D01*
X29126142Y-59732000D01*
X28983285Y-59660571D01*
X28626142Y-59660571D01*
X28411857Y-59732000D01*
X27269000Y-60374857D02*
X27054714Y-60446285D01*
X26983285Y-60517714D01*
X26911857Y-60660571D01*
X26911857Y-60874857D01*
X26983285Y-61017714D01*
X27054714Y-61089142D01*
X27197571Y-61160571D01*
X27769000Y-61160571D01*
X27769000Y-59660571D01*
X27269000Y-59660571D01*
X27126142Y-59732000D01*
X27054714Y-59803428D01*
X26983285Y-59946285D01*
X26983285Y-60089142D01*
X27054714Y-60232000D01*
X27126142Y-60303428D01*
X27269000Y-60374857D01*
X27769000Y-60374857D01*
X26411857Y-59660571D02*
X26054714Y-61160571D01*
X25769000Y-60089142D01*
X25483285Y-61160571D01*
X25126142Y-59660571D01*
X24769000Y-59660571D02*
X23911857Y-59660571D01*
X24340428Y-61160571D02*
X24340428Y-59660571D01*
X22554714Y-61017714D02*
X22626142Y-61089142D01*
X22840428Y-61160571D01*
X22983285Y-61160571D01*
X23197571Y-61089142D01*
X23340428Y-60946285D01*
X23411857Y-60803428D01*
X23483285Y-60517714D01*
X23483285Y-60303428D01*
X23411857Y-60017714D01*
X23340428Y-59874857D01*
X23197571Y-59732000D01*
X22983285Y-59660571D01*
X22840428Y-59660571D01*
X22626142Y-59732000D01*
X22554714Y-59803428D01*
X21911857Y-61160571D02*
X21911857Y-59660571D01*
X21054714Y-61160571D02*
X21697571Y-60303428D01*
X21054714Y-59660571D02*
X21911857Y-60517714D01*
M02*
