%TF.GenerationSoftware,KiCad,Pcbnew,(5.1.9)-1*%
%TF.CreationDate,2021-05-20T13:27:56+02:00*%
%TF.ProjectId,PEE50-CurrentProtectionTemplate,50454535-302d-4437-9572-72656e745072,rev?*%
%TF.SameCoordinates,Original*%
%TF.FileFunction,Legend,Top*%
%TF.FilePolarity,Positive*%
%FSLAX46Y46*%
G04 Gerber Fmt 4.6, Leading zero omitted, Abs format (unit mm)*
G04 Created by KiCad (PCBNEW (5.1.9)-1) date 2021-05-20 13:27:56*
%MOMM*%
%LPD*%
G01*
G04 APERTURE LIST*
%ADD10C,0.120000*%
%ADD11C,0.320000*%
%ADD12C,0.152400*%
%ADD13C,0.150000*%
%ADD14C,0.100000*%
G04 APERTURE END LIST*
D10*
%TO.C,R5*%
X72190000Y-36910000D02*
X72190000Y-51490000D01*
X75410000Y-36910000D02*
X75410000Y-51490000D01*
X66190000Y-36910000D02*
X66190000Y-51490000D01*
X69410000Y-36910000D02*
X69410000Y-51490000D01*
%TO.C,Q1*%
X72410000Y-19730000D02*
X72410000Y-18400000D01*
X74700000Y-19730000D02*
X74700000Y-18400000D01*
X76990000Y-19730000D02*
X76990000Y-18400000D01*
X71290000Y-26970000D02*
X71290000Y-19730000D01*
X78110000Y-26970000D02*
X78110000Y-19730000D01*
X71699000Y-26970000D02*
X71290000Y-26970000D01*
X78110000Y-26970000D02*
X77701000Y-26970000D01*
X78110000Y-19730000D02*
X71290000Y-19730000D01*
D11*
%TO.C,U2*%
X50841421Y-33500000D02*
G75*
G03*
X50841421Y-33500000I-141421J0D01*
G01*
D12*
X55974900Y-33870800D02*
X51225100Y-33870800D01*
X51225100Y-43929200D02*
X55974900Y-43929200D01*
D10*
%TO.C,R4*%
X56172936Y-31110000D02*
X57627064Y-31110000D01*
X56172936Y-29290000D02*
X57627064Y-29290000D01*
%TO.C,C14*%
X56188748Y-31690000D02*
X57611252Y-31690000D01*
X56188748Y-33510000D02*
X57611252Y-33510000D01*
%TO.C,Y2*%
X26550000Y-33900000D02*
X26550000Y-46500000D01*
X26550000Y-46500000D02*
X31650000Y-46500000D01*
X31650000Y-46500000D02*
X31650000Y-33900000D01*
%TO.C,J3*%
X48700000Y-22020000D02*
G75*
G03*
X48700000Y-18500000I0J1760000D01*
G01*
X35100000Y-18500000D02*
G75*
G03*
X35100000Y-22020000I0J-1760000D01*
G01*
X48700000Y-22020000D02*
X46810000Y-22020000D01*
X48700000Y-18500000D02*
X46810000Y-18500000D01*
X35100000Y-22020000D02*
X36990000Y-22020000D01*
X35100000Y-18500000D02*
X36990000Y-18500000D01*
X41900000Y-27660000D02*
X46810000Y-27660000D01*
X46810000Y-27660000D02*
X46810000Y-17840000D01*
X46810000Y-17840000D02*
X43710000Y-17840000D01*
X43710000Y-17840000D02*
X43710000Y-16440000D01*
X43710000Y-16440000D02*
X41900000Y-16440000D01*
X41900000Y-27660000D02*
X36990000Y-27660000D01*
X36990000Y-27660000D02*
X36990000Y-17840000D01*
X36990000Y-17840000D02*
X40090000Y-17840000D01*
X40090000Y-17840000D02*
X40090000Y-16440000D01*
X40090000Y-16440000D02*
X41900000Y-16440000D01*
X44200000Y-27900000D02*
X47050000Y-27900000D01*
X47050000Y-27900000D02*
X47050000Y-25050000D01*
%TO.C,J5*%
X20370000Y-61670000D02*
X19100000Y-61670000D01*
X20370000Y-60400000D02*
X20370000Y-61670000D01*
X18057071Y-44780000D02*
X17660000Y-44780000D01*
X18057071Y-45540000D02*
X17660000Y-45540000D01*
X9000000Y-44780000D02*
X15000000Y-44780000D01*
X9000000Y-45540000D02*
X9000000Y-44780000D01*
X15000000Y-45540000D02*
X9000000Y-45540000D01*
X17660000Y-46430000D02*
X15000000Y-46430000D01*
X18057071Y-47320000D02*
X17660000Y-47320000D01*
X18057071Y-48080000D02*
X17660000Y-48080000D01*
X9000000Y-47320000D02*
X15000000Y-47320000D01*
X9000000Y-48080000D02*
X9000000Y-47320000D01*
X15000000Y-48080000D02*
X9000000Y-48080000D01*
X17660000Y-48970000D02*
X15000000Y-48970000D01*
X18057071Y-49860000D02*
X17660000Y-49860000D01*
X18057071Y-50620000D02*
X17660000Y-50620000D01*
X9000000Y-49860000D02*
X15000000Y-49860000D01*
X9000000Y-50620000D02*
X9000000Y-49860000D01*
X15000000Y-50620000D02*
X9000000Y-50620000D01*
X17660000Y-51510000D02*
X15000000Y-51510000D01*
X18057071Y-52400000D02*
X17660000Y-52400000D01*
X18057071Y-53160000D02*
X17660000Y-53160000D01*
X9000000Y-52400000D02*
X15000000Y-52400000D01*
X9000000Y-53160000D02*
X9000000Y-52400000D01*
X15000000Y-53160000D02*
X9000000Y-53160000D01*
X17660000Y-54050000D02*
X15000000Y-54050000D01*
X18057071Y-54940000D02*
X17660000Y-54940000D01*
X18057071Y-55700000D02*
X17660000Y-55700000D01*
X9000000Y-54940000D02*
X15000000Y-54940000D01*
X9000000Y-55700000D02*
X9000000Y-54940000D01*
X15000000Y-55700000D02*
X9000000Y-55700000D01*
X17660000Y-56590000D02*
X15000000Y-56590000D01*
X18057071Y-57480000D02*
X17660000Y-57480000D01*
X18057071Y-58240000D02*
X17660000Y-58240000D01*
X9000000Y-57480000D02*
X15000000Y-57480000D01*
X9000000Y-58240000D02*
X9000000Y-57480000D01*
X15000000Y-58240000D02*
X9000000Y-58240000D01*
X17660000Y-59130000D02*
X15000000Y-59130000D01*
X17990000Y-60020000D02*
X17660000Y-60020000D01*
X17990000Y-60780000D02*
X17660000Y-60780000D01*
X15000000Y-60120000D02*
X9000000Y-60120000D01*
X15000000Y-60240000D02*
X9000000Y-60240000D01*
X15000000Y-60360000D02*
X9000000Y-60360000D01*
X15000000Y-60480000D02*
X9000000Y-60480000D01*
X15000000Y-60600000D02*
X9000000Y-60600000D01*
X15000000Y-60720000D02*
X9000000Y-60720000D01*
X9000000Y-60020000D02*
X15000000Y-60020000D01*
X9000000Y-60780000D02*
X9000000Y-60020000D01*
X15000000Y-60780000D02*
X9000000Y-60780000D01*
X15000000Y-61730000D02*
X17660000Y-61730000D01*
X15000000Y-43830000D02*
X15000000Y-61730000D01*
X17660000Y-43830000D02*
X15000000Y-43830000D01*
X17660000Y-61730000D02*
X17660000Y-43830000D01*
%TO.C,J4*%
X22230000Y-38830000D02*
X20900000Y-38830000D01*
X22230000Y-37500000D02*
X22230000Y-38830000D01*
X22230000Y-36230000D02*
X19570000Y-36230000D01*
X19570000Y-36230000D02*
X19570000Y-28550000D01*
X22230000Y-36230000D02*
X22230000Y-28550000D01*
X22230000Y-28550000D02*
X19570000Y-28550000D01*
D12*
%TO.C,R2*%
X57885300Y-25623140D02*
X57885300Y-26176860D01*
X64514700Y-26176860D02*
X64514700Y-25623140D01*
D10*
%TO.C,Y1*%
X47600000Y-39800000D02*
X47600000Y-42650000D01*
X47600000Y-42650000D02*
X49200000Y-42650000D01*
X49200000Y-42650000D02*
X49200000Y-39800000D01*
%TO.C,U5*%
X29590000Y-25500000D02*
X29590000Y-28450000D01*
X32810000Y-27300000D02*
X32810000Y-25500000D01*
%TO.C,U4*%
X33840000Y-31760000D02*
X32025000Y-31760000D01*
X33840000Y-31515000D02*
X33840000Y-31760000D01*
X37700000Y-31515000D02*
X33840000Y-31515000D01*
X41560000Y-31515000D02*
X41560000Y-31760000D01*
X37700000Y-31515000D02*
X41560000Y-31515000D01*
X33840000Y-43285000D02*
X33840000Y-43040000D01*
X37700000Y-43285000D02*
X33840000Y-43285000D01*
X41560000Y-43285000D02*
X41560000Y-43040000D01*
X37700000Y-43285000D02*
X41560000Y-43285000D01*
D12*
%TO.C,U3*%
X65074400Y-24896700D02*
X65074400Y-26903300D01*
X68325600Y-26903300D02*
X68325600Y-24896700D01*
%TO.C,U1*%
X53103300Y-25949000D02*
X51096700Y-25949000D01*
X53103300Y-27988620D02*
X53103300Y-27211380D01*
X51096700Y-29251000D02*
X53103300Y-29251000D01*
D10*
%TO.C,TP7*%
X28600000Y-31100000D02*
G75*
G03*
X28600000Y-31100000I-1500000J0D01*
G01*
%TO.C,TP6*%
X36300000Y-27600000D02*
G75*
G03*
X36300000Y-27600000I-1500000J0D01*
G01*
%TO.C,TP4*%
X54800000Y-46100000D02*
G75*
G03*
X54800000Y-46100000I-1500000J0D01*
G01*
%TO.C,TP3*%
X51100000Y-46100000D02*
G75*
G03*
X51100000Y-46100000I-1500000J0D01*
G01*
%TO.C,TP2*%
X62200000Y-46200000D02*
G75*
G03*
X62200000Y-46200000I-1500000J0D01*
G01*
%TO.C,TP1*%
X58500000Y-46200000D02*
G75*
G03*
X58500000Y-46200000I-1500000J0D01*
G01*
%TO.C,TP5*%
X37200000Y-45300000D02*
G75*
G03*
X37200000Y-45300000I-1500000J0D01*
G01*
%TO.C,SW1*%
X26600000Y-49300000D02*
X26600000Y-53800000D01*
X30600000Y-48050000D02*
X29100000Y-48050000D01*
X33100000Y-53800000D02*
X33100000Y-49300000D01*
X29100000Y-55050000D02*
X30600000Y-55050000D01*
%TO.C,R3*%
X15490000Y-24272936D02*
X15490000Y-25727064D01*
X17310000Y-24272936D02*
X17310000Y-25727064D01*
%TO.C,R1*%
X21290000Y-53772936D02*
X21290000Y-55227064D01*
X23110000Y-53772936D02*
X23110000Y-55227064D01*
%TO.C,J2*%
X18215000Y-38813000D02*
X16885000Y-38813000D01*
X18215000Y-37483000D02*
X18215000Y-38813000D01*
X18215000Y-36213000D02*
X15555000Y-36213000D01*
X15555000Y-36213000D02*
X15555000Y-28533000D01*
X18215000Y-36213000D02*
X18215000Y-28533000D01*
X18215000Y-28533000D02*
X15555000Y-28533000D01*
%TO.C,J1*%
X30700000Y-22020000D02*
G75*
G03*
X30700000Y-18500000I0J1760000D01*
G01*
X17100000Y-18500000D02*
G75*
G03*
X17100000Y-22020000I0J-1760000D01*
G01*
X30700000Y-22020000D02*
X28810000Y-22020000D01*
X30700000Y-18500000D02*
X28810000Y-18500000D01*
X17100000Y-22020000D02*
X18990000Y-22020000D01*
X17100000Y-18500000D02*
X18990000Y-18500000D01*
X23900000Y-27660000D02*
X28810000Y-27660000D01*
X28810000Y-27660000D02*
X28810000Y-17840000D01*
X28810000Y-17840000D02*
X25710000Y-17840000D01*
X25710000Y-17840000D02*
X25710000Y-16440000D01*
X25710000Y-16440000D02*
X23900000Y-16440000D01*
X23900000Y-27660000D02*
X18990000Y-27660000D01*
X18990000Y-27660000D02*
X18990000Y-17840000D01*
X18990000Y-17840000D02*
X22090000Y-17840000D01*
X22090000Y-17840000D02*
X22090000Y-16440000D01*
X22090000Y-16440000D02*
X23900000Y-16440000D01*
X26200000Y-27900000D02*
X29050000Y-27900000D01*
X29050000Y-27900000D02*
X29050000Y-25050000D01*
%TO.C,C13*%
X32011252Y-29190000D02*
X30588748Y-29190000D01*
X32011252Y-31010000D02*
X30588748Y-31010000D01*
%TO.C,C12*%
X21290000Y-46588748D02*
X21290000Y-48011252D01*
X23110000Y-46588748D02*
X23110000Y-48011252D01*
%TO.C,C11*%
X40388748Y-31110000D02*
X41811252Y-31110000D01*
X40388748Y-29290000D02*
X41811252Y-29290000D01*
%TO.C,C9*%
X26210000Y-37311252D02*
X26210000Y-35888748D01*
X24390000Y-37311252D02*
X24390000Y-35888748D01*
%TO.C,C10*%
X70610000Y-26711252D02*
X70610000Y-25288748D01*
X68790000Y-26711252D02*
X68790000Y-25288748D01*
%TO.C,C7*%
X26210000Y-43811252D02*
X26210000Y-42388748D01*
X24390000Y-43811252D02*
X24390000Y-42388748D01*
%TO.C,C8*%
X67311252Y-21590000D02*
X65888748Y-21590000D01*
X67311252Y-23410000D02*
X65888748Y-23410000D01*
%TO.C,C6*%
X46810000Y-38811252D02*
X46810000Y-37388748D01*
X44990000Y-38811252D02*
X44990000Y-37388748D01*
%TO.C,C5*%
X45390000Y-42388748D02*
X45390000Y-43811252D01*
X47210000Y-42388748D02*
X47210000Y-43811252D01*
%TO.C,C4*%
X51588748Y-25410000D02*
X53011252Y-25410000D01*
X51588748Y-23590000D02*
X53011252Y-23590000D01*
%TO.C,C3*%
X52911252Y-29790000D02*
X51488748Y-29790000D01*
X52911252Y-31610000D02*
X51488748Y-31610000D01*
%TO.C,C1*%
X49210000Y-37311252D02*
X49210000Y-35888748D01*
X47390000Y-37311252D02*
X47390000Y-35888748D01*
%TO.C,C2*%
X49710000Y-27811252D02*
X49710000Y-26388748D01*
X47890000Y-27811252D02*
X47890000Y-26388748D01*
%TO.C,R5*%
D13*
X70633333Y-32802380D02*
X70300000Y-32326190D01*
X70061904Y-32802380D02*
X70061904Y-31802380D01*
X70442857Y-31802380D01*
X70538095Y-31850000D01*
X70585714Y-31897619D01*
X70633333Y-31992857D01*
X70633333Y-32135714D01*
X70585714Y-32230952D01*
X70538095Y-32278571D01*
X70442857Y-32326190D01*
X70061904Y-32326190D01*
X71538095Y-31802380D02*
X71061904Y-31802380D01*
X71014285Y-32278571D01*
X71061904Y-32230952D01*
X71157142Y-32183333D01*
X71395238Y-32183333D01*
X71490476Y-32230952D01*
X71538095Y-32278571D01*
X71585714Y-32373809D01*
X71585714Y-32611904D01*
X71538095Y-32707142D01*
X71490476Y-32754761D01*
X71395238Y-32802380D01*
X71157142Y-32802380D01*
X71061904Y-32754761D01*
X71014285Y-32707142D01*
%TO.C,Q1*%
X74604761Y-29550952D02*
X74509523Y-29503333D01*
X74414285Y-29408094D01*
X74271428Y-29265237D01*
X74176190Y-29217618D01*
X74080952Y-29217618D01*
X74128571Y-29455713D02*
X74033333Y-29408094D01*
X73938095Y-29312856D01*
X73890476Y-29122380D01*
X73890476Y-28789047D01*
X73938095Y-28598571D01*
X74033333Y-28503333D01*
X74128571Y-28455713D01*
X74319047Y-28455713D01*
X74414285Y-28503333D01*
X74509523Y-28598571D01*
X74557142Y-28789047D01*
X74557142Y-29122380D01*
X74509523Y-29312856D01*
X74414285Y-29408094D01*
X74319047Y-29455713D01*
X74128571Y-29455713D01*
X75509523Y-29455713D02*
X74938095Y-29455713D01*
X75223809Y-29455713D02*
X75223809Y-28455713D01*
X75128571Y-28598571D01*
X75033333Y-28693809D01*
X74938095Y-28741428D01*
%TO.C,U2*%
X54438095Y-44252380D02*
X54438095Y-45061904D01*
X54485714Y-45157142D01*
X54533333Y-45204761D01*
X54628571Y-45252380D01*
X54819047Y-45252380D01*
X54914285Y-45204761D01*
X54961904Y-45157142D01*
X55009523Y-45061904D01*
X55009523Y-44252380D01*
X55438095Y-44347619D02*
X55485714Y-44300000D01*
X55580952Y-44252380D01*
X55819047Y-44252380D01*
X55914285Y-44300000D01*
X55961904Y-44347619D01*
X56009523Y-44442857D01*
X56009523Y-44538095D01*
X55961904Y-44680952D01*
X55390476Y-45252380D01*
X56009523Y-45252380D01*
D14*
X58539285Y-44300000D02*
X57789285Y-44300000D01*
X58325000Y-44050000D01*
X57789285Y-43800000D01*
X58539285Y-43800000D01*
X58503571Y-43478571D02*
X58539285Y-43371428D01*
X58539285Y-43192857D01*
X58503571Y-43121428D01*
X58467857Y-43085714D01*
X58396428Y-43050000D01*
X58325000Y-43050000D01*
X58253571Y-43085714D01*
X58217857Y-43121428D01*
X58182142Y-43192857D01*
X58146428Y-43335714D01*
X58110714Y-43407142D01*
X58075000Y-43442857D01*
X58003571Y-43478571D01*
X57932142Y-43478571D01*
X57860714Y-43442857D01*
X57825000Y-43407142D01*
X57789285Y-43335714D01*
X57789285Y-43157142D01*
X57825000Y-43050000D01*
X58539285Y-42728571D02*
X57789285Y-42728571D01*
X57789285Y-42442857D01*
X57825000Y-42371428D01*
X57860714Y-42335714D01*
X57932142Y-42300000D01*
X58039285Y-42300000D01*
X58110714Y-42335714D01*
X58146428Y-42371428D01*
X58182142Y-42442857D01*
X58182142Y-42728571D01*
X58039285Y-41657142D02*
X58539285Y-41657142D01*
X57753571Y-41835714D02*
X58289285Y-42014285D01*
X58289285Y-41550000D01*
X57789285Y-41335714D02*
X57789285Y-40871428D01*
X58075000Y-41121428D01*
X58075000Y-41014285D01*
X58110714Y-40942857D01*
X58146428Y-40907142D01*
X58217857Y-40871428D01*
X58396428Y-40871428D01*
X58467857Y-40907142D01*
X58503571Y-40942857D01*
X58539285Y-41014285D01*
X58539285Y-41228571D01*
X58503571Y-41300000D01*
X58467857Y-41335714D01*
X57789285Y-40407142D02*
X57789285Y-40335714D01*
X57825000Y-40264285D01*
X57860714Y-40228571D01*
X57932142Y-40192857D01*
X58075000Y-40157142D01*
X58253571Y-40157142D01*
X58396428Y-40192857D01*
X58467857Y-40228571D01*
X58503571Y-40264285D01*
X58539285Y-40335714D01*
X58539285Y-40407142D01*
X58503571Y-40478571D01*
X58467857Y-40514285D01*
X58396428Y-40550000D01*
X58253571Y-40585714D01*
X58075000Y-40585714D01*
X57932142Y-40550000D01*
X57860714Y-40514285D01*
X57825000Y-40478571D01*
X57789285Y-40407142D01*
X58146428Y-39585714D02*
X58146428Y-39835714D01*
X58539285Y-39835714D02*
X57789285Y-39835714D01*
X57789285Y-39478571D01*
X58539285Y-38764285D02*
X58182142Y-39014285D01*
X58539285Y-39192857D02*
X57789285Y-39192857D01*
X57789285Y-38907142D01*
X57825000Y-38835714D01*
X57860714Y-38800000D01*
X57932142Y-38764285D01*
X58039285Y-38764285D01*
X58110714Y-38800000D01*
X58146428Y-38835714D01*
X58182142Y-38907142D01*
X58182142Y-39192857D01*
X57860714Y-38478571D02*
X57825000Y-38442857D01*
X57789285Y-38371428D01*
X57789285Y-38192857D01*
X57825000Y-38121428D01*
X57860714Y-38085714D01*
X57932142Y-38050000D01*
X58003571Y-38050000D01*
X58110714Y-38085714D01*
X58539285Y-38514285D01*
X58539285Y-38050000D01*
X57789285Y-37800000D02*
X57789285Y-37335714D01*
X58075000Y-37585714D01*
X58075000Y-37478571D01*
X58110714Y-37407142D01*
X58146428Y-37371428D01*
X58217857Y-37335714D01*
X58396428Y-37335714D01*
X58467857Y-37371428D01*
X58503571Y-37407142D01*
X58539285Y-37478571D01*
X58539285Y-37692857D01*
X58503571Y-37764285D01*
X58467857Y-37800000D01*
X57789285Y-36657142D02*
X57789285Y-37014285D01*
X58146428Y-37050000D01*
X58110714Y-37014285D01*
X58075000Y-36942857D01*
X58075000Y-36764285D01*
X58110714Y-36692857D01*
X58146428Y-36657142D01*
X58217857Y-36621428D01*
X58396428Y-36621428D01*
X58467857Y-36657142D01*
X58503571Y-36692857D01*
X58539285Y-36764285D01*
X58539285Y-36942857D01*
X58503571Y-37014285D01*
X58467857Y-37050000D01*
X57789285Y-36371428D02*
X57789285Y-35907142D01*
X58075000Y-36157142D01*
X58075000Y-36050000D01*
X58110714Y-35978571D01*
X58146428Y-35942857D01*
X58217857Y-35907142D01*
X58396428Y-35907142D01*
X58467857Y-35942857D01*
X58503571Y-35978571D01*
X58539285Y-36050000D01*
X58539285Y-36264285D01*
X58503571Y-36335714D01*
X58467857Y-36371428D01*
X57789285Y-35692857D02*
X57789285Y-35264285D01*
X58539285Y-35478571D02*
X57789285Y-35478571D01*
X58539285Y-35014285D02*
X57789285Y-35014285D01*
X57789285Y-34835714D01*
X57825000Y-34728571D01*
X57896428Y-34657142D01*
X57967857Y-34621428D01*
X58110714Y-34585714D01*
X58217857Y-34585714D01*
X58360714Y-34621428D01*
X58432142Y-34657142D01*
X58503571Y-34728571D01*
X58539285Y-34835714D01*
X58539285Y-35014285D01*
X58146428Y-34014285D02*
X58182142Y-33907142D01*
X58217857Y-33871428D01*
X58289285Y-33835714D01*
X58396428Y-33835714D01*
X58467857Y-33871428D01*
X58503571Y-33907142D01*
X58539285Y-33978571D01*
X58539285Y-34264285D01*
X57789285Y-34264285D01*
X57789285Y-34014285D01*
X57825000Y-33942857D01*
X57860714Y-33907142D01*
X57932142Y-33871428D01*
X58003571Y-33871428D01*
X58075000Y-33907142D01*
X58110714Y-33942857D01*
X58146428Y-34014285D01*
X58146428Y-34264285D01*
X57789285Y-33621428D02*
X57789285Y-33192857D01*
X58539285Y-33407142D02*
X57789285Y-33407142D01*
%TO.C,R4*%
D13*
X59933333Y-30652380D02*
X59600000Y-30176190D01*
X59361904Y-30652380D02*
X59361904Y-29652380D01*
X59742857Y-29652380D01*
X59838095Y-29700000D01*
X59885714Y-29747619D01*
X59933333Y-29842857D01*
X59933333Y-29985714D01*
X59885714Y-30080952D01*
X59838095Y-30128571D01*
X59742857Y-30176190D01*
X59361904Y-30176190D01*
X60790476Y-29985714D02*
X60790476Y-30652380D01*
X60552380Y-29604761D02*
X60314285Y-30319047D01*
X60933333Y-30319047D01*
%TO.C,C14*%
X60057142Y-32957142D02*
X60009523Y-33004761D01*
X59866666Y-33052380D01*
X59771428Y-33052380D01*
X59628571Y-33004761D01*
X59533333Y-32909523D01*
X59485714Y-32814285D01*
X59438095Y-32623809D01*
X59438095Y-32480952D01*
X59485714Y-32290476D01*
X59533333Y-32195238D01*
X59628571Y-32100000D01*
X59771428Y-32052380D01*
X59866666Y-32052380D01*
X60009523Y-32100000D01*
X60057142Y-32147619D01*
X61009523Y-33052380D02*
X60438095Y-33052380D01*
X60723809Y-33052380D02*
X60723809Y-32052380D01*
X60628571Y-32195238D01*
X60533333Y-32290476D01*
X60438095Y-32338095D01*
X61866666Y-32385714D02*
X61866666Y-33052380D01*
X61628571Y-32004761D02*
X61390476Y-32719047D01*
X62009523Y-32719047D01*
%TO.C,Y2*%
X25526190Y-40276190D02*
X26002380Y-40276190D01*
X25002380Y-40609523D02*
X25526190Y-40276190D01*
X25002380Y-39942857D01*
X25097619Y-39657142D02*
X25050000Y-39609523D01*
X25002380Y-39514285D01*
X25002380Y-39276190D01*
X25050000Y-39180952D01*
X25097619Y-39133333D01*
X25192857Y-39085714D01*
X25288095Y-39085714D01*
X25430952Y-39133333D01*
X26002380Y-39704761D01*
X26002380Y-39085714D01*
%TO.C,J3*%
X41566666Y-27952380D02*
X41566666Y-28666666D01*
X41519047Y-28809523D01*
X41423809Y-28904761D01*
X41280952Y-28952380D01*
X41185714Y-28952380D01*
X41947619Y-27952380D02*
X42566666Y-27952380D01*
X42233333Y-28333333D01*
X42376190Y-28333333D01*
X42471428Y-28380952D01*
X42519047Y-28428571D01*
X42566666Y-28523809D01*
X42566666Y-28761904D01*
X42519047Y-28857142D01*
X42471428Y-28904761D01*
X42376190Y-28952380D01*
X42090476Y-28952380D01*
X41995238Y-28904761D01*
X41947619Y-28857142D01*
%TO.C,J5*%
X14381666Y-62122380D02*
X14381666Y-62836666D01*
X14334047Y-62979523D01*
X14238809Y-63074761D01*
X14095952Y-63122380D01*
X14000714Y-63122380D01*
X15334047Y-62122380D02*
X14857857Y-62122380D01*
X14810238Y-62598571D01*
X14857857Y-62550952D01*
X14953095Y-62503333D01*
X15191190Y-62503333D01*
X15286428Y-62550952D01*
X15334047Y-62598571D01*
X15381666Y-62693809D01*
X15381666Y-62931904D01*
X15334047Y-63027142D01*
X15286428Y-63074761D01*
X15191190Y-63122380D01*
X14953095Y-63122380D01*
X14857857Y-63074761D01*
X14810238Y-63027142D01*
%TO.C,J4*%
X20566666Y-39282380D02*
X20566666Y-39996666D01*
X20519047Y-40139523D01*
X20423809Y-40234761D01*
X20280952Y-40282380D01*
X20185714Y-40282380D01*
X21471428Y-39615714D02*
X21471428Y-40282380D01*
X21233333Y-39234761D02*
X20995238Y-39949047D01*
X21614285Y-39949047D01*
%TO.C,R2*%
X58333333Y-23652380D02*
X58000000Y-23176190D01*
X57761904Y-23652380D02*
X57761904Y-22652380D01*
X58142857Y-22652380D01*
X58238095Y-22700000D01*
X58285714Y-22747619D01*
X58333333Y-22842857D01*
X58333333Y-22985714D01*
X58285714Y-23080952D01*
X58238095Y-23128571D01*
X58142857Y-23176190D01*
X57761904Y-23176190D01*
X58714285Y-22747619D02*
X58761904Y-22700000D01*
X58857142Y-22652380D01*
X59095238Y-22652380D01*
X59190476Y-22700000D01*
X59238095Y-22747619D01*
X59285714Y-22842857D01*
X59285714Y-22938095D01*
X59238095Y-23080952D01*
X58666666Y-23652380D01*
X59285714Y-23652380D01*
X60600000Y-22652380D02*
X60695238Y-22652380D01*
X60790476Y-22700000D01*
X60838095Y-22747619D01*
X60885714Y-22842857D01*
X60933333Y-23033333D01*
X60933333Y-23271428D01*
X60885714Y-23461904D01*
X60838095Y-23557142D01*
X60790476Y-23604761D01*
X60695238Y-23652380D01*
X60600000Y-23652380D01*
X60504761Y-23604761D01*
X60457142Y-23557142D01*
X60409523Y-23461904D01*
X60361904Y-23271428D01*
X60361904Y-23033333D01*
X60409523Y-22842857D01*
X60457142Y-22747619D01*
X60504761Y-22700000D01*
X60600000Y-22652380D01*
X61933333Y-23652380D02*
X61600000Y-23176190D01*
X61361904Y-23652380D02*
X61361904Y-22652380D01*
X61742857Y-22652380D01*
X61838095Y-22700000D01*
X61885714Y-22747619D01*
X61933333Y-22842857D01*
X61933333Y-22985714D01*
X61885714Y-23080952D01*
X61838095Y-23128571D01*
X61742857Y-23176190D01*
X61361904Y-23176190D01*
X62552380Y-22652380D02*
X62647619Y-22652380D01*
X62742857Y-22700000D01*
X62790476Y-22747619D01*
X62838095Y-22842857D01*
X62885714Y-23033333D01*
X62885714Y-23271428D01*
X62838095Y-23461904D01*
X62790476Y-23557142D01*
X62742857Y-23604761D01*
X62647619Y-23652380D01*
X62552380Y-23652380D01*
X62457142Y-23604761D01*
X62409523Y-23557142D01*
X62361904Y-23461904D01*
X62314285Y-23271428D01*
X62314285Y-23033333D01*
X62361904Y-22842857D01*
X62409523Y-22747619D01*
X62457142Y-22700000D01*
X62552380Y-22652380D01*
X63838095Y-23652380D02*
X63266666Y-23652380D01*
X63552380Y-23652380D02*
X63552380Y-22652380D01*
X63457142Y-22795238D01*
X63361904Y-22890476D01*
X63266666Y-22938095D01*
%TO.C,Y1*%
X48476190Y-43976190D02*
X48952380Y-43976190D01*
X47952380Y-44309523D02*
X48476190Y-43976190D01*
X47952380Y-43642857D01*
X48952380Y-42785714D02*
X48952380Y-43357142D01*
X48952380Y-43071428D02*
X47952380Y-43071428D01*
X48095238Y-43166666D01*
X48190476Y-43261904D01*
X48238095Y-43357142D01*
%TO.C,U5*%
X29838095Y-22752380D02*
X29838095Y-23561904D01*
X29885714Y-23657142D01*
X29933333Y-23704761D01*
X30028571Y-23752380D01*
X30219047Y-23752380D01*
X30314285Y-23704761D01*
X30361904Y-23657142D01*
X30409523Y-23561904D01*
X30409523Y-22752380D01*
X31361904Y-22752380D02*
X30885714Y-22752380D01*
X30838095Y-23228571D01*
X30885714Y-23180952D01*
X30980952Y-23133333D01*
X31219047Y-23133333D01*
X31314285Y-23180952D01*
X31361904Y-23228571D01*
X31409523Y-23323809D01*
X31409523Y-23561904D01*
X31361904Y-23657142D01*
X31314285Y-23704761D01*
X31219047Y-23752380D01*
X30980952Y-23752380D01*
X30885714Y-23704761D01*
X30838095Y-23657142D01*
%TO.C,U4*%
X36938095Y-30132380D02*
X36938095Y-30941904D01*
X36985714Y-31037142D01*
X37033333Y-31084761D01*
X37128571Y-31132380D01*
X37319047Y-31132380D01*
X37414285Y-31084761D01*
X37461904Y-31037142D01*
X37509523Y-30941904D01*
X37509523Y-30132380D01*
X38414285Y-30465714D02*
X38414285Y-31132380D01*
X38176190Y-30084761D02*
X37938095Y-30799047D01*
X38557142Y-30799047D01*
%TO.C,U3*%
X65938095Y-28752380D02*
X65938095Y-29561904D01*
X65985714Y-29657142D01*
X66033333Y-29704761D01*
X66128571Y-29752380D01*
X66319047Y-29752380D01*
X66414285Y-29704761D01*
X66461904Y-29657142D01*
X66509523Y-29561904D01*
X66509523Y-28752380D01*
X66890476Y-28752380D02*
X67509523Y-28752380D01*
X67176190Y-29133333D01*
X67319047Y-29133333D01*
X67414285Y-29180952D01*
X67461904Y-29228571D01*
X67509523Y-29323809D01*
X67509523Y-29561904D01*
X67461904Y-29657142D01*
X67414285Y-29704761D01*
X67319047Y-29752380D01*
X67033333Y-29752380D01*
X66938095Y-29704761D01*
X66890476Y-29657142D01*
X72952380Y-31923809D02*
X71952380Y-31923809D01*
X72666666Y-31590476D01*
X71952380Y-31257142D01*
X72952380Y-31257142D01*
X72666666Y-30828571D02*
X72666666Y-30352380D01*
X72952380Y-30923809D02*
X71952380Y-30590476D01*
X72952380Y-30257142D01*
X71952380Y-30019047D02*
X72952380Y-29352380D01*
X71952380Y-29352380D02*
X72952380Y-30019047D01*
X72285714Y-28542857D02*
X72952380Y-28542857D01*
X71904761Y-28780952D02*
X72619047Y-29019047D01*
X72619047Y-28400000D01*
X72285714Y-27590476D02*
X72952380Y-27590476D01*
X71904761Y-27828571D02*
X72619047Y-28066666D01*
X72619047Y-27447619D01*
X72047619Y-27114285D02*
X72000000Y-27066666D01*
X71952380Y-26971428D01*
X71952380Y-26733333D01*
X72000000Y-26638095D01*
X72047619Y-26590476D01*
X72142857Y-26542857D01*
X72238095Y-26542857D01*
X72380952Y-26590476D01*
X72952380Y-27161904D01*
X72952380Y-26542857D01*
X72380952Y-25971428D02*
X72333333Y-26066666D01*
X72285714Y-26114285D01*
X72190476Y-26161904D01*
X72142857Y-26161904D01*
X72047619Y-26114285D01*
X72000000Y-26066666D01*
X71952380Y-25971428D01*
X71952380Y-25780952D01*
X72000000Y-25685714D01*
X72047619Y-25638095D01*
X72142857Y-25590476D01*
X72190476Y-25590476D01*
X72285714Y-25638095D01*
X72333333Y-25685714D01*
X72380952Y-25780952D01*
X72380952Y-25971428D01*
X72428571Y-26066666D01*
X72476190Y-26114285D01*
X72571428Y-26161904D01*
X72761904Y-26161904D01*
X72857142Y-26114285D01*
X72904761Y-26066666D01*
X72952380Y-25971428D01*
X72952380Y-25780952D01*
X72904761Y-25685714D01*
X72857142Y-25638095D01*
X72761904Y-25590476D01*
X72571428Y-25590476D01*
X72476190Y-25638095D01*
X72428571Y-25685714D01*
X72380952Y-25780952D01*
X72285714Y-24733333D02*
X72952380Y-24733333D01*
X71904761Y-24971428D02*
X72619047Y-25209523D01*
X72619047Y-24590476D01*
X72428571Y-24209523D02*
X72428571Y-23876190D01*
X72952380Y-23733333D02*
X72952380Y-24209523D01*
X71952380Y-24209523D01*
X71952380Y-23733333D01*
X72666666Y-23352380D02*
X72666666Y-22876190D01*
X72952380Y-23447619D02*
X71952380Y-23114285D01*
X72952380Y-22780952D01*
X71952380Y-22447619D02*
X72761904Y-22447619D01*
X72857142Y-22400000D01*
X72904761Y-22352380D01*
X72952380Y-22257142D01*
X72952380Y-22066666D01*
X72904761Y-21971428D01*
X72857142Y-21923809D01*
X72761904Y-21876190D01*
X71952380Y-21876190D01*
X71952380Y-21542857D02*
X71952380Y-20971428D01*
X72952380Y-21257142D02*
X71952380Y-21257142D01*
X72571428Y-20638095D02*
X72571428Y-19876190D01*
X72952380Y-20257142D02*
X72190476Y-20257142D01*
X67852380Y-24300000D02*
X68090476Y-24300000D01*
X67995238Y-24538095D02*
X68090476Y-24300000D01*
X67995238Y-24061904D01*
X68280952Y-24442857D02*
X68090476Y-24300000D01*
X68280952Y-24157142D01*
%TO.C,U1*%
X51552380Y-28361904D02*
X52361904Y-28361904D01*
X52457142Y-28314285D01*
X52504761Y-28266666D01*
X52552380Y-28171428D01*
X52552380Y-27980952D01*
X52504761Y-27885714D01*
X52457142Y-27838095D01*
X52361904Y-27790476D01*
X51552380Y-27790476D01*
X52552380Y-26790476D02*
X52552380Y-27361904D01*
X52552380Y-27076190D02*
X51552380Y-27076190D01*
X51695238Y-27171428D01*
X51790476Y-27266666D01*
X51838095Y-27361904D01*
D14*
X54789285Y-29100000D02*
X54789285Y-28671428D01*
X55539285Y-28885714D02*
X54789285Y-28885714D01*
X55539285Y-28421428D02*
X54789285Y-28421428D01*
X54789285Y-28135714D01*
X54825000Y-28064285D01*
X54860714Y-28028571D01*
X54932142Y-27992857D01*
X55039285Y-27992857D01*
X55110714Y-28028571D01*
X55146428Y-28064285D01*
X55182142Y-28135714D01*
X55182142Y-28421428D01*
X55503571Y-27707142D02*
X55539285Y-27600000D01*
X55539285Y-27421428D01*
X55503571Y-27350000D01*
X55467857Y-27314285D01*
X55396428Y-27278571D01*
X55325000Y-27278571D01*
X55253571Y-27314285D01*
X55217857Y-27350000D01*
X55182142Y-27421428D01*
X55146428Y-27564285D01*
X55110714Y-27635714D01*
X55075000Y-27671428D01*
X55003571Y-27707142D01*
X54932142Y-27707142D01*
X54860714Y-27671428D01*
X54825000Y-27635714D01*
X54789285Y-27564285D01*
X54789285Y-27385714D01*
X54825000Y-27278571D01*
X54789285Y-27028571D02*
X54789285Y-26528571D01*
X55539285Y-26850000D01*
X55325000Y-26278571D02*
X55325000Y-25921428D01*
X55539285Y-26350000D02*
X54789285Y-26100000D01*
X55539285Y-25850000D01*
X54860714Y-25635714D02*
X54825000Y-25600000D01*
X54789285Y-25528571D01*
X54789285Y-25350000D01*
X54825000Y-25278571D01*
X54860714Y-25242857D01*
X54932142Y-25207142D01*
X55003571Y-25207142D01*
X55110714Y-25242857D01*
X55539285Y-25671428D01*
X55539285Y-25207142D01*
X55039285Y-24564285D02*
X55539285Y-24564285D01*
X54753571Y-24742857D02*
X55289285Y-24921428D01*
X55289285Y-24457142D01*
X54789285Y-24242857D02*
X54789285Y-23778571D01*
X55075000Y-24028571D01*
X55075000Y-23921428D01*
X55110714Y-23850000D01*
X55146428Y-23814285D01*
X55217857Y-23778571D01*
X55396428Y-23778571D01*
X55467857Y-23814285D01*
X55503571Y-23850000D01*
X55539285Y-23921428D01*
X55539285Y-24135714D01*
X55503571Y-24207142D01*
X55467857Y-24242857D01*
X54789285Y-23528571D02*
X54789285Y-23064285D01*
X55075000Y-23314285D01*
X55075000Y-23207142D01*
X55110714Y-23135714D01*
X55146428Y-23100000D01*
X55217857Y-23064285D01*
X55396428Y-23064285D01*
X55467857Y-23100000D01*
X55503571Y-23135714D01*
X55539285Y-23207142D01*
X55539285Y-23421428D01*
X55503571Y-23492857D01*
X55467857Y-23528571D01*
X55539285Y-22742857D02*
X54789285Y-22742857D01*
X54789285Y-22564285D01*
X54825000Y-22457142D01*
X54896428Y-22385714D01*
X54967857Y-22350000D01*
X55110714Y-22314285D01*
X55217857Y-22314285D01*
X55360714Y-22350000D01*
X55432142Y-22385714D01*
X55503571Y-22457142D01*
X55539285Y-22564285D01*
X55539285Y-22742857D01*
X55146428Y-21742857D02*
X55182142Y-21635714D01*
X55217857Y-21600000D01*
X55289285Y-21564285D01*
X55396428Y-21564285D01*
X55467857Y-21600000D01*
X55503571Y-21635714D01*
X55539285Y-21707142D01*
X55539285Y-21992857D01*
X54789285Y-21992857D01*
X54789285Y-21742857D01*
X54825000Y-21671428D01*
X54860714Y-21635714D01*
X54932142Y-21600000D01*
X55003571Y-21600000D01*
X55075000Y-21635714D01*
X55110714Y-21671428D01*
X55146428Y-21742857D01*
X55146428Y-21992857D01*
X54789285Y-21350000D02*
X55539285Y-21100000D01*
X54789285Y-20850000D01*
X55539285Y-20171428D02*
X55182142Y-20421428D01*
X55539285Y-20600000D02*
X54789285Y-20600000D01*
X54789285Y-20314285D01*
X54825000Y-20242857D01*
X54860714Y-20207142D01*
X54932142Y-20171428D01*
X55039285Y-20171428D01*
X55110714Y-20207142D01*
X55146428Y-20242857D01*
X55182142Y-20314285D01*
X55182142Y-20600000D01*
D13*
X50500000Y-25452380D02*
X50500000Y-25690476D01*
X50261904Y-25595238D02*
X50500000Y-25690476D01*
X50738095Y-25595238D01*
X50357142Y-25880952D02*
X50500000Y-25690476D01*
X50642857Y-25880952D01*
%TO.C,TP7*%
X22638095Y-30752380D02*
X23209523Y-30752380D01*
X22923809Y-31752380D02*
X22923809Y-30752380D01*
X23542857Y-31752380D02*
X23542857Y-30752380D01*
X23923809Y-30752380D01*
X24019047Y-30800000D01*
X24066666Y-30847619D01*
X24114285Y-30942857D01*
X24114285Y-31085714D01*
X24066666Y-31180952D01*
X24019047Y-31228571D01*
X23923809Y-31276190D01*
X23542857Y-31276190D01*
X24447619Y-30752380D02*
X25114285Y-30752380D01*
X24685714Y-31752380D01*
X24485714Y-28252380D02*
X25057142Y-28252380D01*
X24771428Y-29252380D02*
X24771428Y-28252380D01*
X25295238Y-28252380D02*
X25961904Y-29252380D01*
X25961904Y-28252380D02*
X25295238Y-29252380D01*
X26914285Y-29157142D02*
X26866666Y-29204761D01*
X26723809Y-29252380D01*
X26628571Y-29252380D01*
X26485714Y-29204761D01*
X26390476Y-29109523D01*
X26342857Y-29014285D01*
X26295238Y-28823809D01*
X26295238Y-28680952D01*
X26342857Y-28490476D01*
X26390476Y-28395238D01*
X26485714Y-28300000D01*
X26628571Y-28252380D01*
X26723809Y-28252380D01*
X26866666Y-28300000D01*
X26914285Y-28347619D01*
X27295238Y-28966666D02*
X27771428Y-28966666D01*
X27200000Y-29252380D02*
X27533333Y-28252380D01*
X27866666Y-29252380D01*
X28200000Y-29252380D02*
X28200000Y-28252380D01*
X28771428Y-29252380D01*
X28771428Y-28252380D01*
%TO.C,TP6*%
X34038095Y-29352380D02*
X34609523Y-29352380D01*
X34323809Y-30352380D02*
X34323809Y-29352380D01*
X34942857Y-30352380D02*
X34942857Y-29352380D01*
X35323809Y-29352380D01*
X35419047Y-29400000D01*
X35466666Y-29447619D01*
X35514285Y-29542857D01*
X35514285Y-29685714D01*
X35466666Y-29780952D01*
X35419047Y-29828571D01*
X35323809Y-29876190D01*
X34942857Y-29876190D01*
X36371428Y-29352380D02*
X36180952Y-29352380D01*
X36085714Y-29400000D01*
X36038095Y-29447619D01*
X35942857Y-29590476D01*
X35895238Y-29780952D01*
X35895238Y-30161904D01*
X35942857Y-30257142D01*
X35990476Y-30304761D01*
X36085714Y-30352380D01*
X36276190Y-30352380D01*
X36371428Y-30304761D01*
X36419047Y-30257142D01*
X36466666Y-30161904D01*
X36466666Y-29923809D01*
X36419047Y-29828571D01*
X36371428Y-29780952D01*
X36276190Y-29733333D01*
X36085714Y-29733333D01*
X35990476Y-29780952D01*
X35942857Y-29828571D01*
X35895238Y-29923809D01*
X33685714Y-25739285D02*
X33435714Y-25382142D01*
X33257142Y-25739285D02*
X33257142Y-24989285D01*
X33542857Y-24989285D01*
X33614285Y-25025000D01*
X33650000Y-25060714D01*
X33685714Y-25132142D01*
X33685714Y-25239285D01*
X33650000Y-25310714D01*
X33614285Y-25346428D01*
X33542857Y-25382142D01*
X33257142Y-25382142D01*
X33935714Y-24989285D02*
X34435714Y-25739285D01*
X34435714Y-24989285D02*
X33935714Y-25739285D01*
X35150000Y-25667857D02*
X35114285Y-25703571D01*
X35007142Y-25739285D01*
X34935714Y-25739285D01*
X34828571Y-25703571D01*
X34757142Y-25632142D01*
X34721428Y-25560714D01*
X34685714Y-25417857D01*
X34685714Y-25310714D01*
X34721428Y-25167857D01*
X34757142Y-25096428D01*
X34828571Y-25025000D01*
X34935714Y-24989285D01*
X35007142Y-24989285D01*
X35114285Y-25025000D01*
X35150000Y-25060714D01*
X35435714Y-25525000D02*
X35792857Y-25525000D01*
X35364285Y-25739285D02*
X35614285Y-24989285D01*
X35864285Y-25739285D01*
X36114285Y-25739285D02*
X36114285Y-24989285D01*
X36542857Y-25739285D01*
X36542857Y-24989285D01*
%TO.C,TP4*%
X52738095Y-48052380D02*
X53309523Y-48052380D01*
X53023809Y-49052380D02*
X53023809Y-48052380D01*
X53642857Y-49052380D02*
X53642857Y-48052380D01*
X54023809Y-48052380D01*
X54119047Y-48100000D01*
X54166666Y-48147619D01*
X54214285Y-48242857D01*
X54214285Y-48385714D01*
X54166666Y-48480952D01*
X54119047Y-48528571D01*
X54023809Y-48576190D01*
X53642857Y-48576190D01*
X55071428Y-48385714D02*
X55071428Y-49052380D01*
X54833333Y-48004761D02*
X54595238Y-48719047D01*
X55214285Y-48719047D01*
%TO.C,TP3*%
X49038095Y-48052380D02*
X49609523Y-48052380D01*
X49323809Y-49052380D02*
X49323809Y-48052380D01*
X49942857Y-49052380D02*
X49942857Y-48052380D01*
X50323809Y-48052380D01*
X50419047Y-48100000D01*
X50466666Y-48147619D01*
X50514285Y-48242857D01*
X50514285Y-48385714D01*
X50466666Y-48480952D01*
X50419047Y-48528571D01*
X50323809Y-48576190D01*
X49942857Y-48576190D01*
X50847619Y-48052380D02*
X51466666Y-48052380D01*
X51133333Y-48433333D01*
X51276190Y-48433333D01*
X51371428Y-48480952D01*
X51419047Y-48528571D01*
X51466666Y-48623809D01*
X51466666Y-48861904D01*
X51419047Y-48957142D01*
X51371428Y-49004761D01*
X51276190Y-49052380D01*
X50990476Y-49052380D01*
X50895238Y-49004761D01*
X50847619Y-48957142D01*
%TO.C,TP2*%
X60138095Y-48152380D02*
X60709523Y-48152380D01*
X60423809Y-49152380D02*
X60423809Y-48152380D01*
X61042857Y-49152380D02*
X61042857Y-48152380D01*
X61423809Y-48152380D01*
X61519047Y-48200000D01*
X61566666Y-48247619D01*
X61614285Y-48342857D01*
X61614285Y-48485714D01*
X61566666Y-48580952D01*
X61519047Y-48628571D01*
X61423809Y-48676190D01*
X61042857Y-48676190D01*
X61995238Y-48247619D02*
X62042857Y-48200000D01*
X62138095Y-48152380D01*
X62376190Y-48152380D01*
X62471428Y-48200000D01*
X62519047Y-48247619D01*
X62566666Y-48342857D01*
X62566666Y-48438095D01*
X62519047Y-48580952D01*
X61947619Y-49152380D01*
X62566666Y-49152380D01*
%TO.C,TP1*%
X56438095Y-48152380D02*
X57009523Y-48152380D01*
X56723809Y-49152380D02*
X56723809Y-48152380D01*
X57342857Y-49152380D02*
X57342857Y-48152380D01*
X57723809Y-48152380D01*
X57819047Y-48200000D01*
X57866666Y-48247619D01*
X57914285Y-48342857D01*
X57914285Y-48485714D01*
X57866666Y-48580952D01*
X57819047Y-48628571D01*
X57723809Y-48676190D01*
X57342857Y-48676190D01*
X58866666Y-49152380D02*
X58295238Y-49152380D01*
X58580952Y-49152380D02*
X58580952Y-48152380D01*
X58485714Y-48295238D01*
X58390476Y-48390476D01*
X58295238Y-48438095D01*
%TO.C,TP5*%
X35138095Y-47252380D02*
X35709523Y-47252380D01*
X35423809Y-48252380D02*
X35423809Y-47252380D01*
X36042857Y-48252380D02*
X36042857Y-47252380D01*
X36423809Y-47252380D01*
X36519047Y-47300000D01*
X36566666Y-47347619D01*
X36614285Y-47442857D01*
X36614285Y-47585714D01*
X36566666Y-47680952D01*
X36519047Y-47728571D01*
X36423809Y-47776190D01*
X36042857Y-47776190D01*
X37519047Y-47252380D02*
X37042857Y-47252380D01*
X36995238Y-47728571D01*
X37042857Y-47680952D01*
X37138095Y-47633333D01*
X37376190Y-47633333D01*
X37471428Y-47680952D01*
X37519047Y-47728571D01*
X37566666Y-47823809D01*
X37566666Y-48061904D01*
X37519047Y-48157142D01*
X37471428Y-48204761D01*
X37376190Y-48252380D01*
X37138095Y-48252380D01*
X37042857Y-48204761D01*
X36995238Y-48157142D01*
X38376190Y-45757142D02*
X38328571Y-45804761D01*
X38185714Y-45852380D01*
X38090476Y-45852380D01*
X37947619Y-45804761D01*
X37852380Y-45709523D01*
X37804761Y-45614285D01*
X37757142Y-45423809D01*
X37757142Y-45280952D01*
X37804761Y-45090476D01*
X37852380Y-44995238D01*
X37947619Y-44900000D01*
X38090476Y-44852380D01*
X38185714Y-44852380D01*
X38328571Y-44900000D01*
X38376190Y-44947619D01*
X39280952Y-45852380D02*
X38804761Y-45852380D01*
X38804761Y-44852380D01*
X39614285Y-45852380D02*
X39614285Y-44852380D01*
X40185714Y-45852380D02*
X39757142Y-45280952D01*
X40185714Y-44852380D02*
X39614285Y-45423809D01*
X40804761Y-44852380D02*
X40995238Y-44852380D01*
X41090476Y-44900000D01*
X41185714Y-44995238D01*
X41233333Y-45185714D01*
X41233333Y-45519047D01*
X41185714Y-45709523D01*
X41090476Y-45804761D01*
X40995238Y-45852380D01*
X40804761Y-45852380D01*
X40709523Y-45804761D01*
X40614285Y-45709523D01*
X40566666Y-45519047D01*
X40566666Y-45185714D01*
X40614285Y-44995238D01*
X40709523Y-44900000D01*
X40804761Y-44852380D01*
X41661904Y-44852380D02*
X41661904Y-45661904D01*
X41709523Y-45757142D01*
X41757142Y-45804761D01*
X41852380Y-45852380D01*
X42042857Y-45852380D01*
X42138095Y-45804761D01*
X42185714Y-45757142D01*
X42233333Y-45661904D01*
X42233333Y-44852380D01*
X42566666Y-44852380D02*
X43138095Y-44852380D01*
X42852380Y-45852380D02*
X42852380Y-44852380D01*
%TO.C,SW1*%
X34504761Y-52883333D02*
X34552380Y-52740476D01*
X34552380Y-52502380D01*
X34504761Y-52407142D01*
X34457142Y-52359523D01*
X34361904Y-52311904D01*
X34266666Y-52311904D01*
X34171428Y-52359523D01*
X34123809Y-52407142D01*
X34076190Y-52502380D01*
X34028571Y-52692857D01*
X33980952Y-52788095D01*
X33933333Y-52835714D01*
X33838095Y-52883333D01*
X33742857Y-52883333D01*
X33647619Y-52835714D01*
X33600000Y-52788095D01*
X33552380Y-52692857D01*
X33552380Y-52454761D01*
X33600000Y-52311904D01*
X33552380Y-51978571D02*
X34552380Y-51740476D01*
X33838095Y-51550000D01*
X34552380Y-51359523D01*
X33552380Y-51121428D01*
X34552380Y-50216666D02*
X34552380Y-50788095D01*
X34552380Y-50502380D02*
X33552380Y-50502380D01*
X33695238Y-50597619D01*
X33790476Y-50692857D01*
X33838095Y-50788095D01*
%TO.C,R3*%
X18672380Y-25166666D02*
X18196190Y-25500000D01*
X18672380Y-25738095D02*
X17672380Y-25738095D01*
X17672380Y-25357142D01*
X17720000Y-25261904D01*
X17767619Y-25214285D01*
X17862857Y-25166666D01*
X18005714Y-25166666D01*
X18100952Y-25214285D01*
X18148571Y-25261904D01*
X18196190Y-25357142D01*
X18196190Y-25738095D01*
X17672380Y-24833333D02*
X17672380Y-24214285D01*
X18053333Y-24547619D01*
X18053333Y-24404761D01*
X18100952Y-24309523D01*
X18148571Y-24261904D01*
X18243809Y-24214285D01*
X18481904Y-24214285D01*
X18577142Y-24261904D01*
X18624761Y-24309523D01*
X18672380Y-24404761D01*
X18672380Y-24690476D01*
X18624761Y-24785714D01*
X18577142Y-24833333D01*
%TO.C,R1*%
X24472380Y-54666666D02*
X23996190Y-55000000D01*
X24472380Y-55238095D02*
X23472380Y-55238095D01*
X23472380Y-54857142D01*
X23520000Y-54761904D01*
X23567619Y-54714285D01*
X23662857Y-54666666D01*
X23805714Y-54666666D01*
X23900952Y-54714285D01*
X23948571Y-54761904D01*
X23996190Y-54857142D01*
X23996190Y-55238095D01*
X24472380Y-53714285D02*
X24472380Y-54285714D01*
X24472380Y-54000000D02*
X23472380Y-54000000D01*
X23615238Y-54095238D01*
X23710476Y-54190476D01*
X23758095Y-54285714D01*
%TO.C,J2*%
X16551666Y-39265380D02*
X16551666Y-39979666D01*
X16504047Y-40122523D01*
X16408809Y-40217761D01*
X16265952Y-40265380D01*
X16170714Y-40265380D01*
X16980238Y-39360619D02*
X17027857Y-39313000D01*
X17123095Y-39265380D01*
X17361190Y-39265380D01*
X17456428Y-39313000D01*
X17504047Y-39360619D01*
X17551666Y-39455857D01*
X17551666Y-39551095D01*
X17504047Y-39693952D01*
X16932619Y-40265380D01*
X17551666Y-40265380D01*
%TO.C,J1*%
X23166666Y-28152380D02*
X23166666Y-28866666D01*
X23119047Y-29009523D01*
X23023809Y-29104761D01*
X22880952Y-29152380D01*
X22785714Y-29152380D01*
X24166666Y-29152380D02*
X23595238Y-29152380D01*
X23880952Y-29152380D02*
X23880952Y-28152380D01*
X23785714Y-28295238D01*
X23690476Y-28390476D01*
X23595238Y-28438095D01*
%TO.C,C13*%
X29657142Y-32357142D02*
X29609523Y-32404761D01*
X29466666Y-32452380D01*
X29371428Y-32452380D01*
X29228571Y-32404761D01*
X29133333Y-32309523D01*
X29085714Y-32214285D01*
X29038095Y-32023809D01*
X29038095Y-31880952D01*
X29085714Y-31690476D01*
X29133333Y-31595238D01*
X29228571Y-31500000D01*
X29371428Y-31452380D01*
X29466666Y-31452380D01*
X29609523Y-31500000D01*
X29657142Y-31547619D01*
X30609523Y-32452380D02*
X30038095Y-32452380D01*
X30323809Y-32452380D02*
X30323809Y-31452380D01*
X30228571Y-31595238D01*
X30133333Y-31690476D01*
X30038095Y-31738095D01*
X30942857Y-31452380D02*
X31561904Y-31452380D01*
X31228571Y-31833333D01*
X31371428Y-31833333D01*
X31466666Y-31880952D01*
X31514285Y-31928571D01*
X31561904Y-32023809D01*
X31561904Y-32261904D01*
X31514285Y-32357142D01*
X31466666Y-32404761D01*
X31371428Y-32452380D01*
X31085714Y-32452380D01*
X30990476Y-32404761D01*
X30942857Y-32357142D01*
%TO.C,C12*%
X24757142Y-48342857D02*
X24804761Y-48390476D01*
X24852380Y-48533333D01*
X24852380Y-48628571D01*
X24804761Y-48771428D01*
X24709523Y-48866666D01*
X24614285Y-48914285D01*
X24423809Y-48961904D01*
X24280952Y-48961904D01*
X24090476Y-48914285D01*
X23995238Y-48866666D01*
X23900000Y-48771428D01*
X23852380Y-48628571D01*
X23852380Y-48533333D01*
X23900000Y-48390476D01*
X23947619Y-48342857D01*
X24852380Y-47390476D02*
X24852380Y-47961904D01*
X24852380Y-47676190D02*
X23852380Y-47676190D01*
X23995238Y-47771428D01*
X24090476Y-47866666D01*
X24138095Y-47961904D01*
X23947619Y-47009523D02*
X23900000Y-46961904D01*
X23852380Y-46866666D01*
X23852380Y-46628571D01*
X23900000Y-46533333D01*
X23947619Y-46485714D01*
X24042857Y-46438095D01*
X24138095Y-46438095D01*
X24280952Y-46485714D01*
X24852380Y-47057142D01*
X24852380Y-46438095D01*
%TO.C,C11*%
X44257142Y-30557142D02*
X44209523Y-30604761D01*
X44066666Y-30652380D01*
X43971428Y-30652380D01*
X43828571Y-30604761D01*
X43733333Y-30509523D01*
X43685714Y-30414285D01*
X43638095Y-30223809D01*
X43638095Y-30080952D01*
X43685714Y-29890476D01*
X43733333Y-29795238D01*
X43828571Y-29700000D01*
X43971428Y-29652380D01*
X44066666Y-29652380D01*
X44209523Y-29700000D01*
X44257142Y-29747619D01*
X45209523Y-30652380D02*
X44638095Y-30652380D01*
X44923809Y-30652380D02*
X44923809Y-29652380D01*
X44828571Y-29795238D01*
X44733333Y-29890476D01*
X44638095Y-29938095D01*
X46161904Y-30652380D02*
X45590476Y-30652380D01*
X45876190Y-30652380D02*
X45876190Y-29652380D01*
X45780952Y-29795238D01*
X45685714Y-29890476D01*
X45590476Y-29938095D01*
%TO.C,C9*%
X23807142Y-36766666D02*
X23854761Y-36814285D01*
X23902380Y-36957142D01*
X23902380Y-37052380D01*
X23854761Y-37195238D01*
X23759523Y-37290476D01*
X23664285Y-37338095D01*
X23473809Y-37385714D01*
X23330952Y-37385714D01*
X23140476Y-37338095D01*
X23045238Y-37290476D01*
X22950000Y-37195238D01*
X22902380Y-37052380D01*
X22902380Y-36957142D01*
X22950000Y-36814285D01*
X22997619Y-36766666D01*
X23902380Y-36290476D02*
X23902380Y-36100000D01*
X23854761Y-36004761D01*
X23807142Y-35957142D01*
X23664285Y-35861904D01*
X23473809Y-35814285D01*
X23092857Y-35814285D01*
X22997619Y-35861904D01*
X22950000Y-35909523D01*
X22902380Y-36004761D01*
X22902380Y-36195238D01*
X22950000Y-36290476D01*
X22997619Y-36338095D01*
X23092857Y-36385714D01*
X23330952Y-36385714D01*
X23426190Y-36338095D01*
X23473809Y-36290476D01*
X23521428Y-36195238D01*
X23521428Y-36004761D01*
X23473809Y-35909523D01*
X23426190Y-35861904D01*
X23330952Y-35814285D01*
%TO.C,C10*%
X69957142Y-30442857D02*
X70004761Y-30490476D01*
X70052380Y-30633333D01*
X70052380Y-30728571D01*
X70004761Y-30871428D01*
X69909523Y-30966666D01*
X69814285Y-31014285D01*
X69623809Y-31061904D01*
X69480952Y-31061904D01*
X69290476Y-31014285D01*
X69195238Y-30966666D01*
X69100000Y-30871428D01*
X69052380Y-30728571D01*
X69052380Y-30633333D01*
X69100000Y-30490476D01*
X69147619Y-30442857D01*
X70052380Y-29490476D02*
X70052380Y-30061904D01*
X70052380Y-29776190D02*
X69052380Y-29776190D01*
X69195238Y-29871428D01*
X69290476Y-29966666D01*
X69338095Y-30061904D01*
X69052380Y-28871428D02*
X69052380Y-28776190D01*
X69100000Y-28680952D01*
X69147619Y-28633333D01*
X69242857Y-28585714D01*
X69433333Y-28538095D01*
X69671428Y-28538095D01*
X69861904Y-28585714D01*
X69957142Y-28633333D01*
X70004761Y-28680952D01*
X70052380Y-28776190D01*
X70052380Y-28871428D01*
X70004761Y-28966666D01*
X69957142Y-29014285D01*
X69861904Y-29061904D01*
X69671428Y-29109523D01*
X69433333Y-29109523D01*
X69242857Y-29061904D01*
X69147619Y-29014285D01*
X69100000Y-28966666D01*
X69052380Y-28871428D01*
%TO.C,C7*%
X23807142Y-43266666D02*
X23854761Y-43314285D01*
X23902380Y-43457142D01*
X23902380Y-43552380D01*
X23854761Y-43695238D01*
X23759523Y-43790476D01*
X23664285Y-43838095D01*
X23473809Y-43885714D01*
X23330952Y-43885714D01*
X23140476Y-43838095D01*
X23045238Y-43790476D01*
X22950000Y-43695238D01*
X22902380Y-43552380D01*
X22902380Y-43457142D01*
X22950000Y-43314285D01*
X22997619Y-43266666D01*
X22902380Y-42933333D02*
X22902380Y-42266666D01*
X23902380Y-42695238D01*
%TO.C,C8*%
X69733333Y-22857142D02*
X69685714Y-22904761D01*
X69542857Y-22952380D01*
X69447619Y-22952380D01*
X69304761Y-22904761D01*
X69209523Y-22809523D01*
X69161904Y-22714285D01*
X69114285Y-22523809D01*
X69114285Y-22380952D01*
X69161904Y-22190476D01*
X69209523Y-22095238D01*
X69304761Y-22000000D01*
X69447619Y-21952380D01*
X69542857Y-21952380D01*
X69685714Y-22000000D01*
X69733333Y-22047619D01*
X70304761Y-22380952D02*
X70209523Y-22333333D01*
X70161904Y-22285714D01*
X70114285Y-22190476D01*
X70114285Y-22142857D01*
X70161904Y-22047619D01*
X70209523Y-22000000D01*
X70304761Y-21952380D01*
X70495238Y-21952380D01*
X70590476Y-22000000D01*
X70638095Y-22047619D01*
X70685714Y-22142857D01*
X70685714Y-22190476D01*
X70638095Y-22285714D01*
X70590476Y-22333333D01*
X70495238Y-22380952D01*
X70304761Y-22380952D01*
X70209523Y-22428571D01*
X70161904Y-22476190D01*
X70114285Y-22571428D01*
X70114285Y-22761904D01*
X70161904Y-22857142D01*
X70209523Y-22904761D01*
X70304761Y-22952380D01*
X70495238Y-22952380D01*
X70590476Y-22904761D01*
X70638095Y-22857142D01*
X70685714Y-22761904D01*
X70685714Y-22571428D01*
X70638095Y-22476190D01*
X70590476Y-22428571D01*
X70495238Y-22380952D01*
%TO.C,C6*%
X46257142Y-35066666D02*
X46304761Y-35114285D01*
X46352380Y-35257142D01*
X46352380Y-35352380D01*
X46304761Y-35495238D01*
X46209523Y-35590476D01*
X46114285Y-35638095D01*
X45923809Y-35685714D01*
X45780952Y-35685714D01*
X45590476Y-35638095D01*
X45495238Y-35590476D01*
X45400000Y-35495238D01*
X45352380Y-35352380D01*
X45352380Y-35257142D01*
X45400000Y-35114285D01*
X45447619Y-35066666D01*
X45352380Y-34209523D02*
X45352380Y-34400000D01*
X45400000Y-34495238D01*
X45447619Y-34542857D01*
X45590476Y-34638095D01*
X45780952Y-34685714D01*
X46161904Y-34685714D01*
X46257142Y-34638095D01*
X46304761Y-34590476D01*
X46352380Y-34495238D01*
X46352380Y-34304761D01*
X46304761Y-34209523D01*
X46257142Y-34161904D01*
X46161904Y-34114285D01*
X45923809Y-34114285D01*
X45828571Y-34161904D01*
X45780952Y-34209523D01*
X45733333Y-34304761D01*
X45733333Y-34495238D01*
X45780952Y-34590476D01*
X45828571Y-34638095D01*
X45923809Y-34685714D01*
%TO.C,C5*%
X44857142Y-43266666D02*
X44904761Y-43314285D01*
X44952380Y-43457142D01*
X44952380Y-43552380D01*
X44904761Y-43695238D01*
X44809523Y-43790476D01*
X44714285Y-43838095D01*
X44523809Y-43885714D01*
X44380952Y-43885714D01*
X44190476Y-43838095D01*
X44095238Y-43790476D01*
X44000000Y-43695238D01*
X43952380Y-43552380D01*
X43952380Y-43457142D01*
X44000000Y-43314285D01*
X44047619Y-43266666D01*
X43952380Y-42361904D02*
X43952380Y-42838095D01*
X44428571Y-42885714D01*
X44380952Y-42838095D01*
X44333333Y-42742857D01*
X44333333Y-42504761D01*
X44380952Y-42409523D01*
X44428571Y-42361904D01*
X44523809Y-42314285D01*
X44761904Y-42314285D01*
X44857142Y-42361904D01*
X44904761Y-42409523D01*
X44952380Y-42504761D01*
X44952380Y-42742857D01*
X44904761Y-42838095D01*
X44857142Y-42885714D01*
%TO.C,C4*%
X52133333Y-23007142D02*
X52085714Y-23054761D01*
X51942857Y-23102380D01*
X51847619Y-23102380D01*
X51704761Y-23054761D01*
X51609523Y-22959523D01*
X51561904Y-22864285D01*
X51514285Y-22673809D01*
X51514285Y-22530952D01*
X51561904Y-22340476D01*
X51609523Y-22245238D01*
X51704761Y-22150000D01*
X51847619Y-22102380D01*
X51942857Y-22102380D01*
X52085714Y-22150000D01*
X52133333Y-22197619D01*
X52990476Y-22435714D02*
X52990476Y-23102380D01*
X52752380Y-22054761D02*
X52514285Y-22769047D01*
X53133333Y-22769047D01*
%TO.C,C3*%
X52433333Y-32907142D02*
X52385714Y-32954761D01*
X52242857Y-33002380D01*
X52147619Y-33002380D01*
X52004761Y-32954761D01*
X51909523Y-32859523D01*
X51861904Y-32764285D01*
X51814285Y-32573809D01*
X51814285Y-32430952D01*
X51861904Y-32240476D01*
X51909523Y-32145238D01*
X52004761Y-32050000D01*
X52147619Y-32002380D01*
X52242857Y-32002380D01*
X52385714Y-32050000D01*
X52433333Y-32097619D01*
X52766666Y-32002380D02*
X53385714Y-32002380D01*
X53052380Y-32383333D01*
X53195238Y-32383333D01*
X53290476Y-32430952D01*
X53338095Y-32478571D01*
X53385714Y-32573809D01*
X53385714Y-32811904D01*
X53338095Y-32907142D01*
X53290476Y-32954761D01*
X53195238Y-33002380D01*
X52909523Y-33002380D01*
X52814285Y-32954761D01*
X52766666Y-32907142D01*
%TO.C,C1*%
X46807142Y-36766666D02*
X46854761Y-36814285D01*
X46902380Y-36957142D01*
X46902380Y-37052380D01*
X46854761Y-37195238D01*
X46759523Y-37290476D01*
X46664285Y-37338095D01*
X46473809Y-37385714D01*
X46330952Y-37385714D01*
X46140476Y-37338095D01*
X46045238Y-37290476D01*
X45950000Y-37195238D01*
X45902380Y-37052380D01*
X45902380Y-36957142D01*
X45950000Y-36814285D01*
X45997619Y-36766666D01*
X46902380Y-35814285D02*
X46902380Y-36385714D01*
X46902380Y-36100000D02*
X45902380Y-36100000D01*
X46045238Y-36195238D01*
X46140476Y-36290476D01*
X46188095Y-36385714D01*
%TO.C,C2*%
X49157142Y-23966666D02*
X49204761Y-24014285D01*
X49252380Y-24157142D01*
X49252380Y-24252380D01*
X49204761Y-24395238D01*
X49109523Y-24490476D01*
X49014285Y-24538095D01*
X48823809Y-24585714D01*
X48680952Y-24585714D01*
X48490476Y-24538095D01*
X48395238Y-24490476D01*
X48300000Y-24395238D01*
X48252380Y-24252380D01*
X48252380Y-24157142D01*
X48300000Y-24014285D01*
X48347619Y-23966666D01*
X48347619Y-23585714D02*
X48300000Y-23538095D01*
X48252380Y-23442857D01*
X48252380Y-23204761D01*
X48300000Y-23109523D01*
X48347619Y-23061904D01*
X48442857Y-23014285D01*
X48538095Y-23014285D01*
X48680952Y-23061904D01*
X49252380Y-23633333D01*
X49252380Y-23014285D01*
%TD*%
M02*
