G04 #@! TF.GenerationSoftware,KiCad,Pcbnew,(5.1.10)-1*
G04 #@! TF.CreationDate,2021-05-18T15:00:51+02:00*
G04 #@! TF.ProjectId,PEE50_MPPT,50454535-305f-44d5-9050-542e6b696361,rev?*
G04 #@! TF.SameCoordinates,Original*
G04 #@! TF.FileFunction,Copper,L1,Top*
G04 #@! TF.FilePolarity,Positive*
%FSLAX46Y46*%
G04 Gerber Fmt 4.6, Leading zero omitted, Abs format (unit mm)*
G04 Created by KiCad (PCBNEW (5.1.10)-1) date 2021-05-18 15:00:51*
%MOMM*%
%LPD*%
G01*
G04 APERTURE LIST*
G04 #@! TA.AperFunction,EtchedComponent*
%ADD10C,0.152400*%
G04 #@! TD*
G04 #@! TA.AperFunction,SMDPad,CuDef*
%ADD11C,0.306367*%
G04 #@! TD*
G04 #@! TA.AperFunction,SMDPad,CuDef*
%ADD12R,0.249999X0.599999*%
G04 #@! TD*
G04 #@! TA.AperFunction,SMDPad,CuDef*
%ADD13R,0.249999X0.725000*%
G04 #@! TD*
G04 #@! TA.AperFunction,SMDPad,CuDef*
%ADD14C,0.289687*%
G04 #@! TD*
G04 #@! TA.AperFunction,SMDPad,CuDef*
%ADD15R,0.625000X0.249999*%
G04 #@! TD*
G04 #@! TA.AperFunction,SMDPad,CuDef*
%ADD16C,0.258750*%
G04 #@! TD*
G04 #@! TA.AperFunction,SMDPad,CuDef*
%ADD17C,0.332306*%
G04 #@! TD*
G04 #@! TA.AperFunction,SMDPad,CuDef*
%ADD18R,0.675000X0.249999*%
G04 #@! TD*
G04 #@! TA.AperFunction,SMDPad,CuDef*
%ADD19R,0.599999X0.249999*%
G04 #@! TD*
G04 #@! TA.AperFunction,SMDPad,CuDef*
%ADD20R,1.425001X0.375001*%
G04 #@! TD*
G04 #@! TA.AperFunction,SMDPad,CuDef*
%ADD21R,0.354800X1.461999*%
G04 #@! TD*
G04 #@! TA.AperFunction,ComponentPad*
%ADD22O,1.700000X1.700000*%
G04 #@! TD*
G04 #@! TA.AperFunction,ComponentPad*
%ADD23R,1.700000X1.700000*%
G04 #@! TD*
G04 #@! TA.AperFunction,SMDPad,CuDef*
%ADD24R,1.404099X0.279400*%
G04 #@! TD*
G04 #@! TA.AperFunction,ComponentPad*
%ADD25O,2.080000X3.600000*%
G04 #@! TD*
G04 #@! TA.AperFunction,SMDPad,CuDef*
%ADD26R,5.283200X6.350000*%
G04 #@! TD*
G04 #@! TA.AperFunction,SMDPad,CuDef*
%ADD27R,5.588000X5.334000*%
G04 #@! TD*
G04 #@! TA.AperFunction,ComponentPad*
%ADD28R,1.050000X1.500000*%
G04 #@! TD*
G04 #@! TA.AperFunction,ComponentPad*
%ADD29O,1.050000X1.500000*%
G04 #@! TD*
G04 #@! TA.AperFunction,SMDPad,CuDef*
%ADD30R,0.508000X0.355600*%
G04 #@! TD*
G04 #@! TA.AperFunction,SMDPad,CuDef*
%ADD31R,4.570001X4.490001*%
G04 #@! TD*
G04 #@! TA.AperFunction,SMDPad,CuDef*
%ADD32R,0.509999X0.910001*%
G04 #@! TD*
G04 #@! TA.AperFunction,SMDPad,CuDef*
%ADD33R,2.510000X2.550000*%
G04 #@! TD*
G04 #@! TA.AperFunction,SMDPad,CuDef*
%ADD34R,0.700001X0.399999*%
G04 #@! TD*
G04 #@! TA.AperFunction,SMDPad,CuDef*
%ADD35R,0.977900X0.558800*%
G04 #@! TD*
G04 #@! TA.AperFunction,ViaPad*
%ADD36C,0.800000*%
G04 #@! TD*
G04 #@! TA.AperFunction,Conductor*
%ADD37C,0.250000*%
G04 #@! TD*
G04 #@! TA.AperFunction,Conductor*
%ADD38C,0.500000*%
G04 #@! TD*
G04 #@! TA.AperFunction,Conductor*
%ADD39C,0.200000*%
G04 #@! TD*
G04 #@! TA.AperFunction,Conductor*
%ADD40C,1.000000*%
G04 #@! TD*
G04 #@! TA.AperFunction,Conductor*
%ADD41C,2.000000*%
G04 #@! TD*
G04 #@! TA.AperFunction,Conductor*
%ADD42C,4.000000*%
G04 #@! TD*
G04 #@! TA.AperFunction,Conductor*
%ADD43C,3.000000*%
G04 #@! TD*
G04 APERTURE END LIST*
D10*
X40541800Y-74481800D02*
X40591800Y-74431800D01*
X40541800Y-75156800D02*
X40541800Y-74481800D01*
X40591800Y-75206800D02*
X40541800Y-75156800D01*
X41066798Y-75206800D02*
X40591800Y-75206800D01*
X41116798Y-75156800D02*
X41066798Y-75206800D01*
X41116800Y-74856801D02*
X41116798Y-75156800D01*
X41066798Y-74806801D02*
X41116800Y-74856801D01*
X40766798Y-74806801D02*
X41066798Y-74806801D01*
X40766798Y-74481800D02*
X40766798Y-74806801D01*
X40716798Y-74431800D02*
X40766798Y-74481800D01*
X40591800Y-74431800D02*
X40716798Y-74431800D01*
X40591800Y-78831799D02*
X40591800Y-78831802D01*
X40541798Y-78781802D02*
X40591800Y-78831799D01*
X40541798Y-78106802D02*
X40541798Y-78781802D01*
X40591800Y-78056802D02*
X40541798Y-78106802D01*
X41066798Y-78056799D02*
X40591800Y-78056802D01*
X41116798Y-78106802D02*
X41066798Y-78056799D01*
X41116800Y-78406801D02*
X41116798Y-78106802D01*
X41066798Y-78456801D02*
X41116800Y-78406801D01*
X40766798Y-78456801D02*
X41066798Y-78456801D01*
X40766798Y-78781802D02*
X40766798Y-78456801D01*
X40716798Y-78831802D02*
X40766798Y-78781802D01*
X40591800Y-78831802D02*
X40716798Y-78831802D01*
X37567800Y-74481800D02*
X37617798Y-74431800D01*
X37567798Y-74781802D02*
X37567800Y-74481800D01*
X37267798Y-74781802D02*
X37567798Y-74781802D01*
X37217799Y-74831802D02*
X37267798Y-74781802D01*
X37217799Y-75081802D02*
X37217799Y-74831802D01*
X37267798Y-75131801D02*
X37217799Y-75081802D01*
X37742799Y-75131801D02*
X37267798Y-75131801D01*
X37792799Y-75081802D02*
X37742799Y-75131801D01*
X37792799Y-74481800D02*
X37792799Y-75081802D01*
X37742799Y-74431800D02*
X37792799Y-74481800D01*
X37617798Y-74431800D02*
X37742799Y-74431800D01*
X37567800Y-78781802D02*
X37617798Y-78831802D01*
X37567798Y-78481800D02*
X37567800Y-78781802D01*
X37267798Y-78481800D02*
X37567798Y-78481800D01*
X37217799Y-78431800D02*
X37267798Y-78481800D01*
X37217799Y-78181800D02*
X37217799Y-78431800D01*
X37267798Y-78131801D02*
X37217799Y-78181800D01*
X37742799Y-78131801D02*
X37267798Y-78131801D01*
X37792799Y-78181800D02*
X37742799Y-78131801D01*
X37792801Y-78781802D02*
X37792799Y-78181800D01*
X37742799Y-78831802D02*
X37792801Y-78781802D01*
X37617798Y-78831802D02*
X37742799Y-78831802D01*
D11*
X40721487Y-74970862D03*
D12*
X40166800Y-74731802D03*
D13*
X39666798Y-74794301D03*
X39166799Y-74794301D03*
X38666800Y-74794301D03*
D12*
X38166798Y-74731802D03*
D14*
X37613111Y-74970862D03*
D15*
X37529299Y-75506802D03*
X37529299Y-76006801D03*
X37529299Y-76506800D03*
X37529299Y-77256801D03*
X37529299Y-77756800D03*
D16*
X37361550Y-78275552D03*
D12*
X38166798Y-78531800D03*
D13*
X38666800Y-78469301D03*
X39166799Y-78469301D03*
X39666798Y-78469301D03*
D12*
X40166800Y-78531800D03*
D17*
X40757423Y-78272425D03*
D18*
X40779300Y-77681801D03*
D19*
X40816798Y-76881801D03*
X40816798Y-76381801D03*
D18*
X40779300Y-75581801D03*
D20*
X39166799Y-76006801D03*
X39166799Y-76631801D03*
X39166799Y-77256801D03*
G04 #@! TA.AperFunction,SMDPad,CuDef*
G36*
G01*
X83048000Y-112218500D02*
X81798000Y-112218500D01*
G75*
G02*
X81548000Y-111968500I0J250000D01*
G01*
X81548000Y-111043500D01*
G75*
G02*
X81798000Y-110793500I250000J0D01*
G01*
X83048000Y-110793500D01*
G75*
G02*
X83298000Y-111043500I0J-250000D01*
G01*
X83298000Y-111968500D01*
G75*
G02*
X83048000Y-112218500I-250000J0D01*
G01*
G37*
G04 #@! TD.AperFunction*
G04 #@! TA.AperFunction,SMDPad,CuDef*
G36*
G01*
X83048000Y-109243500D02*
X81798000Y-109243500D01*
G75*
G02*
X81548000Y-108993500I0J250000D01*
G01*
X81548000Y-108068500D01*
G75*
G02*
X81798000Y-107818500I250000J0D01*
G01*
X83048000Y-107818500D01*
G75*
G02*
X83298000Y-108068500I0J-250000D01*
G01*
X83298000Y-108993500D01*
G75*
G02*
X83048000Y-109243500I-250000J0D01*
G01*
G37*
G04 #@! TD.AperFunction*
G04 #@! TA.AperFunction,SMDPad,CuDef*
G36*
G01*
X78889500Y-105336500D02*
X78889500Y-104086500D01*
G75*
G02*
X79139500Y-103836500I250000J0D01*
G01*
X80064500Y-103836500D01*
G75*
G02*
X80314500Y-104086500I0J-250000D01*
G01*
X80314500Y-105336500D01*
G75*
G02*
X80064500Y-105586500I-250000J0D01*
G01*
X79139500Y-105586500D01*
G75*
G02*
X78889500Y-105336500I0J250000D01*
G01*
G37*
G04 #@! TD.AperFunction*
G04 #@! TA.AperFunction,SMDPad,CuDef*
G36*
G01*
X81864500Y-105336500D02*
X81864500Y-104086500D01*
G75*
G02*
X82114500Y-103836500I250000J0D01*
G01*
X83039500Y-103836500D01*
G75*
G02*
X83289500Y-104086500I0J-250000D01*
G01*
X83289500Y-105336500D01*
G75*
G02*
X83039500Y-105586500I-250000J0D01*
G01*
X82114500Y-105586500D01*
G75*
G02*
X81864500Y-105336500I0J250000D01*
G01*
G37*
G04 #@! TD.AperFunction*
G04 #@! TA.AperFunction,SMDPad,CuDef*
G36*
G01*
X49587500Y-108475000D02*
X49587500Y-107225000D01*
G75*
G02*
X49837500Y-106975000I250000J0D01*
G01*
X50762500Y-106975000D01*
G75*
G02*
X51012500Y-107225000I0J-250000D01*
G01*
X51012500Y-108475000D01*
G75*
G02*
X50762500Y-108725000I-250000J0D01*
G01*
X49837500Y-108725000D01*
G75*
G02*
X49587500Y-108475000I0J250000D01*
G01*
G37*
G04 #@! TD.AperFunction*
G04 #@! TA.AperFunction,SMDPad,CuDef*
G36*
G01*
X46612500Y-108475000D02*
X46612500Y-107225000D01*
G75*
G02*
X46862500Y-106975000I250000J0D01*
G01*
X47787500Y-106975000D01*
G75*
G02*
X48037500Y-107225000I0J-250000D01*
G01*
X48037500Y-108475000D01*
G75*
G02*
X47787500Y-108725000I-250000J0D01*
G01*
X46862500Y-108725000D01*
G75*
G02*
X46612500Y-108475000I0J250000D01*
G01*
G37*
G04 #@! TD.AperFunction*
D21*
X77694500Y-110261400D03*
X77044499Y-110261400D03*
X76394500Y-110261400D03*
X75744499Y-110261400D03*
X75094501Y-110261400D03*
X74444499Y-110261400D03*
X73794501Y-110261400D03*
X73144499Y-110261400D03*
X72494501Y-110261400D03*
X71844499Y-110261400D03*
X71194501Y-110261400D03*
X70544500Y-110261400D03*
X69894501Y-110261400D03*
X69244500Y-110261400D03*
X69244502Y-104622600D03*
X69894501Y-104622600D03*
X70544502Y-104622600D03*
X71194501Y-104622600D03*
X71844502Y-104622600D03*
X72494501Y-104622600D03*
X73144502Y-104622600D03*
X73794501Y-104622600D03*
X74444499Y-104622600D03*
X75094501Y-104622600D03*
X75744499Y-104622600D03*
X76394500Y-104622600D03*
X77044499Y-104622600D03*
X77694500Y-104622600D03*
D22*
X53340000Y-96456500D03*
X53340000Y-98996500D03*
D23*
X53340000Y-101536500D03*
G04 #@! TA.AperFunction,SMDPad,CuDef*
G36*
G01*
X57604500Y-107718500D02*
X58854500Y-107718500D01*
G75*
G02*
X59104500Y-107968500I0J-250000D01*
G01*
X59104500Y-108893500D01*
G75*
G02*
X58854500Y-109143500I-250000J0D01*
G01*
X57604500Y-109143500D01*
G75*
G02*
X57354500Y-108893500I0J250000D01*
G01*
X57354500Y-107968500D01*
G75*
G02*
X57604500Y-107718500I250000J0D01*
G01*
G37*
G04 #@! TD.AperFunction*
G04 #@! TA.AperFunction,SMDPad,CuDef*
G36*
G01*
X57604500Y-110693500D02*
X58854500Y-110693500D01*
G75*
G02*
X59104500Y-110943500I0J-250000D01*
G01*
X59104500Y-111868500D01*
G75*
G02*
X58854500Y-112118500I-250000J0D01*
G01*
X57604500Y-112118500D01*
G75*
G02*
X57354500Y-111868500I0J250000D01*
G01*
X57354500Y-110943500D01*
G75*
G02*
X57604500Y-110693500I250000J0D01*
G01*
G37*
G04 #@! TD.AperFunction*
X53340000Y-105283000D03*
D22*
X53340000Y-107823000D03*
X53340000Y-110363000D03*
D24*
X66513448Y-102814999D03*
X66513448Y-103315000D03*
X66513448Y-103814999D03*
X66513448Y-104315001D03*
X66513448Y-104815000D03*
X66513448Y-105314999D03*
X66513448Y-105815000D03*
X66513448Y-106314999D03*
X66513448Y-106814998D03*
X66513448Y-107315000D03*
X66513448Y-107814999D03*
X66513448Y-108315001D03*
X66513448Y-108815000D03*
X66513448Y-109314999D03*
X66513448Y-109815000D03*
X66513448Y-110314999D03*
X66513448Y-110815001D03*
X66513448Y-111315000D03*
X66513448Y-111814999D03*
X60613552Y-111815001D03*
X60613552Y-111315000D03*
X60613552Y-110815001D03*
X60613552Y-110314999D03*
X60613552Y-109815000D03*
X60613552Y-109315001D03*
X60613552Y-108815000D03*
X60613552Y-108315001D03*
X60613552Y-107814999D03*
X60613552Y-107315000D03*
X60613552Y-106815001D03*
X60613552Y-106314999D03*
X60613552Y-105815000D03*
X60613552Y-105314999D03*
X60613552Y-104815000D03*
X60613552Y-104315001D03*
X60613552Y-103814999D03*
X60613552Y-103315000D03*
X60613552Y-102815001D03*
G04 #@! TA.AperFunction,SMDPad,CuDef*
G36*
G01*
X38482299Y-65973801D02*
X38482299Y-67223801D01*
G75*
G02*
X38232299Y-67473801I-250000J0D01*
G01*
X37307299Y-67473801D01*
G75*
G02*
X37057299Y-67223801I0J250000D01*
G01*
X37057299Y-65973801D01*
G75*
G02*
X37307299Y-65723801I250000J0D01*
G01*
X38232299Y-65723801D01*
G75*
G02*
X38482299Y-65973801I0J-250000D01*
G01*
G37*
G04 #@! TD.AperFunction*
G04 #@! TA.AperFunction,SMDPad,CuDef*
G36*
G01*
X41457299Y-65973801D02*
X41457299Y-67223801D01*
G75*
G02*
X41207299Y-67473801I-250000J0D01*
G01*
X40282299Y-67473801D01*
G75*
G02*
X40032299Y-67223801I0J250000D01*
G01*
X40032299Y-65973801D01*
G75*
G02*
X40282299Y-65723801I250000J0D01*
G01*
X41207299Y-65723801D01*
G75*
G02*
X41457299Y-65973801I0J-250000D01*
G01*
G37*
G04 #@! TD.AperFunction*
G04 #@! TA.AperFunction,SMDPad,CuDef*
G36*
G01*
X41493799Y-68386801D02*
X41493799Y-69636801D01*
G75*
G02*
X41243799Y-69886801I-250000J0D01*
G01*
X40318799Y-69886801D01*
G75*
G02*
X40068799Y-69636801I0J250000D01*
G01*
X40068799Y-68386801D01*
G75*
G02*
X40318799Y-68136801I250000J0D01*
G01*
X41243799Y-68136801D01*
G75*
G02*
X41493799Y-68386801I0J-250000D01*
G01*
G37*
G04 #@! TD.AperFunction*
G04 #@! TA.AperFunction,SMDPad,CuDef*
G36*
G01*
X38518799Y-68386801D02*
X38518799Y-69636801D01*
G75*
G02*
X38268799Y-69886801I-250000J0D01*
G01*
X37343799Y-69886801D01*
G75*
G02*
X37093799Y-69636801I0J250000D01*
G01*
X37093799Y-68386801D01*
G75*
G02*
X37343799Y-68136801I250000J0D01*
G01*
X38268799Y-68136801D01*
G75*
G02*
X38518799Y-68386801I0J-250000D01*
G01*
G37*
G04 #@! TD.AperFunction*
G04 #@! TA.AperFunction,SMDPad,CuDef*
G36*
G01*
X38555299Y-70799801D02*
X38555299Y-72049801D01*
G75*
G02*
X38305299Y-72299801I-250000J0D01*
G01*
X37380299Y-72299801D01*
G75*
G02*
X37130299Y-72049801I0J250000D01*
G01*
X37130299Y-70799801D01*
G75*
G02*
X37380299Y-70549801I250000J0D01*
G01*
X38305299Y-70549801D01*
G75*
G02*
X38555299Y-70799801I0J-250000D01*
G01*
G37*
G04 #@! TD.AperFunction*
G04 #@! TA.AperFunction,SMDPad,CuDef*
G36*
G01*
X41530299Y-70799801D02*
X41530299Y-72049801D01*
G75*
G02*
X41280299Y-72299801I-250000J0D01*
G01*
X40355299Y-72299801D01*
G75*
G02*
X40105299Y-72049801I0J250000D01*
G01*
X40105299Y-70799801D01*
G75*
G02*
X40355299Y-70549801I250000J0D01*
G01*
X41280299Y-70549801D01*
G75*
G02*
X41530299Y-70799801I0J-250000D01*
G01*
G37*
G04 #@! TD.AperFunction*
G04 #@! TA.AperFunction,SMDPad,CuDef*
G36*
G01*
X46827799Y-74736801D02*
X46827799Y-75986801D01*
G75*
G02*
X46577799Y-76236801I-250000J0D01*
G01*
X45652799Y-76236801D01*
G75*
G02*
X45402799Y-75986801I0J250000D01*
G01*
X45402799Y-74736801D01*
G75*
G02*
X45652799Y-74486801I250000J0D01*
G01*
X46577799Y-74486801D01*
G75*
G02*
X46827799Y-74736801I0J-250000D01*
G01*
G37*
G04 #@! TD.AperFunction*
G04 #@! TA.AperFunction,SMDPad,CuDef*
G36*
G01*
X43852799Y-74736801D02*
X43852799Y-75986801D01*
G75*
G02*
X43602799Y-76236801I-250000J0D01*
G01*
X42677799Y-76236801D01*
G75*
G02*
X42427799Y-75986801I0J250000D01*
G01*
X42427799Y-74736801D01*
G75*
G02*
X42677799Y-74486801I250000J0D01*
G01*
X43602799Y-74486801D01*
G75*
G02*
X43852799Y-74736801I0J-250000D01*
G01*
G37*
G04 #@! TD.AperFunction*
G04 #@! TA.AperFunction,SMDPad,CuDef*
G36*
G01*
X40446799Y-83502801D02*
X41696799Y-83502801D01*
G75*
G02*
X41946799Y-83752801I0J-250000D01*
G01*
X41946799Y-84677801D01*
G75*
G02*
X41696799Y-84927801I-250000J0D01*
G01*
X40446799Y-84927801D01*
G75*
G02*
X40196799Y-84677801I0J250000D01*
G01*
X40196799Y-83752801D01*
G75*
G02*
X40446799Y-83502801I250000J0D01*
G01*
G37*
G04 #@! TD.AperFunction*
G04 #@! TA.AperFunction,SMDPad,CuDef*
G36*
G01*
X40446799Y-80527801D02*
X41696799Y-80527801D01*
G75*
G02*
X41946799Y-80777801I0J-250000D01*
G01*
X41946799Y-81702801D01*
G75*
G02*
X41696799Y-81952801I-250000J0D01*
G01*
X40446799Y-81952801D01*
G75*
G02*
X40196799Y-81702801I0J250000D01*
G01*
X40196799Y-80777801D01*
G75*
G02*
X40446799Y-80527801I250000J0D01*
G01*
G37*
G04 #@! TD.AperFunction*
G04 #@! TA.AperFunction,SMDPad,CuDef*
G36*
G01*
X44731299Y-78653801D02*
X44731299Y-77403801D01*
G75*
G02*
X44981299Y-77153801I250000J0D01*
G01*
X45906299Y-77153801D01*
G75*
G02*
X46156299Y-77403801I0J-250000D01*
G01*
X46156299Y-78653801D01*
G75*
G02*
X45906299Y-78903801I-250000J0D01*
G01*
X44981299Y-78903801D01*
G75*
G02*
X44731299Y-78653801I0J250000D01*
G01*
G37*
G04 #@! TD.AperFunction*
G04 #@! TA.AperFunction,SMDPad,CuDef*
G36*
G01*
X41756299Y-78653801D02*
X41756299Y-77403801D01*
G75*
G02*
X42006299Y-77153801I250000J0D01*
G01*
X42931299Y-77153801D01*
G75*
G02*
X43181299Y-77403801I0J-250000D01*
G01*
X43181299Y-78653801D01*
G75*
G02*
X42931299Y-78903801I-250000J0D01*
G01*
X42006299Y-78903801D01*
G75*
G02*
X41756299Y-78653801I0J250000D01*
G01*
G37*
G04 #@! TD.AperFunction*
G04 #@! TA.AperFunction,SMDPad,CuDef*
G36*
G01*
X33456299Y-73847801D02*
X33456299Y-75097801D01*
G75*
G02*
X33206299Y-75347801I-250000J0D01*
G01*
X32281299Y-75347801D01*
G75*
G02*
X32031299Y-75097801I0J250000D01*
G01*
X32031299Y-73847801D01*
G75*
G02*
X32281299Y-73597801I250000J0D01*
G01*
X33206299Y-73597801D01*
G75*
G02*
X33456299Y-73847801I0J-250000D01*
G01*
G37*
G04 #@! TD.AperFunction*
G04 #@! TA.AperFunction,SMDPad,CuDef*
G36*
G01*
X30481299Y-73847801D02*
X30481299Y-75097801D01*
G75*
G02*
X30231299Y-75347801I-250000J0D01*
G01*
X29306299Y-75347801D01*
G75*
G02*
X29056299Y-75097801I0J250000D01*
G01*
X29056299Y-73847801D01*
G75*
G02*
X29306299Y-73597801I250000J0D01*
G01*
X30231299Y-73597801D01*
G75*
G02*
X30481299Y-73847801I0J-250000D01*
G01*
G37*
G04 #@! TD.AperFunction*
G04 #@! TA.AperFunction,SMDPad,CuDef*
G36*
G01*
X30481299Y-71434801D02*
X30481299Y-72684801D01*
G75*
G02*
X30231299Y-72934801I-250000J0D01*
G01*
X29306299Y-72934801D01*
G75*
G02*
X29056299Y-72684801I0J250000D01*
G01*
X29056299Y-71434801D01*
G75*
G02*
X29306299Y-71184801I250000J0D01*
G01*
X30231299Y-71184801D01*
G75*
G02*
X30481299Y-71434801I0J-250000D01*
G01*
G37*
G04 #@! TD.AperFunction*
G04 #@! TA.AperFunction,SMDPad,CuDef*
G36*
G01*
X33456299Y-71434801D02*
X33456299Y-72684801D01*
G75*
G02*
X33206299Y-72934801I-250000J0D01*
G01*
X32281299Y-72934801D01*
G75*
G02*
X32031299Y-72684801I0J250000D01*
G01*
X32031299Y-71434801D01*
G75*
G02*
X32281299Y-71184801I250000J0D01*
G01*
X33206299Y-71184801D01*
G75*
G02*
X33456299Y-71434801I0J-250000D01*
G01*
G37*
G04 #@! TD.AperFunction*
G04 #@! TA.AperFunction,SMDPad,CuDef*
G36*
G01*
X38775799Y-85018301D02*
X37525799Y-85018301D01*
G75*
G02*
X37275799Y-84768301I0J250000D01*
G01*
X37275799Y-83843301D01*
G75*
G02*
X37525799Y-83593301I250000J0D01*
G01*
X38775799Y-83593301D01*
G75*
G02*
X39025799Y-83843301I0J-250000D01*
G01*
X39025799Y-84768301D01*
G75*
G02*
X38775799Y-85018301I-250000J0D01*
G01*
G37*
G04 #@! TD.AperFunction*
G04 #@! TA.AperFunction,SMDPad,CuDef*
G36*
G01*
X38775799Y-82043301D02*
X37525799Y-82043301D01*
G75*
G02*
X37275799Y-81793301I0J250000D01*
G01*
X37275799Y-80868301D01*
G75*
G02*
X37525799Y-80618301I250000J0D01*
G01*
X38775799Y-80618301D01*
G75*
G02*
X39025799Y-80868301I0J-250000D01*
G01*
X39025799Y-81793301D01*
G75*
G02*
X38775799Y-82043301I-250000J0D01*
G01*
G37*
G04 #@! TD.AperFunction*
G04 #@! TA.AperFunction,SMDPad,CuDef*
G36*
G01*
X33492799Y-69021801D02*
X33492799Y-70271801D01*
G75*
G02*
X33242799Y-70521801I-250000J0D01*
G01*
X32317799Y-70521801D01*
G75*
G02*
X32067799Y-70271801I0J250000D01*
G01*
X32067799Y-69021801D01*
G75*
G02*
X32317799Y-68771801I250000J0D01*
G01*
X33242799Y-68771801D01*
G75*
G02*
X33492799Y-69021801I0J-250000D01*
G01*
G37*
G04 #@! TD.AperFunction*
G04 #@! TA.AperFunction,SMDPad,CuDef*
G36*
G01*
X30517799Y-69021801D02*
X30517799Y-70271801D01*
G75*
G02*
X30267799Y-70521801I-250000J0D01*
G01*
X29342799Y-70521801D01*
G75*
G02*
X29092799Y-70271801I0J250000D01*
G01*
X29092799Y-69021801D01*
G75*
G02*
X29342799Y-68771801I250000J0D01*
G01*
X30267799Y-68771801D01*
G75*
G02*
X30517799Y-69021801I0J-250000D01*
G01*
G37*
G04 #@! TD.AperFunction*
G04 #@! TA.AperFunction,SMDPad,CuDef*
G36*
G01*
X35727799Y-72300801D02*
X34477799Y-72300801D01*
G75*
G02*
X34227799Y-72050801I0J250000D01*
G01*
X34227799Y-71125801D01*
G75*
G02*
X34477799Y-70875801I250000J0D01*
G01*
X35727799Y-70875801D01*
G75*
G02*
X35977799Y-71125801I0J-250000D01*
G01*
X35977799Y-72050801D01*
G75*
G02*
X35727799Y-72300801I-250000J0D01*
G01*
G37*
G04 #@! TD.AperFunction*
G04 #@! TA.AperFunction,SMDPad,CuDef*
G36*
G01*
X35727799Y-75275801D02*
X34477799Y-75275801D01*
G75*
G02*
X34227799Y-75025801I0J250000D01*
G01*
X34227799Y-74100801D01*
G75*
G02*
X34477799Y-73850801I250000J0D01*
G01*
X35727799Y-73850801D01*
G75*
G02*
X35977799Y-74100801I0J-250000D01*
G01*
X35977799Y-75025801D01*
G75*
G02*
X35727799Y-75275801I-250000J0D01*
G01*
G37*
G04 #@! TD.AperFunction*
G04 #@! TA.AperFunction,SMDPad,CuDef*
G36*
G01*
X64579799Y-70525801D02*
X64579799Y-69275801D01*
G75*
G02*
X64829799Y-69025801I250000J0D01*
G01*
X65754799Y-69025801D01*
G75*
G02*
X66004799Y-69275801I0J-250000D01*
G01*
X66004799Y-70525801D01*
G75*
G02*
X65754799Y-70775801I-250000J0D01*
G01*
X64829799Y-70775801D01*
G75*
G02*
X64579799Y-70525801I0J250000D01*
G01*
G37*
G04 #@! TD.AperFunction*
G04 #@! TA.AperFunction,SMDPad,CuDef*
G36*
G01*
X61604799Y-70525801D02*
X61604799Y-69275801D01*
G75*
G02*
X61854799Y-69025801I250000J0D01*
G01*
X62779799Y-69025801D01*
G75*
G02*
X63029799Y-69275801I0J-250000D01*
G01*
X63029799Y-70525801D01*
G75*
G02*
X62779799Y-70775801I-250000J0D01*
G01*
X61854799Y-70775801D01*
G75*
G02*
X61604799Y-70525801I0J250000D01*
G01*
G37*
G04 #@! TD.AperFunction*
G04 #@! TA.AperFunction,SMDPad,CuDef*
G36*
G01*
X31683799Y-87276301D02*
X32933799Y-87276301D01*
G75*
G02*
X33183799Y-87526301I0J-250000D01*
G01*
X33183799Y-88451301D01*
G75*
G02*
X32933799Y-88701301I-250000J0D01*
G01*
X31683799Y-88701301D01*
G75*
G02*
X31433799Y-88451301I0J250000D01*
G01*
X31433799Y-87526301D01*
G75*
G02*
X31683799Y-87276301I250000J0D01*
G01*
G37*
G04 #@! TD.AperFunction*
G04 #@! TA.AperFunction,SMDPad,CuDef*
G36*
G01*
X31683799Y-84301301D02*
X32933799Y-84301301D01*
G75*
G02*
X33183799Y-84551301I0J-250000D01*
G01*
X33183799Y-85476301D01*
G75*
G02*
X32933799Y-85726301I-250000J0D01*
G01*
X31683799Y-85726301D01*
G75*
G02*
X31433799Y-85476301I0J250000D01*
G01*
X31433799Y-84551301D01*
G75*
G02*
X31683799Y-84301301I250000J0D01*
G01*
G37*
G04 #@! TD.AperFunction*
D25*
X61899799Y-60121801D03*
G04 #@! TA.AperFunction,ComponentPad*
G36*
G01*
X68019799Y-58571798D02*
X68019799Y-61671804D01*
G75*
G02*
X67769802Y-61921801I-249997J0D01*
G01*
X66189796Y-61921801D01*
G75*
G02*
X65939799Y-61671804I0J249997D01*
G01*
X65939799Y-58571798D01*
G75*
G02*
X66189796Y-58321801I249997J0D01*
G01*
X67769802Y-58321801D01*
G75*
G02*
X68019799Y-58571798I0J-249997D01*
G01*
G37*
G04 #@! TD.AperFunction*
D26*
X74498498Y-85775801D03*
D27*
X52423500Y-90850800D03*
X52423500Y-80700802D03*
D28*
X43611799Y-92760801D03*
D29*
X41071799Y-92760801D03*
X42341799Y-92760801D03*
G04 #@! TA.AperFunction,SMDPad,CuDef*
G36*
G01*
X54049299Y-60385801D02*
X54049299Y-61635801D01*
G75*
G02*
X53799299Y-61885801I-250000J0D01*
G01*
X52874299Y-61885801D01*
G75*
G02*
X52624299Y-61635801I0J250000D01*
G01*
X52624299Y-60385801D01*
G75*
G02*
X52874299Y-60135801I250000J0D01*
G01*
X53799299Y-60135801D01*
G75*
G02*
X54049299Y-60385801I0J-250000D01*
G01*
G37*
G04 #@! TD.AperFunction*
G04 #@! TA.AperFunction,SMDPad,CuDef*
G36*
G01*
X57024299Y-60385801D02*
X57024299Y-61635801D01*
G75*
G02*
X56774299Y-61885801I-250000J0D01*
G01*
X55849299Y-61885801D01*
G75*
G02*
X55599299Y-61635801I0J250000D01*
G01*
X55599299Y-60385801D01*
G75*
G02*
X55849299Y-60135801I250000J0D01*
G01*
X56774299Y-60135801D01*
G75*
G02*
X57024299Y-60385801I0J-250000D01*
G01*
G37*
G04 #@! TD.AperFunction*
G04 #@! TA.AperFunction,SMDPad,CuDef*
G36*
G01*
X52624299Y-58841801D02*
X52624299Y-57591801D01*
G75*
G02*
X52874299Y-57341801I250000J0D01*
G01*
X53799299Y-57341801D01*
G75*
G02*
X54049299Y-57591801I0J-250000D01*
G01*
X54049299Y-58841801D01*
G75*
G02*
X53799299Y-59091801I-250000J0D01*
G01*
X52874299Y-59091801D01*
G75*
G02*
X52624299Y-58841801I0J250000D01*
G01*
G37*
G04 #@! TD.AperFunction*
G04 #@! TA.AperFunction,SMDPad,CuDef*
G36*
G01*
X55599299Y-58841801D02*
X55599299Y-57591801D01*
G75*
G02*
X55849299Y-57341801I250000J0D01*
G01*
X56774299Y-57341801D01*
G75*
G02*
X57024299Y-57591801I0J-250000D01*
G01*
X57024299Y-58841801D01*
G75*
G02*
X56774299Y-59091801I-250000J0D01*
G01*
X55849299Y-59091801D01*
G75*
G02*
X55599299Y-58841801I0J250000D01*
G01*
G37*
G04 #@! TD.AperFunction*
G04 #@! TA.AperFunction,SMDPad,CuDef*
G36*
G01*
X61137299Y-66245802D02*
X61137299Y-63395800D01*
G75*
G02*
X61387298Y-63145801I249999J0D01*
G01*
X62412300Y-63145801D01*
G75*
G02*
X62662299Y-63395800I0J-249999D01*
G01*
X62662299Y-66245802D01*
G75*
G02*
X62412300Y-66495801I-249999J0D01*
G01*
X61387298Y-66495801D01*
G75*
G02*
X61137299Y-66245802I0J249999D01*
G01*
G37*
G04 #@! TD.AperFunction*
G04 #@! TA.AperFunction,SMDPad,CuDef*
G36*
G01*
X55162299Y-66245802D02*
X55162299Y-63395800D01*
G75*
G02*
X55412298Y-63145801I249999J0D01*
G01*
X56437300Y-63145801D01*
G75*
G02*
X56687299Y-63395800I0J-249999D01*
G01*
X56687299Y-66245802D01*
G75*
G02*
X56437300Y-66495801I-249999J0D01*
G01*
X55412298Y-66495801D01*
G75*
G02*
X55162299Y-66245802I0J249999D01*
G01*
G37*
G04 #@! TD.AperFunction*
G04 #@! TA.AperFunction,SMDPad,CuDef*
G36*
G01*
X44640799Y-97957801D02*
X44640799Y-96707801D01*
G75*
G02*
X44890799Y-96457801I250000J0D01*
G01*
X45815799Y-96457801D01*
G75*
G02*
X46065799Y-96707801I0J-250000D01*
G01*
X46065799Y-97957801D01*
G75*
G02*
X45815799Y-98207801I-250000J0D01*
G01*
X44890799Y-98207801D01*
G75*
G02*
X44640799Y-97957801I0J250000D01*
G01*
G37*
G04 #@! TD.AperFunction*
G04 #@! TA.AperFunction,SMDPad,CuDef*
G36*
G01*
X41665799Y-97957801D02*
X41665799Y-96707801D01*
G75*
G02*
X41915799Y-96457801I250000J0D01*
G01*
X42840799Y-96457801D01*
G75*
G02*
X43090799Y-96707801I0J-250000D01*
G01*
X43090799Y-97957801D01*
G75*
G02*
X42840799Y-98207801I-250000J0D01*
G01*
X41915799Y-98207801D01*
G75*
G02*
X41665799Y-97957801I0J250000D01*
G01*
G37*
G04 #@! TD.AperFunction*
G04 #@! TA.AperFunction,SMDPad,CuDef*
G36*
G01*
X42899299Y-89702801D02*
X42899299Y-88452801D01*
G75*
G02*
X43149299Y-88202801I250000J0D01*
G01*
X44074299Y-88202801D01*
G75*
G02*
X44324299Y-88452801I0J-250000D01*
G01*
X44324299Y-89702801D01*
G75*
G02*
X44074299Y-89952801I-250000J0D01*
G01*
X43149299Y-89952801D01*
G75*
G02*
X42899299Y-89702801I0J250000D01*
G01*
G37*
G04 #@! TD.AperFunction*
G04 #@! TA.AperFunction,SMDPad,CuDef*
G36*
G01*
X39924299Y-89702801D02*
X39924299Y-88452801D01*
G75*
G02*
X40174299Y-88202801I250000J0D01*
G01*
X41099299Y-88202801D01*
G75*
G02*
X41349299Y-88452801I0J-250000D01*
G01*
X41349299Y-89702801D01*
G75*
G02*
X41099299Y-89952801I-250000J0D01*
G01*
X40174299Y-89952801D01*
G75*
G02*
X39924299Y-89702801I0J250000D01*
G01*
G37*
G04 #@! TD.AperFunction*
G04 #@! TA.AperFunction,SMDPad,CuDef*
G36*
G01*
X38609299Y-92135801D02*
X38609299Y-93385801D01*
G75*
G02*
X38359299Y-93635801I-250000J0D01*
G01*
X37434299Y-93635801D01*
G75*
G02*
X37184299Y-93385801I0J250000D01*
G01*
X37184299Y-92135801D01*
G75*
G02*
X37434299Y-91885801I250000J0D01*
G01*
X38359299Y-91885801D01*
G75*
G02*
X38609299Y-92135801I0J-250000D01*
G01*
G37*
G04 #@! TD.AperFunction*
G04 #@! TA.AperFunction,SMDPad,CuDef*
G36*
G01*
X35634299Y-92135801D02*
X35634299Y-93385801D01*
G75*
G02*
X35384299Y-93635801I-250000J0D01*
G01*
X34459299Y-93635801D01*
G75*
G02*
X34209299Y-93385801I0J250000D01*
G01*
X34209299Y-92135801D01*
G75*
G02*
X34459299Y-91885801I250000J0D01*
G01*
X35384299Y-91885801D01*
G75*
G02*
X35634299Y-92135801I0J-250000D01*
G01*
G37*
G04 #@! TD.AperFunction*
G04 #@! TA.AperFunction,SMDPad,CuDef*
G36*
G01*
X41476299Y-99628801D02*
X41476299Y-100878801D01*
G75*
G02*
X41226299Y-101128801I-250000J0D01*
G01*
X40301299Y-101128801D01*
G75*
G02*
X40051299Y-100878801I0J250000D01*
G01*
X40051299Y-99628801D01*
G75*
G02*
X40301299Y-99378801I250000J0D01*
G01*
X41226299Y-99378801D01*
G75*
G02*
X41476299Y-99628801I0J-250000D01*
G01*
G37*
G04 #@! TD.AperFunction*
G04 #@! TA.AperFunction,SMDPad,CuDef*
G36*
G01*
X44451299Y-99628801D02*
X44451299Y-100878801D01*
G75*
G02*
X44201299Y-101128801I-250000J0D01*
G01*
X43276299Y-101128801D01*
G75*
G02*
X43026299Y-100878801I0J250000D01*
G01*
X43026299Y-99628801D01*
G75*
G02*
X43276299Y-99378801I250000J0D01*
G01*
X44201299Y-99378801D01*
G75*
G02*
X44451299Y-99628801I0J-250000D01*
G01*
G37*
G04 #@! TD.AperFunction*
G04 #@! TA.AperFunction,SMDPad,CuDef*
G36*
G01*
X28304799Y-79199802D02*
X28304799Y-76349800D01*
G75*
G02*
X28554798Y-76099801I249999J0D01*
G01*
X29579800Y-76099801D01*
G75*
G02*
X29829799Y-76349800I0J-249999D01*
G01*
X29829799Y-79199802D01*
G75*
G02*
X29579800Y-79449801I-249999J0D01*
G01*
X28554798Y-79449801D01*
G75*
G02*
X28304799Y-79199802I0J249999D01*
G01*
G37*
G04 #@! TD.AperFunction*
G04 #@! TA.AperFunction,SMDPad,CuDef*
G36*
G01*
X34279799Y-79199802D02*
X34279799Y-76349800D01*
G75*
G02*
X34529798Y-76099801I249999J0D01*
G01*
X35554800Y-76099801D01*
G75*
G02*
X35804799Y-76349800I0J-249999D01*
G01*
X35804799Y-79199802D01*
G75*
G02*
X35554800Y-79449801I-249999J0D01*
G01*
X34529798Y-79449801D01*
G75*
G02*
X34279799Y-79199802I0J249999D01*
G01*
G37*
G04 #@! TD.AperFunction*
G04 #@! TA.AperFunction,SMDPad,CuDef*
G36*
G01*
X50982299Y-62925801D02*
X50982299Y-64175801D01*
G75*
G02*
X50732299Y-64425801I-250000J0D01*
G01*
X49807299Y-64425801D01*
G75*
G02*
X49557299Y-64175801I0J250000D01*
G01*
X49557299Y-62925801D01*
G75*
G02*
X49807299Y-62675801I250000J0D01*
G01*
X50732299Y-62675801D01*
G75*
G02*
X50982299Y-62925801I0J-250000D01*
G01*
G37*
G04 #@! TD.AperFunction*
G04 #@! TA.AperFunction,SMDPad,CuDef*
G36*
G01*
X48007299Y-62925801D02*
X48007299Y-64175801D01*
G75*
G02*
X47757299Y-64425801I-250000J0D01*
G01*
X46832299Y-64425801D01*
G75*
G02*
X46582299Y-64175801I0J250000D01*
G01*
X46582299Y-62925801D01*
G75*
G02*
X46832299Y-62675801I250000J0D01*
G01*
X47757299Y-62675801D01*
G75*
G02*
X48007299Y-62925801I0J-250000D01*
G01*
G37*
G04 #@! TD.AperFunction*
G04 #@! TA.AperFunction,SMDPad,CuDef*
G36*
G01*
X49557299Y-61635801D02*
X49557299Y-60385801D01*
G75*
G02*
X49807299Y-60135801I250000J0D01*
G01*
X50732299Y-60135801D01*
G75*
G02*
X50982299Y-60385801I0J-250000D01*
G01*
X50982299Y-61635801D01*
G75*
G02*
X50732299Y-61885801I-250000J0D01*
G01*
X49807299Y-61885801D01*
G75*
G02*
X49557299Y-61635801I0J250000D01*
G01*
G37*
G04 #@! TD.AperFunction*
G04 #@! TA.AperFunction,SMDPad,CuDef*
G36*
G01*
X46582299Y-61635801D02*
X46582299Y-60385801D01*
G75*
G02*
X46832299Y-60135801I250000J0D01*
G01*
X47757299Y-60135801D01*
G75*
G02*
X48007299Y-60385801I0J-250000D01*
G01*
X48007299Y-61635801D01*
G75*
G02*
X47757299Y-61885801I-250000J0D01*
G01*
X46832299Y-61885801D01*
G75*
G02*
X46582299Y-61635801I0J250000D01*
G01*
G37*
G04 #@! TD.AperFunction*
G04 #@! TA.AperFunction,SMDPad,CuDef*
G36*
G01*
X47553299Y-72069801D02*
X47553299Y-73319801D01*
G75*
G02*
X47303299Y-73569801I-250000J0D01*
G01*
X46378299Y-73569801D01*
G75*
G02*
X46128299Y-73319801I0J250000D01*
G01*
X46128299Y-72069801D01*
G75*
G02*
X46378299Y-71819801I250000J0D01*
G01*
X47303299Y-71819801D01*
G75*
G02*
X47553299Y-72069801I0J-250000D01*
G01*
G37*
G04 #@! TD.AperFunction*
G04 #@! TA.AperFunction,SMDPad,CuDef*
G36*
G01*
X44578299Y-72069801D02*
X44578299Y-73319801D01*
G75*
G02*
X44328299Y-73569801I-250000J0D01*
G01*
X43403299Y-73569801D01*
G75*
G02*
X43153299Y-73319801I0J250000D01*
G01*
X43153299Y-72069801D01*
G75*
G02*
X43403299Y-71819801I250000J0D01*
G01*
X44328299Y-71819801D01*
G75*
G02*
X44578299Y-72069801I0J-250000D01*
G01*
G37*
G04 #@! TD.AperFunction*
G04 #@! TA.AperFunction,SMDPad,CuDef*
G36*
G01*
X41315799Y-61850301D02*
X40065799Y-61850301D01*
G75*
G02*
X39815799Y-61600301I0J250000D01*
G01*
X39815799Y-60675301D01*
G75*
G02*
X40065799Y-60425301I250000J0D01*
G01*
X41315799Y-60425301D01*
G75*
G02*
X41565799Y-60675301I0J-250000D01*
G01*
X41565799Y-61600301D01*
G75*
G02*
X41315799Y-61850301I-250000J0D01*
G01*
G37*
G04 #@! TD.AperFunction*
G04 #@! TA.AperFunction,SMDPad,CuDef*
G36*
G01*
X41315799Y-64825301D02*
X40065799Y-64825301D01*
G75*
G02*
X39815799Y-64575301I0J250000D01*
G01*
X39815799Y-63650301D01*
G75*
G02*
X40065799Y-63400301I250000J0D01*
G01*
X41315799Y-63400301D01*
G75*
G02*
X41565799Y-63650301I0J-250000D01*
G01*
X41565799Y-64575301D01*
G75*
G02*
X41315799Y-64825301I-250000J0D01*
G01*
G37*
G04 #@! TD.AperFunction*
G04 #@! TA.AperFunction,SMDPad,CuDef*
G36*
G01*
X35981799Y-69343301D02*
X34731799Y-69343301D01*
G75*
G02*
X34481799Y-69093301I0J250000D01*
G01*
X34481799Y-68168301D01*
G75*
G02*
X34731799Y-67918301I250000J0D01*
G01*
X35981799Y-67918301D01*
G75*
G02*
X36231799Y-68168301I0J-250000D01*
G01*
X36231799Y-69093301D01*
G75*
G02*
X35981799Y-69343301I-250000J0D01*
G01*
G37*
G04 #@! TD.AperFunction*
G04 #@! TA.AperFunction,SMDPad,CuDef*
G36*
G01*
X35981799Y-66368301D02*
X34731799Y-66368301D01*
G75*
G02*
X34481799Y-66118301I0J250000D01*
G01*
X34481799Y-65193301D01*
G75*
G02*
X34731799Y-64943301I250000J0D01*
G01*
X35981799Y-64943301D01*
G75*
G02*
X36231799Y-65193301I0J-250000D01*
G01*
X36231799Y-66118301D01*
G75*
G02*
X35981799Y-66368301I-250000J0D01*
G01*
G37*
G04 #@! TD.AperFunction*
G04 #@! TA.AperFunction,SMDPad,CuDef*
G36*
G01*
X38648799Y-64861801D02*
X37398799Y-64861801D01*
G75*
G02*
X37148799Y-64611801I0J250000D01*
G01*
X37148799Y-63686801D01*
G75*
G02*
X37398799Y-63436801I250000J0D01*
G01*
X38648799Y-63436801D01*
G75*
G02*
X38898799Y-63686801I0J-250000D01*
G01*
X38898799Y-64611801D01*
G75*
G02*
X38648799Y-64861801I-250000J0D01*
G01*
G37*
G04 #@! TD.AperFunction*
G04 #@! TA.AperFunction,SMDPad,CuDef*
G36*
G01*
X38648799Y-61886801D02*
X37398799Y-61886801D01*
G75*
G02*
X37148799Y-61636801I0J250000D01*
G01*
X37148799Y-60711801D01*
G75*
G02*
X37398799Y-60461801I250000J0D01*
G01*
X38648799Y-60461801D01*
G75*
G02*
X38898799Y-60711801I0J-250000D01*
G01*
X38898799Y-61636801D01*
G75*
G02*
X38648799Y-61886801I-250000J0D01*
G01*
G37*
G04 #@! TD.AperFunction*
G04 #@! TA.AperFunction,SMDPad,CuDef*
G36*
G01*
X45493299Y-84495801D02*
X45493299Y-83245801D01*
G75*
G02*
X45743299Y-82995801I250000J0D01*
G01*
X46668299Y-82995801D01*
G75*
G02*
X46918299Y-83245801I0J-250000D01*
G01*
X46918299Y-84495801D01*
G75*
G02*
X46668299Y-84745801I-250000J0D01*
G01*
X45743299Y-84745801D01*
G75*
G02*
X45493299Y-84495801I0J250000D01*
G01*
G37*
G04 #@! TD.AperFunction*
G04 #@! TA.AperFunction,SMDPad,CuDef*
G36*
G01*
X42518299Y-84495801D02*
X42518299Y-83245801D01*
G75*
G02*
X42768299Y-82995801I250000J0D01*
G01*
X43693299Y-82995801D01*
G75*
G02*
X43943299Y-83245801I0J-250000D01*
G01*
X43943299Y-84495801D01*
G75*
G02*
X43693299Y-84745801I-250000J0D01*
G01*
X42768299Y-84745801D01*
G75*
G02*
X42518299Y-84495801I0J250000D01*
G01*
G37*
G04 #@! TD.AperFunction*
G04 #@! TA.AperFunction,SMDPad,CuDef*
G36*
G01*
X34985799Y-80618301D02*
X36235799Y-80618301D01*
G75*
G02*
X36485799Y-80868301I0J-250000D01*
G01*
X36485799Y-81793301D01*
G75*
G02*
X36235799Y-82043301I-250000J0D01*
G01*
X34985799Y-82043301D01*
G75*
G02*
X34735799Y-81793301I0J250000D01*
G01*
X34735799Y-80868301D01*
G75*
G02*
X34985799Y-80618301I250000J0D01*
G01*
G37*
G04 #@! TD.AperFunction*
G04 #@! TA.AperFunction,SMDPad,CuDef*
G36*
G01*
X34985799Y-83593301D02*
X36235799Y-83593301D01*
G75*
G02*
X36485799Y-83843301I0J-250000D01*
G01*
X36485799Y-84768301D01*
G75*
G02*
X36235799Y-85018301I-250000J0D01*
G01*
X34985799Y-85018301D01*
G75*
G02*
X34735799Y-84768301I0J250000D01*
G01*
X34735799Y-83843301D01*
G75*
G02*
X34985799Y-83593301I250000J0D01*
G01*
G37*
G04 #@! TD.AperFunction*
G04 #@! TA.AperFunction,SMDPad,CuDef*
G36*
G01*
X36015299Y-86039801D02*
X36015299Y-87289801D01*
G75*
G02*
X35765299Y-87539801I-250000J0D01*
G01*
X34840299Y-87539801D01*
G75*
G02*
X34590299Y-87289801I0J250000D01*
G01*
X34590299Y-86039801D01*
G75*
G02*
X34840299Y-85789801I250000J0D01*
G01*
X35765299Y-85789801D01*
G75*
G02*
X36015299Y-86039801I0J-250000D01*
G01*
G37*
G04 #@! TD.AperFunction*
G04 #@! TA.AperFunction,SMDPad,CuDef*
G36*
G01*
X38990299Y-86039801D02*
X38990299Y-87289801D01*
G75*
G02*
X38740299Y-87539801I-250000J0D01*
G01*
X37815299Y-87539801D01*
G75*
G02*
X37565299Y-87289801I0J250000D01*
G01*
X37565299Y-86039801D01*
G75*
G02*
X37815299Y-85789801I250000J0D01*
G01*
X38740299Y-85789801D01*
G75*
G02*
X38990299Y-86039801I0J-250000D01*
G01*
G37*
G04 #@! TD.AperFunction*
D30*
X46139099Y-94538801D03*
X47434499Y-94043501D03*
X47434499Y-95034101D03*
D31*
X52120799Y-69911799D03*
D32*
X50215799Y-68121800D03*
X51485799Y-68121800D03*
X52755799Y-68121800D03*
X54025799Y-68121800D03*
X54025799Y-73711802D03*
X52755799Y-73711802D03*
X51485799Y-73711802D03*
X50215799Y-73711802D03*
D33*
X45399799Y-81076801D03*
D34*
X46304798Y-80101802D03*
X46304798Y-80751800D03*
X46304798Y-81401802D03*
X46304798Y-82051800D03*
X43204800Y-82051800D03*
X43204800Y-81401799D03*
X43204800Y-80751800D03*
X43204800Y-80101799D03*
D35*
X57359549Y-69961802D03*
X57359549Y-69011801D03*
X57359549Y-68061800D03*
X60090049Y-68061800D03*
X60090049Y-69011801D03*
X60090049Y-69961802D03*
X32404049Y-82788802D03*
X32404049Y-81838801D03*
X32404049Y-80888800D03*
X29673549Y-80888800D03*
X29673549Y-81838801D03*
X29673549Y-82788802D03*
D36*
X36131500Y-88011000D03*
X38575000Y-79375000D03*
X41671799Y-79819500D03*
X58229500Y-109982000D03*
X62158499Y-107814999D03*
X41211500Y-85725000D03*
X36475000Y-75900000D03*
X84074000Y-104521000D03*
X80581500Y-108521500D03*
X47371000Y-112649000D03*
X62387937Y-67402302D03*
X32308799Y-83616799D03*
X80518000Y-103404500D03*
X81280000Y-113284000D03*
X46799500Y-77533500D03*
X46777452Y-78800148D03*
X48310799Y-90982801D03*
X48564799Y-89839801D03*
X48437799Y-92887801D03*
X48437799Y-92887801D03*
X48437799Y-92887801D03*
X48437799Y-92887801D03*
X48437799Y-92887801D03*
X47421799Y-91871801D03*
X47177451Y-89849453D03*
X48564799Y-88569801D03*
X46151799Y-90601801D03*
X71818500Y-111633000D03*
X55435500Y-105283000D03*
X78359000Y-103404500D03*
X79946500Y-111506000D03*
X68135500Y-109939999D03*
X68135500Y-104457500D03*
X63700500Y-105791000D03*
X63690500Y-113157000D03*
X70424058Y-112143558D03*
X71247000Y-103187500D03*
X35825000Y-80000000D03*
X28435300Y-80124300D03*
X64325500Y-101473000D03*
X64325500Y-107061000D03*
X65151000Y-100203000D03*
X65151000Y-107823000D03*
X65775000Y-93075000D03*
X57204696Y-106679700D03*
X37642799Y-79350000D03*
X41579799Y-74218801D03*
X42595799Y-86283801D03*
X84709000Y-105918000D03*
X85788500Y-106616500D03*
X82486500Y-102679500D03*
X35941000Y-82804000D03*
X30924500Y-81915000D03*
X72015223Y-102547314D03*
X72072500Y-81661000D03*
X81915000Y-81661000D03*
X73152000Y-108902500D03*
X75125000Y-67700000D03*
X73787000Y-111887000D03*
X76708000Y-68580000D03*
X73374854Y-107539998D03*
X73374999Y-69375000D03*
X75247500Y-108458000D03*
X75946000Y-71183500D03*
X75692000Y-111696500D03*
X76793002Y-111772196D03*
D37*
X39297689Y-82368311D02*
X39297689Y-82915591D01*
X39624000Y-82042000D02*
X39297689Y-82368311D01*
X39871789Y-82341491D02*
X39871789Y-81827825D01*
X39297689Y-82915591D02*
X39871789Y-82341491D01*
X42621209Y-82576801D02*
X42655789Y-82576801D01*
X42274200Y-82923810D02*
X42621209Y-82576801D01*
X40854618Y-82923810D02*
X42274200Y-82923810D01*
X39871789Y-81940981D02*
X40854618Y-82923810D01*
X39871789Y-81827825D02*
X39871789Y-81940981D01*
X42655789Y-82576801D02*
X42655789Y-82670791D01*
X43204800Y-80551798D02*
X43230799Y-80577797D01*
X43204800Y-80101799D02*
X43204800Y-80551798D01*
X43204800Y-81401799D02*
X42852799Y-81401799D01*
X36957299Y-66598801D02*
X36195299Y-65836801D01*
X37769799Y-66598801D02*
X36957299Y-66598801D01*
X36195299Y-65836801D02*
X35483799Y-65836801D01*
X37806299Y-69011801D02*
X37806299Y-71642301D01*
X37806299Y-71642301D02*
X37769799Y-71678801D01*
X37769799Y-71678801D02*
X37769799Y-71805801D01*
X35102799Y-70210033D02*
X33832799Y-68940033D01*
X35102799Y-71588301D02*
X35102799Y-70210033D01*
X33832799Y-68940033D02*
X33832799Y-67995801D01*
X39166799Y-76006801D02*
X37525799Y-76006801D01*
X37525799Y-76006801D02*
X37388799Y-76143801D01*
X37388799Y-76143801D02*
X37388799Y-76504801D01*
X37468269Y-74826020D02*
X37468269Y-71726331D01*
X37613111Y-74970862D02*
X37468269Y-74826020D01*
X37468269Y-71726331D02*
X37769799Y-71424801D01*
X35610799Y-85118301D02*
X35356799Y-85372301D01*
X35610799Y-84305801D02*
X35610799Y-85118301D01*
X35356799Y-85372301D02*
X35356799Y-86537801D01*
X35356799Y-86537801D02*
X35483799Y-86410801D01*
X35610799Y-85118301D02*
X35610799Y-86664801D01*
X38666800Y-78469301D02*
X38666800Y-79179803D01*
X38666800Y-79179803D02*
X38668533Y-79181536D01*
X77044499Y-110261400D02*
X77044499Y-108820001D01*
X70544502Y-104622600D02*
X70544502Y-103501002D01*
X70544502Y-103501002D02*
X70040500Y-102997000D01*
X32404049Y-81838801D02*
X32194499Y-81838801D01*
X35302799Y-87182299D02*
X36131500Y-88011000D01*
X35302799Y-86664801D02*
X35302799Y-87182299D01*
X39166799Y-76006801D02*
X37531199Y-76006801D01*
X37531199Y-76006801D02*
X37528500Y-76009500D01*
X37529299Y-76506800D02*
X38090099Y-75946000D01*
X38090099Y-75946000D02*
X38925500Y-75946000D01*
X38666800Y-79183270D02*
X38573285Y-79276785D01*
X38666800Y-79179803D02*
X38666800Y-79183270D01*
X43204800Y-81401799D02*
X43204800Y-80161800D01*
X42862500Y-79819500D02*
X41671799Y-79819500D01*
X43204800Y-80161800D02*
X42862500Y-79819500D01*
D38*
X59251098Y-64839098D02*
X56832500Y-62420500D01*
X59251098Y-68621201D02*
X59251098Y-64839098D01*
X59641698Y-69011801D02*
X59251098Y-68621201D01*
X60090049Y-69011801D02*
X59641698Y-69011801D01*
X56832500Y-62420500D02*
X54419500Y-62420500D01*
X58229500Y-111406000D02*
X58229500Y-109982000D01*
D37*
X59329510Y-108119990D02*
X59329510Y-109897990D01*
X59634501Y-107814999D02*
X59329510Y-108119990D01*
X60613552Y-107814999D02*
X59634501Y-107814999D01*
X60613552Y-107814999D02*
X62158499Y-107814999D01*
X31178500Y-80822802D02*
X31178500Y-80708500D01*
X32194499Y-81838801D02*
X31178500Y-80822802D01*
X37529299Y-76006801D02*
X36581801Y-76006801D01*
X36581801Y-76006801D02*
X36475000Y-75900000D01*
X82577000Y-104711500D02*
X83883500Y-104711500D01*
X83883500Y-104711500D02*
X84074000Y-104521000D01*
X82423000Y-108531000D02*
X80591000Y-108531000D01*
X80591000Y-108531000D02*
X80581500Y-108521500D01*
X57359549Y-69961802D02*
X62092798Y-69961802D01*
X62092798Y-69961802D02*
X62153799Y-69900801D01*
X32404049Y-82788802D02*
X29702800Y-82788802D01*
X29702800Y-82788802D02*
X29641799Y-82727801D01*
X32308799Y-83362801D02*
X32689799Y-82981801D01*
X58229500Y-108431000D02*
X59345500Y-107315000D01*
X59345500Y-107315000D02*
X59690000Y-107315000D01*
X59690000Y-107315000D02*
X60515500Y-107315000D01*
D38*
X58229500Y-108431000D02*
X54011500Y-112649000D01*
X62447007Y-67461372D02*
X62387937Y-67402302D01*
X62447007Y-69771093D02*
X62447007Y-67461372D01*
X62317299Y-69900801D02*
X62447007Y-69771093D01*
D37*
X32308799Y-83616799D02*
X32308799Y-83362801D01*
X32308799Y-85013801D02*
X32308799Y-83616799D01*
D38*
X53403500Y-112649000D02*
X47371000Y-112649000D01*
X54011500Y-112649000D02*
X53403500Y-112649000D01*
X71194501Y-111149801D02*
X71194501Y-110261400D01*
X67575497Y-112404702D02*
X68586642Y-111393557D01*
X70950745Y-111393557D02*
X71194501Y-111149801D01*
X68586642Y-111393557D02*
X70950745Y-111393557D01*
X62728298Y-112404702D02*
X67575497Y-112404702D01*
X62484000Y-112649000D02*
X62728298Y-112404702D01*
X53403500Y-112649000D02*
X62484000Y-112649000D01*
D37*
X55144501Y-113782001D02*
X54011500Y-112649000D01*
X47371000Y-112649000D02*
X47371000Y-107779000D01*
X47371000Y-107779000D02*
X47525000Y-107625000D01*
X81280000Y-113284000D02*
X80781999Y-113782001D01*
X80781999Y-113782001D02*
X55144501Y-113782001D01*
D38*
X79502000Y-104711500D02*
X79502000Y-104648000D01*
D37*
X79602000Y-104711500D02*
X77660500Y-104711500D01*
D38*
X79502000Y-104420500D02*
X79502000Y-104711500D01*
X80518000Y-103404500D02*
X79502000Y-104420500D01*
D39*
X44631299Y-78028801D02*
X43488299Y-76885801D01*
X45443799Y-78028801D02*
X44631299Y-78028801D01*
X43471798Y-76869300D02*
X40293298Y-76869300D01*
X43488299Y-76885801D02*
X43471798Y-76869300D01*
X40293298Y-76869300D02*
X40055799Y-76631801D01*
X40055799Y-76631801D02*
X39547799Y-76631801D01*
X39547799Y-76631801D02*
X39547799Y-76758801D01*
X43488299Y-76885801D02*
X44754799Y-76885801D01*
X44754799Y-76885801D02*
X45389799Y-77520801D01*
D40*
X45443799Y-78028801D02*
X46256299Y-78028801D01*
X46256299Y-78028801D02*
X46913799Y-78028801D01*
X46256299Y-78028801D02*
X46786799Y-77498301D01*
X46377453Y-78400149D02*
X45634147Y-78400149D01*
X46777452Y-78800148D02*
X46377453Y-78400149D01*
X45634147Y-78400149D02*
X45516799Y-78282801D01*
X48437799Y-92887801D02*
X51231799Y-92887801D01*
X48310799Y-90982801D02*
X48876484Y-90982801D01*
X48876484Y-90982801D02*
X51612799Y-90982801D01*
X51612799Y-90982801D02*
X51739799Y-90855801D01*
X48564799Y-89839801D02*
X50850799Y-89839801D01*
X48437799Y-89966801D02*
X48564799Y-89839801D01*
X48437799Y-91998801D02*
X49834799Y-91998801D01*
X48437799Y-92887801D02*
X48437799Y-91998801D01*
X49834799Y-91998801D02*
X49961799Y-91871801D01*
X48437799Y-90474801D02*
X50088799Y-90474801D01*
X48437799Y-90474801D02*
X48437799Y-89966801D01*
X48437799Y-91490801D02*
X50215799Y-91490801D01*
X48437799Y-91490801D02*
X48437799Y-90474801D01*
X48437799Y-91998801D02*
X48437799Y-91490801D01*
X50215799Y-91490801D02*
X50342799Y-91363801D01*
X50845798Y-90850800D02*
X48564799Y-88569801D01*
X52423500Y-90850800D02*
X50845798Y-90850800D01*
X47285147Y-89849453D02*
X48564799Y-88569801D01*
X47177451Y-89849453D02*
X47285147Y-89849453D01*
X46425103Y-90601801D02*
X47177451Y-89849453D01*
X46151799Y-90601801D02*
X46425103Y-90601801D01*
X46151799Y-90601801D02*
X48437799Y-92887801D01*
X47929799Y-90601801D02*
X48310799Y-90982801D01*
X46151799Y-90601801D02*
X47929799Y-90601801D01*
X48555147Y-89849453D02*
X48564799Y-89839801D01*
X47177451Y-89849453D02*
X48555147Y-89849453D01*
X47177451Y-91627453D02*
X47421799Y-91871801D01*
X47177451Y-89849453D02*
X47177451Y-91627453D01*
X48437799Y-91109801D02*
X47177451Y-89849453D01*
X48437799Y-92887801D02*
X48437799Y-91109801D01*
X48310799Y-90982801D02*
X47421799Y-91871801D01*
X48564799Y-89839801D02*
X48564799Y-88569801D01*
D39*
X41656299Y-78028801D02*
X41275299Y-77647801D01*
X42468799Y-78028801D02*
X41656299Y-78028801D01*
X41275299Y-77647801D02*
X40690799Y-77647801D01*
D40*
X41071799Y-92760801D02*
X38150799Y-92760801D01*
X42341799Y-92760801D02*
X42341799Y-94510801D01*
X42341799Y-94510801D02*
X42341799Y-97459801D01*
D37*
X71844499Y-111607001D02*
X71818500Y-111633000D01*
X71844499Y-110261400D02*
X71844499Y-111607001D01*
X55467499Y-105314999D02*
X55435500Y-105283000D01*
X60613552Y-105314999D02*
X55467499Y-105314999D01*
X74031602Y-103404500D02*
X78359000Y-103404500D01*
X73794501Y-103641601D02*
X74031602Y-103404500D01*
X73794501Y-104622600D02*
X73794501Y-103641601D01*
X85163000Y-111506000D02*
X82359500Y-111506000D01*
X79946500Y-111506000D02*
X82296000Y-111506000D01*
X82296000Y-111506000D02*
X82359500Y-111569500D01*
X82359500Y-111506000D02*
X82359500Y-111442500D01*
X38880309Y-72668981D02*
X38880309Y-65423311D01*
X38166798Y-74731802D02*
X38166798Y-73382492D01*
X38166798Y-73382492D02*
X38880309Y-72668981D01*
X38023799Y-64566801D02*
X38544499Y-65087501D01*
X38023799Y-64149301D02*
X38023799Y-64566801D01*
X38544499Y-65087501D02*
X38404799Y-64947801D01*
X38880309Y-65423311D02*
X38544499Y-65087501D01*
D38*
X43230799Y-83870801D02*
X43230799Y-82895801D01*
X43230799Y-82895801D02*
X43230799Y-82219801D01*
D39*
X39666798Y-79031801D02*
X38637798Y-80060801D01*
X39666798Y-78469301D02*
X39666798Y-79031801D01*
X38637798Y-80060801D02*
X36626799Y-80060801D01*
X36626799Y-80060801D02*
X35864799Y-80822801D01*
X35864799Y-80822801D02*
X35864799Y-80949801D01*
D37*
X66513448Y-108315001D02*
X70151501Y-108315001D01*
X70151501Y-108315001D02*
X70485000Y-108648500D01*
X70485000Y-108648500D02*
X70485000Y-109791500D01*
X66513448Y-108815000D02*
X69699000Y-108815000D01*
X69699000Y-108815000D02*
X69850000Y-108966000D01*
X69850000Y-108966000D02*
X69850000Y-109982000D01*
X66513448Y-109314999D02*
X69182999Y-109314999D01*
X69182999Y-109314999D02*
X69215000Y-109347000D01*
X69215000Y-109347000D02*
X69215000Y-109982000D01*
X68010501Y-109815000D02*
X68135500Y-109939999D01*
X66513448Y-109815000D02*
X68010501Y-109815000D01*
X68135500Y-104457500D02*
X69278500Y-104457500D01*
X69278500Y-104457500D02*
X69215000Y-104457500D01*
X60613552Y-105815000D02*
X63460500Y-105815000D01*
X63484500Y-105791000D02*
X63700500Y-105791000D01*
X63460500Y-105815000D02*
X63484500Y-105791000D01*
X77694500Y-112932500D02*
X77470000Y-113157000D01*
X77694500Y-110261400D02*
X77694500Y-112932500D01*
X63690500Y-113157000D02*
X77470000Y-113157000D01*
X72494501Y-110261400D02*
X72507001Y-110273900D01*
X70538501Y-112258001D02*
X70424058Y-112143558D01*
X72118501Y-112258001D02*
X70538501Y-112258001D01*
X72494501Y-111882001D02*
X72118501Y-112258001D01*
X72494501Y-110261400D02*
X72494501Y-111882001D01*
X71194501Y-103239999D02*
X71247000Y-103187500D01*
X71194501Y-104622600D02*
X71194501Y-103239999D01*
D40*
X40744799Y-66852801D02*
X40744799Y-71732801D01*
X40744799Y-71732801D02*
X40817799Y-71805801D01*
X52120799Y-69911799D02*
X42965801Y-69911799D01*
X42965801Y-69911799D02*
X41071799Y-71805801D01*
X48960800Y-68121800D02*
X48959799Y-68122801D01*
X50215799Y-68121800D02*
X48960800Y-68121800D01*
X48959799Y-68122801D02*
X42341799Y-68122801D01*
X42341799Y-68122801D02*
X40817799Y-66598801D01*
X40817799Y-66598801D02*
X40817799Y-66725801D01*
X48835799Y-69911799D02*
X48062801Y-69138801D01*
X52120799Y-69911799D02*
X48835799Y-69911799D01*
X48062801Y-69138801D02*
X41071799Y-69138801D01*
D37*
X55924799Y-64820801D02*
X57454799Y-64820801D01*
X57454799Y-64820801D02*
X57708799Y-65074801D01*
X57708799Y-65074801D02*
X57708799Y-67741801D01*
X57708799Y-67741801D02*
X57708799Y-67995801D01*
X52120799Y-67416799D02*
X50215799Y-65511799D01*
X52120799Y-69911799D02*
X52120799Y-67416799D01*
X50215799Y-65511799D02*
X50215799Y-63804801D01*
X50215799Y-63804801D02*
X50088799Y-63677801D01*
D39*
X39666798Y-74178435D02*
X40182799Y-73662434D01*
X39666798Y-74794301D02*
X39666798Y-74178435D01*
X40182799Y-73034801D02*
X40182799Y-73202801D01*
X40817799Y-72399801D02*
X40182799Y-73034801D01*
X40817799Y-71424801D02*
X40817799Y-72399801D01*
X40182799Y-73662434D02*
X40182799Y-73202801D01*
X40182799Y-73202801D02*
X40182799Y-71932801D01*
D41*
X52120799Y-65666799D02*
X52839797Y-64947801D01*
X52120799Y-69911799D02*
X52120799Y-65666799D01*
X52839797Y-64947801D02*
X55803799Y-64947801D01*
X52120799Y-69911799D02*
X52120799Y-69138801D01*
X52120799Y-69138801D02*
X55549799Y-65709801D01*
D37*
X41366797Y-76381801D02*
X42386797Y-75361801D01*
X40816798Y-76381801D02*
X41366797Y-76381801D01*
X42386797Y-75361801D02*
X43230799Y-75361801D01*
D42*
X52423500Y-80700802D02*
X52423500Y-76299502D01*
X52423500Y-76299502D02*
X50977799Y-74853801D01*
D40*
X52755799Y-75967203D02*
X52423500Y-76299502D01*
X52755799Y-73711802D02*
X52755799Y-75967203D01*
D43*
X49654799Y-81076801D02*
X51866799Y-81076801D01*
D41*
X50723799Y-75107801D02*
X50977799Y-74853801D01*
D43*
X45399799Y-81076801D02*
X48056799Y-81076801D01*
X48056799Y-81076801D02*
X49654799Y-81076801D01*
D37*
X42481041Y-74261791D02*
X41960799Y-74782033D01*
X46115299Y-75361801D02*
X45015289Y-74261791D01*
X45015289Y-74261791D02*
X42481041Y-74261791D01*
X41960799Y-74782033D02*
X41960799Y-75107801D01*
X41960799Y-75107801D02*
X41452799Y-75615801D01*
X41452799Y-75615801D02*
X40690799Y-75615801D01*
X48183799Y-80949801D02*
X48056799Y-81076801D01*
D40*
X48056799Y-76490801D02*
X48056799Y-81076801D01*
X46927799Y-75361801D02*
X48056799Y-76490801D01*
X46115299Y-75361801D02*
X46927799Y-75361801D01*
D39*
X40944799Y-78272425D02*
X40944799Y-78409801D01*
X40757423Y-78272425D02*
X40944799Y-78272425D01*
X40944799Y-78409801D02*
X41071799Y-78409801D01*
X40757423Y-78507400D02*
X41071799Y-78821776D01*
X40757423Y-78272425D02*
X40757423Y-78507400D01*
X41071799Y-78821776D02*
X41071799Y-81203801D01*
D40*
X35904799Y-77774801D02*
X36158799Y-77520801D01*
X35042299Y-77774801D02*
X35904799Y-77774801D01*
X36158799Y-77520801D02*
X37388799Y-77520801D01*
D37*
X38204299Y-77256801D02*
X38194299Y-77266801D01*
X39166799Y-77256801D02*
X38204299Y-77256801D01*
X38194299Y-77266801D02*
X37388799Y-77266801D01*
X39166799Y-77256801D02*
X38922799Y-77256801D01*
X38922799Y-77256801D02*
X38531799Y-77647801D01*
X38531799Y-77647801D02*
X37388799Y-77647801D01*
D40*
X35102799Y-74563301D02*
X35102799Y-75375801D01*
X35102799Y-75375801D02*
X35102799Y-77647801D01*
X32780299Y-70621801D02*
X32816799Y-70658301D01*
X32780299Y-69646801D02*
X32780299Y-70621801D01*
X32816799Y-70658301D02*
X32816799Y-74726801D01*
X35070799Y-77774801D02*
X35483799Y-77774801D01*
X35483799Y-77774801D02*
X35483799Y-77647801D01*
D37*
X32404049Y-80888800D02*
X32404049Y-79584551D01*
X32404049Y-79584551D02*
X33324799Y-78663801D01*
X33324799Y-78663801D02*
X34721799Y-78663801D01*
D40*
X33990289Y-87760281D02*
X33990289Y-79649311D01*
X40636799Y-89077801D02*
X35307809Y-89077801D01*
X35307809Y-89077801D02*
X33990289Y-87760281D01*
X33990289Y-79649311D02*
X34975799Y-78663801D01*
X32743799Y-74472801D02*
X32743799Y-75447801D01*
X32743799Y-75447801D02*
X35070799Y-77774801D01*
X38277799Y-86664801D02*
X38277799Y-84251801D01*
X38277799Y-84251801D02*
X38404799Y-84124801D01*
D39*
X39125799Y-81330801D02*
X40182799Y-80273801D01*
X38150799Y-81330801D02*
X39125799Y-81330801D01*
X40182799Y-80273801D02*
X40182799Y-78536801D01*
D37*
X29673549Y-80359400D02*
X30276799Y-79756150D01*
X29673549Y-80888800D02*
X29673549Y-80359400D01*
X30276799Y-79756150D02*
X30276799Y-77901801D01*
X30276799Y-77901801D02*
X30149799Y-77774801D01*
X30149799Y-77774801D02*
X29514799Y-77774801D01*
X37361550Y-78275552D02*
X37361550Y-78310050D01*
X37361550Y-78310050D02*
X35737799Y-79933801D01*
X28371799Y-79622116D02*
X29006799Y-78987116D01*
X28371799Y-80187801D02*
X28371799Y-79622116D01*
X29006799Y-78987116D02*
X29006799Y-78663801D01*
D40*
X29067299Y-77774801D02*
X27051000Y-79791100D01*
D43*
X27584598Y-78587402D02*
X28448000Y-77724000D01*
D37*
X64262000Y-101536500D02*
X64325500Y-101473000D01*
X53340000Y-101536500D02*
X64262000Y-101536500D01*
X65332699Y-107061000D02*
X65586699Y-107315000D01*
X64325500Y-107061000D02*
X65332699Y-107061000D01*
X65586699Y-107315000D02*
X66738500Y-107315000D01*
X53340000Y-98996500D02*
X55181500Y-98996500D01*
X56388000Y-100203000D02*
X65151000Y-100203000D01*
X55181500Y-98996500D02*
X56388000Y-100203000D01*
X65151000Y-107823000D02*
X66167000Y-107823000D01*
X66167000Y-107823000D02*
X66230500Y-107759500D01*
X53340000Y-105283000D02*
X54111698Y-106054698D01*
X57926104Y-106235500D02*
X60579000Y-106235500D01*
X54111698Y-106054698D02*
X57745302Y-106054698D01*
X57745302Y-106054698D02*
X57926104Y-106235500D01*
X53340000Y-107823000D02*
X54483300Y-106679700D01*
X59731502Y-106679700D02*
X60579000Y-106679700D01*
X50300000Y-107850000D02*
X53425000Y-107850000D01*
X65725000Y-93025000D02*
X65775000Y-93075000D01*
X65725000Y-85075000D02*
X65725000Y-93025000D01*
X54483300Y-106679700D02*
X56754700Y-106679700D01*
X56754700Y-106679700D02*
X59731502Y-106679700D01*
X56754700Y-106679700D02*
X57204696Y-106679700D01*
D40*
X61899799Y-60121801D02*
X61899799Y-65201801D01*
X61899799Y-65201801D02*
X61899799Y-65074801D01*
X61066589Y-63987591D02*
X61066589Y-60574011D01*
X61899799Y-64820801D02*
X61066589Y-63987591D01*
X61066589Y-60574011D02*
X61264799Y-60375801D01*
X61899799Y-60121801D02*
X61899799Y-60629801D01*
X61899799Y-60629801D02*
X62534799Y-61264801D01*
X62534799Y-61264801D02*
X62534799Y-63931801D01*
D37*
X61037299Y-64820801D02*
X60121799Y-65736301D01*
X61899799Y-64820801D02*
X61037299Y-64820801D01*
X60121799Y-65736301D02*
X60121799Y-67995801D01*
X60609799Y-60121801D02*
X59720799Y-61010801D01*
X61899799Y-60121801D02*
X60609799Y-60121801D01*
X59720799Y-61010801D02*
X56819799Y-61010801D01*
D39*
X43611799Y-92760801D02*
X43611799Y-88823801D01*
D40*
X46075599Y-92760801D02*
X43738799Y-92760801D01*
X43611799Y-92760801D02*
X43611799Y-91010801D01*
X43611799Y-91010801D02*
X43611799Y-89204801D01*
D37*
X38166798Y-78774802D02*
X37642799Y-79298801D01*
X38166798Y-78531800D02*
X38166798Y-78774802D01*
X47358299Y-94043501D02*
X46075599Y-92760801D01*
X47434499Y-94043501D02*
X47358299Y-94043501D01*
X43738799Y-100253801D02*
X43738799Y-96951801D01*
X43738799Y-96951801D02*
X46151799Y-94538801D01*
X47294799Y-63550801D02*
X47294799Y-60883801D01*
X39166799Y-74181801D02*
X39637799Y-73710801D01*
X39166799Y-74794301D02*
X39166799Y-74181801D01*
X39637799Y-73710801D02*
X39674799Y-73710801D01*
X40107289Y-65150311D02*
X45822289Y-65150311D01*
X39707289Y-65550311D02*
X40107289Y-65150311D01*
X39674799Y-73710801D02*
X39707289Y-73678311D01*
X39707289Y-73678311D02*
X39707289Y-65550311D01*
X45822289Y-65150311D02*
X47167799Y-63804801D01*
X47167799Y-63804801D02*
X47167799Y-63677801D01*
D40*
X47294799Y-61010801D02*
X47294799Y-63931801D01*
D37*
X47719308Y-72628792D02*
X52943790Y-72628792D01*
X46840799Y-72694801D02*
X47653299Y-72694801D01*
X47653299Y-72694801D02*
X47719308Y-72628792D01*
X52943790Y-72628792D02*
X53898799Y-73583801D01*
X40166800Y-74181803D02*
X41018802Y-73329801D01*
X40166800Y-74731802D02*
X40166800Y-74181803D01*
X41018802Y-73329801D02*
X43611799Y-73329801D01*
X40166800Y-74556802D02*
X41139801Y-73583801D01*
X40166800Y-74731802D02*
X40166800Y-74556802D01*
X41139801Y-73583801D02*
X43611799Y-73583801D01*
X40166800Y-74181803D02*
X40182799Y-74165804D01*
D39*
X43611799Y-73583801D02*
X44119799Y-73075801D01*
X39715799Y-64112801D02*
X39293799Y-64534801D01*
X40690799Y-64112801D02*
X39715799Y-64112801D01*
X39293799Y-64534801D02*
X39293799Y-73202801D01*
X39293799Y-73202801D02*
X38658799Y-73837801D01*
X38658799Y-73837801D02*
X38658799Y-74599801D01*
D37*
X37453681Y-75506802D02*
X36372799Y-74425920D01*
X37529299Y-75506802D02*
X37453681Y-75506802D01*
X36372799Y-70957611D02*
X35442989Y-70027801D01*
X36372799Y-74425920D02*
X36372799Y-70957611D01*
X35442989Y-70027801D02*
X35442989Y-69052611D01*
X35442989Y-69052611D02*
X35483799Y-69011801D01*
D38*
X40721487Y-74970862D02*
X40827738Y-74970862D01*
X46151799Y-85521801D02*
X46151799Y-84956116D01*
X46151799Y-84956116D02*
X46151799Y-83743801D01*
D37*
X40827738Y-74970862D02*
X41579799Y-74218801D01*
D40*
X46151799Y-85521801D02*
X43357799Y-85521801D01*
X43357799Y-85521801D02*
X42595799Y-86283801D01*
D37*
X67465497Y-104815000D02*
X68568497Y-105918000D01*
X66513448Y-104815000D02*
X67465497Y-104815000D01*
X68568497Y-105918000D02*
X84709000Y-105918000D01*
X66513448Y-106814998D02*
X85844002Y-106814998D01*
X85844002Y-106814998D02*
X85788500Y-106759496D01*
X85788500Y-106759496D02*
X85788500Y-106616500D01*
D40*
X46165799Y-97332801D02*
X47421799Y-96076801D01*
X45353299Y-97332801D02*
X46165799Y-97332801D01*
X47421799Y-96076801D02*
X47421799Y-95173801D01*
D37*
X60613552Y-103315000D02*
X47879500Y-103315000D01*
X47879500Y-103315000D02*
X45466000Y-100901500D01*
X45466000Y-100901500D02*
X45466000Y-97218500D01*
X73144502Y-103127447D02*
X73592449Y-102679500D01*
X73144502Y-104622600D02*
X73144502Y-103127447D01*
X73592449Y-102679500D02*
X82486500Y-102679500D01*
X51730804Y-87439500D02*
X42395308Y-87439500D01*
X42395308Y-87439500D02*
X41402000Y-87439500D01*
X41402000Y-87439500D02*
X39751000Y-85788500D01*
X39751000Y-84005312D02*
X39624000Y-83878312D01*
X39751000Y-85788500D02*
X39751000Y-84005312D01*
X39624000Y-83878312D02*
X38549688Y-82804000D01*
X38549688Y-82804000D02*
X35941000Y-82804000D01*
X30924500Y-81915000D02*
X29781500Y-81915000D01*
X57980411Y-87439500D02*
X55181500Y-87439500D01*
X72740224Y-102199313D02*
X57980411Y-87439500D01*
X72740224Y-102895315D02*
X72740224Y-102199313D01*
X72494501Y-103141038D02*
X72740224Y-102895315D01*
X72494501Y-104622600D02*
X72494501Y-103141038D01*
X51730804Y-87439500D02*
X55181500Y-87439500D01*
X57980411Y-87439500D02*
X59440911Y-88900000D01*
X72015223Y-103470880D02*
X72015223Y-102547314D01*
X71844502Y-103641601D02*
X72015223Y-103470880D01*
X71844502Y-104622600D02*
X71844502Y-103641601D01*
X72072500Y-81661000D02*
X81915000Y-81661000D01*
X73144499Y-108910001D02*
X73152000Y-108902500D01*
X73144499Y-110261400D02*
X73144499Y-108910001D01*
X75524999Y-67300001D02*
X75125000Y-67700000D01*
X73794501Y-111879499D02*
X73787000Y-111887000D01*
X73794501Y-110261400D02*
X73794501Y-111879499D01*
X76708000Y-68580000D02*
X78168500Y-67119500D01*
X53336799Y-60035801D02*
X53390799Y-59981801D01*
X53336799Y-61010801D02*
X53336799Y-60035801D01*
X53390799Y-59981801D02*
X53390799Y-58089801D01*
X74444499Y-108609643D02*
X73374854Y-107539998D01*
X74444499Y-110261400D02*
X74444499Y-108609643D01*
X53213000Y-58166000D02*
X54428999Y-56950001D01*
X73374999Y-63409314D02*
X73374999Y-69375000D01*
X54428999Y-56950001D02*
X66915686Y-56950001D01*
X66915686Y-56950001D02*
X73374999Y-63409314D01*
X75094501Y-108610999D02*
X75247500Y-108458000D01*
X75094501Y-110261400D02*
X75094501Y-108610999D01*
X72536189Y-71100811D02*
X56343689Y-71100811D01*
X56343689Y-71100811D02*
X55689500Y-70446622D01*
X55689500Y-70446622D02*
X55689500Y-69405500D01*
X55689500Y-69405500D02*
X56070500Y-69024500D01*
X56070500Y-69024500D02*
X57086500Y-69024500D01*
X57086500Y-69024500D02*
X57150000Y-68961000D01*
X75863311Y-71100811D02*
X75946000Y-71183500D01*
X72536189Y-71100811D02*
X75863311Y-71100811D01*
X75744499Y-111644001D02*
X75692000Y-111696500D01*
X75744499Y-110261400D02*
X75744499Y-111644001D01*
X76394500Y-111373694D02*
X76793002Y-111772196D01*
X76394500Y-110261400D02*
X76394500Y-111373694D01*
M02*
