G04 #@! TF.GenerationSoftware,KiCad,Pcbnew,(5.1.10)-1*
G04 #@! TF.CreationDate,2021-05-18T15:00:51+02:00*
G04 #@! TF.ProjectId,PEE50_MPPT,50454535-305f-44d5-9050-542e6b696361,rev?*
G04 #@! TF.SameCoordinates,Original*
G04 #@! TF.FileFunction,Legend,Top*
G04 #@! TF.FilePolarity,Positive*
%FSLAX46Y46*%
G04 Gerber Fmt 4.6, Leading zero omitted, Abs format (unit mm)*
G04 Created by KiCad (PCBNEW (5.1.10)-1) date 2021-05-18 15:00:51*
%MOMM*%
%LPD*%
G01*
G04 APERTURE LIST*
%ADD10C,0.150000*%
%ADD11C,0.250000*%
%ADD12C,0.152400*%
%ADD13C,0.120000*%
%ADD14C,0.002000*%
G04 APERTURE END LIST*
D10*
X59150214Y-103131880D02*
X58578785Y-103131880D01*
X58864500Y-103131880D02*
X58864500Y-102131880D01*
X58769261Y-102274738D01*
X58674023Y-102369976D01*
X58578785Y-102417595D01*
X48704595Y-109926500D02*
X48609357Y-109878880D01*
X48466500Y-109878880D01*
X48323642Y-109926500D01*
X48228404Y-110021738D01*
X48180785Y-110116976D01*
X48133166Y-110307452D01*
X48133166Y-110450309D01*
X48180785Y-110640785D01*
X48228404Y-110736023D01*
X48323642Y-110831261D01*
X48466500Y-110878880D01*
X48561738Y-110878880D01*
X48704595Y-110831261D01*
X48752214Y-110783642D01*
X48752214Y-110450309D01*
X48561738Y-110450309D01*
X49180785Y-110878880D02*
X49180785Y-109878880D01*
X49752214Y-110878880D01*
X49752214Y-109878880D01*
X50228404Y-110878880D02*
X50228404Y-109878880D01*
X50466500Y-109878880D01*
X50609357Y-109926500D01*
X50704595Y-110021738D01*
X50752214Y-110116976D01*
X50799833Y-110307452D01*
X50799833Y-110450309D01*
X50752214Y-110640785D01*
X50704595Y-110736023D01*
X50609357Y-110831261D01*
X50466500Y-110878880D01*
X50228404Y-110878880D01*
X48728380Y-108211880D02*
X48395047Y-107735690D01*
X48156952Y-108211880D02*
X48156952Y-107211880D01*
X48537904Y-107211880D01*
X48633142Y-107259500D01*
X48680761Y-107307119D01*
X48728380Y-107402357D01*
X48728380Y-107545214D01*
X48680761Y-107640452D01*
X48633142Y-107688071D01*
X48537904Y-107735690D01*
X48156952Y-107735690D01*
X49109333Y-108164261D02*
X49252190Y-108211880D01*
X49490285Y-108211880D01*
X49585523Y-108164261D01*
X49633142Y-108116642D01*
X49680761Y-108021404D01*
X49680761Y-107926166D01*
X49633142Y-107830928D01*
X49585523Y-107783309D01*
X49490285Y-107735690D01*
X49299809Y-107688071D01*
X49204571Y-107640452D01*
X49156952Y-107592833D01*
X49109333Y-107497595D01*
X49109333Y-107402357D01*
X49156952Y-107307119D01*
X49204571Y-107259500D01*
X49299809Y-107211880D01*
X49537904Y-107211880D01*
X49680761Y-107259500D01*
X49966476Y-107211880D02*
X50537904Y-107211880D01*
X50252190Y-108211880D02*
X50252190Y-107211880D01*
X47617261Y-104798880D02*
X48188690Y-104798880D01*
X47902976Y-105798880D02*
X47902976Y-104798880D01*
X48522023Y-105275071D02*
X48855357Y-105275071D01*
X48998214Y-105798880D02*
X48522023Y-105798880D01*
X48522023Y-104798880D01*
X48998214Y-104798880D01*
X49379166Y-105751261D02*
X49522023Y-105798880D01*
X49760119Y-105798880D01*
X49855357Y-105751261D01*
X49902976Y-105703642D01*
X49950595Y-105608404D01*
X49950595Y-105513166D01*
X49902976Y-105417928D01*
X49855357Y-105370309D01*
X49760119Y-105322690D01*
X49569642Y-105275071D01*
X49474404Y-105227452D01*
X49426785Y-105179833D01*
X49379166Y-105084595D01*
X49379166Y-104989357D01*
X49426785Y-104894119D01*
X49474404Y-104846500D01*
X49569642Y-104798880D01*
X49807738Y-104798880D01*
X49950595Y-104846500D01*
X50236309Y-104798880D02*
X50807738Y-104798880D01*
X50522023Y-105798880D02*
X50522023Y-104798880D01*
X49657095Y-95766000D02*
X49561857Y-95718380D01*
X49419000Y-95718380D01*
X49276142Y-95766000D01*
X49180904Y-95861238D01*
X49133285Y-95956476D01*
X49085666Y-96146952D01*
X49085666Y-96289809D01*
X49133285Y-96480285D01*
X49180904Y-96575523D01*
X49276142Y-96670761D01*
X49419000Y-96718380D01*
X49514238Y-96718380D01*
X49657095Y-96670761D01*
X49704714Y-96623142D01*
X49704714Y-96289809D01*
X49514238Y-96289809D01*
X50133285Y-96718380D02*
X50133285Y-95718380D01*
X50704714Y-96718380D01*
X50704714Y-95718380D01*
X51180904Y-96718380D02*
X51180904Y-95718380D01*
X51419000Y-95718380D01*
X51561857Y-95766000D01*
X51657095Y-95861238D01*
X51704714Y-95956476D01*
X51752333Y-96146952D01*
X51752333Y-96289809D01*
X51704714Y-96480285D01*
X51657095Y-96575523D01*
X51561857Y-96670761D01*
X51419000Y-96718380D01*
X51180904Y-96718380D01*
X49784095Y-98893380D02*
X50355523Y-98893380D01*
X50069809Y-99893380D02*
X50069809Y-98893380D01*
X50593619Y-98893380D02*
X51260285Y-99893380D01*
X51260285Y-98893380D02*
X50593619Y-99893380D01*
X50442833Y-101925380D02*
X50109500Y-101449190D01*
X49871404Y-101925380D02*
X49871404Y-100925380D01*
X50252357Y-100925380D01*
X50347595Y-100973000D01*
X50395214Y-101020619D01*
X50442833Y-101115857D01*
X50442833Y-101258714D01*
X50395214Y-101353952D01*
X50347595Y-101401571D01*
X50252357Y-101449190D01*
X49871404Y-101449190D01*
X50776166Y-100925380D02*
X51442833Y-101925380D01*
X51442833Y-100925380D02*
X50776166Y-101925380D01*
X74739547Y-56649928D02*
X75501452Y-56649928D01*
D11*
X50165047Y-56840428D02*
X50926952Y-56840428D01*
X50546000Y-57221380D02*
X50546000Y-56459476D01*
D12*
X40954301Y-73881801D02*
G75*
G03*
X40954301Y-73881801I-125001J0D01*
G01*
X37041799Y-74256802D02*
X37191799Y-74256802D01*
X37041799Y-74256802D02*
X37041799Y-74406802D01*
X41141799Y-74256802D02*
X41291799Y-74256802D01*
X41291799Y-74256802D02*
X41291799Y-74406802D01*
X37041799Y-79006800D02*
X37191799Y-79006800D01*
X37041799Y-78856800D02*
X37041799Y-79006800D01*
X41291799Y-78856800D02*
X41291799Y-79006800D01*
X41141799Y-79006800D02*
X41291799Y-79006800D01*
D13*
X83333000Y-110620564D02*
X83333000Y-109416436D01*
X81513000Y-110620564D02*
X81513000Y-109416436D01*
X80487436Y-105621500D02*
X81691564Y-105621500D01*
X80487436Y-103801500D02*
X81691564Y-103801500D01*
X48210436Y-106940000D02*
X49414564Y-106940000D01*
X48210436Y-108760000D02*
X49414564Y-108760000D01*
D12*
X68440300Y-105067100D02*
X68440300Y-109816900D01*
X68440300Y-109816900D02*
X68734360Y-109816900D01*
X78498700Y-109816900D02*
X78498700Y-105067100D01*
X78498700Y-105067100D02*
X78204640Y-105067100D01*
X68734362Y-105067100D02*
X68440300Y-105067100D01*
X78204640Y-109816900D02*
X78498700Y-109816900D01*
X72035002Y-103383601D02*
X71654002Y-103383601D01*
X71654002Y-103383601D02*
X71654002Y-103637601D01*
X71654002Y-103637601D02*
X72035002Y-103637601D01*
X72035002Y-103637601D02*
X72035002Y-103383601D01*
X72685001Y-111500399D02*
X72304001Y-111500399D01*
X72304001Y-111500399D02*
X72304001Y-111246399D01*
X72304001Y-111246399D02*
X72685001Y-111246399D01*
X72685001Y-111246399D02*
X72685001Y-111500399D01*
D13*
X54670000Y-100266500D02*
X52010000Y-100266500D01*
X54670000Y-100266500D02*
X54670000Y-95126500D01*
X54670000Y-95126500D02*
X52010000Y-95126500D01*
X52010000Y-100266500D02*
X52010000Y-95126500D01*
X52010000Y-102866500D02*
X52010000Y-101536500D01*
X53340000Y-102866500D02*
X52010000Y-102866500D01*
X57319500Y-109316436D02*
X57319500Y-110520564D01*
X59139500Y-109316436D02*
X59139500Y-110520564D01*
X53340000Y-103953000D02*
X54670000Y-103953000D01*
X54670000Y-103953000D02*
X54670000Y-105283000D01*
X54670000Y-106553000D02*
X54670000Y-111693000D01*
X52010000Y-111693000D02*
X54670000Y-111693000D01*
X52010000Y-106553000D02*
X52010000Y-111693000D01*
X52010000Y-106553000D02*
X54670000Y-106553000D01*
D12*
X61188600Y-112344200D02*
X65938400Y-112344200D01*
X65938400Y-102285800D02*
X61188600Y-102285800D01*
X59403501Y-107124500D02*
X59403501Y-107505500D01*
X59403501Y-107505500D02*
X59657501Y-107505500D01*
X59657501Y-107505500D02*
X59657501Y-107124500D01*
X59657501Y-107124500D02*
X59403501Y-107124500D01*
X67723499Y-111624499D02*
X67723499Y-112005499D01*
X67723499Y-112005499D02*
X67469499Y-112005499D01*
X67469499Y-112005499D02*
X67469499Y-111624499D01*
X67469499Y-111624499D02*
X67723499Y-111624499D01*
X67723499Y-106624498D02*
X67723499Y-107005498D01*
X67723499Y-107005498D02*
X67469499Y-107005498D01*
X67469499Y-107005498D02*
X67469499Y-106624498D01*
X67469499Y-106624498D02*
X67723499Y-106624498D01*
D13*
X39859363Y-67508801D02*
X38655235Y-67508801D01*
X39859363Y-65688801D02*
X38655235Y-65688801D01*
X39895863Y-68101801D02*
X38691735Y-68101801D01*
X39895863Y-69921801D02*
X38691735Y-69921801D01*
X39932363Y-72334801D02*
X38728235Y-72334801D01*
X39932363Y-70514801D02*
X38728235Y-70514801D01*
X45229863Y-74451801D02*
X44025735Y-74451801D01*
X45229863Y-76271801D02*
X44025735Y-76271801D01*
X41981799Y-82125737D02*
X41981799Y-83329865D01*
X40161799Y-82125737D02*
X40161799Y-83329865D01*
X43354235Y-77118801D02*
X44558363Y-77118801D01*
X43354235Y-78938801D02*
X44558363Y-78938801D01*
X31858363Y-73562801D02*
X30654235Y-73562801D01*
X31858363Y-75382801D02*
X30654235Y-75382801D01*
X31858363Y-72969801D02*
X30654235Y-72969801D01*
X31858363Y-71149801D02*
X30654235Y-71149801D01*
X39060799Y-83420365D02*
X39060799Y-82216237D01*
X37240799Y-83420365D02*
X37240799Y-82216237D01*
X31894863Y-68736801D02*
X30690735Y-68736801D01*
X31894863Y-70556801D02*
X30690735Y-70556801D01*
X34192799Y-73677865D02*
X34192799Y-72473737D01*
X36012799Y-73677865D02*
X36012799Y-72473737D01*
X63202735Y-68990801D02*
X64406863Y-68990801D01*
X63202735Y-70810801D02*
X64406863Y-70810801D01*
X33218799Y-85899237D02*
X33218799Y-87103365D01*
X31398799Y-85899237D02*
X31398799Y-87103365D01*
X70629799Y-62231801D02*
X70629799Y-50011801D01*
X70629799Y-50011801D02*
X58249799Y-50011801D01*
X58249799Y-50011801D02*
X58249799Y-62231801D01*
X58249799Y-62231801D02*
X70629799Y-62231801D01*
X70629799Y-51511801D02*
X70629799Y-53311801D01*
X70629799Y-53311801D02*
X58249799Y-53311801D01*
X58249799Y-53311801D02*
X58249799Y-51511801D01*
X58249799Y-51511801D02*
X70629799Y-51511801D01*
X67979799Y-50011801D02*
X65979799Y-50011801D01*
X65979799Y-50011801D02*
X66229799Y-51511801D01*
X66229799Y-51511801D02*
X67729799Y-51511801D01*
X67729799Y-51511801D02*
X67979799Y-50011801D01*
X62899799Y-50011801D02*
X60899799Y-50011801D01*
X60899799Y-50011801D02*
X61149799Y-51511801D01*
X61149799Y-51511801D02*
X62649799Y-51511801D01*
X62649799Y-51511801D02*
X62899799Y-50011801D01*
X66679799Y-63031801D02*
X66979799Y-62431801D01*
X66979799Y-62431801D02*
X67279799Y-63031801D01*
X67279799Y-63031801D02*
X66679799Y-63031801D01*
D12*
X57200799Y-83700542D02*
X57200799Y-87851060D01*
X57200799Y-93850540D02*
X57200799Y-99847401D01*
X77266799Y-82268061D02*
X77266799Y-71704201D01*
X57200799Y-71704201D02*
X57200799Y-77701062D01*
X57200799Y-99847401D02*
X77266799Y-99847401D01*
X77266799Y-99847401D02*
X77266799Y-89283541D01*
X77266799Y-71704201D02*
X57200799Y-71704201D01*
X56399500Y-70561201D02*
G75*
G03*
X56399500Y-70561201I-127000J0D01*
G01*
D13*
X44141799Y-90910801D02*
X40541799Y-90910801D01*
X40503321Y-90922323D02*
G75*
G03*
X42341799Y-95360801I1838478J-1838478D01*
G01*
X44180277Y-90922323D02*
G75*
G02*
X42341799Y-95360801I-1838478J-1838478D01*
G01*
X55426363Y-61920801D02*
X54222235Y-61920801D01*
X55426363Y-60100801D02*
X54222235Y-60100801D01*
X54222235Y-59126801D02*
X55426363Y-59126801D01*
X54222235Y-57306801D02*
X55426363Y-57306801D01*
X56860235Y-63110801D02*
X60964363Y-63110801D01*
X56860235Y-66530801D02*
X60964363Y-66530801D01*
X43263735Y-96422801D02*
X44467863Y-96422801D01*
X43263735Y-98242801D02*
X44467863Y-98242801D01*
X41522235Y-88167801D02*
X42726363Y-88167801D01*
X41522235Y-89987801D02*
X42726363Y-89987801D01*
X37011363Y-91850801D02*
X35807235Y-91850801D01*
X37011363Y-93670801D02*
X35807235Y-93670801D01*
X42853363Y-101163801D02*
X41649235Y-101163801D01*
X42853363Y-99343801D02*
X41649235Y-99343801D01*
X30002735Y-79484801D02*
X34106863Y-79484801D01*
X30002735Y-76064801D02*
X34106863Y-76064801D01*
X49384363Y-62640801D02*
X48180235Y-62640801D01*
X49384363Y-64460801D02*
X48180235Y-64460801D01*
X48180235Y-60100801D02*
X49384363Y-60100801D01*
X48180235Y-61920801D02*
X49384363Y-61920801D01*
X45955363Y-71784801D02*
X44751235Y-71784801D01*
X45955363Y-73604801D02*
X44751235Y-73604801D01*
X39780799Y-63227365D02*
X39780799Y-62023237D01*
X41600799Y-63227365D02*
X41600799Y-62023237D01*
X36266799Y-67745365D02*
X36266799Y-66541237D01*
X34446799Y-67745365D02*
X34446799Y-66541237D01*
X38933799Y-63263865D02*
X38933799Y-62059737D01*
X37113799Y-63263865D02*
X37113799Y-62059737D01*
X44116235Y-82960801D02*
X45320363Y-82960801D01*
X44116235Y-84780801D02*
X45320363Y-84780801D01*
X34700799Y-82216237D02*
X34700799Y-83420365D01*
X36520799Y-82216237D02*
X36520799Y-83420365D01*
X37392363Y-87574801D02*
X36188235Y-87574801D01*
X37392363Y-85754801D02*
X36188235Y-85754801D01*
D12*
X46965557Y-93611701D02*
X46266099Y-93611701D01*
X46266099Y-93611701D02*
X46266099Y-94028261D01*
X46266099Y-95465901D02*
X46965557Y-95465901D01*
X46266099Y-95049341D02*
X46266099Y-95465901D01*
X47561499Y-96608901D02*
G75*
G03*
X47561499Y-96608901I-127000J0D01*
G01*
X49520799Y-73916800D02*
X49520799Y-72916802D01*
X49520799Y-68116802D02*
X49520799Y-67916802D01*
X54720799Y-68116802D02*
X54720799Y-67916802D01*
X54720799Y-73916800D02*
X54720799Y-73716800D01*
X43129801Y-79376802D02*
X44254797Y-79376802D01*
X43129801Y-79623802D02*
X43129801Y-79376802D01*
X43129801Y-82776800D02*
X43129801Y-82529800D01*
X43129801Y-82776800D02*
X43376801Y-82776800D01*
X46132797Y-82776800D02*
X46379797Y-82776800D01*
X46379797Y-82776800D02*
X46379797Y-82529800D01*
X46379797Y-79623802D02*
X46379797Y-79376802D01*
X46132797Y-79376802D02*
X46379797Y-79376802D01*
X59728099Y-67386201D02*
X57721499Y-67386201D01*
X57721499Y-70637401D02*
X59728099Y-70637401D01*
X30035499Y-83464401D02*
X32042099Y-83464401D01*
X32042099Y-80213201D02*
X30035499Y-80213201D01*
D10*
X38957404Y-79271880D02*
X38957404Y-80081404D01*
X39005023Y-80176642D01*
X39052642Y-80224261D01*
X39147880Y-80271880D01*
X39338357Y-80271880D01*
X39433595Y-80224261D01*
X39481214Y-80176642D01*
X39528833Y-80081404D01*
X39528833Y-79271880D01*
X40528833Y-80271880D02*
X39957404Y-80271880D01*
X40243119Y-80271880D02*
X40243119Y-79271880D01*
X40147880Y-79414738D01*
X40052642Y-79509976D01*
X39957404Y-79557595D01*
X40862166Y-79271880D02*
X41481214Y-79271880D01*
X41147880Y-79652833D01*
X41290738Y-79652833D01*
X41385976Y-79700452D01*
X41433595Y-79748071D01*
X41481214Y-79843309D01*
X41481214Y-80081404D01*
X41433595Y-80176642D01*
X41385976Y-80224261D01*
X41290738Y-80271880D01*
X41005023Y-80271880D01*
X40909785Y-80224261D01*
X40862166Y-80176642D01*
X27392380Y-178910285D02*
X27392380Y-178338857D01*
X28392380Y-178624571D02*
X27392380Y-178624571D01*
X28392380Y-178005523D02*
X27392380Y-178005523D01*
X27392380Y-177624571D01*
X27440000Y-177529333D01*
X27487619Y-177481714D01*
X27582857Y-177434095D01*
X27725714Y-177434095D01*
X27820952Y-177481714D01*
X27868571Y-177529333D01*
X27916190Y-177624571D01*
X27916190Y-178005523D01*
X28344761Y-177053142D02*
X28392380Y-176910285D01*
X28392380Y-176672190D01*
X28344761Y-176576952D01*
X28297142Y-176529333D01*
X28201904Y-176481714D01*
X28106666Y-176481714D01*
X28011428Y-176529333D01*
X27963809Y-176576952D01*
X27916190Y-176672190D01*
X27868571Y-176862666D01*
X27820952Y-176957904D01*
X27773333Y-177005523D01*
X27678095Y-177053142D01*
X27582857Y-177053142D01*
X27487619Y-177005523D01*
X27440000Y-176957904D01*
X27392380Y-176862666D01*
X27392380Y-176624571D01*
X27440000Y-176481714D01*
X27392380Y-175576952D02*
X27392380Y-176053142D01*
X27868571Y-176100761D01*
X27820952Y-176053142D01*
X27773333Y-175957904D01*
X27773333Y-175719809D01*
X27820952Y-175624571D01*
X27868571Y-175576952D01*
X27963809Y-175529333D01*
X28201904Y-175529333D01*
X28297142Y-175576952D01*
X28344761Y-175624571D01*
X28392380Y-175719809D01*
X28392380Y-175957904D01*
X28344761Y-176053142D01*
X28297142Y-176100761D01*
X27392380Y-174624571D02*
X27392380Y-175100761D01*
X27868571Y-175148380D01*
X27820952Y-175100761D01*
X27773333Y-175005523D01*
X27773333Y-174767428D01*
X27820952Y-174672190D01*
X27868571Y-174624571D01*
X27963809Y-174576952D01*
X28201904Y-174576952D01*
X28297142Y-174624571D01*
X28344761Y-174672190D01*
X28392380Y-174767428D01*
X28392380Y-175005523D01*
X28344761Y-175100761D01*
X28297142Y-175148380D01*
X27487619Y-174196000D02*
X27440000Y-174148380D01*
X27392380Y-174053142D01*
X27392380Y-173815047D01*
X27440000Y-173719809D01*
X27487619Y-173672190D01*
X27582857Y-173624571D01*
X27678095Y-173624571D01*
X27820952Y-173672190D01*
X28392380Y-174243619D01*
X28392380Y-173624571D01*
X27820952Y-173053142D02*
X27773333Y-173148380D01*
X27725714Y-173196000D01*
X27630476Y-173243619D01*
X27582857Y-173243619D01*
X27487619Y-173196000D01*
X27440000Y-173148380D01*
X27392380Y-173053142D01*
X27392380Y-172862666D01*
X27440000Y-172767428D01*
X27487619Y-172719809D01*
X27582857Y-172672190D01*
X27630476Y-172672190D01*
X27725714Y-172719809D01*
X27773333Y-172767428D01*
X27820952Y-172862666D01*
X27820952Y-173053142D01*
X27868571Y-173148380D01*
X27916190Y-173196000D01*
X28011428Y-173243619D01*
X28201904Y-173243619D01*
X28297142Y-173196000D01*
X28344761Y-173148380D01*
X28392380Y-173053142D01*
X28392380Y-172862666D01*
X28344761Y-172767428D01*
X28297142Y-172719809D01*
X28201904Y-172672190D01*
X28011428Y-172672190D01*
X27916190Y-172719809D01*
X27868571Y-172767428D01*
X27820952Y-172862666D01*
X27820952Y-172100761D02*
X27773333Y-172196000D01*
X27725714Y-172243619D01*
X27630476Y-172291238D01*
X27582857Y-172291238D01*
X27487619Y-172243619D01*
X27440000Y-172196000D01*
X27392380Y-172100761D01*
X27392380Y-171910285D01*
X27440000Y-171815047D01*
X27487619Y-171767428D01*
X27582857Y-171719809D01*
X27630476Y-171719809D01*
X27725714Y-171767428D01*
X27773333Y-171815047D01*
X27820952Y-171910285D01*
X27820952Y-172100761D01*
X27868571Y-172196000D01*
X27916190Y-172243619D01*
X28011428Y-172291238D01*
X28201904Y-172291238D01*
X28297142Y-172243619D01*
X28344761Y-172196000D01*
X28392380Y-172100761D01*
X28392380Y-171910285D01*
X28344761Y-171815047D01*
X28297142Y-171767428D01*
X28201904Y-171719809D01*
X28011428Y-171719809D01*
X27916190Y-171767428D01*
X27868571Y-171815047D01*
X27820952Y-171910285D01*
X27487619Y-171338857D02*
X27440000Y-171291238D01*
X27392380Y-171196000D01*
X27392380Y-170957904D01*
X27440000Y-170862666D01*
X27487619Y-170815047D01*
X27582857Y-170767428D01*
X27678095Y-170767428D01*
X27820952Y-170815047D01*
X28392380Y-171386476D01*
X28392380Y-170767428D01*
X28487619Y-169672190D02*
X28440000Y-169767428D01*
X28344761Y-169862666D01*
X28201904Y-170005523D01*
X28154285Y-170100761D01*
X28154285Y-170196000D01*
X28392380Y-170148380D02*
X28344761Y-170243619D01*
X28249523Y-170338857D01*
X28059047Y-170386476D01*
X27725714Y-170386476D01*
X27535238Y-170338857D01*
X27440000Y-170243619D01*
X27392380Y-170148380D01*
X27392380Y-169957904D01*
X27440000Y-169862666D01*
X27535238Y-169767428D01*
X27725714Y-169719809D01*
X28059047Y-169719809D01*
X28249523Y-169767428D01*
X28344761Y-169862666D01*
X28392380Y-169957904D01*
X28392380Y-170148380D01*
X28392380Y-168719809D02*
X27916190Y-169053142D01*
X28392380Y-169291238D02*
X27392380Y-169291238D01*
X27392380Y-168910285D01*
X27440000Y-168815047D01*
X27487619Y-168767428D01*
X27582857Y-168719809D01*
X27725714Y-168719809D01*
X27820952Y-168767428D01*
X27868571Y-168815047D01*
X27916190Y-168910285D01*
X27916190Y-169291238D01*
X28392380Y-168291238D02*
X27392380Y-168291238D01*
X27392380Y-167910285D01*
X27440000Y-167815047D01*
X27487619Y-167767428D01*
X27582857Y-167719809D01*
X27725714Y-167719809D01*
X27820952Y-167767428D01*
X27868571Y-167815047D01*
X27916190Y-167910285D01*
X27916190Y-168291238D01*
X28392380Y-167291238D02*
X27392380Y-167291238D01*
X28106666Y-166957904D01*
X27392380Y-166624571D01*
X28392380Y-166624571D01*
X28392380Y-165576952D02*
X27916190Y-165910285D01*
X28392380Y-166148380D02*
X27392380Y-166148380D01*
X27392380Y-165767428D01*
X27440000Y-165672190D01*
X27487619Y-165624571D01*
X27582857Y-165576952D01*
X27725714Y-165576952D01*
X27820952Y-165624571D01*
X27868571Y-165672190D01*
X27916190Y-165767428D01*
X27916190Y-166148380D01*
X28487619Y-164481714D02*
X28440000Y-164576952D01*
X28344761Y-164672190D01*
X28201904Y-164815047D01*
X28154285Y-164910285D01*
X28154285Y-165005523D01*
X28392380Y-164957904D02*
X28344761Y-165053142D01*
X28249523Y-165148380D01*
X28059047Y-165196000D01*
X27725714Y-165196000D01*
X27535238Y-165148380D01*
X27440000Y-165053142D01*
X27392380Y-164957904D01*
X27392380Y-164767428D01*
X27440000Y-164672190D01*
X27535238Y-164576952D01*
X27725714Y-164529333D01*
X28059047Y-164529333D01*
X28249523Y-164576952D01*
X28344761Y-164672190D01*
X28392380Y-164767428D01*
X28392380Y-164957904D01*
X28392380Y-163576952D02*
X28392380Y-164148380D01*
X28392380Y-163862666D02*
X27392380Y-163862666D01*
X27535238Y-163957904D01*
X27630476Y-164053142D01*
X27678095Y-164148380D01*
X38619179Y-76631801D02*
X38857275Y-76631801D01*
X38762037Y-76869896D02*
X38857275Y-76631801D01*
X38762037Y-76393705D01*
X39047751Y-76774658D02*
X38857275Y-76631801D01*
X39047751Y-76488943D01*
X42844979Y-78026686D02*
X41844979Y-78026686D01*
X41844979Y-77788591D01*
X41892599Y-77645734D01*
X41987837Y-77550496D01*
X42083075Y-77502877D01*
X42273551Y-77455258D01*
X42416408Y-77455258D01*
X42606884Y-77502877D01*
X42702122Y-77550496D01*
X42797360Y-77645734D01*
X42844979Y-77788591D01*
X42844979Y-78026686D01*
X42797360Y-76645734D02*
X42844979Y-76740972D01*
X42844979Y-76931448D01*
X42797360Y-77026686D01*
X42702122Y-77074305D01*
X42321170Y-77074305D01*
X42225932Y-77026686D01*
X42178313Y-76931448D01*
X42178313Y-76740972D01*
X42225932Y-76645734D01*
X42321170Y-76598115D01*
X42416408Y-76598115D01*
X42511646Y-77074305D01*
X42797360Y-76217162D02*
X42844979Y-76121924D01*
X42844979Y-75931448D01*
X42797360Y-75836210D01*
X42702122Y-75788591D01*
X42654503Y-75788591D01*
X42559265Y-75836210D01*
X42511646Y-75931448D01*
X42511646Y-76074305D01*
X42464027Y-76169543D01*
X42368789Y-76217162D01*
X42321170Y-76217162D01*
X42225932Y-76169543D01*
X42178313Y-76074305D01*
X42178313Y-75931448D01*
X42225932Y-75836210D01*
X42844979Y-75360020D02*
X42178313Y-75360020D01*
X41844979Y-75360020D02*
X41892599Y-75407639D01*
X41940218Y-75360020D01*
X41892599Y-75312401D01*
X41844979Y-75360020D01*
X41940218Y-75360020D01*
X42178313Y-74455258D02*
X42987837Y-74455258D01*
X43083075Y-74502877D01*
X43130694Y-74550496D01*
X43178313Y-74645734D01*
X43178313Y-74788591D01*
X43130694Y-74883829D01*
X42797360Y-74455258D02*
X42844979Y-74550496D01*
X42844979Y-74740972D01*
X42797360Y-74836210D01*
X42749741Y-74883829D01*
X42654503Y-74931448D01*
X42368789Y-74931448D01*
X42273551Y-74883829D01*
X42225932Y-74836210D01*
X42178313Y-74740972D01*
X42178313Y-74550496D01*
X42225932Y-74455258D01*
X42178313Y-73979067D02*
X42844979Y-73979067D01*
X42273551Y-73979067D02*
X42225932Y-73931448D01*
X42178313Y-73836210D01*
X42178313Y-73693353D01*
X42225932Y-73598115D01*
X42321170Y-73550496D01*
X42844979Y-73550496D01*
X42844979Y-72645734D02*
X42321170Y-72645734D01*
X42225932Y-72693353D01*
X42178313Y-72788591D01*
X42178313Y-72979067D01*
X42225932Y-73074305D01*
X42797360Y-72645734D02*
X42844979Y-72740972D01*
X42844979Y-72979067D01*
X42797360Y-73074305D01*
X42702122Y-73121924D01*
X42606884Y-73121924D01*
X42511646Y-73074305D01*
X42464027Y-72979067D01*
X42464027Y-72740972D01*
X42416408Y-72645734D01*
X42178313Y-72312401D02*
X42178313Y-71931448D01*
X41844979Y-72169543D02*
X42702122Y-72169543D01*
X42797360Y-72121924D01*
X42844979Y-72026686D01*
X42844979Y-71931448D01*
X42844979Y-71455258D02*
X42797360Y-71550496D01*
X42749741Y-71598115D01*
X42654503Y-71645734D01*
X42368789Y-71645734D01*
X42273551Y-71598115D01*
X42225932Y-71550496D01*
X42178313Y-71455258D01*
X42178313Y-71312401D01*
X42225932Y-71217162D01*
X42273551Y-71169543D01*
X42368789Y-71121924D01*
X42654503Y-71121924D01*
X42749741Y-71169543D01*
X42797360Y-71217162D01*
X42844979Y-71312401D01*
X42844979Y-71455258D01*
X42844979Y-70693353D02*
X42178313Y-70693353D01*
X42368789Y-70693353D02*
X42273551Y-70645734D01*
X42225932Y-70598115D01*
X42178313Y-70502877D01*
X42178313Y-70407639D01*
X42844979Y-70026686D02*
X42844979Y-69836210D01*
X42797360Y-69740972D01*
X42749741Y-69693353D01*
X42606884Y-69598115D01*
X42416408Y-69550496D01*
X42035456Y-69550496D01*
X41940218Y-69598115D01*
X41892599Y-69645734D01*
X41844979Y-69740972D01*
X41844979Y-69931448D01*
X41892599Y-70026686D01*
X41940218Y-70074305D01*
X42035456Y-70121924D01*
X42273551Y-70121924D01*
X42368789Y-70074305D01*
X42416408Y-70026686D01*
X42464027Y-69931448D01*
X42464027Y-69740972D01*
X42416408Y-69645734D01*
X42368789Y-69598115D01*
X42273551Y-69550496D01*
X81055380Y-110185166D02*
X80579190Y-110518500D01*
X81055380Y-110756595D02*
X80055380Y-110756595D01*
X80055380Y-110375642D01*
X80103000Y-110280404D01*
X80150619Y-110232785D01*
X80245857Y-110185166D01*
X80388714Y-110185166D01*
X80483952Y-110232785D01*
X80531571Y-110280404D01*
X80579190Y-110375642D01*
X80579190Y-110756595D01*
X80150619Y-109804214D02*
X80103000Y-109756595D01*
X80055380Y-109661357D01*
X80055380Y-109423261D01*
X80103000Y-109328023D01*
X80150619Y-109280404D01*
X80245857Y-109232785D01*
X80341095Y-109232785D01*
X80483952Y-109280404D01*
X81055380Y-109851833D01*
X81055380Y-109232785D01*
X80922833Y-103248642D02*
X80875214Y-103296261D01*
X80732357Y-103343880D01*
X80637119Y-103343880D01*
X80494261Y-103296261D01*
X80399023Y-103201023D01*
X80351404Y-103105785D01*
X80303785Y-102915309D01*
X80303785Y-102772452D01*
X80351404Y-102581976D01*
X80399023Y-102486738D01*
X80494261Y-102391500D01*
X80637119Y-102343880D01*
X80732357Y-102343880D01*
X80875214Y-102391500D01*
X80922833Y-102439119D01*
X81779976Y-102343880D02*
X81589500Y-102343880D01*
X81494261Y-102391500D01*
X81446642Y-102439119D01*
X81351404Y-102581976D01*
X81303785Y-102772452D01*
X81303785Y-103153404D01*
X81351404Y-103248642D01*
X81399023Y-103296261D01*
X81494261Y-103343880D01*
X81684738Y-103343880D01*
X81779976Y-103296261D01*
X81827595Y-103248642D01*
X81875214Y-103153404D01*
X81875214Y-102915309D01*
X81827595Y-102820071D01*
X81779976Y-102772452D01*
X81684738Y-102724833D01*
X81494261Y-102724833D01*
X81399023Y-102772452D01*
X81351404Y-102820071D01*
X81303785Y-102915309D01*
X48169642Y-106482380D02*
X47836309Y-106006190D01*
X47598214Y-106482380D02*
X47598214Y-105482380D01*
X47979166Y-105482380D01*
X48074404Y-105530000D01*
X48122023Y-105577619D01*
X48169642Y-105672857D01*
X48169642Y-105815714D01*
X48122023Y-105910952D01*
X48074404Y-105958571D01*
X47979166Y-106006190D01*
X47598214Y-106006190D01*
X48502976Y-105482380D02*
X49169642Y-105482380D01*
X48741071Y-106482380D01*
X50074404Y-106482380D02*
X49502976Y-106482380D01*
X49788690Y-106482380D02*
X49788690Y-105482380D01*
X49693452Y-105625238D01*
X49598214Y-105720476D01*
X49502976Y-105768095D01*
X70508880Y-108394404D02*
X71318404Y-108394404D01*
X71413642Y-108346785D01*
X71461261Y-108299166D01*
X71508880Y-108203928D01*
X71508880Y-108013452D01*
X71461261Y-107918214D01*
X71413642Y-107870595D01*
X71318404Y-107822976D01*
X70508880Y-107822976D01*
X70508880Y-107442023D02*
X70508880Y-106822976D01*
X70889833Y-107156309D01*
X70889833Y-107013452D01*
X70937452Y-106918214D01*
X70985071Y-106870595D01*
X71080309Y-106822976D01*
X71318404Y-106822976D01*
X71413642Y-106870595D01*
X71461261Y-106918214D01*
X71508880Y-107013452D01*
X71508880Y-107299166D01*
X71461261Y-107394404D01*
X71413642Y-107442023D01*
X68739333Y-101322166D02*
X69215523Y-101322166D01*
X68644095Y-101607880D02*
X68977428Y-100607880D01*
X69310761Y-101607880D01*
X69644095Y-101607880D02*
X69644095Y-100607880D01*
X69882190Y-100607880D01*
X70025047Y-100655500D01*
X70120285Y-100750738D01*
X70167904Y-100845976D01*
X70215523Y-101036452D01*
X70215523Y-101179309D01*
X70167904Y-101369785D01*
X70120285Y-101465023D01*
X70025047Y-101560261D01*
X69882190Y-101607880D01*
X69644095Y-101607880D01*
X71167904Y-100655500D02*
X71072666Y-100607880D01*
X70929809Y-100607880D01*
X70786952Y-100655500D01*
X70691714Y-100750738D01*
X70644095Y-100845976D01*
X70596476Y-101036452D01*
X70596476Y-101179309D01*
X70644095Y-101369785D01*
X70691714Y-101465023D01*
X70786952Y-101560261D01*
X70929809Y-101607880D01*
X71025047Y-101607880D01*
X71167904Y-101560261D01*
X71215523Y-101512642D01*
X71215523Y-101179309D01*
X71025047Y-101179309D01*
X71548857Y-100607880D02*
X72215523Y-100607880D01*
X71786952Y-101607880D01*
X72786952Y-100607880D02*
X72882190Y-100607880D01*
X72977428Y-100655500D01*
X73025047Y-100703119D01*
X73072666Y-100798357D01*
X73120285Y-100988833D01*
X73120285Y-101226928D01*
X73072666Y-101417404D01*
X73025047Y-101512642D01*
X72977428Y-101560261D01*
X72882190Y-101607880D01*
X72786952Y-101607880D01*
X72691714Y-101560261D01*
X72644095Y-101512642D01*
X72596476Y-101417404D01*
X72548857Y-101226928D01*
X72548857Y-100988833D01*
X72596476Y-100798357D01*
X72644095Y-100703119D01*
X72691714Y-100655500D01*
X72786952Y-100607880D01*
X73977428Y-100607880D02*
X73786952Y-100607880D01*
X73691714Y-100655500D01*
X73644095Y-100703119D01*
X73548857Y-100845976D01*
X73501238Y-101036452D01*
X73501238Y-101417404D01*
X73548857Y-101512642D01*
X73596476Y-101560261D01*
X73691714Y-101607880D01*
X73882190Y-101607880D01*
X73977428Y-101560261D01*
X74025047Y-101512642D01*
X74072666Y-101417404D01*
X74072666Y-101179309D01*
X74025047Y-101084071D01*
X73977428Y-101036452D01*
X73882190Y-100988833D01*
X73691714Y-100988833D01*
X73596476Y-101036452D01*
X73548857Y-101084071D01*
X73501238Y-101179309D01*
X74834571Y-101084071D02*
X74977428Y-101131690D01*
X75025047Y-101179309D01*
X75072666Y-101274547D01*
X75072666Y-101417404D01*
X75025047Y-101512642D01*
X74977428Y-101560261D01*
X74882190Y-101607880D01*
X74501238Y-101607880D01*
X74501238Y-100607880D01*
X74834571Y-100607880D01*
X74929809Y-100655500D01*
X74977428Y-100703119D01*
X75025047Y-100798357D01*
X75025047Y-100893595D01*
X74977428Y-100988833D01*
X74929809Y-101036452D01*
X74834571Y-101084071D01*
X74501238Y-101084071D01*
X76072666Y-101607880D02*
X75739333Y-101131690D01*
X75501238Y-101607880D02*
X75501238Y-100607880D01*
X75882190Y-100607880D01*
X75977428Y-100655500D01*
X76025047Y-100703119D01*
X76072666Y-100798357D01*
X76072666Y-100941214D01*
X76025047Y-101036452D01*
X75977428Y-101084071D01*
X75882190Y-101131690D01*
X75501238Y-101131690D01*
X76501238Y-100607880D02*
X76501238Y-101417404D01*
X76548857Y-101512642D01*
X76596476Y-101560261D01*
X76691714Y-101607880D01*
X76882190Y-101607880D01*
X76977428Y-101560261D01*
X77025047Y-101512642D01*
X77072666Y-101417404D01*
X77072666Y-100607880D01*
X77453619Y-100607880D02*
X78120285Y-100607880D01*
X77453619Y-101607880D01*
X78120285Y-101607880D01*
X78644680Y-104368600D02*
X78882776Y-104368600D01*
X78787538Y-104606695D02*
X78882776Y-104368600D01*
X78787538Y-104130504D01*
X79073252Y-104511457D02*
X78882776Y-104368600D01*
X79073252Y-104225742D01*
X78644680Y-104368600D02*
X78882776Y-104368600D01*
X78787538Y-104606695D02*
X78882776Y-104368600D01*
X78787538Y-104130504D01*
X79073252Y-104511457D02*
X78882776Y-104368600D01*
X79073252Y-104225742D01*
X53006666Y-103758880D02*
X53006666Y-104473166D01*
X52959047Y-104616023D01*
X52863809Y-104711261D01*
X52720952Y-104758880D01*
X52625714Y-104758880D01*
X53387619Y-103758880D02*
X54006666Y-103758880D01*
X53673333Y-104139833D01*
X53816190Y-104139833D01*
X53911428Y-104187452D01*
X53959047Y-104235071D01*
X54006666Y-104330309D01*
X54006666Y-104568404D01*
X53959047Y-104663642D01*
X53911428Y-104711261D01*
X53816190Y-104758880D01*
X53530476Y-104758880D01*
X53435238Y-104711261D01*
X53387619Y-104663642D01*
X60406642Y-110085166D02*
X60454261Y-110132785D01*
X60501880Y-110275642D01*
X60501880Y-110370880D01*
X60454261Y-110513738D01*
X60359023Y-110608976D01*
X60263785Y-110656595D01*
X60073309Y-110704214D01*
X59930452Y-110704214D01*
X59739976Y-110656595D01*
X59644738Y-110608976D01*
X59549500Y-110513738D01*
X59501880Y-110370880D01*
X59501880Y-110275642D01*
X59549500Y-110132785D01*
X59597119Y-110085166D01*
X59501880Y-109180404D02*
X59501880Y-109656595D01*
X59978071Y-109704214D01*
X59930452Y-109656595D01*
X59882833Y-109561357D01*
X59882833Y-109323261D01*
X59930452Y-109228023D01*
X59978071Y-109180404D01*
X60073309Y-109132785D01*
X60311404Y-109132785D01*
X60406642Y-109180404D01*
X60454261Y-109228023D01*
X60501880Y-109323261D01*
X60501880Y-109561357D01*
X60454261Y-109656595D01*
X60406642Y-109704214D01*
X53006666Y-101965380D02*
X53006666Y-102679666D01*
X52959047Y-102822523D01*
X52863809Y-102917761D01*
X52720952Y-102965380D01*
X52625714Y-102965380D01*
X53911428Y-102298714D02*
X53911428Y-102965380D01*
X53673333Y-101917761D02*
X53435238Y-102632047D01*
X54054285Y-102632047D01*
X62801595Y-106767380D02*
X62801595Y-107576904D01*
X62849214Y-107672142D01*
X62896833Y-107719761D01*
X62992071Y-107767380D01*
X63182547Y-107767380D01*
X63277785Y-107719761D01*
X63325404Y-107672142D01*
X63373023Y-107576904D01*
X63373023Y-106767380D01*
X63801595Y-106862619D02*
X63849214Y-106815000D01*
X63944452Y-106767380D01*
X64182547Y-106767380D01*
X64277785Y-106815000D01*
X64325404Y-106862619D01*
X64373023Y-106957857D01*
X64373023Y-107053095D01*
X64325404Y-107195952D01*
X63753976Y-107767380D01*
X64373023Y-107767380D01*
X56230166Y-116339880D02*
X56230166Y-115339880D01*
X56563500Y-116054166D01*
X56896833Y-115339880D01*
X56896833Y-116339880D01*
X57325404Y-116292261D02*
X57468261Y-116339880D01*
X57706357Y-116339880D01*
X57801595Y-116292261D01*
X57849214Y-116244642D01*
X57896833Y-116149404D01*
X57896833Y-116054166D01*
X57849214Y-115958928D01*
X57801595Y-115911309D01*
X57706357Y-115863690D01*
X57515880Y-115816071D01*
X57420642Y-115768452D01*
X57373023Y-115720833D01*
X57325404Y-115625595D01*
X57325404Y-115530357D01*
X57373023Y-115435119D01*
X57420642Y-115387500D01*
X57515880Y-115339880D01*
X57753976Y-115339880D01*
X57896833Y-115387500D01*
X58325404Y-116339880D02*
X58325404Y-115339880D01*
X58706357Y-115339880D01*
X58801595Y-115387500D01*
X58849214Y-115435119D01*
X58896833Y-115530357D01*
X58896833Y-115673214D01*
X58849214Y-115768452D01*
X58801595Y-115816071D01*
X58706357Y-115863690D01*
X58325404Y-115863690D01*
X59753976Y-115673214D02*
X59753976Y-116339880D01*
X59515880Y-115292261D02*
X59277785Y-116006547D01*
X59896833Y-116006547D01*
X60182547Y-115339880D02*
X60801595Y-115339880D01*
X60468261Y-115720833D01*
X60611119Y-115720833D01*
X60706357Y-115768452D01*
X60753976Y-115816071D01*
X60801595Y-115911309D01*
X60801595Y-116149404D01*
X60753976Y-116244642D01*
X60706357Y-116292261D01*
X60611119Y-116339880D01*
X60325404Y-116339880D01*
X60230166Y-116292261D01*
X60182547Y-116244642D01*
X61420642Y-115339880D02*
X61515880Y-115339880D01*
X61611119Y-115387500D01*
X61658738Y-115435119D01*
X61706357Y-115530357D01*
X61753976Y-115720833D01*
X61753976Y-115958928D01*
X61706357Y-116149404D01*
X61658738Y-116244642D01*
X61611119Y-116292261D01*
X61515880Y-116339880D01*
X61420642Y-116339880D01*
X61325404Y-116292261D01*
X61277785Y-116244642D01*
X61230166Y-116149404D01*
X61182547Y-115958928D01*
X61182547Y-115720833D01*
X61230166Y-115530357D01*
X61277785Y-115435119D01*
X61325404Y-115387500D01*
X61420642Y-115339880D01*
X62515880Y-115816071D02*
X62182547Y-115816071D01*
X62182547Y-116339880D02*
X62182547Y-115339880D01*
X62658738Y-115339880D01*
X63611119Y-116339880D02*
X63277785Y-115863690D01*
X63039690Y-116339880D02*
X63039690Y-115339880D01*
X63420642Y-115339880D01*
X63515880Y-115387500D01*
X63563500Y-115435119D01*
X63611119Y-115530357D01*
X63611119Y-115673214D01*
X63563500Y-115768452D01*
X63515880Y-115816071D01*
X63420642Y-115863690D01*
X63039690Y-115863690D01*
X63992071Y-115435119D02*
X64039690Y-115387500D01*
X64134928Y-115339880D01*
X64373023Y-115339880D01*
X64468261Y-115387500D01*
X64515880Y-115435119D01*
X64563500Y-115530357D01*
X64563500Y-115625595D01*
X64515880Y-115768452D01*
X63944452Y-116339880D01*
X64563500Y-116339880D01*
X64896833Y-115339880D02*
X65515880Y-115339880D01*
X65182547Y-115720833D01*
X65325404Y-115720833D01*
X65420642Y-115768452D01*
X65468261Y-115816071D01*
X65515880Y-115911309D01*
X65515880Y-116149404D01*
X65468261Y-116244642D01*
X65420642Y-116292261D01*
X65325404Y-116339880D01*
X65039690Y-116339880D01*
X64944452Y-116292261D01*
X64896833Y-116244642D01*
X66420642Y-115339880D02*
X65944452Y-115339880D01*
X65896833Y-115816071D01*
X65944452Y-115768452D01*
X66039690Y-115720833D01*
X66277785Y-115720833D01*
X66373023Y-115768452D01*
X66420642Y-115816071D01*
X66468261Y-115911309D01*
X66468261Y-116149404D01*
X66420642Y-116244642D01*
X66373023Y-116292261D01*
X66277785Y-116339880D01*
X66039690Y-116339880D01*
X65944452Y-116292261D01*
X65896833Y-116244642D01*
X66801595Y-115339880D02*
X67420642Y-115339880D01*
X67087309Y-115720833D01*
X67230166Y-115720833D01*
X67325404Y-115768452D01*
X67373023Y-115816071D01*
X67420642Y-115911309D01*
X67420642Y-116149404D01*
X67373023Y-116244642D01*
X67325404Y-116292261D01*
X67230166Y-116339880D01*
X66944452Y-116339880D01*
X66849214Y-116292261D01*
X66801595Y-116244642D01*
X67706357Y-115339880D02*
X68277785Y-115339880D01*
X67992071Y-116339880D02*
X67992071Y-115339880D01*
X68611119Y-116339880D02*
X68611119Y-115339880D01*
X68849214Y-115339880D01*
X68992071Y-115387500D01*
X69087309Y-115482738D01*
X69134928Y-115577976D01*
X69182547Y-115768452D01*
X69182547Y-115911309D01*
X69134928Y-116101785D01*
X69087309Y-116197023D01*
X68992071Y-116292261D01*
X68849214Y-116339880D01*
X68611119Y-116339880D01*
X69944452Y-115816071D02*
X70087309Y-115863690D01*
X70134928Y-115911309D01*
X70182547Y-116006547D01*
X70182547Y-116149404D01*
X70134928Y-116244642D01*
X70087309Y-116292261D01*
X69992071Y-116339880D01*
X69611119Y-116339880D01*
X69611119Y-115339880D01*
X69944452Y-115339880D01*
X70039690Y-115387500D01*
X70087309Y-115435119D01*
X70134928Y-115530357D01*
X70134928Y-115625595D01*
X70087309Y-115720833D01*
X70039690Y-115768452D01*
X69944452Y-115816071D01*
X69611119Y-115816071D01*
X70468261Y-115339880D02*
X71039690Y-115339880D01*
X70753976Y-116339880D02*
X70753976Y-115339880D01*
X60359550Y-100844980D02*
X60359550Y-101083076D01*
X60121454Y-100987838D02*
X60359550Y-101083076D01*
X60597645Y-100987838D01*
X60216692Y-101273552D02*
X60359550Y-101083076D01*
X60502407Y-101273552D01*
X60359550Y-100844980D02*
X60359550Y-101083076D01*
X60121454Y-100987838D02*
X60359550Y-101083076D01*
X60597645Y-100987838D01*
X60216692Y-101273552D02*
X60359550Y-101083076D01*
X60502407Y-101273552D01*
X42854642Y-66968642D02*
X42807023Y-67016261D01*
X42664166Y-67063880D01*
X42568928Y-67063880D01*
X42426071Y-67016261D01*
X42330833Y-66921023D01*
X42283214Y-66825785D01*
X42235595Y-66635309D01*
X42235595Y-66492452D01*
X42283214Y-66301976D01*
X42330833Y-66206738D01*
X42426071Y-66111500D01*
X42568928Y-66063880D01*
X42664166Y-66063880D01*
X42807023Y-66111500D01*
X42854642Y-66159119D01*
X43235595Y-66159119D02*
X43283214Y-66111500D01*
X43378452Y-66063880D01*
X43616547Y-66063880D01*
X43711785Y-66111500D01*
X43759404Y-66159119D01*
X43807023Y-66254357D01*
X43807023Y-66349595D01*
X43759404Y-66492452D01*
X43187976Y-67063880D01*
X43807023Y-67063880D01*
X44426071Y-66063880D02*
X44521309Y-66063880D01*
X44616547Y-66111500D01*
X44664166Y-66159119D01*
X44711785Y-66254357D01*
X44759404Y-66444833D01*
X44759404Y-66682928D01*
X44711785Y-66873404D01*
X44664166Y-66968642D01*
X44616547Y-67016261D01*
X44521309Y-67063880D01*
X44426071Y-67063880D01*
X44330833Y-67016261D01*
X44283214Y-66968642D01*
X44235595Y-66873404D01*
X44187976Y-66682928D01*
X44187976Y-66444833D01*
X44235595Y-66254357D01*
X44283214Y-66159119D01*
X44330833Y-66111500D01*
X44426071Y-66063880D01*
X38650941Y-71188943D02*
X38603322Y-71236562D01*
X38460465Y-71284181D01*
X38365227Y-71284181D01*
X38222370Y-71236562D01*
X38127132Y-71141324D01*
X38079513Y-71046086D01*
X38031894Y-70855610D01*
X38031894Y-70712753D01*
X38079513Y-70522277D01*
X38127132Y-70427039D01*
X38222370Y-70331801D01*
X38365227Y-70284181D01*
X38460465Y-70284181D01*
X38603322Y-70331801D01*
X38650941Y-70379420D01*
X39031894Y-70379420D02*
X39079513Y-70331801D01*
X39174751Y-70284181D01*
X39412846Y-70284181D01*
X39508084Y-70331801D01*
X39555703Y-70379420D01*
X39603322Y-70474658D01*
X39603322Y-70569896D01*
X39555703Y-70712753D01*
X38984275Y-71284181D01*
X39603322Y-71284181D01*
X40555703Y-71284181D02*
X39984275Y-71284181D01*
X40269989Y-71284181D02*
X40269989Y-70284181D01*
X40174751Y-70427039D01*
X40079513Y-70522277D01*
X39984275Y-70569896D01*
X38536642Y-73572642D02*
X38489023Y-73620261D01*
X38346166Y-73667880D01*
X38250928Y-73667880D01*
X38108071Y-73620261D01*
X38012833Y-73525023D01*
X37965214Y-73429785D01*
X37917595Y-73239309D01*
X37917595Y-73096452D01*
X37965214Y-72905976D01*
X38012833Y-72810738D01*
X38108071Y-72715500D01*
X38250928Y-72667880D01*
X38346166Y-72667880D01*
X38489023Y-72715500D01*
X38536642Y-72763119D01*
X38917595Y-72763119D02*
X38965214Y-72715500D01*
X39060452Y-72667880D01*
X39298547Y-72667880D01*
X39393785Y-72715500D01*
X39441404Y-72763119D01*
X39489023Y-72858357D01*
X39489023Y-72953595D01*
X39441404Y-73096452D01*
X38869976Y-73667880D01*
X39489023Y-73667880D01*
X39869976Y-72763119D02*
X39917595Y-72715500D01*
X40012833Y-72667880D01*
X40250928Y-72667880D01*
X40346166Y-72715500D01*
X40393785Y-72763119D01*
X40441404Y-72858357D01*
X40441404Y-72953595D01*
X40393785Y-73096452D01*
X39822357Y-73667880D01*
X40441404Y-73667880D01*
X48061642Y-75668142D02*
X48014023Y-75715761D01*
X47871166Y-75763380D01*
X47775928Y-75763380D01*
X47633071Y-75715761D01*
X47537833Y-75620523D01*
X47490214Y-75525285D01*
X47442595Y-75334809D01*
X47442595Y-75191952D01*
X47490214Y-75001476D01*
X47537833Y-74906238D01*
X47633071Y-74811000D01*
X47775928Y-74763380D01*
X47871166Y-74763380D01*
X48014023Y-74811000D01*
X48061642Y-74858619D01*
X48442595Y-74858619D02*
X48490214Y-74811000D01*
X48585452Y-74763380D01*
X48823547Y-74763380D01*
X48918785Y-74811000D01*
X48966404Y-74858619D01*
X49014023Y-74953857D01*
X49014023Y-75049095D01*
X48966404Y-75191952D01*
X48394976Y-75763380D01*
X49014023Y-75763380D01*
X49347357Y-74763380D02*
X49966404Y-74763380D01*
X49633071Y-75144333D01*
X49775928Y-75144333D01*
X49871166Y-75191952D01*
X49918785Y-75239571D01*
X49966404Y-75334809D01*
X49966404Y-75572904D01*
X49918785Y-75668142D01*
X49871166Y-75715761D01*
X49775928Y-75763380D01*
X49490214Y-75763380D01*
X49394976Y-75715761D01*
X49347357Y-75668142D01*
X43248941Y-83370658D02*
X43296560Y-83418277D01*
X43344179Y-83561134D01*
X43344179Y-83656372D01*
X43296560Y-83799229D01*
X43201322Y-83894467D01*
X43106084Y-83942086D01*
X42915608Y-83989705D01*
X42772751Y-83989705D01*
X42582275Y-83942086D01*
X42487037Y-83894467D01*
X42391799Y-83799229D01*
X42344179Y-83656372D01*
X42344179Y-83561134D01*
X42391799Y-83418277D01*
X42439418Y-83370658D01*
X42439418Y-82989705D02*
X42391799Y-82942086D01*
X42344179Y-82846848D01*
X42344179Y-82608753D01*
X42391799Y-82513515D01*
X42439418Y-82465896D01*
X42534656Y-82418277D01*
X42629894Y-82418277D01*
X42772751Y-82465896D01*
X43344179Y-83037324D01*
X43344179Y-82418277D01*
X42677513Y-81561134D02*
X43344179Y-81561134D01*
X42296560Y-81799229D02*
X43010846Y-82037324D01*
X43010846Y-81418277D01*
X43313441Y-76565943D02*
X43265822Y-76613562D01*
X43122965Y-76661181D01*
X43027727Y-76661181D01*
X42884870Y-76613562D01*
X42789632Y-76518324D01*
X42742013Y-76423086D01*
X42694394Y-76232610D01*
X42694394Y-76089753D01*
X42742013Y-75899277D01*
X42789632Y-75804039D01*
X42884870Y-75708801D01*
X43027727Y-75661181D01*
X43122965Y-75661181D01*
X43265822Y-75708801D01*
X43313441Y-75756420D01*
X43694394Y-75756420D02*
X43742013Y-75708801D01*
X43837251Y-75661181D01*
X44075346Y-75661181D01*
X44170584Y-75708801D01*
X44218203Y-75756420D01*
X44265822Y-75851658D01*
X44265822Y-75946896D01*
X44218203Y-76089753D01*
X43646775Y-76661181D01*
X44265822Y-76661181D01*
X45170584Y-75661181D02*
X44694394Y-75661181D01*
X44646775Y-76137372D01*
X44694394Y-76089753D01*
X44789632Y-76042134D01*
X45027727Y-76042134D01*
X45122965Y-76089753D01*
X45170584Y-76137372D01*
X45218203Y-76232610D01*
X45218203Y-76470705D01*
X45170584Y-76565943D01*
X45122965Y-76613562D01*
X45027727Y-76661181D01*
X44789632Y-76661181D01*
X44694394Y-76613562D01*
X44646775Y-76565943D01*
X26154142Y-74779142D02*
X26106523Y-74826761D01*
X25963666Y-74874380D01*
X25868428Y-74874380D01*
X25725571Y-74826761D01*
X25630333Y-74731523D01*
X25582714Y-74636285D01*
X25535095Y-74445809D01*
X25535095Y-74302952D01*
X25582714Y-74112476D01*
X25630333Y-74017238D01*
X25725571Y-73922000D01*
X25868428Y-73874380D01*
X25963666Y-73874380D01*
X26106523Y-73922000D01*
X26154142Y-73969619D01*
X26535095Y-73969619D02*
X26582714Y-73922000D01*
X26677952Y-73874380D01*
X26916047Y-73874380D01*
X27011285Y-73922000D01*
X27058904Y-73969619D01*
X27106523Y-74064857D01*
X27106523Y-74160095D01*
X27058904Y-74302952D01*
X26487476Y-74874380D01*
X27106523Y-74874380D01*
X27963666Y-73874380D02*
X27773190Y-73874380D01*
X27677952Y-73922000D01*
X27630333Y-73969619D01*
X27535095Y-74112476D01*
X27487476Y-74302952D01*
X27487476Y-74683904D01*
X27535095Y-74779142D01*
X27582714Y-74826761D01*
X27677952Y-74874380D01*
X27868428Y-74874380D01*
X27963666Y-74826761D01*
X28011285Y-74779142D01*
X28058904Y-74683904D01*
X28058904Y-74445809D01*
X28011285Y-74350571D01*
X27963666Y-74302952D01*
X27868428Y-74255333D01*
X27677952Y-74255333D01*
X27582714Y-74302952D01*
X27535095Y-74350571D01*
X27487476Y-74445809D01*
X26217642Y-72493142D02*
X26170023Y-72540761D01*
X26027166Y-72588380D01*
X25931928Y-72588380D01*
X25789071Y-72540761D01*
X25693833Y-72445523D01*
X25646214Y-72350285D01*
X25598595Y-72159809D01*
X25598595Y-72016952D01*
X25646214Y-71826476D01*
X25693833Y-71731238D01*
X25789071Y-71636000D01*
X25931928Y-71588380D01*
X26027166Y-71588380D01*
X26170023Y-71636000D01*
X26217642Y-71683619D01*
X26598595Y-71683619D02*
X26646214Y-71636000D01*
X26741452Y-71588380D01*
X26979547Y-71588380D01*
X27074785Y-71636000D01*
X27122404Y-71683619D01*
X27170023Y-71778857D01*
X27170023Y-71874095D01*
X27122404Y-72016952D01*
X26550976Y-72588380D01*
X27170023Y-72588380D01*
X27503357Y-71588380D02*
X28170023Y-71588380D01*
X27741452Y-72588380D01*
X39981142Y-83573857D02*
X40028761Y-83621476D01*
X40076380Y-83764333D01*
X40076380Y-83859571D01*
X40028761Y-84002428D01*
X39933523Y-84097666D01*
X39838285Y-84145285D01*
X39647809Y-84192904D01*
X39504952Y-84192904D01*
X39314476Y-84145285D01*
X39219238Y-84097666D01*
X39124000Y-84002428D01*
X39076380Y-83859571D01*
X39076380Y-83764333D01*
X39124000Y-83621476D01*
X39171619Y-83573857D01*
X39171619Y-83192904D02*
X39124000Y-83145285D01*
X39076380Y-83050047D01*
X39076380Y-82811952D01*
X39124000Y-82716714D01*
X39171619Y-82669095D01*
X39266857Y-82621476D01*
X39362095Y-82621476D01*
X39504952Y-82669095D01*
X40076380Y-83240523D01*
X40076380Y-82621476D01*
X39504952Y-82050047D02*
X39457333Y-82145285D01*
X39409714Y-82192904D01*
X39314476Y-82240523D01*
X39266857Y-82240523D01*
X39171619Y-82192904D01*
X39124000Y-82145285D01*
X39076380Y-82050047D01*
X39076380Y-81859571D01*
X39124000Y-81764333D01*
X39171619Y-81716714D01*
X39266857Y-81669095D01*
X39314476Y-81669095D01*
X39409714Y-81716714D01*
X39457333Y-81764333D01*
X39504952Y-81859571D01*
X39504952Y-82050047D01*
X39552571Y-82145285D01*
X39600190Y-82192904D01*
X39695428Y-82240523D01*
X39885904Y-82240523D01*
X39981142Y-82192904D01*
X40028761Y-82145285D01*
X40076380Y-82050047D01*
X40076380Y-81859571D01*
X40028761Y-81764333D01*
X39981142Y-81716714D01*
X39885904Y-81669095D01*
X39695428Y-81669095D01*
X39600190Y-81716714D01*
X39552571Y-81764333D01*
X39504952Y-81859571D01*
X29900642Y-67794142D02*
X29853023Y-67841761D01*
X29710166Y-67889380D01*
X29614928Y-67889380D01*
X29472071Y-67841761D01*
X29376833Y-67746523D01*
X29329214Y-67651285D01*
X29281595Y-67460809D01*
X29281595Y-67317952D01*
X29329214Y-67127476D01*
X29376833Y-67032238D01*
X29472071Y-66937000D01*
X29614928Y-66889380D01*
X29710166Y-66889380D01*
X29853023Y-66937000D01*
X29900642Y-66984619D01*
X30281595Y-66984619D02*
X30329214Y-66937000D01*
X30424452Y-66889380D01*
X30662547Y-66889380D01*
X30757785Y-66937000D01*
X30805404Y-66984619D01*
X30853023Y-67079857D01*
X30853023Y-67175095D01*
X30805404Y-67317952D01*
X30233976Y-67889380D01*
X30853023Y-67889380D01*
X31329214Y-67889380D02*
X31519690Y-67889380D01*
X31614928Y-67841761D01*
X31662547Y-67794142D01*
X31757785Y-67651285D01*
X31805404Y-67460809D01*
X31805404Y-67079857D01*
X31757785Y-66984619D01*
X31710166Y-66937000D01*
X31614928Y-66889380D01*
X31424452Y-66889380D01*
X31329214Y-66937000D01*
X31281595Y-66984619D01*
X31233976Y-67079857D01*
X31233976Y-67317952D01*
X31281595Y-67413190D01*
X31329214Y-67460809D01*
X31424452Y-67508428D01*
X31614928Y-67508428D01*
X31710166Y-67460809D01*
X31757785Y-67413190D01*
X31805404Y-67317952D01*
X37060142Y-74556857D02*
X37107761Y-74604476D01*
X37155380Y-74747333D01*
X37155380Y-74842571D01*
X37107761Y-74985428D01*
X37012523Y-75080666D01*
X36917285Y-75128285D01*
X36726809Y-75175904D01*
X36583952Y-75175904D01*
X36393476Y-75128285D01*
X36298238Y-75080666D01*
X36203000Y-74985428D01*
X36155380Y-74842571D01*
X36155380Y-74747333D01*
X36203000Y-74604476D01*
X36250619Y-74556857D01*
X36155380Y-74223523D02*
X36155380Y-73604476D01*
X36536333Y-73937809D01*
X36536333Y-73794952D01*
X36583952Y-73699714D01*
X36631571Y-73652095D01*
X36726809Y-73604476D01*
X36964904Y-73604476D01*
X37060142Y-73652095D01*
X37107761Y-73699714D01*
X37155380Y-73794952D01*
X37155380Y-74080666D01*
X37107761Y-74175904D01*
X37060142Y-74223523D01*
X36155380Y-72985428D02*
X36155380Y-72890190D01*
X36203000Y-72794952D01*
X36250619Y-72747333D01*
X36345857Y-72699714D01*
X36536333Y-72652095D01*
X36774428Y-72652095D01*
X36964904Y-72699714D01*
X37060142Y-72747333D01*
X37107761Y-72794952D01*
X37155380Y-72890190D01*
X37155380Y-72985428D01*
X37107761Y-73080666D01*
X37060142Y-73128285D01*
X36964904Y-73175904D01*
X36774428Y-73223523D01*
X36536333Y-73223523D01*
X36345857Y-73175904D01*
X36250619Y-73128285D01*
X36203000Y-73080666D01*
X36155380Y-72985428D01*
X63161941Y-68437943D02*
X63114322Y-68485562D01*
X62971465Y-68533181D01*
X62876227Y-68533181D01*
X62733370Y-68485562D01*
X62638132Y-68390324D01*
X62590513Y-68295086D01*
X62542894Y-68104610D01*
X62542894Y-67961753D01*
X62590513Y-67771277D01*
X62638132Y-67676039D01*
X62733370Y-67580801D01*
X62876227Y-67533181D01*
X62971465Y-67533181D01*
X63114322Y-67580801D01*
X63161941Y-67628420D01*
X63495275Y-67533181D02*
X64114322Y-67533181D01*
X63780989Y-67914134D01*
X63923846Y-67914134D01*
X64019084Y-67961753D01*
X64066703Y-68009372D01*
X64114322Y-68104610D01*
X64114322Y-68342705D01*
X64066703Y-68437943D01*
X64019084Y-68485562D01*
X63923846Y-68533181D01*
X63638132Y-68533181D01*
X63542894Y-68485562D01*
X63495275Y-68437943D01*
X65066703Y-68533181D02*
X64495275Y-68533181D01*
X64780989Y-68533181D02*
X64780989Y-67533181D01*
X64685751Y-67676039D01*
X64590513Y-67771277D01*
X64495275Y-67818896D01*
X34485941Y-87144158D02*
X34533560Y-87191777D01*
X34581179Y-87334634D01*
X34581179Y-87429872D01*
X34533560Y-87572729D01*
X34438322Y-87667967D01*
X34343084Y-87715586D01*
X34152608Y-87763205D01*
X34009751Y-87763205D01*
X33819275Y-87715586D01*
X33724037Y-87667967D01*
X33628799Y-87572729D01*
X33581179Y-87429872D01*
X33581179Y-87334634D01*
X33628799Y-87191777D01*
X33676418Y-87144158D01*
X33581179Y-86810824D02*
X33581179Y-86191777D01*
X33962132Y-86525110D01*
X33962132Y-86382253D01*
X34009751Y-86287015D01*
X34057370Y-86239396D01*
X34152608Y-86191777D01*
X34390703Y-86191777D01*
X34485941Y-86239396D01*
X34533560Y-86287015D01*
X34581179Y-86382253D01*
X34581179Y-86667967D01*
X34533560Y-86763205D01*
X34485941Y-86810824D01*
X33676418Y-85810824D02*
X33628799Y-85763205D01*
X33581179Y-85667967D01*
X33581179Y-85429872D01*
X33628799Y-85334634D01*
X33676418Y-85287015D01*
X33771656Y-85239396D01*
X33866894Y-85239396D01*
X34009751Y-85287015D01*
X34581179Y-85858443D01*
X34581179Y-85239396D01*
X63106465Y-62574181D02*
X63106465Y-63288467D01*
X63058846Y-63431324D01*
X62963608Y-63526562D01*
X62820751Y-63574181D01*
X62725513Y-63574181D01*
X64011227Y-62574181D02*
X63820751Y-62574181D01*
X63725513Y-62621801D01*
X63677894Y-62669420D01*
X63582656Y-62812277D01*
X63535037Y-63002753D01*
X63535037Y-63383705D01*
X63582656Y-63478943D01*
X63630275Y-63526562D01*
X63725513Y-63574181D01*
X63915989Y-63574181D01*
X64011227Y-63526562D01*
X64058846Y-63478943D01*
X64106465Y-63383705D01*
X64106465Y-63145610D01*
X64058846Y-63050372D01*
X64011227Y-63002753D01*
X63915989Y-62955134D01*
X63725513Y-62955134D01*
X63630275Y-63002753D01*
X63582656Y-63050372D01*
X63535037Y-63145610D01*
X67686179Y-85942467D02*
X67686179Y-86418658D01*
X66686179Y-86418658D01*
X66781418Y-85656753D02*
X66733799Y-85609134D01*
X66686179Y-85513896D01*
X66686179Y-85275801D01*
X66733799Y-85180562D01*
X66781418Y-85132943D01*
X66876656Y-85085324D01*
X66971894Y-85085324D01*
X67114751Y-85132943D01*
X67686179Y-85704372D01*
X67686179Y-85085324D01*
X67877380Y-89988095D02*
X67877380Y-90178571D01*
X67925000Y-90273809D01*
X67972619Y-90321428D01*
X68115476Y-90416666D01*
X68305952Y-90464285D01*
X68686904Y-90464285D01*
X68782142Y-90416666D01*
X68829761Y-90369047D01*
X68877380Y-90273809D01*
X68877380Y-90083333D01*
X68829761Y-89988095D01*
X68782142Y-89940476D01*
X68686904Y-89892857D01*
X68448809Y-89892857D01*
X68353571Y-89940476D01*
X68305952Y-89988095D01*
X68258333Y-90083333D01*
X68258333Y-90273809D01*
X68305952Y-90369047D01*
X68353571Y-90416666D01*
X68448809Y-90464285D01*
X68210714Y-89035714D02*
X68877380Y-89035714D01*
X68210714Y-89464285D02*
X68734523Y-89464285D01*
X68829761Y-89416666D01*
X68877380Y-89321428D01*
X68877380Y-89178571D01*
X68829761Y-89083333D01*
X68782142Y-89035714D01*
X68305952Y-88416666D02*
X68258333Y-88511904D01*
X68210714Y-88559523D01*
X68115476Y-88607142D01*
X68067857Y-88607142D01*
X67972619Y-88559523D01*
X67925000Y-88511904D01*
X67877380Y-88416666D01*
X67877380Y-88226190D01*
X67925000Y-88130952D01*
X67972619Y-88083333D01*
X68067857Y-88035714D01*
X68115476Y-88035714D01*
X68210714Y-88083333D01*
X68258333Y-88130952D01*
X68305952Y-88226190D01*
X68305952Y-88416666D01*
X68353571Y-88511904D01*
X68401190Y-88559523D01*
X68496428Y-88607142D01*
X68686904Y-88607142D01*
X68782142Y-88559523D01*
X68829761Y-88511904D01*
X68877380Y-88416666D01*
X68877380Y-88226190D01*
X68829761Y-88130952D01*
X68782142Y-88083333D01*
X68686904Y-88035714D01*
X68496428Y-88035714D01*
X68401190Y-88083333D01*
X68353571Y-88130952D01*
X68305952Y-88226190D01*
X66686179Y-85775801D02*
X66924275Y-85775801D01*
X66829037Y-86013896D02*
X66924275Y-85775801D01*
X66829037Y-85537705D01*
X67114751Y-85918658D02*
X66924275Y-85775801D01*
X67114751Y-85632943D01*
X42246560Y-96868420D02*
X42151322Y-96820801D01*
X42056084Y-96725562D01*
X41913227Y-96582705D01*
X41817989Y-96535086D01*
X41722751Y-96535086D01*
X41770370Y-96773181D02*
X41675132Y-96725562D01*
X41579894Y-96630324D01*
X41532275Y-96439848D01*
X41532275Y-96106515D01*
X41579894Y-95916039D01*
X41675132Y-95820801D01*
X41770370Y-95773181D01*
X41960846Y-95773181D01*
X42056084Y-95820801D01*
X42151322Y-95916039D01*
X42198941Y-96106515D01*
X42198941Y-96439848D01*
X42151322Y-96630324D01*
X42056084Y-96725562D01*
X41960846Y-96773181D01*
X41770370Y-96773181D01*
X42579894Y-95868420D02*
X42627513Y-95820801D01*
X42722751Y-95773181D01*
X42960846Y-95773181D01*
X43056084Y-95820801D01*
X43103703Y-95868420D01*
X43151322Y-95963658D01*
X43151322Y-96058896D01*
X43103703Y-96201753D01*
X42532275Y-96773181D01*
X43151322Y-96773181D01*
X54181441Y-63283181D02*
X53848108Y-62806991D01*
X53610013Y-63283181D02*
X53610013Y-62283181D01*
X53990965Y-62283181D01*
X54086203Y-62330801D01*
X54133822Y-62378420D01*
X54181441Y-62473658D01*
X54181441Y-62616515D01*
X54133822Y-62711753D01*
X54086203Y-62759372D01*
X53990965Y-62806991D01*
X53610013Y-62806991D01*
X54562394Y-62378420D02*
X54610013Y-62330801D01*
X54705251Y-62283181D01*
X54943346Y-62283181D01*
X55038584Y-62330801D01*
X55086203Y-62378420D01*
X55133822Y-62473658D01*
X55133822Y-62568896D01*
X55086203Y-62711753D01*
X54514775Y-63283181D01*
X55133822Y-63283181D01*
X55752870Y-62283181D02*
X55848108Y-62283181D01*
X55943346Y-62330801D01*
X55990965Y-62378420D01*
X56038584Y-62473658D01*
X56086203Y-62664134D01*
X56086203Y-62902229D01*
X56038584Y-63092705D01*
X55990965Y-63187943D01*
X55943346Y-63235562D01*
X55848108Y-63283181D01*
X55752870Y-63283181D01*
X55657632Y-63235562D01*
X55610013Y-63187943D01*
X55562394Y-63092705D01*
X55514775Y-62902229D01*
X55514775Y-62664134D01*
X55562394Y-62473658D01*
X55610013Y-62378420D01*
X55657632Y-62330801D01*
X55752870Y-62283181D01*
X54181441Y-56849181D02*
X53848108Y-56372991D01*
X53610013Y-56849181D02*
X53610013Y-55849181D01*
X53990965Y-55849181D01*
X54086203Y-55896801D01*
X54133822Y-55944420D01*
X54181441Y-56039658D01*
X54181441Y-56182515D01*
X54133822Y-56277753D01*
X54086203Y-56325372D01*
X53990965Y-56372991D01*
X53610013Y-56372991D01*
X54562394Y-55944420D02*
X54610013Y-55896801D01*
X54705251Y-55849181D01*
X54943346Y-55849181D01*
X55038584Y-55896801D01*
X55086203Y-55944420D01*
X55133822Y-56039658D01*
X55133822Y-56134896D01*
X55086203Y-56277753D01*
X54514775Y-56849181D01*
X55133822Y-56849181D01*
X56086203Y-56849181D02*
X55514775Y-56849181D01*
X55800489Y-56849181D02*
X55800489Y-55849181D01*
X55705251Y-55992039D01*
X55610013Y-56087277D01*
X55514775Y-56134896D01*
X58269441Y-62653181D02*
X57936108Y-62176991D01*
X57698013Y-62653181D02*
X57698013Y-61653181D01*
X58078965Y-61653181D01*
X58174203Y-61700801D01*
X58221822Y-61748420D01*
X58269441Y-61843658D01*
X58269441Y-61986515D01*
X58221822Y-62081753D01*
X58174203Y-62129372D01*
X58078965Y-62176991D01*
X57698013Y-62176991D01*
X58650394Y-61748420D02*
X58698013Y-61700801D01*
X58793251Y-61653181D01*
X59031346Y-61653181D01*
X59126584Y-61700801D01*
X59174203Y-61748420D01*
X59221822Y-61843658D01*
X59221822Y-61938896D01*
X59174203Y-62081753D01*
X58602775Y-62653181D01*
X59221822Y-62653181D01*
X59602775Y-61748420D02*
X59650394Y-61700801D01*
X59745632Y-61653181D01*
X59983727Y-61653181D01*
X60078965Y-61700801D01*
X60126584Y-61748420D01*
X60174203Y-61843658D01*
X60174203Y-61938896D01*
X60126584Y-62081753D01*
X59555156Y-62653181D01*
X60174203Y-62653181D01*
X43222941Y-95965181D02*
X42889608Y-95488991D01*
X42651513Y-95965181D02*
X42651513Y-94965181D01*
X43032465Y-94965181D01*
X43127703Y-95012801D01*
X43175322Y-95060420D01*
X43222941Y-95155658D01*
X43222941Y-95298515D01*
X43175322Y-95393753D01*
X43127703Y-95441372D01*
X43032465Y-95488991D01*
X42651513Y-95488991D01*
X43603894Y-95060420D02*
X43651513Y-95012801D01*
X43746751Y-94965181D01*
X43984846Y-94965181D01*
X44080084Y-95012801D01*
X44127703Y-95060420D01*
X44175322Y-95155658D01*
X44175322Y-95250896D01*
X44127703Y-95393753D01*
X43556275Y-95965181D01*
X44175322Y-95965181D01*
X44508656Y-94965181D02*
X45127703Y-94965181D01*
X44794370Y-95346134D01*
X44937227Y-95346134D01*
X45032465Y-95393753D01*
X45080084Y-95441372D01*
X45127703Y-95536610D01*
X45127703Y-95774705D01*
X45080084Y-95869943D01*
X45032465Y-95917562D01*
X44937227Y-95965181D01*
X44651513Y-95965181D01*
X44556275Y-95917562D01*
X44508656Y-95869943D01*
X41481441Y-87710181D02*
X41148108Y-87233991D01*
X40910013Y-87710181D02*
X40910013Y-86710181D01*
X41290965Y-86710181D01*
X41386203Y-86757801D01*
X41433822Y-86805420D01*
X41481441Y-86900658D01*
X41481441Y-87043515D01*
X41433822Y-87138753D01*
X41386203Y-87186372D01*
X41290965Y-87233991D01*
X40910013Y-87233991D01*
X41862394Y-86805420D02*
X41910013Y-86757801D01*
X42005251Y-86710181D01*
X42243346Y-86710181D01*
X42338584Y-86757801D01*
X42386203Y-86805420D01*
X42433822Y-86900658D01*
X42433822Y-86995896D01*
X42386203Y-87138753D01*
X41814775Y-87710181D01*
X42433822Y-87710181D01*
X43290965Y-87043515D02*
X43290965Y-87710181D01*
X43052870Y-86662562D02*
X42814775Y-87376848D01*
X43433822Y-87376848D01*
X35766441Y-95033181D02*
X35433108Y-94556991D01*
X35195013Y-95033181D02*
X35195013Y-94033181D01*
X35575965Y-94033181D01*
X35671203Y-94080801D01*
X35718822Y-94128420D01*
X35766441Y-94223658D01*
X35766441Y-94366515D01*
X35718822Y-94461753D01*
X35671203Y-94509372D01*
X35575965Y-94556991D01*
X35195013Y-94556991D01*
X36147394Y-94128420D02*
X36195013Y-94080801D01*
X36290251Y-94033181D01*
X36528346Y-94033181D01*
X36623584Y-94080801D01*
X36671203Y-94128420D01*
X36718822Y-94223658D01*
X36718822Y-94318896D01*
X36671203Y-94461753D01*
X36099775Y-95033181D01*
X36718822Y-95033181D01*
X37623584Y-94033181D02*
X37147394Y-94033181D01*
X37099775Y-94509372D01*
X37147394Y-94461753D01*
X37242632Y-94414134D01*
X37480727Y-94414134D01*
X37575965Y-94461753D01*
X37623584Y-94509372D01*
X37671203Y-94604610D01*
X37671203Y-94842705D01*
X37623584Y-94937943D01*
X37575965Y-94985562D01*
X37480727Y-95033181D01*
X37242632Y-95033181D01*
X37147394Y-94985562D01*
X37099775Y-94937943D01*
X41608441Y-102526181D02*
X41275108Y-102049991D01*
X41037013Y-102526181D02*
X41037013Y-101526181D01*
X41417965Y-101526181D01*
X41513203Y-101573801D01*
X41560822Y-101621420D01*
X41608441Y-101716658D01*
X41608441Y-101859515D01*
X41560822Y-101954753D01*
X41513203Y-102002372D01*
X41417965Y-102049991D01*
X41037013Y-102049991D01*
X41989394Y-101621420D02*
X42037013Y-101573801D01*
X42132251Y-101526181D01*
X42370346Y-101526181D01*
X42465584Y-101573801D01*
X42513203Y-101621420D01*
X42560822Y-101716658D01*
X42560822Y-101811896D01*
X42513203Y-101954753D01*
X41941775Y-102526181D01*
X42560822Y-102526181D01*
X43417965Y-101526181D02*
X43227489Y-101526181D01*
X43132251Y-101573801D01*
X43084632Y-101621420D01*
X42989394Y-101764277D01*
X42941775Y-101954753D01*
X42941775Y-102335705D01*
X42989394Y-102430943D01*
X43037013Y-102478562D01*
X43132251Y-102526181D01*
X43322727Y-102526181D01*
X43417965Y-102478562D01*
X43465584Y-102430943D01*
X43513203Y-102335705D01*
X43513203Y-102097610D01*
X43465584Y-102002372D01*
X43417965Y-101954753D01*
X43322727Y-101907134D01*
X43132251Y-101907134D01*
X43037013Y-101954753D01*
X42989394Y-102002372D01*
X42941775Y-102097610D01*
X27439880Y-78303357D02*
X26963690Y-78636690D01*
X27439880Y-78874785D02*
X26439880Y-78874785D01*
X26439880Y-78493833D01*
X26487500Y-78398595D01*
X26535119Y-78350976D01*
X26630357Y-78303357D01*
X26773214Y-78303357D01*
X26868452Y-78350976D01*
X26916071Y-78398595D01*
X26963690Y-78493833D01*
X26963690Y-78874785D01*
X26535119Y-77922404D02*
X26487500Y-77874785D01*
X26439880Y-77779547D01*
X26439880Y-77541452D01*
X26487500Y-77446214D01*
X26535119Y-77398595D01*
X26630357Y-77350976D01*
X26725595Y-77350976D01*
X26868452Y-77398595D01*
X27439880Y-77970023D01*
X27439880Y-77350976D01*
X26439880Y-77017642D02*
X26439880Y-76350976D01*
X27439880Y-76779547D01*
X48139441Y-65823181D02*
X47806108Y-65346991D01*
X47568013Y-65823181D02*
X47568013Y-64823181D01*
X47948965Y-64823181D01*
X48044203Y-64870801D01*
X48091822Y-64918420D01*
X48139441Y-65013658D01*
X48139441Y-65156515D01*
X48091822Y-65251753D01*
X48044203Y-65299372D01*
X47948965Y-65346991D01*
X47568013Y-65346991D01*
X48520394Y-64918420D02*
X48568013Y-64870801D01*
X48663251Y-64823181D01*
X48901346Y-64823181D01*
X48996584Y-64870801D01*
X49044203Y-64918420D01*
X49091822Y-65013658D01*
X49091822Y-65108896D01*
X49044203Y-65251753D01*
X48472775Y-65823181D01*
X49091822Y-65823181D01*
X49663251Y-65251753D02*
X49568013Y-65204134D01*
X49520394Y-65156515D01*
X49472775Y-65061277D01*
X49472775Y-65013658D01*
X49520394Y-64918420D01*
X49568013Y-64870801D01*
X49663251Y-64823181D01*
X49853727Y-64823181D01*
X49948965Y-64870801D01*
X49996584Y-64918420D01*
X50044203Y-65013658D01*
X50044203Y-65061277D01*
X49996584Y-65156515D01*
X49948965Y-65204134D01*
X49853727Y-65251753D01*
X49663251Y-65251753D01*
X49568013Y-65299372D01*
X49520394Y-65346991D01*
X49472775Y-65442229D01*
X49472775Y-65632705D01*
X49520394Y-65727943D01*
X49568013Y-65775562D01*
X49663251Y-65823181D01*
X49853727Y-65823181D01*
X49948965Y-65775562D01*
X49996584Y-65727943D01*
X50044203Y-65632705D01*
X50044203Y-65442229D01*
X49996584Y-65346991D01*
X49948965Y-65299372D01*
X49853727Y-65251753D01*
X48139441Y-59643181D02*
X47806108Y-59166991D01*
X47568013Y-59643181D02*
X47568013Y-58643181D01*
X47948965Y-58643181D01*
X48044203Y-58690801D01*
X48091822Y-58738420D01*
X48139441Y-58833658D01*
X48139441Y-58976515D01*
X48091822Y-59071753D01*
X48044203Y-59119372D01*
X47948965Y-59166991D01*
X47568013Y-59166991D01*
X48520394Y-58738420D02*
X48568013Y-58690801D01*
X48663251Y-58643181D01*
X48901346Y-58643181D01*
X48996584Y-58690801D01*
X49044203Y-58738420D01*
X49091822Y-58833658D01*
X49091822Y-58928896D01*
X49044203Y-59071753D01*
X48472775Y-59643181D01*
X49091822Y-59643181D01*
X49568013Y-59643181D02*
X49758489Y-59643181D01*
X49853727Y-59595562D01*
X49901346Y-59547943D01*
X49996584Y-59405086D01*
X50044203Y-59214610D01*
X50044203Y-58833658D01*
X49996584Y-58738420D01*
X49948965Y-58690801D01*
X49853727Y-58643181D01*
X49663251Y-58643181D01*
X49568013Y-58690801D01*
X49520394Y-58738420D01*
X49472775Y-58833658D01*
X49472775Y-59071753D01*
X49520394Y-59166991D01*
X49568013Y-59214610D01*
X49663251Y-59262229D01*
X49853727Y-59262229D01*
X49948965Y-59214610D01*
X49996584Y-59166991D01*
X50044203Y-59071753D01*
X44710441Y-74967181D02*
X44377108Y-74490991D01*
X44139013Y-74967181D02*
X44139013Y-73967181D01*
X44519965Y-73967181D01*
X44615203Y-74014801D01*
X44662822Y-74062420D01*
X44710441Y-74157658D01*
X44710441Y-74300515D01*
X44662822Y-74395753D01*
X44615203Y-74443372D01*
X44519965Y-74490991D01*
X44139013Y-74490991D01*
X45043775Y-73967181D02*
X45662822Y-73967181D01*
X45329489Y-74348134D01*
X45472346Y-74348134D01*
X45567584Y-74395753D01*
X45615203Y-74443372D01*
X45662822Y-74538610D01*
X45662822Y-74776705D01*
X45615203Y-74871943D01*
X45567584Y-74919562D01*
X45472346Y-74967181D01*
X45186632Y-74967181D01*
X45091394Y-74919562D01*
X45043775Y-74871943D01*
X46281870Y-73967181D02*
X46377108Y-73967181D01*
X46472346Y-74014801D01*
X46519965Y-74062420D01*
X46567584Y-74157658D01*
X46615203Y-74348134D01*
X46615203Y-74586229D01*
X46567584Y-74776705D01*
X46519965Y-74871943D01*
X46472346Y-74919562D01*
X46377108Y-74967181D01*
X46281870Y-74967181D01*
X46186632Y-74919562D01*
X46139013Y-74871943D01*
X46091394Y-74776705D01*
X46043775Y-74586229D01*
X46043775Y-74348134D01*
X46091394Y-74157658D01*
X46139013Y-74062420D01*
X46186632Y-74014801D01*
X46281870Y-73967181D01*
X39933642Y-59507380D02*
X39600309Y-59031190D01*
X39362214Y-59507380D02*
X39362214Y-58507380D01*
X39743166Y-58507380D01*
X39838404Y-58555000D01*
X39886023Y-58602619D01*
X39933642Y-58697857D01*
X39933642Y-58840714D01*
X39886023Y-58935952D01*
X39838404Y-58983571D01*
X39743166Y-59031190D01*
X39362214Y-59031190D01*
X40266976Y-58507380D02*
X40886023Y-58507380D01*
X40552690Y-58888333D01*
X40695547Y-58888333D01*
X40790785Y-58935952D01*
X40838404Y-58983571D01*
X40886023Y-59078809D01*
X40886023Y-59316904D01*
X40838404Y-59412142D01*
X40790785Y-59459761D01*
X40695547Y-59507380D01*
X40409833Y-59507380D01*
X40314595Y-59459761D01*
X40266976Y-59412142D01*
X41838404Y-59507380D02*
X41266976Y-59507380D01*
X41552690Y-59507380D02*
X41552690Y-58507380D01*
X41457452Y-58650238D01*
X41362214Y-58745476D01*
X41266976Y-58793095D01*
X33916880Y-66936857D02*
X33440690Y-67270190D01*
X33916880Y-67508285D02*
X32916880Y-67508285D01*
X32916880Y-67127333D01*
X32964500Y-67032095D01*
X33012119Y-66984476D01*
X33107357Y-66936857D01*
X33250214Y-66936857D01*
X33345452Y-66984476D01*
X33393071Y-67032095D01*
X33440690Y-67127333D01*
X33440690Y-67508285D01*
X32916880Y-66603523D02*
X32916880Y-65984476D01*
X33297833Y-66317809D01*
X33297833Y-66174952D01*
X33345452Y-66079714D01*
X33393071Y-66032095D01*
X33488309Y-65984476D01*
X33726404Y-65984476D01*
X33821642Y-66032095D01*
X33869261Y-66079714D01*
X33916880Y-66174952D01*
X33916880Y-66460666D01*
X33869261Y-66555904D01*
X33821642Y-66603523D01*
X33012119Y-65603523D02*
X32964500Y-65555904D01*
X32916880Y-65460666D01*
X32916880Y-65222571D01*
X32964500Y-65127333D01*
X33012119Y-65079714D01*
X33107357Y-65032095D01*
X33202595Y-65032095D01*
X33345452Y-65079714D01*
X33916880Y-65651142D01*
X33916880Y-65032095D01*
X36656179Y-63304658D02*
X36179989Y-63637991D01*
X36656179Y-63876086D02*
X35656179Y-63876086D01*
X35656179Y-63495134D01*
X35703799Y-63399896D01*
X35751418Y-63352277D01*
X35846656Y-63304658D01*
X35989513Y-63304658D01*
X36084751Y-63352277D01*
X36132370Y-63399896D01*
X36179989Y-63495134D01*
X36179989Y-63876086D01*
X35656179Y-62971324D02*
X35656179Y-62352277D01*
X36037132Y-62685610D01*
X36037132Y-62542753D01*
X36084751Y-62447515D01*
X36132370Y-62399896D01*
X36227608Y-62352277D01*
X36465703Y-62352277D01*
X36560941Y-62399896D01*
X36608560Y-62447515D01*
X36656179Y-62542753D01*
X36656179Y-62828467D01*
X36608560Y-62923705D01*
X36560941Y-62971324D01*
X35656179Y-62018943D02*
X35656179Y-61399896D01*
X36037132Y-61733229D01*
X36037132Y-61590372D01*
X36084751Y-61495134D01*
X36132370Y-61447515D01*
X36227608Y-61399896D01*
X36465703Y-61399896D01*
X36560941Y-61447515D01*
X36608560Y-61495134D01*
X36656179Y-61590372D01*
X36656179Y-61876086D01*
X36608560Y-61971324D01*
X36560941Y-62018943D01*
X44075441Y-82503181D02*
X43742108Y-82026991D01*
X43504013Y-82503181D02*
X43504013Y-81503181D01*
X43884965Y-81503181D01*
X43980203Y-81550801D01*
X44027822Y-81598420D01*
X44075441Y-81693658D01*
X44075441Y-81836515D01*
X44027822Y-81931753D01*
X43980203Y-81979372D01*
X43884965Y-82026991D01*
X43504013Y-82026991D01*
X44408775Y-81503181D02*
X45027822Y-81503181D01*
X44694489Y-81884134D01*
X44837346Y-81884134D01*
X44932584Y-81931753D01*
X44980203Y-81979372D01*
X45027822Y-82074610D01*
X45027822Y-82312705D01*
X44980203Y-82407943D01*
X44932584Y-82455562D01*
X44837346Y-82503181D01*
X44551632Y-82503181D01*
X44456394Y-82455562D01*
X44408775Y-82407943D01*
X45884965Y-81836515D02*
X45884965Y-82503181D01*
X45646870Y-81455562D02*
X45408775Y-82169848D01*
X46027822Y-82169848D01*
X34424880Y-83319857D02*
X33948690Y-83653190D01*
X34424880Y-83891285D02*
X33424880Y-83891285D01*
X33424880Y-83510333D01*
X33472500Y-83415095D01*
X33520119Y-83367476D01*
X33615357Y-83319857D01*
X33758214Y-83319857D01*
X33853452Y-83367476D01*
X33901071Y-83415095D01*
X33948690Y-83510333D01*
X33948690Y-83891285D01*
X33424880Y-82986523D02*
X33424880Y-82367476D01*
X33805833Y-82700809D01*
X33805833Y-82557952D01*
X33853452Y-82462714D01*
X33901071Y-82415095D01*
X33996309Y-82367476D01*
X34234404Y-82367476D01*
X34329642Y-82415095D01*
X34377261Y-82462714D01*
X34424880Y-82557952D01*
X34424880Y-82843666D01*
X34377261Y-82938904D01*
X34329642Y-82986523D01*
X33424880Y-81462714D02*
X33424880Y-81938904D01*
X33901071Y-81986523D01*
X33853452Y-81938904D01*
X33805833Y-81843666D01*
X33805833Y-81605571D01*
X33853452Y-81510333D01*
X33901071Y-81462714D01*
X33996309Y-81415095D01*
X34234404Y-81415095D01*
X34329642Y-81462714D01*
X34377261Y-81510333D01*
X34424880Y-81605571D01*
X34424880Y-81843666D01*
X34377261Y-81938904D01*
X34329642Y-81986523D01*
X36147441Y-88937181D02*
X35814108Y-88460991D01*
X35576013Y-88937181D02*
X35576013Y-87937181D01*
X35956965Y-87937181D01*
X36052203Y-87984801D01*
X36099822Y-88032420D01*
X36147441Y-88127658D01*
X36147441Y-88270515D01*
X36099822Y-88365753D01*
X36052203Y-88413372D01*
X35956965Y-88460991D01*
X35576013Y-88460991D01*
X36480775Y-87937181D02*
X37099822Y-87937181D01*
X36766489Y-88318134D01*
X36909346Y-88318134D01*
X37004584Y-88365753D01*
X37052203Y-88413372D01*
X37099822Y-88508610D01*
X37099822Y-88746705D01*
X37052203Y-88841943D01*
X37004584Y-88889562D01*
X36909346Y-88937181D01*
X36623632Y-88937181D01*
X36528394Y-88889562D01*
X36480775Y-88841943D01*
X37956965Y-87937181D02*
X37766489Y-87937181D01*
X37671251Y-87984801D01*
X37623632Y-88032420D01*
X37528394Y-88175277D01*
X37480775Y-88365753D01*
X37480775Y-88746705D01*
X37528394Y-88841943D01*
X37576013Y-88889562D01*
X37671251Y-88937181D01*
X37861727Y-88937181D01*
X37956965Y-88889562D01*
X38004584Y-88841943D01*
X38052203Y-88746705D01*
X38052203Y-88508610D01*
X38004584Y-88413372D01*
X37956965Y-88365753D01*
X37861727Y-88318134D01*
X37671251Y-88318134D01*
X37576013Y-88365753D01*
X37528394Y-88413372D01*
X37480775Y-88508610D01*
X45731179Y-95903896D02*
X46540703Y-95903896D01*
X46635941Y-95856277D01*
X46683560Y-95808658D01*
X46731179Y-95713420D01*
X46731179Y-95522943D01*
X46683560Y-95427705D01*
X46635941Y-95380086D01*
X46540703Y-95332467D01*
X45731179Y-95332467D01*
X46731179Y-94332467D02*
X46731179Y-94903896D01*
X46731179Y-94618181D02*
X45731179Y-94618181D01*
X45874037Y-94713420D01*
X45969275Y-94808658D01*
X46016894Y-94903896D01*
X45731179Y-93713420D02*
X45731179Y-93618181D01*
X45778799Y-93522943D01*
X45826418Y-93475324D01*
X45921656Y-93427705D01*
X46112132Y-93380086D01*
X46350227Y-93380086D01*
X46540703Y-93427705D01*
X46635941Y-93475324D01*
X46683560Y-93522943D01*
X46731179Y-93618181D01*
X46731179Y-93713420D01*
X46683560Y-93808658D01*
X46635941Y-93856277D01*
X46540703Y-93903896D01*
X46350227Y-93951515D01*
X46112132Y-93951515D01*
X45921656Y-93903896D01*
X45826418Y-93856277D01*
X45778799Y-93808658D01*
X45731179Y-93713420D01*
X47239179Y-99395943D02*
X46239179Y-99395943D01*
X47239179Y-98824515D01*
X46239179Y-98824515D01*
X46239179Y-98491181D02*
X46239179Y-97919753D01*
X47239179Y-98205467D02*
X46239179Y-98205467D01*
X46953465Y-97634039D02*
X46953465Y-97157848D01*
X47239179Y-97729277D02*
X46239179Y-97395943D01*
X47239179Y-97062610D01*
X46572513Y-96300705D02*
X47239179Y-96300705D01*
X46191560Y-96538801D02*
X46905846Y-96776896D01*
X46905846Y-96157848D01*
X47239179Y-95253086D02*
X47239179Y-95824515D01*
X47239179Y-95538801D02*
X46239179Y-95538801D01*
X46382037Y-95634039D01*
X46477275Y-95729277D01*
X46524894Y-95824515D01*
X46239179Y-94348324D02*
X46239179Y-94824515D01*
X46715370Y-94872134D01*
X46667751Y-94824515D01*
X46620132Y-94729277D01*
X46620132Y-94491181D01*
X46667751Y-94395943D01*
X46715370Y-94348324D01*
X46810608Y-94300705D01*
X47048703Y-94300705D01*
X47143941Y-94348324D01*
X47191560Y-94395943D01*
X47239179Y-94491181D01*
X47239179Y-94729277D01*
X47191560Y-94824515D01*
X47143941Y-94872134D01*
X47239179Y-93348324D02*
X47239179Y-93919753D01*
X47239179Y-93634039D02*
X46239179Y-93634039D01*
X46382037Y-93729277D01*
X46477275Y-93824515D01*
X46524894Y-93919753D01*
X47239179Y-92919753D02*
X46239179Y-92919753D01*
X46239179Y-92538801D01*
X46286799Y-92443562D01*
X46334418Y-92395943D01*
X46429656Y-92348324D01*
X46572513Y-92348324D01*
X46667751Y-92395943D01*
X46715370Y-92443562D01*
X46762989Y-92538801D01*
X46762989Y-92919753D01*
X46239179Y-92062610D02*
X46239179Y-91491181D01*
X47239179Y-91776896D02*
X46239179Y-91776896D01*
X47239179Y-90634039D02*
X47239179Y-91205467D01*
X47239179Y-90919753D02*
X46239179Y-90919753D01*
X46382037Y-91014991D01*
X46477275Y-91110229D01*
X46524894Y-91205467D01*
X46286799Y-89681658D02*
X46239179Y-89776896D01*
X46239179Y-89919753D01*
X46286799Y-90062610D01*
X46382037Y-90157848D01*
X46477275Y-90205467D01*
X46667751Y-90253086D01*
X46810608Y-90253086D01*
X47001084Y-90205467D01*
X47096322Y-90157848D01*
X47191560Y-90062610D01*
X47239179Y-89919753D01*
X47239179Y-89824515D01*
X47191560Y-89681658D01*
X47143941Y-89634039D01*
X46810608Y-89634039D01*
X46810608Y-89824515D01*
X46239179Y-94538801D02*
X46477275Y-94538801D01*
X46382037Y-94776896D02*
X46477275Y-94538801D01*
X46382037Y-94300705D01*
X46667751Y-94681658D02*
X46477275Y-94538801D01*
X46667751Y-94395943D01*
X51573179Y-72154896D02*
X52382703Y-72154896D01*
X52477941Y-72107277D01*
X52525560Y-72059658D01*
X52573179Y-71964420D01*
X52573179Y-71773943D01*
X52525560Y-71678705D01*
X52477941Y-71631086D01*
X52382703Y-71583467D01*
X51573179Y-71583467D01*
X52573179Y-70583467D02*
X52573179Y-71154896D01*
X52573179Y-70869181D02*
X51573179Y-70869181D01*
X51716037Y-70964420D01*
X51811275Y-71059658D01*
X51858894Y-71154896D01*
X52573179Y-69631086D02*
X52573179Y-70202515D01*
X52573179Y-69916801D02*
X51573179Y-69916801D01*
X51716037Y-70012039D01*
X51811275Y-70107277D01*
X51858894Y-70202515D01*
X52477941Y-75392991D02*
X52525560Y-75440610D01*
X52573179Y-75583467D01*
X52573179Y-75678705D01*
X52525560Y-75821562D01*
X52430322Y-75916801D01*
X52335084Y-75964420D01*
X52144608Y-76012039D01*
X52001751Y-76012039D01*
X51811275Y-75964420D01*
X51716037Y-75916801D01*
X51620799Y-75821562D01*
X51573179Y-75678705D01*
X51573179Y-75583467D01*
X51620799Y-75440610D01*
X51668418Y-75392991D01*
X52525560Y-75012039D02*
X52573179Y-74869181D01*
X52573179Y-74631086D01*
X52525560Y-74535848D01*
X52477941Y-74488229D01*
X52382703Y-74440610D01*
X52287465Y-74440610D01*
X52192227Y-74488229D01*
X52144608Y-74535848D01*
X52096989Y-74631086D01*
X52049370Y-74821562D01*
X52001751Y-74916801D01*
X51954132Y-74964420D01*
X51858894Y-75012039D01*
X51763656Y-75012039D01*
X51668418Y-74964420D01*
X51620799Y-74916801D01*
X51573179Y-74821562D01*
X51573179Y-74583467D01*
X51620799Y-74440610D01*
X52573179Y-74012039D02*
X51573179Y-74012039D01*
X51573179Y-73773943D01*
X51620799Y-73631086D01*
X51716037Y-73535848D01*
X51811275Y-73488229D01*
X52001751Y-73440610D01*
X52144608Y-73440610D01*
X52335084Y-73488229D01*
X52430322Y-73535848D01*
X52525560Y-73631086D01*
X52573179Y-73773943D01*
X52573179Y-74012039D01*
X52573179Y-72488229D02*
X52573179Y-73059658D01*
X52573179Y-72773943D02*
X51573179Y-72773943D01*
X51716037Y-72869181D01*
X51811275Y-72964420D01*
X51858894Y-73059658D01*
X52001751Y-71916801D02*
X51954132Y-72012039D01*
X51906513Y-72059658D01*
X51811275Y-72107277D01*
X51763656Y-72107277D01*
X51668418Y-72059658D01*
X51620799Y-72012039D01*
X51573179Y-71916801D01*
X51573179Y-71726324D01*
X51620799Y-71631086D01*
X51668418Y-71583467D01*
X51763656Y-71535848D01*
X51811275Y-71535848D01*
X51906513Y-71583467D01*
X51954132Y-71631086D01*
X52001751Y-71726324D01*
X52001751Y-71916801D01*
X52049370Y-72012039D01*
X52096989Y-72059658D01*
X52192227Y-72107277D01*
X52382703Y-72107277D01*
X52477941Y-72059658D01*
X52525560Y-72012039D01*
X52573179Y-71916801D01*
X52573179Y-71726324D01*
X52525560Y-71631086D01*
X52477941Y-71583467D01*
X52382703Y-71535848D01*
X52192227Y-71535848D01*
X52096989Y-71583467D01*
X52049370Y-71631086D01*
X52001751Y-71726324D01*
X51573179Y-70631086D02*
X51573179Y-71107277D01*
X52049370Y-71154896D01*
X52001751Y-71107277D01*
X51954132Y-71012039D01*
X51954132Y-70773943D01*
X52001751Y-70678705D01*
X52049370Y-70631086D01*
X52144608Y-70583467D01*
X52382703Y-70583467D01*
X52477941Y-70631086D01*
X52525560Y-70678705D01*
X52573179Y-70773943D01*
X52573179Y-71012039D01*
X52525560Y-71107277D01*
X52477941Y-71154896D01*
X52573179Y-69631086D02*
X52573179Y-70202515D01*
X52573179Y-69916801D02*
X51573179Y-69916801D01*
X51716037Y-70012039D01*
X51811275Y-70107277D01*
X51858894Y-70202515D01*
X51906513Y-68773943D02*
X52573179Y-68773943D01*
X51525560Y-69012039D02*
X52239846Y-69250134D01*
X52239846Y-68631086D01*
X52668418Y-67583467D02*
X52620799Y-67678705D01*
X52525560Y-67773943D01*
X52382703Y-67916801D01*
X52335084Y-68012039D01*
X52335084Y-68107277D01*
X52573179Y-68059658D02*
X52525560Y-68154896D01*
X52430322Y-68250134D01*
X52239846Y-68297753D01*
X51906513Y-68297753D01*
X51716037Y-68250134D01*
X51620799Y-68154896D01*
X51573179Y-68059658D01*
X51573179Y-67869181D01*
X51620799Y-67773943D01*
X51716037Y-67678705D01*
X51906513Y-67631086D01*
X52239846Y-67631086D01*
X52430322Y-67678705D01*
X52525560Y-67773943D01*
X52573179Y-67869181D01*
X52573179Y-68059658D01*
X51573179Y-66726324D02*
X51573179Y-67202515D01*
X52049370Y-67250134D01*
X52001751Y-67202515D01*
X51954132Y-67107277D01*
X51954132Y-66869181D01*
X52001751Y-66773943D01*
X52049370Y-66726324D01*
X52144608Y-66678705D01*
X52382703Y-66678705D01*
X52477941Y-66726324D01*
X52525560Y-66773943D01*
X52573179Y-66869181D01*
X52573179Y-67107277D01*
X52525560Y-67202515D01*
X52477941Y-67250134D01*
X52287465Y-66297753D02*
X52287465Y-65821562D01*
X52573179Y-66392991D02*
X51573179Y-66059658D01*
X52573179Y-65726324D01*
X28392380Y-176299285D02*
X27392380Y-176299285D01*
X27392380Y-176061190D01*
X27440000Y-175918333D01*
X27535238Y-175823095D01*
X27630476Y-175775476D01*
X27820952Y-175727857D01*
X27963809Y-175727857D01*
X28154285Y-175775476D01*
X28249523Y-175823095D01*
X28344761Y-175918333D01*
X28392380Y-176061190D01*
X28392380Y-176299285D01*
X28344761Y-174918333D02*
X28392380Y-175013571D01*
X28392380Y-175204047D01*
X28344761Y-175299285D01*
X28249523Y-175346904D01*
X27868571Y-175346904D01*
X27773333Y-175299285D01*
X27725714Y-175204047D01*
X27725714Y-175013571D01*
X27773333Y-174918333D01*
X27868571Y-174870714D01*
X27963809Y-174870714D01*
X28059047Y-175346904D01*
X28344761Y-174489761D02*
X28392380Y-174394523D01*
X28392380Y-174204047D01*
X28344761Y-174108809D01*
X28249523Y-174061190D01*
X28201904Y-174061190D01*
X28106666Y-174108809D01*
X28059047Y-174204047D01*
X28059047Y-174346904D01*
X28011428Y-174442142D01*
X27916190Y-174489761D01*
X27868571Y-174489761D01*
X27773333Y-174442142D01*
X27725714Y-174346904D01*
X27725714Y-174204047D01*
X27773333Y-174108809D01*
X28392380Y-173632619D02*
X27725714Y-173632619D01*
X27392380Y-173632619D02*
X27440000Y-173680238D01*
X27487619Y-173632619D01*
X27440000Y-173585000D01*
X27392380Y-173632619D01*
X27487619Y-173632619D01*
X27725714Y-172727857D02*
X28535238Y-172727857D01*
X28630476Y-172775476D01*
X28678095Y-172823095D01*
X28725714Y-172918333D01*
X28725714Y-173061190D01*
X28678095Y-173156428D01*
X28344761Y-172727857D02*
X28392380Y-172823095D01*
X28392380Y-173013571D01*
X28344761Y-173108809D01*
X28297142Y-173156428D01*
X28201904Y-173204047D01*
X27916190Y-173204047D01*
X27820952Y-173156428D01*
X27773333Y-173108809D01*
X27725714Y-173013571D01*
X27725714Y-172823095D01*
X27773333Y-172727857D01*
X27725714Y-172251666D02*
X28392380Y-172251666D01*
X27820952Y-172251666D02*
X27773333Y-172204047D01*
X27725714Y-172108809D01*
X27725714Y-171965952D01*
X27773333Y-171870714D01*
X27868571Y-171823095D01*
X28392380Y-171823095D01*
X28392380Y-170918333D02*
X27868571Y-170918333D01*
X27773333Y-170965952D01*
X27725714Y-171061190D01*
X27725714Y-171251666D01*
X27773333Y-171346904D01*
X28344761Y-170918333D02*
X28392380Y-171013571D01*
X28392380Y-171251666D01*
X28344761Y-171346904D01*
X28249523Y-171394523D01*
X28154285Y-171394523D01*
X28059047Y-171346904D01*
X28011428Y-171251666D01*
X28011428Y-171013571D01*
X27963809Y-170918333D01*
X27725714Y-170585000D02*
X27725714Y-170204047D01*
X27392380Y-170442142D02*
X28249523Y-170442142D01*
X28344761Y-170394523D01*
X28392380Y-170299285D01*
X28392380Y-170204047D01*
X28392380Y-169727857D02*
X28344761Y-169823095D01*
X28297142Y-169870714D01*
X28201904Y-169918333D01*
X27916190Y-169918333D01*
X27820952Y-169870714D01*
X27773333Y-169823095D01*
X27725714Y-169727857D01*
X27725714Y-169585000D01*
X27773333Y-169489761D01*
X27820952Y-169442142D01*
X27916190Y-169394523D01*
X28201904Y-169394523D01*
X28297142Y-169442142D01*
X28344761Y-169489761D01*
X28392380Y-169585000D01*
X28392380Y-169727857D01*
X28392380Y-168965952D02*
X27725714Y-168965952D01*
X27916190Y-168965952D02*
X27820952Y-168918333D01*
X27773333Y-168870714D01*
X27725714Y-168775476D01*
X27725714Y-168680238D01*
X28392380Y-168299285D02*
X28392380Y-168108809D01*
X28344761Y-168013571D01*
X28297142Y-167965952D01*
X28154285Y-167870714D01*
X27963809Y-167823095D01*
X27582857Y-167823095D01*
X27487619Y-167870714D01*
X27440000Y-167918333D01*
X27392380Y-168013571D01*
X27392380Y-168204047D01*
X27440000Y-168299285D01*
X27487619Y-168346904D01*
X27582857Y-168394523D01*
X27820952Y-168394523D01*
X27916190Y-168346904D01*
X27963809Y-168299285D01*
X28011428Y-168204047D01*
X28011428Y-168013571D01*
X27963809Y-167918333D01*
X27916190Y-167870714D01*
X27820952Y-167823095D01*
X51573179Y-70916801D02*
X51811275Y-70916801D01*
X51716037Y-71154896D02*
X51811275Y-70916801D01*
X51716037Y-70678705D01*
X52001751Y-71059658D02*
X51811275Y-70916801D01*
X52001751Y-70773943D01*
X43516703Y-80529181D02*
X43516703Y-81338705D01*
X43564322Y-81433943D01*
X43611941Y-81481562D01*
X43707179Y-81529181D01*
X43897656Y-81529181D01*
X43992894Y-81481562D01*
X44040513Y-81433943D01*
X44088132Y-81338705D01*
X44088132Y-80529181D01*
X45088132Y-81529181D02*
X44516703Y-81529181D01*
X44802418Y-81529181D02*
X44802418Y-80529181D01*
X44707179Y-80672039D01*
X44611941Y-80767277D01*
X44516703Y-80814896D01*
X45469084Y-80624420D02*
X45516703Y-80576801D01*
X45611941Y-80529181D01*
X45850037Y-80529181D01*
X45945275Y-80576801D01*
X45992894Y-80624420D01*
X46040513Y-80719658D01*
X46040513Y-80814896D01*
X45992894Y-80957753D01*
X45421465Y-81529181D01*
X46040513Y-81529181D01*
X40278608Y-81433943D02*
X40230989Y-81481562D01*
X40088132Y-81529181D01*
X39992894Y-81529181D01*
X39850037Y-81481562D01*
X39754799Y-81386324D01*
X39707179Y-81291086D01*
X39659560Y-81100610D01*
X39659560Y-80957753D01*
X39707179Y-80767277D01*
X39754799Y-80672039D01*
X39850037Y-80576801D01*
X39992894Y-80529181D01*
X40088132Y-80529181D01*
X40230989Y-80576801D01*
X40278608Y-80624420D01*
X40659560Y-81481562D02*
X40802418Y-81529181D01*
X41040513Y-81529181D01*
X41135751Y-81481562D01*
X41183370Y-81433943D01*
X41230989Y-81338705D01*
X41230989Y-81243467D01*
X41183370Y-81148229D01*
X41135751Y-81100610D01*
X41040513Y-81052991D01*
X40850037Y-81005372D01*
X40754799Y-80957753D01*
X40707179Y-80910134D01*
X40659560Y-80814896D01*
X40659560Y-80719658D01*
X40707179Y-80624420D01*
X40754799Y-80576801D01*
X40850037Y-80529181D01*
X41088132Y-80529181D01*
X41230989Y-80576801D01*
X41659560Y-81529181D02*
X41659560Y-80529181D01*
X41897656Y-80529181D01*
X42040513Y-80576801D01*
X42135751Y-80672039D01*
X42183370Y-80767277D01*
X42230989Y-80957753D01*
X42230989Y-81100610D01*
X42183370Y-81291086D01*
X42135751Y-81386324D01*
X42040513Y-81481562D01*
X41897656Y-81529181D01*
X41659560Y-81529181D01*
X43183370Y-81529181D02*
X42611941Y-81529181D01*
X42897656Y-81529181D02*
X42897656Y-80529181D01*
X42802418Y-80672039D01*
X42707179Y-80767277D01*
X42611941Y-80814896D01*
X43754799Y-80957753D02*
X43659560Y-80910134D01*
X43611941Y-80862515D01*
X43564322Y-80767277D01*
X43564322Y-80719658D01*
X43611941Y-80624420D01*
X43659560Y-80576801D01*
X43754799Y-80529181D01*
X43945275Y-80529181D01*
X44040513Y-80576801D01*
X44088132Y-80624420D01*
X44135751Y-80719658D01*
X44135751Y-80767277D01*
X44088132Y-80862515D01*
X44040513Y-80910134D01*
X43945275Y-80957753D01*
X43754799Y-80957753D01*
X43659560Y-81005372D01*
X43611941Y-81052991D01*
X43564322Y-81148229D01*
X43564322Y-81338705D01*
X43611941Y-81433943D01*
X43659560Y-81481562D01*
X43754799Y-81529181D01*
X43945275Y-81529181D01*
X44040513Y-81481562D01*
X44088132Y-81433943D01*
X44135751Y-81338705D01*
X44135751Y-81148229D01*
X44088132Y-81052991D01*
X44040513Y-81005372D01*
X43945275Y-80957753D01*
X45040513Y-80529181D02*
X44564322Y-80529181D01*
X44516703Y-81005372D01*
X44564322Y-80957753D01*
X44659560Y-80910134D01*
X44897656Y-80910134D01*
X44992894Y-80957753D01*
X45040513Y-81005372D01*
X45088132Y-81100610D01*
X45088132Y-81338705D01*
X45040513Y-81433943D01*
X44992894Y-81481562D01*
X44897656Y-81529181D01*
X44659560Y-81529181D01*
X44564322Y-81481562D01*
X44516703Y-81433943D01*
X45945275Y-80862515D02*
X45945275Y-81529181D01*
X45707179Y-80481562D02*
X45469084Y-81195848D01*
X46088132Y-81195848D01*
X46373846Y-80529181D02*
X46992894Y-80529181D01*
X46659560Y-80910134D01*
X46802418Y-80910134D01*
X46897656Y-80957753D01*
X46945275Y-81005372D01*
X46992894Y-81100610D01*
X46992894Y-81338705D01*
X46945275Y-81433943D01*
X46897656Y-81481562D01*
X46802418Y-81529181D01*
X46516703Y-81529181D01*
X46421465Y-81481562D01*
X46373846Y-81433943D01*
X48088132Y-81624420D02*
X47992894Y-81576801D01*
X47897656Y-81481562D01*
X47754799Y-81338705D01*
X47659560Y-81291086D01*
X47564322Y-81291086D01*
X47611941Y-81529181D02*
X47516703Y-81481562D01*
X47421465Y-81386324D01*
X47373846Y-81195848D01*
X47373846Y-80862515D01*
X47421465Y-80672039D01*
X47516703Y-80576801D01*
X47611941Y-80529181D01*
X47802418Y-80529181D01*
X47897656Y-80576801D01*
X47992894Y-80672039D01*
X48040513Y-80862515D01*
X48040513Y-81195848D01*
X47992894Y-81386324D01*
X47897656Y-81481562D01*
X47802418Y-81529181D01*
X47611941Y-81529181D01*
X48373846Y-80529181D02*
X48992894Y-80529181D01*
X48659560Y-80910134D01*
X48802418Y-80910134D01*
X48897656Y-80957753D01*
X48945275Y-81005372D01*
X48992894Y-81100610D01*
X48992894Y-81338705D01*
X48945275Y-81433943D01*
X48897656Y-81481562D01*
X48802418Y-81529181D01*
X48516703Y-81529181D01*
X48421465Y-81481562D01*
X48373846Y-81433943D01*
X49373846Y-81243467D02*
X49850037Y-81243467D01*
X49278608Y-81529181D02*
X49611941Y-80529181D01*
X49945275Y-81529181D01*
D14*
X44219584Y-81134253D02*
X44219584Y-81007253D01*
X44249822Y-81007253D01*
X44267965Y-81013301D01*
X44280060Y-81025396D01*
X44286108Y-81037491D01*
X44292156Y-81061681D01*
X44292156Y-81079824D01*
X44286108Y-81104015D01*
X44280060Y-81116110D01*
X44267965Y-81128205D01*
X44249822Y-81134253D01*
X44219584Y-81134253D01*
X44394965Y-81128205D02*
X44382870Y-81134253D01*
X44358679Y-81134253D01*
X44346584Y-81128205D01*
X44340537Y-81116110D01*
X44340537Y-81067729D01*
X44346584Y-81055634D01*
X44358679Y-81049586D01*
X44382870Y-81049586D01*
X44394965Y-81055634D01*
X44401013Y-81067729D01*
X44401013Y-81079824D01*
X44340537Y-81091920D01*
X44449394Y-81128205D02*
X44461489Y-81134253D01*
X44485679Y-81134253D01*
X44497775Y-81128205D01*
X44503822Y-81116110D01*
X44503822Y-81110062D01*
X44497775Y-81097967D01*
X44485679Y-81091920D01*
X44467537Y-81091920D01*
X44455441Y-81085872D01*
X44449394Y-81073777D01*
X44449394Y-81067729D01*
X44455441Y-81055634D01*
X44467537Y-81049586D01*
X44485679Y-81049586D01*
X44497775Y-81055634D01*
X44558251Y-81134253D02*
X44558251Y-81049586D01*
X44558251Y-81007253D02*
X44552203Y-81013301D01*
X44558251Y-81019348D01*
X44564299Y-81013301D01*
X44558251Y-81007253D01*
X44558251Y-81019348D01*
X44673156Y-81049586D02*
X44673156Y-81152396D01*
X44667108Y-81164491D01*
X44661060Y-81170539D01*
X44648965Y-81176586D01*
X44630822Y-81176586D01*
X44618727Y-81170539D01*
X44673156Y-81128205D02*
X44661060Y-81134253D01*
X44636870Y-81134253D01*
X44624775Y-81128205D01*
X44618727Y-81122158D01*
X44612679Y-81110062D01*
X44612679Y-81073777D01*
X44618727Y-81061681D01*
X44624775Y-81055634D01*
X44636870Y-81049586D01*
X44661060Y-81049586D01*
X44673156Y-81055634D01*
X44733632Y-81049586D02*
X44733632Y-81134253D01*
X44733632Y-81061681D02*
X44739679Y-81055634D01*
X44751775Y-81049586D01*
X44769918Y-81049586D01*
X44782013Y-81055634D01*
X44788060Y-81067729D01*
X44788060Y-81134253D01*
X44902965Y-81134253D02*
X44902965Y-81067729D01*
X44896918Y-81055634D01*
X44884822Y-81049586D01*
X44860632Y-81049586D01*
X44848537Y-81055634D01*
X44902965Y-81128205D02*
X44890870Y-81134253D01*
X44860632Y-81134253D01*
X44848537Y-81128205D01*
X44842489Y-81116110D01*
X44842489Y-81104015D01*
X44848537Y-81091920D01*
X44860632Y-81085872D01*
X44890870Y-81085872D01*
X44902965Y-81079824D01*
X44945299Y-81049586D02*
X44993679Y-81049586D01*
X44963441Y-81007253D02*
X44963441Y-81116110D01*
X44969489Y-81128205D01*
X44981584Y-81134253D01*
X44993679Y-81134253D01*
X45054156Y-81134253D02*
X45042060Y-81128205D01*
X45036013Y-81122158D01*
X45029965Y-81110062D01*
X45029965Y-81073777D01*
X45036013Y-81061681D01*
X45042060Y-81055634D01*
X45054156Y-81049586D01*
X45072299Y-81049586D01*
X45084394Y-81055634D01*
X45090441Y-81061681D01*
X45096489Y-81073777D01*
X45096489Y-81110062D01*
X45090441Y-81122158D01*
X45084394Y-81128205D01*
X45072299Y-81134253D01*
X45054156Y-81134253D01*
X45150918Y-81134253D02*
X45150918Y-81049586D01*
X45150918Y-81073777D02*
X45156965Y-81061681D01*
X45163013Y-81055634D01*
X45175108Y-81049586D01*
X45187203Y-81049586D01*
X45235584Y-81134253D02*
X45259775Y-81134253D01*
X45271870Y-81128205D01*
X45277918Y-81122158D01*
X45290013Y-81104015D01*
X45296060Y-81079824D01*
X45296060Y-81031443D01*
X45290013Y-81019348D01*
X45283965Y-81013301D01*
X45271870Y-81007253D01*
X45247679Y-81007253D01*
X45235584Y-81013301D01*
X45229537Y-81019348D01*
X45223489Y-81031443D01*
X45223489Y-81061681D01*
X45229537Y-81073777D01*
X45235584Y-81079824D01*
X45247679Y-81085872D01*
X45271870Y-81085872D01*
X45283965Y-81079824D01*
X45290013Y-81073777D01*
X45296060Y-81061681D01*
D10*
X44029799Y-80694182D02*
X44029799Y-80932278D01*
X43791703Y-80837040D02*
X44029799Y-80932278D01*
X44267894Y-80837040D01*
X43886941Y-81122754D02*
X44029799Y-80932278D01*
X44172656Y-81122754D01*
X55078380Y-70389595D02*
X55887904Y-70389595D01*
X55983142Y-70341976D01*
X56030761Y-70294357D01*
X56078380Y-70199119D01*
X56078380Y-70008642D01*
X56030761Y-69913404D01*
X55983142Y-69865785D01*
X55887904Y-69818166D01*
X55078380Y-69818166D01*
X56078380Y-68818166D02*
X56078380Y-69389595D01*
X56078380Y-69103880D02*
X55078380Y-69103880D01*
X55221238Y-69199119D01*
X55316476Y-69294357D01*
X55364095Y-69389595D01*
X55411714Y-67961023D02*
X56078380Y-67961023D01*
X55030761Y-68199119D02*
X55745047Y-68437214D01*
X55745047Y-67818166D01*
X28582880Y-178211952D02*
X27582880Y-178211952D01*
X28297166Y-177878619D01*
X27582880Y-177545285D01*
X28582880Y-177545285D01*
X28297166Y-177116714D02*
X28297166Y-176640523D01*
X28582880Y-177211952D02*
X27582880Y-176878619D01*
X28582880Y-176545285D01*
X27582880Y-176307190D02*
X28582880Y-175640523D01*
X27582880Y-175640523D02*
X28582880Y-176307190D01*
X27916214Y-174831000D02*
X28582880Y-174831000D01*
X27535261Y-175069095D02*
X28249547Y-175307190D01*
X28249547Y-174688142D01*
X27916214Y-173878619D02*
X28582880Y-173878619D01*
X27535261Y-174116714D02*
X28249547Y-174354809D01*
X28249547Y-173735761D01*
X27678119Y-173402428D02*
X27630500Y-173354809D01*
X27582880Y-173259571D01*
X27582880Y-173021476D01*
X27630500Y-172926238D01*
X27678119Y-172878619D01*
X27773357Y-172831000D01*
X27868595Y-172831000D01*
X28011452Y-172878619D01*
X28582880Y-173450047D01*
X28582880Y-172831000D01*
X28011452Y-172259571D02*
X27963833Y-172354809D01*
X27916214Y-172402428D01*
X27820976Y-172450047D01*
X27773357Y-172450047D01*
X27678119Y-172402428D01*
X27630500Y-172354809D01*
X27582880Y-172259571D01*
X27582880Y-172069095D01*
X27630500Y-171973857D01*
X27678119Y-171926238D01*
X27773357Y-171878619D01*
X27820976Y-171878619D01*
X27916214Y-171926238D01*
X27963833Y-171973857D01*
X28011452Y-172069095D01*
X28011452Y-172259571D01*
X28059071Y-172354809D01*
X28106690Y-172402428D01*
X28201928Y-172450047D01*
X28392404Y-172450047D01*
X28487642Y-172402428D01*
X28535261Y-172354809D01*
X28582880Y-172259571D01*
X28582880Y-172069095D01*
X28535261Y-171973857D01*
X28487642Y-171926238D01*
X28392404Y-171878619D01*
X28201928Y-171878619D01*
X28106690Y-171926238D01*
X28059071Y-171973857D01*
X28011452Y-172069095D01*
X27916214Y-171021476D02*
X28582880Y-171021476D01*
X27535261Y-171259571D02*
X28249547Y-171497666D01*
X28249547Y-170878619D01*
X28059071Y-170164333D02*
X28059071Y-170497666D01*
X28582880Y-170497666D02*
X27582880Y-170497666D01*
X27582880Y-170021476D01*
X28297166Y-169688142D02*
X28297166Y-169211952D01*
X28582880Y-169783380D02*
X27582880Y-169450047D01*
X28582880Y-169116714D01*
X27582880Y-168783380D02*
X28392404Y-168783380D01*
X28487642Y-168735761D01*
X28535261Y-168688142D01*
X28582880Y-168592904D01*
X28582880Y-168402428D01*
X28535261Y-168307190D01*
X28487642Y-168259571D01*
X28392404Y-168211952D01*
X27582880Y-168211952D01*
X27582880Y-167878619D02*
X27582880Y-167307190D01*
X28582880Y-167592904D02*
X27582880Y-167592904D01*
X28201928Y-166973857D02*
X28201928Y-166211952D01*
X28582880Y-166592904D02*
X27820976Y-166592904D01*
X27582880Y-165878619D02*
X27582880Y-165307190D01*
X28582880Y-165592904D02*
X27582880Y-165592904D01*
X60344049Y-71115981D02*
X60344049Y-71354077D01*
X60105953Y-71258839D02*
X60344049Y-71354077D01*
X60582144Y-71258839D01*
X60201191Y-71544553D02*
X60344049Y-71354077D01*
X60486906Y-71544553D01*
X60344049Y-71115981D02*
X60344049Y-71354077D01*
X60105953Y-71258839D02*
X60344049Y-71354077D01*
X60582144Y-71258839D01*
X60201191Y-71544553D02*
X60344049Y-71354077D01*
X60486906Y-71544553D01*
X25995380Y-82962595D02*
X26804904Y-82962595D01*
X26900142Y-82914976D01*
X26947761Y-82867357D01*
X26995380Y-82772119D01*
X26995380Y-82581642D01*
X26947761Y-82486404D01*
X26900142Y-82438785D01*
X26804904Y-82391166D01*
X25995380Y-82391166D01*
X26995380Y-81391166D02*
X26995380Y-81962595D01*
X26995380Y-81676880D02*
X25995380Y-81676880D01*
X26138238Y-81772119D01*
X26233476Y-81867357D01*
X26281095Y-81962595D01*
X25995380Y-80486404D02*
X25995380Y-80962595D01*
X26471571Y-81010214D01*
X26423952Y-80962595D01*
X26376333Y-80867357D01*
X26376333Y-80629261D01*
X26423952Y-80534023D01*
X26471571Y-80486404D01*
X26566809Y-80438785D01*
X26804904Y-80438785D01*
X26900142Y-80486404D01*
X26947761Y-80534023D01*
X26995380Y-80629261D01*
X26995380Y-80867357D01*
X26947761Y-80962595D01*
X26900142Y-81010214D01*
X28455880Y-178783452D02*
X27455880Y-178783452D01*
X28170166Y-178450119D01*
X27455880Y-178116785D01*
X28455880Y-178116785D01*
X28170166Y-177688214D02*
X28170166Y-177212023D01*
X28455880Y-177783452D02*
X27455880Y-177450119D01*
X28455880Y-177116785D01*
X27455880Y-176878690D02*
X28455880Y-176212023D01*
X27455880Y-176212023D02*
X28455880Y-176878690D01*
X27789214Y-175402500D02*
X28455880Y-175402500D01*
X27408261Y-175640595D02*
X28122547Y-175878690D01*
X28122547Y-175259642D01*
X27789214Y-174450119D02*
X28455880Y-174450119D01*
X27408261Y-174688214D02*
X28122547Y-174926309D01*
X28122547Y-174307261D01*
X27551119Y-173973928D02*
X27503500Y-173926309D01*
X27455880Y-173831071D01*
X27455880Y-173592976D01*
X27503500Y-173497738D01*
X27551119Y-173450119D01*
X27646357Y-173402500D01*
X27741595Y-173402500D01*
X27884452Y-173450119D01*
X28455880Y-174021547D01*
X28455880Y-173402500D01*
X27884452Y-172831071D02*
X27836833Y-172926309D01*
X27789214Y-172973928D01*
X27693976Y-173021547D01*
X27646357Y-173021547D01*
X27551119Y-172973928D01*
X27503500Y-172926309D01*
X27455880Y-172831071D01*
X27455880Y-172640595D01*
X27503500Y-172545357D01*
X27551119Y-172497738D01*
X27646357Y-172450119D01*
X27693976Y-172450119D01*
X27789214Y-172497738D01*
X27836833Y-172545357D01*
X27884452Y-172640595D01*
X27884452Y-172831071D01*
X27932071Y-172926309D01*
X27979690Y-172973928D01*
X28074928Y-173021547D01*
X28265404Y-173021547D01*
X28360642Y-172973928D01*
X28408261Y-172926309D01*
X28455880Y-172831071D01*
X28455880Y-172640595D01*
X28408261Y-172545357D01*
X28360642Y-172497738D01*
X28265404Y-172450119D01*
X28074928Y-172450119D01*
X27979690Y-172497738D01*
X27932071Y-172545357D01*
X27884452Y-172640595D01*
X27789214Y-171592976D02*
X28455880Y-171592976D01*
X27408261Y-171831071D02*
X28122547Y-172069166D01*
X28122547Y-171450119D01*
X27932071Y-170735833D02*
X27932071Y-171069166D01*
X28455880Y-171069166D02*
X27455880Y-171069166D01*
X27455880Y-170592976D01*
X28170166Y-170259642D02*
X28170166Y-169783452D01*
X28455880Y-170354880D02*
X27455880Y-170021547D01*
X28455880Y-169688214D01*
X27455880Y-169354880D02*
X28265404Y-169354880D01*
X28360642Y-169307261D01*
X28408261Y-169259642D01*
X28455880Y-169164404D01*
X28455880Y-168973928D01*
X28408261Y-168878690D01*
X28360642Y-168831071D01*
X28265404Y-168783452D01*
X27455880Y-168783452D01*
X27455880Y-168450119D02*
X27455880Y-167878690D01*
X28455880Y-168164404D02*
X27455880Y-168164404D01*
X28074928Y-167545357D02*
X28074928Y-166783452D01*
X28455880Y-167164404D02*
X27693976Y-167164404D01*
X27455880Y-166450119D02*
X27455880Y-165878690D01*
X28455880Y-166164404D02*
X27455880Y-166164404D01*
X32658049Y-83942981D02*
X32658049Y-84181077D01*
X32419953Y-84085839D02*
X32658049Y-84181077D01*
X32896144Y-84085839D01*
X32515191Y-84371553D02*
X32658049Y-84181077D01*
X32800906Y-84371553D01*
X32658049Y-83942981D02*
X32658049Y-84181077D01*
X32419953Y-84085839D02*
X32658049Y-84181077D01*
X32896144Y-84085839D01*
X32515191Y-84371553D02*
X32658049Y-84181077D01*
X32800906Y-84371553D01*
M02*
