G04 #@! TF.GenerationSoftware,KiCad,Pcbnew,(5.1.10)-1*
G04 #@! TF.CreationDate,2021-05-18T15:00:51+02:00*
G04 #@! TF.ProjectId,PEE50_MPPT,50454535-305f-44d5-9050-542e6b696361,rev?*
G04 #@! TF.SameCoordinates,Original*
G04 #@! TF.FileFunction,Soldermask,Top*
G04 #@! TF.FilePolarity,Negative*
%FSLAX46Y46*%
G04 Gerber Fmt 4.6, Leading zero omitted, Abs format (unit mm)*
G04 Created by KiCad (PCBNEW (5.1.10)-1) date 2021-05-18 15:00:51*
%MOMM*%
%LPD*%
G01*
G04 APERTURE LIST*
%ADD10C,0.152400*%
%ADD11C,0.706367*%
%ADD12C,0.689687*%
%ADD13C,0.658750*%
%ADD14C,0.732306*%
%ADD15O,2.100000X2.100000*%
%ADD16O,2.480000X4.000000*%
%ADD17O,1.450000X1.900000*%
G04 APERTURE END LIST*
D10*
X40541800Y-74481800D02*
X40591800Y-74431800D01*
X40541800Y-75156800D02*
X40541800Y-74481800D01*
X40591800Y-75206800D02*
X40541800Y-75156800D01*
X41066798Y-75206800D02*
X40591800Y-75206800D01*
X41116798Y-75156800D02*
X41066798Y-75206800D01*
X41116800Y-74856801D02*
X41116798Y-75156800D01*
X41066798Y-74806801D02*
X41116800Y-74856801D01*
X40766798Y-74806801D02*
X41066798Y-74806801D01*
X40766798Y-74481800D02*
X40766798Y-74806801D01*
X40716798Y-74431800D02*
X40766798Y-74481800D01*
X40591800Y-74431800D02*
X40716798Y-74431800D01*
X40716798Y-78831802D02*
X40591800Y-78831802D01*
X40766798Y-78781802D02*
X40716798Y-78831802D01*
X40766798Y-78456801D02*
X40766798Y-78781802D01*
X41066798Y-78456801D02*
X40766798Y-78456801D01*
X41116800Y-78406801D02*
X41066798Y-78456801D01*
X41116798Y-78106802D02*
X41116800Y-78406801D01*
X41066798Y-78056799D02*
X41116798Y-78106802D01*
X40591800Y-78056802D02*
X41066798Y-78056799D01*
X40541798Y-78106802D02*
X40591800Y-78056802D01*
X40541798Y-78781802D02*
X40541798Y-78106802D01*
X40591800Y-78831799D02*
X40541798Y-78781802D01*
X40591800Y-78831802D02*
X40591800Y-78831799D01*
X37567800Y-74481800D02*
X37617798Y-74431800D01*
X37567798Y-74781802D02*
X37567800Y-74481800D01*
X37267798Y-74781802D02*
X37567798Y-74781802D01*
X37217799Y-74831802D02*
X37267798Y-74781802D01*
X37217799Y-75081802D02*
X37217799Y-74831802D01*
X37267798Y-75131801D02*
X37217799Y-75081802D01*
X37742799Y-75131801D02*
X37267798Y-75131801D01*
X37792799Y-75081802D02*
X37742799Y-75131801D01*
X37792799Y-74481800D02*
X37792799Y-75081802D01*
X37742799Y-74431800D02*
X37792799Y-74481800D01*
X37617798Y-74431800D02*
X37742799Y-74431800D01*
X37742799Y-78831802D02*
X37617798Y-78831802D01*
X37792801Y-78781802D02*
X37742799Y-78831802D01*
X37792799Y-78181800D02*
X37792801Y-78781802D01*
X37742799Y-78131801D02*
X37792799Y-78181800D01*
X37267798Y-78131801D02*
X37742799Y-78131801D01*
X37217799Y-78181800D02*
X37267798Y-78131801D01*
X37217799Y-78431800D02*
X37217799Y-78181800D01*
X37267798Y-78481800D02*
X37217799Y-78431800D01*
X37567798Y-78481800D02*
X37267798Y-78481800D01*
X37567800Y-78781802D02*
X37567798Y-78481800D01*
X37617798Y-78831802D02*
X37567800Y-78781802D01*
X52960795Y-68666800D02*
X52960795Y-68441800D01*
X52960795Y-68441800D02*
X52550796Y-68441800D01*
X52550796Y-68441800D02*
X52550796Y-68666800D01*
X52550796Y-68666800D02*
X52960795Y-68666800D01*
X54230797Y-68666800D02*
X54230797Y-68441800D01*
X54230797Y-68441800D02*
X53820798Y-68441800D01*
X53820798Y-68441800D02*
X53820798Y-68666800D01*
X53820798Y-68666800D02*
X54230797Y-68666800D01*
X50420797Y-68666800D02*
X50420797Y-68441800D01*
X50420797Y-68441800D02*
X50010798Y-68441800D01*
X50010798Y-68441800D02*
X50010798Y-68666800D01*
X50010798Y-68666800D02*
X50420797Y-68666800D01*
X51690800Y-68666800D02*
X51690800Y-68441800D01*
X51690800Y-68441800D02*
X51280801Y-68441800D01*
X51280801Y-68441800D02*
X51280801Y-68666800D01*
X51280801Y-68666800D02*
X51690800Y-68666800D01*
X54303599Y-72106799D02*
X49937999Y-72106799D01*
X49937999Y-72106799D02*
X49927814Y-72105798D01*
X49927814Y-72105798D02*
X49918022Y-72102826D01*
X49918022Y-72102826D02*
X49908997Y-72098003D01*
X49908997Y-72098003D02*
X49901088Y-72091510D01*
X49901088Y-72091510D02*
X49894596Y-72083601D01*
X49894596Y-72083601D02*
X49889772Y-72074576D01*
X49889772Y-72074576D02*
X49886800Y-72064784D01*
X49886800Y-72064784D02*
X49885800Y-72054599D01*
X49885800Y-72054599D02*
X49885800Y-68679000D01*
X49885800Y-68679000D02*
X49886800Y-68668815D01*
X49886800Y-68668815D02*
X49889772Y-68659023D01*
X49889772Y-68659023D02*
X49894596Y-68649998D01*
X49894596Y-68649998D02*
X49901088Y-68642089D01*
X49901088Y-68642089D02*
X49908997Y-68635597D01*
X49908997Y-68635597D02*
X49918022Y-68630773D01*
X49918022Y-68630773D02*
X49927814Y-68627801D01*
X49927814Y-68627801D02*
X49937999Y-68626798D01*
X49937999Y-68626798D02*
X54303599Y-68626798D01*
X54303599Y-68626798D02*
X54313784Y-68627801D01*
X54313784Y-68627801D02*
X54323576Y-68630773D01*
X54323576Y-68630773D02*
X54332601Y-68635597D01*
X54332601Y-68635597D02*
X54340510Y-68642089D01*
X54340510Y-68642089D02*
X54347002Y-68649998D01*
X54347002Y-68649998D02*
X54351826Y-68659023D01*
X54351826Y-68659023D02*
X54354798Y-68668815D01*
X54354798Y-68668815D02*
X54355798Y-68679000D01*
X54355798Y-68679000D02*
X54355798Y-72054599D01*
X54355798Y-72054599D02*
X54354798Y-72064784D01*
X54354798Y-72064784D02*
X54351826Y-72074576D01*
X54351826Y-72074576D02*
X54347002Y-72083601D01*
X54347002Y-72083601D02*
X54340510Y-72091510D01*
X54340510Y-72091510D02*
X54332601Y-72098003D01*
X54332601Y-72098003D02*
X54323576Y-72102826D01*
X54323576Y-72102826D02*
X54313784Y-72105798D01*
X54313784Y-72105798D02*
X54303599Y-72106799D01*
X45679798Y-80251801D02*
X46179797Y-80251801D01*
X46179797Y-80251801D02*
X46179797Y-79951802D01*
X46179797Y-79951802D02*
X45679798Y-79951802D01*
X45679798Y-79951802D02*
X45679798Y-80251801D01*
X45679798Y-82201800D02*
X46179797Y-82201800D01*
X46179797Y-82201800D02*
X46179797Y-81901801D01*
X46179797Y-81901801D02*
X45679798Y-81901801D01*
X45679798Y-81901801D02*
X45679798Y-82201800D01*
X45679798Y-81551799D02*
X46179797Y-81551799D01*
X46179797Y-81551799D02*
X46179797Y-81251799D01*
X46179797Y-81251799D02*
X45679798Y-81251799D01*
X45679798Y-81251799D02*
X45679798Y-81551799D01*
X45679798Y-80901803D02*
X46179797Y-80901803D01*
X46179797Y-80901803D02*
X46179797Y-80601803D01*
X46179797Y-80601803D02*
X45679798Y-80601803D01*
X45679798Y-80601803D02*
X45679798Y-80901803D01*
X44194800Y-82248551D02*
X44194800Y-79905051D01*
X44194800Y-79905051D02*
X44195821Y-79894662D01*
X44195821Y-79894662D02*
X44198851Y-79884672D01*
X44198851Y-79884672D02*
X44203774Y-79875467D01*
X44203774Y-79875467D02*
X44210396Y-79867398D01*
X44210396Y-79867398D02*
X44218465Y-79860776D01*
X44218465Y-79860776D02*
X44227670Y-79855853D01*
X44227670Y-79855853D02*
X44237660Y-79852823D01*
X44237660Y-79852823D02*
X44248049Y-79851802D01*
X44248049Y-79851802D02*
X45916549Y-79851802D01*
X45916549Y-79851802D02*
X45926938Y-79852823D01*
X45926938Y-79852823D02*
X45936928Y-79855853D01*
X45936928Y-79855853D02*
X45946133Y-79860776D01*
X45946133Y-79860776D02*
X45954202Y-79867398D01*
X45954202Y-79867398D02*
X45960824Y-79875467D01*
X45960824Y-79875467D02*
X45965747Y-79884672D01*
X45965747Y-79884672D02*
X45968777Y-79894662D01*
X45968777Y-79894662D02*
X45969800Y-79905051D01*
X45969800Y-79905051D02*
X45969800Y-82248551D01*
X45969800Y-82248551D02*
X45968777Y-82258940D01*
X45968777Y-82258940D02*
X45965747Y-82268930D01*
X45965747Y-82268930D02*
X45960824Y-82278135D01*
X45960824Y-82278135D02*
X45954202Y-82286204D01*
X45954202Y-82286204D02*
X45946133Y-82292826D01*
X45946133Y-82292826D02*
X45936928Y-82297749D01*
X45936928Y-82297749D02*
X45926938Y-82300779D01*
X45926938Y-82300779D02*
X45916549Y-82301800D01*
X45916549Y-82301800D02*
X44248049Y-82301800D01*
X44248049Y-82301800D02*
X44237660Y-82300779D01*
X44237660Y-82300779D02*
X44227670Y-82297749D01*
X44227670Y-82297749D02*
X44218465Y-82292826D01*
X44218465Y-82292826D02*
X44210396Y-82286204D01*
X44210396Y-82286204D02*
X44203774Y-82278135D01*
X44203774Y-82278135D02*
X44198851Y-82268930D01*
X44198851Y-82268930D02*
X44195821Y-82258940D01*
X44195821Y-82258940D02*
X44194800Y-82248551D01*
D11*
X40721487Y-74970862D03*
G36*
G01*
X39841801Y-75031801D02*
X39841801Y-74431803D01*
G75*
G02*
X40041801Y-74231803I200000J0D01*
G01*
X40291799Y-74231803D01*
G75*
G02*
X40491799Y-74431803I0J-200000D01*
G01*
X40491799Y-75031801D01*
G75*
G02*
X40291799Y-75231801I-200000J0D01*
G01*
X40041801Y-75231801D01*
G75*
G02*
X39841801Y-75031801I0J200000D01*
G01*
G37*
G36*
G01*
X39541799Y-74231801D02*
X39791797Y-74231801D01*
G75*
G02*
X39991797Y-74431801I0J-200000D01*
G01*
X39991797Y-75156801D01*
G75*
G02*
X39791797Y-75356801I-200000J0D01*
G01*
X39541799Y-75356801D01*
G75*
G02*
X39341799Y-75156801I0J200000D01*
G01*
X39341799Y-74431801D01*
G75*
G02*
X39541799Y-74231801I200000J0D01*
G01*
G37*
G36*
G01*
X39041800Y-74231801D02*
X39291798Y-74231801D01*
G75*
G02*
X39491798Y-74431801I0J-200000D01*
G01*
X39491798Y-75156801D01*
G75*
G02*
X39291798Y-75356801I-200000J0D01*
G01*
X39041800Y-75356801D01*
G75*
G02*
X38841800Y-75156801I0J200000D01*
G01*
X38841800Y-74431801D01*
G75*
G02*
X39041800Y-74231801I200000J0D01*
G01*
G37*
G36*
G01*
X38541801Y-74231801D02*
X38791799Y-74231801D01*
G75*
G02*
X38991799Y-74431801I0J-200000D01*
G01*
X38991799Y-75156801D01*
G75*
G02*
X38791799Y-75356801I-200000J0D01*
G01*
X38541801Y-75356801D01*
G75*
G02*
X38341801Y-75156801I0J200000D01*
G01*
X38341801Y-74431801D01*
G75*
G02*
X38541801Y-74231801I200000J0D01*
G01*
G37*
G36*
G01*
X37841799Y-75031801D02*
X37841799Y-74431803D01*
G75*
G02*
X38041799Y-74231803I200000J0D01*
G01*
X38291797Y-74231803D01*
G75*
G02*
X38491797Y-74431803I0J-200000D01*
G01*
X38491797Y-75031801D01*
G75*
G02*
X38291797Y-75231801I-200000J0D01*
G01*
X38041799Y-75231801D01*
G75*
G02*
X37841799Y-75031801I0J200000D01*
G01*
G37*
D12*
X37613111Y-74970862D03*
G36*
G01*
X37216799Y-75181803D02*
X37841799Y-75181803D01*
G75*
G02*
X38041799Y-75381803I0J-200000D01*
G01*
X38041799Y-75631801D01*
G75*
G02*
X37841799Y-75831801I-200000J0D01*
G01*
X37216799Y-75831801D01*
G75*
G02*
X37016799Y-75631801I0J200000D01*
G01*
X37016799Y-75381803D01*
G75*
G02*
X37216799Y-75181803I200000J0D01*
G01*
G37*
G36*
G01*
X37216799Y-75681802D02*
X37841799Y-75681802D01*
G75*
G02*
X38041799Y-75881802I0J-200000D01*
G01*
X38041799Y-76131800D01*
G75*
G02*
X37841799Y-76331800I-200000J0D01*
G01*
X37216799Y-76331800D01*
G75*
G02*
X37016799Y-76131800I0J200000D01*
G01*
X37016799Y-75881802D01*
G75*
G02*
X37216799Y-75681802I200000J0D01*
G01*
G37*
G36*
G01*
X37216799Y-76181801D02*
X37841799Y-76181801D01*
G75*
G02*
X38041799Y-76381801I0J-200000D01*
G01*
X38041799Y-76631799D01*
G75*
G02*
X37841799Y-76831799I-200000J0D01*
G01*
X37216799Y-76831799D01*
G75*
G02*
X37016799Y-76631799I0J200000D01*
G01*
X37016799Y-76381801D01*
G75*
G02*
X37216799Y-76181801I200000J0D01*
G01*
G37*
G36*
G01*
X37216799Y-76931802D02*
X37841799Y-76931802D01*
G75*
G02*
X38041799Y-77131802I0J-200000D01*
G01*
X38041799Y-77381800D01*
G75*
G02*
X37841799Y-77581800I-200000J0D01*
G01*
X37216799Y-77581800D01*
G75*
G02*
X37016799Y-77381800I0J200000D01*
G01*
X37016799Y-77131802D01*
G75*
G02*
X37216799Y-76931802I200000J0D01*
G01*
G37*
G36*
G01*
X37216799Y-77431801D02*
X37841799Y-77431801D01*
G75*
G02*
X38041799Y-77631801I0J-200000D01*
G01*
X38041799Y-77881799D01*
G75*
G02*
X37841799Y-78081799I-200000J0D01*
G01*
X37216799Y-78081799D01*
G75*
G02*
X37016799Y-77881799I0J200000D01*
G01*
X37016799Y-77631801D01*
G75*
G02*
X37216799Y-77431801I200000J0D01*
G01*
G37*
D13*
X37361550Y-78275552D03*
G36*
G01*
X37841799Y-78831799D02*
X37841799Y-78231801D01*
G75*
G02*
X38041799Y-78031801I200000J0D01*
G01*
X38291797Y-78031801D01*
G75*
G02*
X38491797Y-78231801I0J-200000D01*
G01*
X38491797Y-78831799D01*
G75*
G02*
X38291797Y-79031799I-200000J0D01*
G01*
X38041799Y-79031799D01*
G75*
G02*
X37841799Y-78831799I0J200000D01*
G01*
G37*
G36*
G01*
X38541801Y-77906801D02*
X38791799Y-77906801D01*
G75*
G02*
X38991799Y-78106801I0J-200000D01*
G01*
X38991799Y-78831801D01*
G75*
G02*
X38791799Y-79031801I-200000J0D01*
G01*
X38541801Y-79031801D01*
G75*
G02*
X38341801Y-78831801I0J200000D01*
G01*
X38341801Y-78106801D01*
G75*
G02*
X38541801Y-77906801I200000J0D01*
G01*
G37*
G36*
G01*
X39041800Y-77906801D02*
X39291798Y-77906801D01*
G75*
G02*
X39491798Y-78106801I0J-200000D01*
G01*
X39491798Y-78831801D01*
G75*
G02*
X39291798Y-79031801I-200000J0D01*
G01*
X39041800Y-79031801D01*
G75*
G02*
X38841800Y-78831801I0J200000D01*
G01*
X38841800Y-78106801D01*
G75*
G02*
X39041800Y-77906801I200000J0D01*
G01*
G37*
G36*
G01*
X39541799Y-77906801D02*
X39791797Y-77906801D01*
G75*
G02*
X39991797Y-78106801I0J-200000D01*
G01*
X39991797Y-78831801D01*
G75*
G02*
X39791797Y-79031801I-200000J0D01*
G01*
X39541799Y-79031801D01*
G75*
G02*
X39341799Y-78831801I0J200000D01*
G01*
X39341799Y-78106801D01*
G75*
G02*
X39541799Y-77906801I200000J0D01*
G01*
G37*
G36*
G01*
X39841801Y-78831799D02*
X39841801Y-78231801D01*
G75*
G02*
X40041801Y-78031801I200000J0D01*
G01*
X40291799Y-78031801D01*
G75*
G02*
X40491799Y-78231801I0J-200000D01*
G01*
X40491799Y-78831799D01*
G75*
G02*
X40291799Y-79031799I-200000J0D01*
G01*
X40041801Y-79031799D01*
G75*
G02*
X39841801Y-78831799I0J200000D01*
G01*
G37*
D14*
X40757423Y-78272425D03*
G36*
G01*
X40441800Y-77356802D02*
X41116800Y-77356802D01*
G75*
G02*
X41316800Y-77556802I0J-200000D01*
G01*
X41316800Y-77806800D01*
G75*
G02*
X41116800Y-78006800I-200000J0D01*
G01*
X40441800Y-78006800D01*
G75*
G02*
X40241800Y-77806800I0J200000D01*
G01*
X40241800Y-77556802D01*
G75*
G02*
X40441800Y-77356802I200000J0D01*
G01*
G37*
G36*
G01*
X40516799Y-76556802D02*
X41116797Y-76556802D01*
G75*
G02*
X41316797Y-76756802I0J-200000D01*
G01*
X41316797Y-77006800D01*
G75*
G02*
X41116797Y-77206800I-200000J0D01*
G01*
X40516799Y-77206800D01*
G75*
G02*
X40316799Y-77006800I0J200000D01*
G01*
X40316799Y-76756802D01*
G75*
G02*
X40516799Y-76556802I200000J0D01*
G01*
G37*
G36*
G01*
X40516799Y-76056802D02*
X41116797Y-76056802D01*
G75*
G02*
X41316797Y-76256802I0J-200000D01*
G01*
X41316797Y-76506800D01*
G75*
G02*
X41116797Y-76706800I-200000J0D01*
G01*
X40516799Y-76706800D01*
G75*
G02*
X40316799Y-76506800I0J200000D01*
G01*
X40316799Y-76256802D01*
G75*
G02*
X40516799Y-76056802I200000J0D01*
G01*
G37*
G36*
G01*
X40441800Y-75256802D02*
X41116800Y-75256802D01*
G75*
G02*
X41316800Y-75456802I0J-200000D01*
G01*
X41316800Y-75706800D01*
G75*
G02*
X41116800Y-75906800I-200000J0D01*
G01*
X40441800Y-75906800D01*
G75*
G02*
X40241800Y-75706800I0J200000D01*
G01*
X40241800Y-75456802D01*
G75*
G02*
X40441800Y-75256802I200000J0D01*
G01*
G37*
G36*
G01*
X38454299Y-75619301D02*
X39879299Y-75619301D01*
G75*
G02*
X40079299Y-75819301I0J-200000D01*
G01*
X40079299Y-76194301D01*
G75*
G02*
X39879299Y-76394301I-200000J0D01*
G01*
X38454299Y-76394301D01*
G75*
G02*
X38254299Y-76194301I0J200000D01*
G01*
X38254299Y-75819301D01*
G75*
G02*
X38454299Y-75619301I200000J0D01*
G01*
G37*
G36*
G01*
X38454299Y-76244301D02*
X39879299Y-76244301D01*
G75*
G02*
X40079299Y-76444301I0J-200000D01*
G01*
X40079299Y-76819301D01*
G75*
G02*
X39879299Y-77019301I-200000J0D01*
G01*
X38454299Y-77019301D01*
G75*
G02*
X38254299Y-76819301I0J200000D01*
G01*
X38254299Y-76444301D01*
G75*
G02*
X38454299Y-76244301I200000J0D01*
G01*
G37*
G36*
G01*
X38454299Y-76869301D02*
X39879299Y-76869301D01*
G75*
G02*
X40079299Y-77069301I0J-200000D01*
G01*
X40079299Y-77444301D01*
G75*
G02*
X39879299Y-77644301I-200000J0D01*
G01*
X38454299Y-77644301D01*
G75*
G02*
X38254299Y-77444301I0J200000D01*
G01*
X38254299Y-77069301D01*
G75*
G02*
X38454299Y-76869301I200000J0D01*
G01*
G37*
G36*
G01*
X83177825Y-112418500D02*
X81668175Y-112418500D01*
G75*
G02*
X81348000Y-112098325I0J320175D01*
G01*
X81348000Y-110913675D01*
G75*
G02*
X81668175Y-110593500I320175J0D01*
G01*
X83177825Y-110593500D01*
G75*
G02*
X83498000Y-110913675I0J-320175D01*
G01*
X83498000Y-112098325D01*
G75*
G02*
X83177825Y-112418500I-320175J0D01*
G01*
G37*
G36*
G01*
X83177825Y-109443500D02*
X81668175Y-109443500D01*
G75*
G02*
X81348000Y-109123325I0J320175D01*
G01*
X81348000Y-107938675D01*
G75*
G02*
X81668175Y-107618500I320175J0D01*
G01*
X83177825Y-107618500D01*
G75*
G02*
X83498000Y-107938675I0J-320175D01*
G01*
X83498000Y-109123325D01*
G75*
G02*
X83177825Y-109443500I-320175J0D01*
G01*
G37*
G36*
G01*
X78689500Y-105466325D02*
X78689500Y-103956675D01*
G75*
G02*
X79009675Y-103636500I320175J0D01*
G01*
X80194325Y-103636500D01*
G75*
G02*
X80514500Y-103956675I0J-320175D01*
G01*
X80514500Y-105466325D01*
G75*
G02*
X80194325Y-105786500I-320175J0D01*
G01*
X79009675Y-105786500D01*
G75*
G02*
X78689500Y-105466325I0J320175D01*
G01*
G37*
G36*
G01*
X81664500Y-105466325D02*
X81664500Y-103956675D01*
G75*
G02*
X81984675Y-103636500I320175J0D01*
G01*
X83169325Y-103636500D01*
G75*
G02*
X83489500Y-103956675I0J-320175D01*
G01*
X83489500Y-105466325D01*
G75*
G02*
X83169325Y-105786500I-320175J0D01*
G01*
X81984675Y-105786500D01*
G75*
G02*
X81664500Y-105466325I0J320175D01*
G01*
G37*
G36*
G01*
X49387500Y-108604825D02*
X49387500Y-107095175D01*
G75*
G02*
X49707675Y-106775000I320175J0D01*
G01*
X50892325Y-106775000D01*
G75*
G02*
X51212500Y-107095175I0J-320175D01*
G01*
X51212500Y-108604825D01*
G75*
G02*
X50892325Y-108925000I-320175J0D01*
G01*
X49707675Y-108925000D01*
G75*
G02*
X49387500Y-108604825I0J320175D01*
G01*
G37*
G36*
G01*
X46412500Y-108604825D02*
X46412500Y-107095175D01*
G75*
G02*
X46732675Y-106775000I320175J0D01*
G01*
X47917325Y-106775000D01*
G75*
G02*
X48237500Y-107095175I0J-320175D01*
G01*
X48237500Y-108604825D01*
G75*
G02*
X47917325Y-108925000I-320175J0D01*
G01*
X46732675Y-108925000D01*
G75*
G02*
X46412500Y-108604825I0J320175D01*
G01*
G37*
G36*
G01*
X77517100Y-109330401D02*
X77871900Y-109330401D01*
G75*
G02*
X78071900Y-109530401I0J-200000D01*
G01*
X78071900Y-110992399D01*
G75*
G02*
X77871900Y-111192399I-200000J0D01*
G01*
X77517100Y-111192399D01*
G75*
G02*
X77317100Y-110992399I0J200000D01*
G01*
X77317100Y-109530401D01*
G75*
G02*
X77517100Y-109330401I200000J0D01*
G01*
G37*
G36*
G01*
X76867099Y-109330401D02*
X77221899Y-109330401D01*
G75*
G02*
X77421899Y-109530401I0J-200000D01*
G01*
X77421899Y-110992399D01*
G75*
G02*
X77221899Y-111192399I-200000J0D01*
G01*
X76867099Y-111192399D01*
G75*
G02*
X76667099Y-110992399I0J200000D01*
G01*
X76667099Y-109530401D01*
G75*
G02*
X76867099Y-109330401I200000J0D01*
G01*
G37*
G36*
G01*
X76217100Y-109330401D02*
X76571900Y-109330401D01*
G75*
G02*
X76771900Y-109530401I0J-200000D01*
G01*
X76771900Y-110992399D01*
G75*
G02*
X76571900Y-111192399I-200000J0D01*
G01*
X76217100Y-111192399D01*
G75*
G02*
X76017100Y-110992399I0J200000D01*
G01*
X76017100Y-109530401D01*
G75*
G02*
X76217100Y-109330401I200000J0D01*
G01*
G37*
G36*
G01*
X75567099Y-109330401D02*
X75921899Y-109330401D01*
G75*
G02*
X76121899Y-109530401I0J-200000D01*
G01*
X76121899Y-110992399D01*
G75*
G02*
X75921899Y-111192399I-200000J0D01*
G01*
X75567099Y-111192399D01*
G75*
G02*
X75367099Y-110992399I0J200000D01*
G01*
X75367099Y-109530401D01*
G75*
G02*
X75567099Y-109330401I200000J0D01*
G01*
G37*
G36*
G01*
X74917101Y-109330401D02*
X75271901Y-109330401D01*
G75*
G02*
X75471901Y-109530401I0J-200000D01*
G01*
X75471901Y-110992399D01*
G75*
G02*
X75271901Y-111192399I-200000J0D01*
G01*
X74917101Y-111192399D01*
G75*
G02*
X74717101Y-110992399I0J200000D01*
G01*
X74717101Y-109530401D01*
G75*
G02*
X74917101Y-109330401I200000J0D01*
G01*
G37*
G36*
G01*
X74267099Y-109330401D02*
X74621899Y-109330401D01*
G75*
G02*
X74821899Y-109530401I0J-200000D01*
G01*
X74821899Y-110992399D01*
G75*
G02*
X74621899Y-111192399I-200000J0D01*
G01*
X74267099Y-111192399D01*
G75*
G02*
X74067099Y-110992399I0J200000D01*
G01*
X74067099Y-109530401D01*
G75*
G02*
X74267099Y-109330401I200000J0D01*
G01*
G37*
G36*
G01*
X73617101Y-109330401D02*
X73971901Y-109330401D01*
G75*
G02*
X74171901Y-109530401I0J-200000D01*
G01*
X74171901Y-110992399D01*
G75*
G02*
X73971901Y-111192399I-200000J0D01*
G01*
X73617101Y-111192399D01*
G75*
G02*
X73417101Y-110992399I0J200000D01*
G01*
X73417101Y-109530401D01*
G75*
G02*
X73617101Y-109330401I200000J0D01*
G01*
G37*
G36*
G01*
X72967099Y-109330401D02*
X73321899Y-109330401D01*
G75*
G02*
X73521899Y-109530401I0J-200000D01*
G01*
X73521899Y-110992399D01*
G75*
G02*
X73321899Y-111192399I-200000J0D01*
G01*
X72967099Y-111192399D01*
G75*
G02*
X72767099Y-110992399I0J200000D01*
G01*
X72767099Y-109530401D01*
G75*
G02*
X72967099Y-109330401I200000J0D01*
G01*
G37*
G36*
G01*
X72317101Y-109330401D02*
X72671901Y-109330401D01*
G75*
G02*
X72871901Y-109530401I0J-200000D01*
G01*
X72871901Y-110992399D01*
G75*
G02*
X72671901Y-111192399I-200000J0D01*
G01*
X72317101Y-111192399D01*
G75*
G02*
X72117101Y-110992399I0J200000D01*
G01*
X72117101Y-109530401D01*
G75*
G02*
X72317101Y-109330401I200000J0D01*
G01*
G37*
G36*
G01*
X71667099Y-109330401D02*
X72021899Y-109330401D01*
G75*
G02*
X72221899Y-109530401I0J-200000D01*
G01*
X72221899Y-110992399D01*
G75*
G02*
X72021899Y-111192399I-200000J0D01*
G01*
X71667099Y-111192399D01*
G75*
G02*
X71467099Y-110992399I0J200000D01*
G01*
X71467099Y-109530401D01*
G75*
G02*
X71667099Y-109330401I200000J0D01*
G01*
G37*
G36*
G01*
X71017101Y-109330401D02*
X71371901Y-109330401D01*
G75*
G02*
X71571901Y-109530401I0J-200000D01*
G01*
X71571901Y-110992399D01*
G75*
G02*
X71371901Y-111192399I-200000J0D01*
G01*
X71017101Y-111192399D01*
G75*
G02*
X70817101Y-110992399I0J200000D01*
G01*
X70817101Y-109530401D01*
G75*
G02*
X71017101Y-109330401I200000J0D01*
G01*
G37*
G36*
G01*
X70367100Y-109330401D02*
X70721900Y-109330401D01*
G75*
G02*
X70921900Y-109530401I0J-200000D01*
G01*
X70921900Y-110992399D01*
G75*
G02*
X70721900Y-111192399I-200000J0D01*
G01*
X70367100Y-111192399D01*
G75*
G02*
X70167100Y-110992399I0J200000D01*
G01*
X70167100Y-109530401D01*
G75*
G02*
X70367100Y-109330401I200000J0D01*
G01*
G37*
G36*
G01*
X69717101Y-109330401D02*
X70071901Y-109330401D01*
G75*
G02*
X70271901Y-109530401I0J-200000D01*
G01*
X70271901Y-110992399D01*
G75*
G02*
X70071901Y-111192399I-200000J0D01*
G01*
X69717101Y-111192399D01*
G75*
G02*
X69517101Y-110992399I0J200000D01*
G01*
X69517101Y-109530401D01*
G75*
G02*
X69717101Y-109330401I200000J0D01*
G01*
G37*
G36*
G01*
X69067100Y-109330401D02*
X69421900Y-109330401D01*
G75*
G02*
X69621900Y-109530401I0J-200000D01*
G01*
X69621900Y-110992399D01*
G75*
G02*
X69421900Y-111192399I-200000J0D01*
G01*
X69067100Y-111192399D01*
G75*
G02*
X68867100Y-110992399I0J200000D01*
G01*
X68867100Y-109530401D01*
G75*
G02*
X69067100Y-109330401I200000J0D01*
G01*
G37*
G36*
G01*
X69067102Y-103691601D02*
X69421902Y-103691601D01*
G75*
G02*
X69621902Y-103891601I0J-200000D01*
G01*
X69621902Y-105353599D01*
G75*
G02*
X69421902Y-105553599I-200000J0D01*
G01*
X69067102Y-105553599D01*
G75*
G02*
X68867102Y-105353599I0J200000D01*
G01*
X68867102Y-103891601D01*
G75*
G02*
X69067102Y-103691601I200000J0D01*
G01*
G37*
G36*
G01*
X69717101Y-103691601D02*
X70071901Y-103691601D01*
G75*
G02*
X70271901Y-103891601I0J-200000D01*
G01*
X70271901Y-105353599D01*
G75*
G02*
X70071901Y-105553599I-200000J0D01*
G01*
X69717101Y-105553599D01*
G75*
G02*
X69517101Y-105353599I0J200000D01*
G01*
X69517101Y-103891601D01*
G75*
G02*
X69717101Y-103691601I200000J0D01*
G01*
G37*
G36*
G01*
X70367102Y-103691601D02*
X70721902Y-103691601D01*
G75*
G02*
X70921902Y-103891601I0J-200000D01*
G01*
X70921902Y-105353599D01*
G75*
G02*
X70721902Y-105553599I-200000J0D01*
G01*
X70367102Y-105553599D01*
G75*
G02*
X70167102Y-105353599I0J200000D01*
G01*
X70167102Y-103891601D01*
G75*
G02*
X70367102Y-103691601I200000J0D01*
G01*
G37*
G36*
G01*
X71017101Y-103691601D02*
X71371901Y-103691601D01*
G75*
G02*
X71571901Y-103891601I0J-200000D01*
G01*
X71571901Y-105353599D01*
G75*
G02*
X71371901Y-105553599I-200000J0D01*
G01*
X71017101Y-105553599D01*
G75*
G02*
X70817101Y-105353599I0J200000D01*
G01*
X70817101Y-103891601D01*
G75*
G02*
X71017101Y-103691601I200000J0D01*
G01*
G37*
G36*
G01*
X71667102Y-103691601D02*
X72021902Y-103691601D01*
G75*
G02*
X72221902Y-103891601I0J-200000D01*
G01*
X72221902Y-105353599D01*
G75*
G02*
X72021902Y-105553599I-200000J0D01*
G01*
X71667102Y-105553599D01*
G75*
G02*
X71467102Y-105353599I0J200000D01*
G01*
X71467102Y-103891601D01*
G75*
G02*
X71667102Y-103691601I200000J0D01*
G01*
G37*
G36*
G01*
X72317101Y-103691601D02*
X72671901Y-103691601D01*
G75*
G02*
X72871901Y-103891601I0J-200000D01*
G01*
X72871901Y-105353599D01*
G75*
G02*
X72671901Y-105553599I-200000J0D01*
G01*
X72317101Y-105553599D01*
G75*
G02*
X72117101Y-105353599I0J200000D01*
G01*
X72117101Y-103891601D01*
G75*
G02*
X72317101Y-103691601I200000J0D01*
G01*
G37*
G36*
G01*
X72967102Y-103691601D02*
X73321902Y-103691601D01*
G75*
G02*
X73521902Y-103891601I0J-200000D01*
G01*
X73521902Y-105353599D01*
G75*
G02*
X73321902Y-105553599I-200000J0D01*
G01*
X72967102Y-105553599D01*
G75*
G02*
X72767102Y-105353599I0J200000D01*
G01*
X72767102Y-103891601D01*
G75*
G02*
X72967102Y-103691601I200000J0D01*
G01*
G37*
G36*
G01*
X73617101Y-103691601D02*
X73971901Y-103691601D01*
G75*
G02*
X74171901Y-103891601I0J-200000D01*
G01*
X74171901Y-105353599D01*
G75*
G02*
X73971901Y-105553599I-200000J0D01*
G01*
X73617101Y-105553599D01*
G75*
G02*
X73417101Y-105353599I0J200000D01*
G01*
X73417101Y-103891601D01*
G75*
G02*
X73617101Y-103691601I200000J0D01*
G01*
G37*
G36*
G01*
X74267099Y-103691601D02*
X74621899Y-103691601D01*
G75*
G02*
X74821899Y-103891601I0J-200000D01*
G01*
X74821899Y-105353599D01*
G75*
G02*
X74621899Y-105553599I-200000J0D01*
G01*
X74267099Y-105553599D01*
G75*
G02*
X74067099Y-105353599I0J200000D01*
G01*
X74067099Y-103891601D01*
G75*
G02*
X74267099Y-103691601I200000J0D01*
G01*
G37*
G36*
G01*
X74917101Y-103691601D02*
X75271901Y-103691601D01*
G75*
G02*
X75471901Y-103891601I0J-200000D01*
G01*
X75471901Y-105353599D01*
G75*
G02*
X75271901Y-105553599I-200000J0D01*
G01*
X74917101Y-105553599D01*
G75*
G02*
X74717101Y-105353599I0J200000D01*
G01*
X74717101Y-103891601D01*
G75*
G02*
X74917101Y-103691601I200000J0D01*
G01*
G37*
G36*
G01*
X75567099Y-103691601D02*
X75921899Y-103691601D01*
G75*
G02*
X76121899Y-103891601I0J-200000D01*
G01*
X76121899Y-105353599D01*
G75*
G02*
X75921899Y-105553599I-200000J0D01*
G01*
X75567099Y-105553599D01*
G75*
G02*
X75367099Y-105353599I0J200000D01*
G01*
X75367099Y-103891601D01*
G75*
G02*
X75567099Y-103691601I200000J0D01*
G01*
G37*
G36*
G01*
X76217100Y-103691601D02*
X76571900Y-103691601D01*
G75*
G02*
X76771900Y-103891601I0J-200000D01*
G01*
X76771900Y-105353599D01*
G75*
G02*
X76571900Y-105553599I-200000J0D01*
G01*
X76217100Y-105553599D01*
G75*
G02*
X76017100Y-105353599I0J200000D01*
G01*
X76017100Y-103891601D01*
G75*
G02*
X76217100Y-103691601I200000J0D01*
G01*
G37*
G36*
G01*
X76867099Y-103691601D02*
X77221899Y-103691601D01*
G75*
G02*
X77421899Y-103891601I0J-200000D01*
G01*
X77421899Y-105353599D01*
G75*
G02*
X77221899Y-105553599I-200000J0D01*
G01*
X76867099Y-105553599D01*
G75*
G02*
X76667099Y-105353599I0J200000D01*
G01*
X76667099Y-103891601D01*
G75*
G02*
X76867099Y-103691601I200000J0D01*
G01*
G37*
G36*
G01*
X77517100Y-103691601D02*
X77871900Y-103691601D01*
G75*
G02*
X78071900Y-103891601I0J-200000D01*
G01*
X78071900Y-105353599D01*
G75*
G02*
X77871900Y-105553599I-200000J0D01*
G01*
X77517100Y-105553599D01*
G75*
G02*
X77317100Y-105353599I0J200000D01*
G01*
X77317100Y-103891601D01*
G75*
G02*
X77517100Y-103691601I200000J0D01*
G01*
G37*
D15*
X53340000Y-96456500D03*
X53340000Y-98996500D03*
G36*
G01*
X54390000Y-100686500D02*
X54390000Y-102386500D01*
G75*
G02*
X54190000Y-102586500I-200000J0D01*
G01*
X52490000Y-102586500D01*
G75*
G02*
X52290000Y-102386500I0J200000D01*
G01*
X52290000Y-100686500D01*
G75*
G02*
X52490000Y-100486500I200000J0D01*
G01*
X54190000Y-100486500D01*
G75*
G02*
X54390000Y-100686500I0J-200000D01*
G01*
G37*
G36*
G01*
X57474675Y-107518500D02*
X58984325Y-107518500D01*
G75*
G02*
X59304500Y-107838675I0J-320175D01*
G01*
X59304500Y-109023325D01*
G75*
G02*
X58984325Y-109343500I-320175J0D01*
G01*
X57474675Y-109343500D01*
G75*
G02*
X57154500Y-109023325I0J320175D01*
G01*
X57154500Y-107838675D01*
G75*
G02*
X57474675Y-107518500I320175J0D01*
G01*
G37*
G36*
G01*
X57474675Y-110493500D02*
X58984325Y-110493500D01*
G75*
G02*
X59304500Y-110813675I0J-320175D01*
G01*
X59304500Y-111998325D01*
G75*
G02*
X58984325Y-112318500I-320175J0D01*
G01*
X57474675Y-112318500D01*
G75*
G02*
X57154500Y-111998325I0J320175D01*
G01*
X57154500Y-110813675D01*
G75*
G02*
X57474675Y-110493500I320175J0D01*
G01*
G37*
G36*
G01*
X52290000Y-106133000D02*
X52290000Y-104433000D01*
G75*
G02*
X52490000Y-104233000I200000J0D01*
G01*
X54190000Y-104233000D01*
G75*
G02*
X54390000Y-104433000I0J-200000D01*
G01*
X54390000Y-106133000D01*
G75*
G02*
X54190000Y-106333000I-200000J0D01*
G01*
X52490000Y-106333000D01*
G75*
G02*
X52290000Y-106133000I0J200000D01*
G01*
G37*
X53340000Y-107823000D03*
X53340000Y-110363000D03*
G36*
G01*
X65611399Y-102954699D02*
X65611399Y-102675299D01*
G75*
G02*
X65811399Y-102475299I200000J0D01*
G01*
X67215497Y-102475299D01*
G75*
G02*
X67415497Y-102675299I0J-200000D01*
G01*
X67415497Y-102954699D01*
G75*
G02*
X67215497Y-103154699I-200000J0D01*
G01*
X65811399Y-103154699D01*
G75*
G02*
X65611399Y-102954699I0J200000D01*
G01*
G37*
G36*
G01*
X65611399Y-103454700D02*
X65611399Y-103175300D01*
G75*
G02*
X65811399Y-102975300I200000J0D01*
G01*
X67215497Y-102975300D01*
G75*
G02*
X67415497Y-103175300I0J-200000D01*
G01*
X67415497Y-103454700D01*
G75*
G02*
X67215497Y-103654700I-200000J0D01*
G01*
X65811399Y-103654700D01*
G75*
G02*
X65611399Y-103454700I0J200000D01*
G01*
G37*
G36*
G01*
X65611399Y-103954699D02*
X65611399Y-103675299D01*
G75*
G02*
X65811399Y-103475299I200000J0D01*
G01*
X67215497Y-103475299D01*
G75*
G02*
X67415497Y-103675299I0J-200000D01*
G01*
X67415497Y-103954699D01*
G75*
G02*
X67215497Y-104154699I-200000J0D01*
G01*
X65811399Y-104154699D01*
G75*
G02*
X65611399Y-103954699I0J200000D01*
G01*
G37*
G36*
G01*
X65611399Y-104454701D02*
X65611399Y-104175301D01*
G75*
G02*
X65811399Y-103975301I200000J0D01*
G01*
X67215497Y-103975301D01*
G75*
G02*
X67415497Y-104175301I0J-200000D01*
G01*
X67415497Y-104454701D01*
G75*
G02*
X67215497Y-104654701I-200000J0D01*
G01*
X65811399Y-104654701D01*
G75*
G02*
X65611399Y-104454701I0J200000D01*
G01*
G37*
G36*
G01*
X65611399Y-104954700D02*
X65611399Y-104675300D01*
G75*
G02*
X65811399Y-104475300I200000J0D01*
G01*
X67215497Y-104475300D01*
G75*
G02*
X67415497Y-104675300I0J-200000D01*
G01*
X67415497Y-104954700D01*
G75*
G02*
X67215497Y-105154700I-200000J0D01*
G01*
X65811399Y-105154700D01*
G75*
G02*
X65611399Y-104954700I0J200000D01*
G01*
G37*
G36*
G01*
X65611399Y-105454699D02*
X65611399Y-105175299D01*
G75*
G02*
X65811399Y-104975299I200000J0D01*
G01*
X67215497Y-104975299D01*
G75*
G02*
X67415497Y-105175299I0J-200000D01*
G01*
X67415497Y-105454699D01*
G75*
G02*
X67215497Y-105654699I-200000J0D01*
G01*
X65811399Y-105654699D01*
G75*
G02*
X65611399Y-105454699I0J200000D01*
G01*
G37*
G36*
G01*
X65611399Y-105954700D02*
X65611399Y-105675300D01*
G75*
G02*
X65811399Y-105475300I200000J0D01*
G01*
X67215497Y-105475300D01*
G75*
G02*
X67415497Y-105675300I0J-200000D01*
G01*
X67415497Y-105954700D01*
G75*
G02*
X67215497Y-106154700I-200000J0D01*
G01*
X65811399Y-106154700D01*
G75*
G02*
X65611399Y-105954700I0J200000D01*
G01*
G37*
G36*
G01*
X65611399Y-106454699D02*
X65611399Y-106175299D01*
G75*
G02*
X65811399Y-105975299I200000J0D01*
G01*
X67215497Y-105975299D01*
G75*
G02*
X67415497Y-106175299I0J-200000D01*
G01*
X67415497Y-106454699D01*
G75*
G02*
X67215497Y-106654699I-200000J0D01*
G01*
X65811399Y-106654699D01*
G75*
G02*
X65611399Y-106454699I0J200000D01*
G01*
G37*
G36*
G01*
X65611399Y-106954698D02*
X65611399Y-106675298D01*
G75*
G02*
X65811399Y-106475298I200000J0D01*
G01*
X67215497Y-106475298D01*
G75*
G02*
X67415497Y-106675298I0J-200000D01*
G01*
X67415497Y-106954698D01*
G75*
G02*
X67215497Y-107154698I-200000J0D01*
G01*
X65811399Y-107154698D01*
G75*
G02*
X65611399Y-106954698I0J200000D01*
G01*
G37*
G36*
G01*
X65611399Y-107454700D02*
X65611399Y-107175300D01*
G75*
G02*
X65811399Y-106975300I200000J0D01*
G01*
X67215497Y-106975300D01*
G75*
G02*
X67415497Y-107175300I0J-200000D01*
G01*
X67415497Y-107454700D01*
G75*
G02*
X67215497Y-107654700I-200000J0D01*
G01*
X65811399Y-107654700D01*
G75*
G02*
X65611399Y-107454700I0J200000D01*
G01*
G37*
G36*
G01*
X65611399Y-107954699D02*
X65611399Y-107675299D01*
G75*
G02*
X65811399Y-107475299I200000J0D01*
G01*
X67215497Y-107475299D01*
G75*
G02*
X67415497Y-107675299I0J-200000D01*
G01*
X67415497Y-107954699D01*
G75*
G02*
X67215497Y-108154699I-200000J0D01*
G01*
X65811399Y-108154699D01*
G75*
G02*
X65611399Y-107954699I0J200000D01*
G01*
G37*
G36*
G01*
X65611399Y-108454701D02*
X65611399Y-108175301D01*
G75*
G02*
X65811399Y-107975301I200000J0D01*
G01*
X67215497Y-107975301D01*
G75*
G02*
X67415497Y-108175301I0J-200000D01*
G01*
X67415497Y-108454701D01*
G75*
G02*
X67215497Y-108654701I-200000J0D01*
G01*
X65811399Y-108654701D01*
G75*
G02*
X65611399Y-108454701I0J200000D01*
G01*
G37*
G36*
G01*
X65611399Y-108954700D02*
X65611399Y-108675300D01*
G75*
G02*
X65811399Y-108475300I200000J0D01*
G01*
X67215497Y-108475300D01*
G75*
G02*
X67415497Y-108675300I0J-200000D01*
G01*
X67415497Y-108954700D01*
G75*
G02*
X67215497Y-109154700I-200000J0D01*
G01*
X65811399Y-109154700D01*
G75*
G02*
X65611399Y-108954700I0J200000D01*
G01*
G37*
G36*
G01*
X65611399Y-109454699D02*
X65611399Y-109175299D01*
G75*
G02*
X65811399Y-108975299I200000J0D01*
G01*
X67215497Y-108975299D01*
G75*
G02*
X67415497Y-109175299I0J-200000D01*
G01*
X67415497Y-109454699D01*
G75*
G02*
X67215497Y-109654699I-200000J0D01*
G01*
X65811399Y-109654699D01*
G75*
G02*
X65611399Y-109454699I0J200000D01*
G01*
G37*
G36*
G01*
X65611399Y-109954700D02*
X65611399Y-109675300D01*
G75*
G02*
X65811399Y-109475300I200000J0D01*
G01*
X67215497Y-109475300D01*
G75*
G02*
X67415497Y-109675300I0J-200000D01*
G01*
X67415497Y-109954700D01*
G75*
G02*
X67215497Y-110154700I-200000J0D01*
G01*
X65811399Y-110154700D01*
G75*
G02*
X65611399Y-109954700I0J200000D01*
G01*
G37*
G36*
G01*
X65611399Y-110454699D02*
X65611399Y-110175299D01*
G75*
G02*
X65811399Y-109975299I200000J0D01*
G01*
X67215497Y-109975299D01*
G75*
G02*
X67415497Y-110175299I0J-200000D01*
G01*
X67415497Y-110454699D01*
G75*
G02*
X67215497Y-110654699I-200000J0D01*
G01*
X65811399Y-110654699D01*
G75*
G02*
X65611399Y-110454699I0J200000D01*
G01*
G37*
G36*
G01*
X65611399Y-110954701D02*
X65611399Y-110675301D01*
G75*
G02*
X65811399Y-110475301I200000J0D01*
G01*
X67215497Y-110475301D01*
G75*
G02*
X67415497Y-110675301I0J-200000D01*
G01*
X67415497Y-110954701D01*
G75*
G02*
X67215497Y-111154701I-200000J0D01*
G01*
X65811399Y-111154701D01*
G75*
G02*
X65611399Y-110954701I0J200000D01*
G01*
G37*
G36*
G01*
X65611399Y-111454700D02*
X65611399Y-111175300D01*
G75*
G02*
X65811399Y-110975300I200000J0D01*
G01*
X67215497Y-110975300D01*
G75*
G02*
X67415497Y-111175300I0J-200000D01*
G01*
X67415497Y-111454700D01*
G75*
G02*
X67215497Y-111654700I-200000J0D01*
G01*
X65811399Y-111654700D01*
G75*
G02*
X65611399Y-111454700I0J200000D01*
G01*
G37*
G36*
G01*
X65611399Y-111954699D02*
X65611399Y-111675299D01*
G75*
G02*
X65811399Y-111475299I200000J0D01*
G01*
X67215497Y-111475299D01*
G75*
G02*
X67415497Y-111675299I0J-200000D01*
G01*
X67415497Y-111954699D01*
G75*
G02*
X67215497Y-112154699I-200000J0D01*
G01*
X65811399Y-112154699D01*
G75*
G02*
X65611399Y-111954699I0J200000D01*
G01*
G37*
G36*
G01*
X59711503Y-111954701D02*
X59711503Y-111675301D01*
G75*
G02*
X59911503Y-111475301I200000J0D01*
G01*
X61315601Y-111475301D01*
G75*
G02*
X61515601Y-111675301I0J-200000D01*
G01*
X61515601Y-111954701D01*
G75*
G02*
X61315601Y-112154701I-200000J0D01*
G01*
X59911503Y-112154701D01*
G75*
G02*
X59711503Y-111954701I0J200000D01*
G01*
G37*
G36*
G01*
X59711503Y-111454700D02*
X59711503Y-111175300D01*
G75*
G02*
X59911503Y-110975300I200000J0D01*
G01*
X61315601Y-110975300D01*
G75*
G02*
X61515601Y-111175300I0J-200000D01*
G01*
X61515601Y-111454700D01*
G75*
G02*
X61315601Y-111654700I-200000J0D01*
G01*
X59911503Y-111654700D01*
G75*
G02*
X59711503Y-111454700I0J200000D01*
G01*
G37*
G36*
G01*
X59711503Y-110954701D02*
X59711503Y-110675301D01*
G75*
G02*
X59911503Y-110475301I200000J0D01*
G01*
X61315601Y-110475301D01*
G75*
G02*
X61515601Y-110675301I0J-200000D01*
G01*
X61515601Y-110954701D01*
G75*
G02*
X61315601Y-111154701I-200000J0D01*
G01*
X59911503Y-111154701D01*
G75*
G02*
X59711503Y-110954701I0J200000D01*
G01*
G37*
G36*
G01*
X59711503Y-110454699D02*
X59711503Y-110175299D01*
G75*
G02*
X59911503Y-109975299I200000J0D01*
G01*
X61315601Y-109975299D01*
G75*
G02*
X61515601Y-110175299I0J-200000D01*
G01*
X61515601Y-110454699D01*
G75*
G02*
X61315601Y-110654699I-200000J0D01*
G01*
X59911503Y-110654699D01*
G75*
G02*
X59711503Y-110454699I0J200000D01*
G01*
G37*
G36*
G01*
X59711503Y-109954700D02*
X59711503Y-109675300D01*
G75*
G02*
X59911503Y-109475300I200000J0D01*
G01*
X61315601Y-109475300D01*
G75*
G02*
X61515601Y-109675300I0J-200000D01*
G01*
X61515601Y-109954700D01*
G75*
G02*
X61315601Y-110154700I-200000J0D01*
G01*
X59911503Y-110154700D01*
G75*
G02*
X59711503Y-109954700I0J200000D01*
G01*
G37*
G36*
G01*
X59711503Y-109454701D02*
X59711503Y-109175301D01*
G75*
G02*
X59911503Y-108975301I200000J0D01*
G01*
X61315601Y-108975301D01*
G75*
G02*
X61515601Y-109175301I0J-200000D01*
G01*
X61515601Y-109454701D01*
G75*
G02*
X61315601Y-109654701I-200000J0D01*
G01*
X59911503Y-109654701D01*
G75*
G02*
X59711503Y-109454701I0J200000D01*
G01*
G37*
G36*
G01*
X59711503Y-108954700D02*
X59711503Y-108675300D01*
G75*
G02*
X59911503Y-108475300I200000J0D01*
G01*
X61315601Y-108475300D01*
G75*
G02*
X61515601Y-108675300I0J-200000D01*
G01*
X61515601Y-108954700D01*
G75*
G02*
X61315601Y-109154700I-200000J0D01*
G01*
X59911503Y-109154700D01*
G75*
G02*
X59711503Y-108954700I0J200000D01*
G01*
G37*
G36*
G01*
X59711503Y-108454701D02*
X59711503Y-108175301D01*
G75*
G02*
X59911503Y-107975301I200000J0D01*
G01*
X61315601Y-107975301D01*
G75*
G02*
X61515601Y-108175301I0J-200000D01*
G01*
X61515601Y-108454701D01*
G75*
G02*
X61315601Y-108654701I-200000J0D01*
G01*
X59911503Y-108654701D01*
G75*
G02*
X59711503Y-108454701I0J200000D01*
G01*
G37*
G36*
G01*
X59711503Y-107954699D02*
X59711503Y-107675299D01*
G75*
G02*
X59911503Y-107475299I200000J0D01*
G01*
X61315601Y-107475299D01*
G75*
G02*
X61515601Y-107675299I0J-200000D01*
G01*
X61515601Y-107954699D01*
G75*
G02*
X61315601Y-108154699I-200000J0D01*
G01*
X59911503Y-108154699D01*
G75*
G02*
X59711503Y-107954699I0J200000D01*
G01*
G37*
G36*
G01*
X59711503Y-107454700D02*
X59711503Y-107175300D01*
G75*
G02*
X59911503Y-106975300I200000J0D01*
G01*
X61315601Y-106975300D01*
G75*
G02*
X61515601Y-107175300I0J-200000D01*
G01*
X61515601Y-107454700D01*
G75*
G02*
X61315601Y-107654700I-200000J0D01*
G01*
X59911503Y-107654700D01*
G75*
G02*
X59711503Y-107454700I0J200000D01*
G01*
G37*
G36*
G01*
X59711503Y-106954701D02*
X59711503Y-106675301D01*
G75*
G02*
X59911503Y-106475301I200000J0D01*
G01*
X61315601Y-106475301D01*
G75*
G02*
X61515601Y-106675301I0J-200000D01*
G01*
X61515601Y-106954701D01*
G75*
G02*
X61315601Y-107154701I-200000J0D01*
G01*
X59911503Y-107154701D01*
G75*
G02*
X59711503Y-106954701I0J200000D01*
G01*
G37*
G36*
G01*
X59711503Y-106454699D02*
X59711503Y-106175299D01*
G75*
G02*
X59911503Y-105975299I200000J0D01*
G01*
X61315601Y-105975299D01*
G75*
G02*
X61515601Y-106175299I0J-200000D01*
G01*
X61515601Y-106454699D01*
G75*
G02*
X61315601Y-106654699I-200000J0D01*
G01*
X59911503Y-106654699D01*
G75*
G02*
X59711503Y-106454699I0J200000D01*
G01*
G37*
G36*
G01*
X59711503Y-105954700D02*
X59711503Y-105675300D01*
G75*
G02*
X59911503Y-105475300I200000J0D01*
G01*
X61315601Y-105475300D01*
G75*
G02*
X61515601Y-105675300I0J-200000D01*
G01*
X61515601Y-105954700D01*
G75*
G02*
X61315601Y-106154700I-200000J0D01*
G01*
X59911503Y-106154700D01*
G75*
G02*
X59711503Y-105954700I0J200000D01*
G01*
G37*
G36*
G01*
X59711503Y-105454699D02*
X59711503Y-105175299D01*
G75*
G02*
X59911503Y-104975299I200000J0D01*
G01*
X61315601Y-104975299D01*
G75*
G02*
X61515601Y-105175299I0J-200000D01*
G01*
X61515601Y-105454699D01*
G75*
G02*
X61315601Y-105654699I-200000J0D01*
G01*
X59911503Y-105654699D01*
G75*
G02*
X59711503Y-105454699I0J200000D01*
G01*
G37*
G36*
G01*
X59711503Y-104954700D02*
X59711503Y-104675300D01*
G75*
G02*
X59911503Y-104475300I200000J0D01*
G01*
X61315601Y-104475300D01*
G75*
G02*
X61515601Y-104675300I0J-200000D01*
G01*
X61515601Y-104954700D01*
G75*
G02*
X61315601Y-105154700I-200000J0D01*
G01*
X59911503Y-105154700D01*
G75*
G02*
X59711503Y-104954700I0J200000D01*
G01*
G37*
G36*
G01*
X59711503Y-104454701D02*
X59711503Y-104175301D01*
G75*
G02*
X59911503Y-103975301I200000J0D01*
G01*
X61315601Y-103975301D01*
G75*
G02*
X61515601Y-104175301I0J-200000D01*
G01*
X61515601Y-104454701D01*
G75*
G02*
X61315601Y-104654701I-200000J0D01*
G01*
X59911503Y-104654701D01*
G75*
G02*
X59711503Y-104454701I0J200000D01*
G01*
G37*
G36*
G01*
X59711503Y-103954699D02*
X59711503Y-103675299D01*
G75*
G02*
X59911503Y-103475299I200000J0D01*
G01*
X61315601Y-103475299D01*
G75*
G02*
X61515601Y-103675299I0J-200000D01*
G01*
X61515601Y-103954699D01*
G75*
G02*
X61315601Y-104154699I-200000J0D01*
G01*
X59911503Y-104154699D01*
G75*
G02*
X59711503Y-103954699I0J200000D01*
G01*
G37*
G36*
G01*
X59711503Y-103454700D02*
X59711503Y-103175300D01*
G75*
G02*
X59911503Y-102975300I200000J0D01*
G01*
X61315601Y-102975300D01*
G75*
G02*
X61515601Y-103175300I0J-200000D01*
G01*
X61515601Y-103454700D01*
G75*
G02*
X61315601Y-103654700I-200000J0D01*
G01*
X59911503Y-103654700D01*
G75*
G02*
X59711503Y-103454700I0J200000D01*
G01*
G37*
G36*
G01*
X59711503Y-102954701D02*
X59711503Y-102675301D01*
G75*
G02*
X59911503Y-102475301I200000J0D01*
G01*
X61315601Y-102475301D01*
G75*
G02*
X61515601Y-102675301I0J-200000D01*
G01*
X61515601Y-102954701D01*
G75*
G02*
X61315601Y-103154701I-200000J0D01*
G01*
X59911503Y-103154701D01*
G75*
G02*
X59711503Y-102954701I0J200000D01*
G01*
G37*
G36*
G01*
X38682299Y-65843976D02*
X38682299Y-67353626D01*
G75*
G02*
X38362124Y-67673801I-320175J0D01*
G01*
X37177474Y-67673801D01*
G75*
G02*
X36857299Y-67353626I0J320175D01*
G01*
X36857299Y-65843976D01*
G75*
G02*
X37177474Y-65523801I320175J0D01*
G01*
X38362124Y-65523801D01*
G75*
G02*
X38682299Y-65843976I0J-320175D01*
G01*
G37*
G36*
G01*
X41657299Y-65843976D02*
X41657299Y-67353626D01*
G75*
G02*
X41337124Y-67673801I-320175J0D01*
G01*
X40152474Y-67673801D01*
G75*
G02*
X39832299Y-67353626I0J320175D01*
G01*
X39832299Y-65843976D01*
G75*
G02*
X40152474Y-65523801I320175J0D01*
G01*
X41337124Y-65523801D01*
G75*
G02*
X41657299Y-65843976I0J-320175D01*
G01*
G37*
G36*
G01*
X41693799Y-68256976D02*
X41693799Y-69766626D01*
G75*
G02*
X41373624Y-70086801I-320175J0D01*
G01*
X40188974Y-70086801D01*
G75*
G02*
X39868799Y-69766626I0J320175D01*
G01*
X39868799Y-68256976D01*
G75*
G02*
X40188974Y-67936801I320175J0D01*
G01*
X41373624Y-67936801D01*
G75*
G02*
X41693799Y-68256976I0J-320175D01*
G01*
G37*
G36*
G01*
X38718799Y-68256976D02*
X38718799Y-69766626D01*
G75*
G02*
X38398624Y-70086801I-320175J0D01*
G01*
X37213974Y-70086801D01*
G75*
G02*
X36893799Y-69766626I0J320175D01*
G01*
X36893799Y-68256976D01*
G75*
G02*
X37213974Y-67936801I320175J0D01*
G01*
X38398624Y-67936801D01*
G75*
G02*
X38718799Y-68256976I0J-320175D01*
G01*
G37*
G36*
G01*
X38755299Y-70669976D02*
X38755299Y-72179626D01*
G75*
G02*
X38435124Y-72499801I-320175J0D01*
G01*
X37250474Y-72499801D01*
G75*
G02*
X36930299Y-72179626I0J320175D01*
G01*
X36930299Y-70669976D01*
G75*
G02*
X37250474Y-70349801I320175J0D01*
G01*
X38435124Y-70349801D01*
G75*
G02*
X38755299Y-70669976I0J-320175D01*
G01*
G37*
G36*
G01*
X41730299Y-70669976D02*
X41730299Y-72179626D01*
G75*
G02*
X41410124Y-72499801I-320175J0D01*
G01*
X40225474Y-72499801D01*
G75*
G02*
X39905299Y-72179626I0J320175D01*
G01*
X39905299Y-70669976D01*
G75*
G02*
X40225474Y-70349801I320175J0D01*
G01*
X41410124Y-70349801D01*
G75*
G02*
X41730299Y-70669976I0J-320175D01*
G01*
G37*
G36*
G01*
X47027799Y-74606976D02*
X47027799Y-76116626D01*
G75*
G02*
X46707624Y-76436801I-320175J0D01*
G01*
X45522974Y-76436801D01*
G75*
G02*
X45202799Y-76116626I0J320175D01*
G01*
X45202799Y-74606976D01*
G75*
G02*
X45522974Y-74286801I320175J0D01*
G01*
X46707624Y-74286801D01*
G75*
G02*
X47027799Y-74606976I0J-320175D01*
G01*
G37*
G36*
G01*
X44052799Y-74606976D02*
X44052799Y-76116626D01*
G75*
G02*
X43732624Y-76436801I-320175J0D01*
G01*
X42547974Y-76436801D01*
G75*
G02*
X42227799Y-76116626I0J320175D01*
G01*
X42227799Y-74606976D01*
G75*
G02*
X42547974Y-74286801I320175J0D01*
G01*
X43732624Y-74286801D01*
G75*
G02*
X44052799Y-74606976I0J-320175D01*
G01*
G37*
G36*
G01*
X40316974Y-83302801D02*
X41826624Y-83302801D01*
G75*
G02*
X42146799Y-83622976I0J-320175D01*
G01*
X42146799Y-84807626D01*
G75*
G02*
X41826624Y-85127801I-320175J0D01*
G01*
X40316974Y-85127801D01*
G75*
G02*
X39996799Y-84807626I0J320175D01*
G01*
X39996799Y-83622976D01*
G75*
G02*
X40316974Y-83302801I320175J0D01*
G01*
G37*
G36*
G01*
X40316974Y-80327801D02*
X41826624Y-80327801D01*
G75*
G02*
X42146799Y-80647976I0J-320175D01*
G01*
X42146799Y-81832626D01*
G75*
G02*
X41826624Y-82152801I-320175J0D01*
G01*
X40316974Y-82152801D01*
G75*
G02*
X39996799Y-81832626I0J320175D01*
G01*
X39996799Y-80647976D01*
G75*
G02*
X40316974Y-80327801I320175J0D01*
G01*
G37*
G36*
G01*
X44531299Y-78783626D02*
X44531299Y-77273976D01*
G75*
G02*
X44851474Y-76953801I320175J0D01*
G01*
X46036124Y-76953801D01*
G75*
G02*
X46356299Y-77273976I0J-320175D01*
G01*
X46356299Y-78783626D01*
G75*
G02*
X46036124Y-79103801I-320175J0D01*
G01*
X44851474Y-79103801D01*
G75*
G02*
X44531299Y-78783626I0J320175D01*
G01*
G37*
G36*
G01*
X41556299Y-78783626D02*
X41556299Y-77273976D01*
G75*
G02*
X41876474Y-76953801I320175J0D01*
G01*
X43061124Y-76953801D01*
G75*
G02*
X43381299Y-77273976I0J-320175D01*
G01*
X43381299Y-78783626D01*
G75*
G02*
X43061124Y-79103801I-320175J0D01*
G01*
X41876474Y-79103801D01*
G75*
G02*
X41556299Y-78783626I0J320175D01*
G01*
G37*
G36*
G01*
X33656299Y-73717976D02*
X33656299Y-75227626D01*
G75*
G02*
X33336124Y-75547801I-320175J0D01*
G01*
X32151474Y-75547801D01*
G75*
G02*
X31831299Y-75227626I0J320175D01*
G01*
X31831299Y-73717976D01*
G75*
G02*
X32151474Y-73397801I320175J0D01*
G01*
X33336124Y-73397801D01*
G75*
G02*
X33656299Y-73717976I0J-320175D01*
G01*
G37*
G36*
G01*
X30681299Y-73717976D02*
X30681299Y-75227626D01*
G75*
G02*
X30361124Y-75547801I-320175J0D01*
G01*
X29176474Y-75547801D01*
G75*
G02*
X28856299Y-75227626I0J320175D01*
G01*
X28856299Y-73717976D01*
G75*
G02*
X29176474Y-73397801I320175J0D01*
G01*
X30361124Y-73397801D01*
G75*
G02*
X30681299Y-73717976I0J-320175D01*
G01*
G37*
G36*
G01*
X30681299Y-71304976D02*
X30681299Y-72814626D01*
G75*
G02*
X30361124Y-73134801I-320175J0D01*
G01*
X29176474Y-73134801D01*
G75*
G02*
X28856299Y-72814626I0J320175D01*
G01*
X28856299Y-71304976D01*
G75*
G02*
X29176474Y-70984801I320175J0D01*
G01*
X30361124Y-70984801D01*
G75*
G02*
X30681299Y-71304976I0J-320175D01*
G01*
G37*
G36*
G01*
X33656299Y-71304976D02*
X33656299Y-72814626D01*
G75*
G02*
X33336124Y-73134801I-320175J0D01*
G01*
X32151474Y-73134801D01*
G75*
G02*
X31831299Y-72814626I0J320175D01*
G01*
X31831299Y-71304976D01*
G75*
G02*
X32151474Y-70984801I320175J0D01*
G01*
X33336124Y-70984801D01*
G75*
G02*
X33656299Y-71304976I0J-320175D01*
G01*
G37*
G36*
G01*
X38905624Y-85218301D02*
X37395974Y-85218301D01*
G75*
G02*
X37075799Y-84898126I0J320175D01*
G01*
X37075799Y-83713476D01*
G75*
G02*
X37395974Y-83393301I320175J0D01*
G01*
X38905624Y-83393301D01*
G75*
G02*
X39225799Y-83713476I0J-320175D01*
G01*
X39225799Y-84898126D01*
G75*
G02*
X38905624Y-85218301I-320175J0D01*
G01*
G37*
G36*
G01*
X38905624Y-82243301D02*
X37395974Y-82243301D01*
G75*
G02*
X37075799Y-81923126I0J320175D01*
G01*
X37075799Y-80738476D01*
G75*
G02*
X37395974Y-80418301I320175J0D01*
G01*
X38905624Y-80418301D01*
G75*
G02*
X39225799Y-80738476I0J-320175D01*
G01*
X39225799Y-81923126D01*
G75*
G02*
X38905624Y-82243301I-320175J0D01*
G01*
G37*
G36*
G01*
X33692799Y-68891976D02*
X33692799Y-70401626D01*
G75*
G02*
X33372624Y-70721801I-320175J0D01*
G01*
X32187974Y-70721801D01*
G75*
G02*
X31867799Y-70401626I0J320175D01*
G01*
X31867799Y-68891976D01*
G75*
G02*
X32187974Y-68571801I320175J0D01*
G01*
X33372624Y-68571801D01*
G75*
G02*
X33692799Y-68891976I0J-320175D01*
G01*
G37*
G36*
G01*
X30717799Y-68891976D02*
X30717799Y-70401626D01*
G75*
G02*
X30397624Y-70721801I-320175J0D01*
G01*
X29212974Y-70721801D01*
G75*
G02*
X28892799Y-70401626I0J320175D01*
G01*
X28892799Y-68891976D01*
G75*
G02*
X29212974Y-68571801I320175J0D01*
G01*
X30397624Y-68571801D01*
G75*
G02*
X30717799Y-68891976I0J-320175D01*
G01*
G37*
G36*
G01*
X35857624Y-72500801D02*
X34347974Y-72500801D01*
G75*
G02*
X34027799Y-72180626I0J320175D01*
G01*
X34027799Y-70995976D01*
G75*
G02*
X34347974Y-70675801I320175J0D01*
G01*
X35857624Y-70675801D01*
G75*
G02*
X36177799Y-70995976I0J-320175D01*
G01*
X36177799Y-72180626D01*
G75*
G02*
X35857624Y-72500801I-320175J0D01*
G01*
G37*
G36*
G01*
X35857624Y-75475801D02*
X34347974Y-75475801D01*
G75*
G02*
X34027799Y-75155626I0J320175D01*
G01*
X34027799Y-73970976D01*
G75*
G02*
X34347974Y-73650801I320175J0D01*
G01*
X35857624Y-73650801D01*
G75*
G02*
X36177799Y-73970976I0J-320175D01*
G01*
X36177799Y-75155626D01*
G75*
G02*
X35857624Y-75475801I-320175J0D01*
G01*
G37*
G36*
G01*
X64379799Y-70655626D02*
X64379799Y-69145976D01*
G75*
G02*
X64699974Y-68825801I320175J0D01*
G01*
X65884624Y-68825801D01*
G75*
G02*
X66204799Y-69145976I0J-320175D01*
G01*
X66204799Y-70655626D01*
G75*
G02*
X65884624Y-70975801I-320175J0D01*
G01*
X64699974Y-70975801D01*
G75*
G02*
X64379799Y-70655626I0J320175D01*
G01*
G37*
G36*
G01*
X61404799Y-70655626D02*
X61404799Y-69145976D01*
G75*
G02*
X61724974Y-68825801I320175J0D01*
G01*
X62909624Y-68825801D01*
G75*
G02*
X63229799Y-69145976I0J-320175D01*
G01*
X63229799Y-70655626D01*
G75*
G02*
X62909624Y-70975801I-320175J0D01*
G01*
X61724974Y-70975801D01*
G75*
G02*
X61404799Y-70655626I0J320175D01*
G01*
G37*
G36*
G01*
X31553974Y-87076301D02*
X33063624Y-87076301D01*
G75*
G02*
X33383799Y-87396476I0J-320175D01*
G01*
X33383799Y-88581126D01*
G75*
G02*
X33063624Y-88901301I-320175J0D01*
G01*
X31553974Y-88901301D01*
G75*
G02*
X31233799Y-88581126I0J320175D01*
G01*
X31233799Y-87396476D01*
G75*
G02*
X31553974Y-87076301I320175J0D01*
G01*
G37*
G36*
G01*
X31553974Y-84101301D02*
X33063624Y-84101301D01*
G75*
G02*
X33383799Y-84421476I0J-320175D01*
G01*
X33383799Y-85606126D01*
G75*
G02*
X33063624Y-85926301I-320175J0D01*
G01*
X31553974Y-85926301D01*
G75*
G02*
X31233799Y-85606126I0J320175D01*
G01*
X31233799Y-84421476D01*
G75*
G02*
X31553974Y-84101301I320175J0D01*
G01*
G37*
D16*
X61899799Y-60121801D03*
G36*
G01*
X68219799Y-58419874D02*
X68219799Y-61823728D01*
G75*
G02*
X67921726Y-62121801I-298073J0D01*
G01*
X66037872Y-62121801D01*
G75*
G02*
X65739799Y-61823728I0J298073D01*
G01*
X65739799Y-58419874D01*
G75*
G02*
X66037872Y-58121801I298073J0D01*
G01*
X67921726Y-58121801D01*
G75*
G02*
X68219799Y-58419874I0J-298073D01*
G01*
G37*
G36*
G01*
X71856898Y-82400801D02*
X77140098Y-82400801D01*
G75*
G02*
X77340098Y-82600801I0J-200000D01*
G01*
X77340098Y-88950801D01*
G75*
G02*
X77140098Y-89150801I-200000J0D01*
G01*
X71856898Y-89150801D01*
G75*
G02*
X71656898Y-88950801I0J200000D01*
G01*
X71656898Y-82600801D01*
G75*
G02*
X71856898Y-82400801I200000J0D01*
G01*
G37*
G36*
G01*
X49629500Y-87983800D02*
X55217500Y-87983800D01*
G75*
G02*
X55417500Y-88183800I0J-200000D01*
G01*
X55417500Y-93517800D01*
G75*
G02*
X55217500Y-93717800I-200000J0D01*
G01*
X49629500Y-93717800D01*
G75*
G02*
X49429500Y-93517800I0J200000D01*
G01*
X49429500Y-88183800D01*
G75*
G02*
X49629500Y-87983800I200000J0D01*
G01*
G37*
G36*
G01*
X49629500Y-77833802D02*
X55217500Y-77833802D01*
G75*
G02*
X55417500Y-78033802I0J-200000D01*
G01*
X55417500Y-83367802D01*
G75*
G02*
X55217500Y-83567802I-200000J0D01*
G01*
X49629500Y-83567802D01*
G75*
G02*
X49429500Y-83367802I0J200000D01*
G01*
X49429500Y-78033802D01*
G75*
G02*
X49629500Y-77833802I200000J0D01*
G01*
G37*
G36*
G01*
X44336799Y-92010801D02*
X44336799Y-93510801D01*
G75*
G02*
X44136799Y-93710801I-200000J0D01*
G01*
X43086799Y-93710801D01*
G75*
G02*
X42886799Y-93510801I0J200000D01*
G01*
X42886799Y-92010801D01*
G75*
G02*
X43086799Y-91810801I200000J0D01*
G01*
X44136799Y-91810801D01*
G75*
G02*
X44336799Y-92010801I0J-200000D01*
G01*
G37*
D17*
X41071799Y-92760801D03*
X42341799Y-92760801D03*
G36*
G01*
X54249299Y-60255976D02*
X54249299Y-61765626D01*
G75*
G02*
X53929124Y-62085801I-320175J0D01*
G01*
X52744474Y-62085801D01*
G75*
G02*
X52424299Y-61765626I0J320175D01*
G01*
X52424299Y-60255976D01*
G75*
G02*
X52744474Y-59935801I320175J0D01*
G01*
X53929124Y-59935801D01*
G75*
G02*
X54249299Y-60255976I0J-320175D01*
G01*
G37*
G36*
G01*
X57224299Y-60255976D02*
X57224299Y-61765626D01*
G75*
G02*
X56904124Y-62085801I-320175J0D01*
G01*
X55719474Y-62085801D01*
G75*
G02*
X55399299Y-61765626I0J320175D01*
G01*
X55399299Y-60255976D01*
G75*
G02*
X55719474Y-59935801I320175J0D01*
G01*
X56904124Y-59935801D01*
G75*
G02*
X57224299Y-60255976I0J-320175D01*
G01*
G37*
G36*
G01*
X52424299Y-58971626D02*
X52424299Y-57461976D01*
G75*
G02*
X52744474Y-57141801I320175J0D01*
G01*
X53929124Y-57141801D01*
G75*
G02*
X54249299Y-57461976I0J-320175D01*
G01*
X54249299Y-58971626D01*
G75*
G02*
X53929124Y-59291801I-320175J0D01*
G01*
X52744474Y-59291801D01*
G75*
G02*
X52424299Y-58971626I0J320175D01*
G01*
G37*
G36*
G01*
X55399299Y-58971626D02*
X55399299Y-57461976D01*
G75*
G02*
X55719474Y-57141801I320175J0D01*
G01*
X56904124Y-57141801D01*
G75*
G02*
X57224299Y-57461976I0J-320175D01*
G01*
X57224299Y-58971626D01*
G75*
G02*
X56904124Y-59291801I-320175J0D01*
G01*
X55719474Y-59291801D01*
G75*
G02*
X55399299Y-58971626I0J320175D01*
G01*
G37*
G36*
G01*
X60937299Y-66380229D02*
X60937299Y-63261373D01*
G75*
G02*
X61252871Y-62945801I315572J0D01*
G01*
X62546727Y-62945801D01*
G75*
G02*
X62862299Y-63261373I0J-315572D01*
G01*
X62862299Y-66380229D01*
G75*
G02*
X62546727Y-66695801I-315572J0D01*
G01*
X61252871Y-66695801D01*
G75*
G02*
X60937299Y-66380229I0J315572D01*
G01*
G37*
G36*
G01*
X54962299Y-66380229D02*
X54962299Y-63261373D01*
G75*
G02*
X55277871Y-62945801I315572J0D01*
G01*
X56571727Y-62945801D01*
G75*
G02*
X56887299Y-63261373I0J-315572D01*
G01*
X56887299Y-66380229D01*
G75*
G02*
X56571727Y-66695801I-315572J0D01*
G01*
X55277871Y-66695801D01*
G75*
G02*
X54962299Y-66380229I0J315572D01*
G01*
G37*
G36*
G01*
X44440799Y-98087626D02*
X44440799Y-96577976D01*
G75*
G02*
X44760974Y-96257801I320175J0D01*
G01*
X45945624Y-96257801D01*
G75*
G02*
X46265799Y-96577976I0J-320175D01*
G01*
X46265799Y-98087626D01*
G75*
G02*
X45945624Y-98407801I-320175J0D01*
G01*
X44760974Y-98407801D01*
G75*
G02*
X44440799Y-98087626I0J320175D01*
G01*
G37*
G36*
G01*
X41465799Y-98087626D02*
X41465799Y-96577976D01*
G75*
G02*
X41785974Y-96257801I320175J0D01*
G01*
X42970624Y-96257801D01*
G75*
G02*
X43290799Y-96577976I0J-320175D01*
G01*
X43290799Y-98087626D01*
G75*
G02*
X42970624Y-98407801I-320175J0D01*
G01*
X41785974Y-98407801D01*
G75*
G02*
X41465799Y-98087626I0J320175D01*
G01*
G37*
G36*
G01*
X42699299Y-89832626D02*
X42699299Y-88322976D01*
G75*
G02*
X43019474Y-88002801I320175J0D01*
G01*
X44204124Y-88002801D01*
G75*
G02*
X44524299Y-88322976I0J-320175D01*
G01*
X44524299Y-89832626D01*
G75*
G02*
X44204124Y-90152801I-320175J0D01*
G01*
X43019474Y-90152801D01*
G75*
G02*
X42699299Y-89832626I0J320175D01*
G01*
G37*
G36*
G01*
X39724299Y-89832626D02*
X39724299Y-88322976D01*
G75*
G02*
X40044474Y-88002801I320175J0D01*
G01*
X41229124Y-88002801D01*
G75*
G02*
X41549299Y-88322976I0J-320175D01*
G01*
X41549299Y-89832626D01*
G75*
G02*
X41229124Y-90152801I-320175J0D01*
G01*
X40044474Y-90152801D01*
G75*
G02*
X39724299Y-89832626I0J320175D01*
G01*
G37*
G36*
G01*
X38809299Y-92005976D02*
X38809299Y-93515626D01*
G75*
G02*
X38489124Y-93835801I-320175J0D01*
G01*
X37304474Y-93835801D01*
G75*
G02*
X36984299Y-93515626I0J320175D01*
G01*
X36984299Y-92005976D01*
G75*
G02*
X37304474Y-91685801I320175J0D01*
G01*
X38489124Y-91685801D01*
G75*
G02*
X38809299Y-92005976I0J-320175D01*
G01*
G37*
G36*
G01*
X35834299Y-92005976D02*
X35834299Y-93515626D01*
G75*
G02*
X35514124Y-93835801I-320175J0D01*
G01*
X34329474Y-93835801D01*
G75*
G02*
X34009299Y-93515626I0J320175D01*
G01*
X34009299Y-92005976D01*
G75*
G02*
X34329474Y-91685801I320175J0D01*
G01*
X35514124Y-91685801D01*
G75*
G02*
X35834299Y-92005976I0J-320175D01*
G01*
G37*
G36*
G01*
X41676299Y-99498976D02*
X41676299Y-101008626D01*
G75*
G02*
X41356124Y-101328801I-320175J0D01*
G01*
X40171474Y-101328801D01*
G75*
G02*
X39851299Y-101008626I0J320175D01*
G01*
X39851299Y-99498976D01*
G75*
G02*
X40171474Y-99178801I320175J0D01*
G01*
X41356124Y-99178801D01*
G75*
G02*
X41676299Y-99498976I0J-320175D01*
G01*
G37*
G36*
G01*
X44651299Y-99498976D02*
X44651299Y-101008626D01*
G75*
G02*
X44331124Y-101328801I-320175J0D01*
G01*
X43146474Y-101328801D01*
G75*
G02*
X42826299Y-101008626I0J320175D01*
G01*
X42826299Y-99498976D01*
G75*
G02*
X43146474Y-99178801I320175J0D01*
G01*
X44331124Y-99178801D01*
G75*
G02*
X44651299Y-99498976I0J-320175D01*
G01*
G37*
G36*
G01*
X28104799Y-79334229D02*
X28104799Y-76215373D01*
G75*
G02*
X28420371Y-75899801I315572J0D01*
G01*
X29714227Y-75899801D01*
G75*
G02*
X30029799Y-76215373I0J-315572D01*
G01*
X30029799Y-79334229D01*
G75*
G02*
X29714227Y-79649801I-315572J0D01*
G01*
X28420371Y-79649801D01*
G75*
G02*
X28104799Y-79334229I0J315572D01*
G01*
G37*
G36*
G01*
X34079799Y-79334229D02*
X34079799Y-76215373D01*
G75*
G02*
X34395371Y-75899801I315572J0D01*
G01*
X35689227Y-75899801D01*
G75*
G02*
X36004799Y-76215373I0J-315572D01*
G01*
X36004799Y-79334229D01*
G75*
G02*
X35689227Y-79649801I-315572J0D01*
G01*
X34395371Y-79649801D01*
G75*
G02*
X34079799Y-79334229I0J315572D01*
G01*
G37*
G36*
G01*
X51182299Y-62795976D02*
X51182299Y-64305626D01*
G75*
G02*
X50862124Y-64625801I-320175J0D01*
G01*
X49677474Y-64625801D01*
G75*
G02*
X49357299Y-64305626I0J320175D01*
G01*
X49357299Y-62795976D01*
G75*
G02*
X49677474Y-62475801I320175J0D01*
G01*
X50862124Y-62475801D01*
G75*
G02*
X51182299Y-62795976I0J-320175D01*
G01*
G37*
G36*
G01*
X48207299Y-62795976D02*
X48207299Y-64305626D01*
G75*
G02*
X47887124Y-64625801I-320175J0D01*
G01*
X46702474Y-64625801D01*
G75*
G02*
X46382299Y-64305626I0J320175D01*
G01*
X46382299Y-62795976D01*
G75*
G02*
X46702474Y-62475801I320175J0D01*
G01*
X47887124Y-62475801D01*
G75*
G02*
X48207299Y-62795976I0J-320175D01*
G01*
G37*
G36*
G01*
X49357299Y-61765626D02*
X49357299Y-60255976D01*
G75*
G02*
X49677474Y-59935801I320175J0D01*
G01*
X50862124Y-59935801D01*
G75*
G02*
X51182299Y-60255976I0J-320175D01*
G01*
X51182299Y-61765626D01*
G75*
G02*
X50862124Y-62085801I-320175J0D01*
G01*
X49677474Y-62085801D01*
G75*
G02*
X49357299Y-61765626I0J320175D01*
G01*
G37*
G36*
G01*
X46382299Y-61765626D02*
X46382299Y-60255976D01*
G75*
G02*
X46702474Y-59935801I320175J0D01*
G01*
X47887124Y-59935801D01*
G75*
G02*
X48207299Y-60255976I0J-320175D01*
G01*
X48207299Y-61765626D01*
G75*
G02*
X47887124Y-62085801I-320175J0D01*
G01*
X46702474Y-62085801D01*
G75*
G02*
X46382299Y-61765626I0J320175D01*
G01*
G37*
G36*
G01*
X47753299Y-71939976D02*
X47753299Y-73449626D01*
G75*
G02*
X47433124Y-73769801I-320175J0D01*
G01*
X46248474Y-73769801D01*
G75*
G02*
X45928299Y-73449626I0J320175D01*
G01*
X45928299Y-71939976D01*
G75*
G02*
X46248474Y-71619801I320175J0D01*
G01*
X47433124Y-71619801D01*
G75*
G02*
X47753299Y-71939976I0J-320175D01*
G01*
G37*
G36*
G01*
X44778299Y-71939976D02*
X44778299Y-73449626D01*
G75*
G02*
X44458124Y-73769801I-320175J0D01*
G01*
X43273474Y-73769801D01*
G75*
G02*
X42953299Y-73449626I0J320175D01*
G01*
X42953299Y-71939976D01*
G75*
G02*
X43273474Y-71619801I320175J0D01*
G01*
X44458124Y-71619801D01*
G75*
G02*
X44778299Y-71939976I0J-320175D01*
G01*
G37*
G36*
G01*
X41445624Y-62050301D02*
X39935974Y-62050301D01*
G75*
G02*
X39615799Y-61730126I0J320175D01*
G01*
X39615799Y-60545476D01*
G75*
G02*
X39935974Y-60225301I320175J0D01*
G01*
X41445624Y-60225301D01*
G75*
G02*
X41765799Y-60545476I0J-320175D01*
G01*
X41765799Y-61730126D01*
G75*
G02*
X41445624Y-62050301I-320175J0D01*
G01*
G37*
G36*
G01*
X41445624Y-65025301D02*
X39935974Y-65025301D01*
G75*
G02*
X39615799Y-64705126I0J320175D01*
G01*
X39615799Y-63520476D01*
G75*
G02*
X39935974Y-63200301I320175J0D01*
G01*
X41445624Y-63200301D01*
G75*
G02*
X41765799Y-63520476I0J-320175D01*
G01*
X41765799Y-64705126D01*
G75*
G02*
X41445624Y-65025301I-320175J0D01*
G01*
G37*
G36*
G01*
X36111624Y-69543301D02*
X34601974Y-69543301D01*
G75*
G02*
X34281799Y-69223126I0J320175D01*
G01*
X34281799Y-68038476D01*
G75*
G02*
X34601974Y-67718301I320175J0D01*
G01*
X36111624Y-67718301D01*
G75*
G02*
X36431799Y-68038476I0J-320175D01*
G01*
X36431799Y-69223126D01*
G75*
G02*
X36111624Y-69543301I-320175J0D01*
G01*
G37*
G36*
G01*
X36111624Y-66568301D02*
X34601974Y-66568301D01*
G75*
G02*
X34281799Y-66248126I0J320175D01*
G01*
X34281799Y-65063476D01*
G75*
G02*
X34601974Y-64743301I320175J0D01*
G01*
X36111624Y-64743301D01*
G75*
G02*
X36431799Y-65063476I0J-320175D01*
G01*
X36431799Y-66248126D01*
G75*
G02*
X36111624Y-66568301I-320175J0D01*
G01*
G37*
G36*
G01*
X38778624Y-65061801D02*
X37268974Y-65061801D01*
G75*
G02*
X36948799Y-64741626I0J320175D01*
G01*
X36948799Y-63556976D01*
G75*
G02*
X37268974Y-63236801I320175J0D01*
G01*
X38778624Y-63236801D01*
G75*
G02*
X39098799Y-63556976I0J-320175D01*
G01*
X39098799Y-64741626D01*
G75*
G02*
X38778624Y-65061801I-320175J0D01*
G01*
G37*
G36*
G01*
X38778624Y-62086801D02*
X37268974Y-62086801D01*
G75*
G02*
X36948799Y-61766626I0J320175D01*
G01*
X36948799Y-60581976D01*
G75*
G02*
X37268974Y-60261801I320175J0D01*
G01*
X38778624Y-60261801D01*
G75*
G02*
X39098799Y-60581976I0J-320175D01*
G01*
X39098799Y-61766626D01*
G75*
G02*
X38778624Y-62086801I-320175J0D01*
G01*
G37*
G36*
G01*
X45293299Y-84625626D02*
X45293299Y-83115976D01*
G75*
G02*
X45613474Y-82795801I320175J0D01*
G01*
X46798124Y-82795801D01*
G75*
G02*
X47118299Y-83115976I0J-320175D01*
G01*
X47118299Y-84625626D01*
G75*
G02*
X46798124Y-84945801I-320175J0D01*
G01*
X45613474Y-84945801D01*
G75*
G02*
X45293299Y-84625626I0J320175D01*
G01*
G37*
G36*
G01*
X42318299Y-84625626D02*
X42318299Y-83115976D01*
G75*
G02*
X42638474Y-82795801I320175J0D01*
G01*
X43823124Y-82795801D01*
G75*
G02*
X44143299Y-83115976I0J-320175D01*
G01*
X44143299Y-84625626D01*
G75*
G02*
X43823124Y-84945801I-320175J0D01*
G01*
X42638474Y-84945801D01*
G75*
G02*
X42318299Y-84625626I0J320175D01*
G01*
G37*
G36*
G01*
X34855974Y-80418301D02*
X36365624Y-80418301D01*
G75*
G02*
X36685799Y-80738476I0J-320175D01*
G01*
X36685799Y-81923126D01*
G75*
G02*
X36365624Y-82243301I-320175J0D01*
G01*
X34855974Y-82243301D01*
G75*
G02*
X34535799Y-81923126I0J320175D01*
G01*
X34535799Y-80738476D01*
G75*
G02*
X34855974Y-80418301I320175J0D01*
G01*
G37*
G36*
G01*
X34855974Y-83393301D02*
X36365624Y-83393301D01*
G75*
G02*
X36685799Y-83713476I0J-320175D01*
G01*
X36685799Y-84898126D01*
G75*
G02*
X36365624Y-85218301I-320175J0D01*
G01*
X34855974Y-85218301D01*
G75*
G02*
X34535799Y-84898126I0J320175D01*
G01*
X34535799Y-83713476D01*
G75*
G02*
X34855974Y-83393301I320175J0D01*
G01*
G37*
G36*
G01*
X36215299Y-85909976D02*
X36215299Y-87419626D01*
G75*
G02*
X35895124Y-87739801I-320175J0D01*
G01*
X34710474Y-87739801D01*
G75*
G02*
X34390299Y-87419626I0J320175D01*
G01*
X34390299Y-85909976D01*
G75*
G02*
X34710474Y-85589801I320175J0D01*
G01*
X35895124Y-85589801D01*
G75*
G02*
X36215299Y-85909976I0J-320175D01*
G01*
G37*
G36*
G01*
X39190299Y-85909976D02*
X39190299Y-87419626D01*
G75*
G02*
X38870124Y-87739801I-320175J0D01*
G01*
X37685474Y-87739801D01*
G75*
G02*
X37365299Y-87419626I0J320175D01*
G01*
X37365299Y-85909976D01*
G75*
G02*
X37685474Y-85589801I320175J0D01*
G01*
X38870124Y-85589801D01*
G75*
G02*
X39190299Y-85909976I0J-320175D01*
G01*
G37*
G36*
G01*
X46393099Y-94916601D02*
X45885099Y-94916601D01*
G75*
G02*
X45685099Y-94716601I0J200000D01*
G01*
X45685099Y-94361001D01*
G75*
G02*
X45885099Y-94161001I200000J0D01*
G01*
X46393099Y-94161001D01*
G75*
G02*
X46593099Y-94361001I0J-200000D01*
G01*
X46593099Y-94716601D01*
G75*
G02*
X46393099Y-94916601I-200000J0D01*
G01*
G37*
G36*
G01*
X47688499Y-94421301D02*
X47180499Y-94421301D01*
G75*
G02*
X46980499Y-94221301I0J200000D01*
G01*
X46980499Y-93865701D01*
G75*
G02*
X47180499Y-93665701I200000J0D01*
G01*
X47688499Y-93665701D01*
G75*
G02*
X47888499Y-93865701I0J-200000D01*
G01*
X47888499Y-94221301D01*
G75*
G02*
X47688499Y-94421301I-200000J0D01*
G01*
G37*
G36*
G01*
X47688499Y-95411901D02*
X47180499Y-95411901D01*
G75*
G02*
X46980499Y-95211901I0J200000D01*
G01*
X46980499Y-94856301D01*
G75*
G02*
X47180499Y-94656301I200000J0D01*
G01*
X47688499Y-94656301D01*
G75*
G02*
X47888499Y-94856301I0J-200000D01*
G01*
X47888499Y-95211901D01*
G75*
G02*
X47688499Y-95411901I-200000J0D01*
G01*
G37*
G36*
G01*
X54405799Y-72356799D02*
X49835799Y-72356799D01*
G75*
G02*
X49635799Y-72156799I0J200000D01*
G01*
X49635799Y-67666799D01*
G75*
G02*
X49835799Y-67466799I200000J0D01*
G01*
X54405799Y-67466799D01*
G75*
G02*
X54605799Y-67666799I0J-200000D01*
G01*
X54605799Y-72156799D01*
G75*
G02*
X54405799Y-72356799I-200000J0D01*
G01*
G37*
G36*
G01*
X50470798Y-68776800D02*
X49960800Y-68776800D01*
G75*
G02*
X49760800Y-68576800I0J200000D01*
G01*
X49760800Y-67666800D01*
G75*
G02*
X49960800Y-67466800I200000J0D01*
G01*
X50470798Y-67466800D01*
G75*
G02*
X50670798Y-67666800I0J-200000D01*
G01*
X50670798Y-68576800D01*
G75*
G02*
X50470798Y-68776800I-200000J0D01*
G01*
G37*
G36*
G01*
X51740798Y-68776800D02*
X51230800Y-68776800D01*
G75*
G02*
X51030800Y-68576800I0J200000D01*
G01*
X51030800Y-67666800D01*
G75*
G02*
X51230800Y-67466800I200000J0D01*
G01*
X51740798Y-67466800D01*
G75*
G02*
X51940798Y-67666800I0J-200000D01*
G01*
X51940798Y-68576800D01*
G75*
G02*
X51740798Y-68776800I-200000J0D01*
G01*
G37*
G36*
G01*
X53010798Y-68776800D02*
X52500800Y-68776800D01*
G75*
G02*
X52300800Y-68576800I0J200000D01*
G01*
X52300800Y-67666800D01*
G75*
G02*
X52500800Y-67466800I200000J0D01*
G01*
X53010798Y-67466800D01*
G75*
G02*
X53210798Y-67666800I0J-200000D01*
G01*
X53210798Y-68576800D01*
G75*
G02*
X53010798Y-68776800I-200000J0D01*
G01*
G37*
G36*
G01*
X54280798Y-68776800D02*
X53770800Y-68776800D01*
G75*
G02*
X53570800Y-68576800I0J200000D01*
G01*
X53570800Y-67666800D01*
G75*
G02*
X53770800Y-67466800I200000J0D01*
G01*
X54280798Y-67466800D01*
G75*
G02*
X54480798Y-67666800I0J-200000D01*
G01*
X54480798Y-68576800D01*
G75*
G02*
X54280798Y-68776800I-200000J0D01*
G01*
G37*
G36*
G01*
X54280798Y-74366802D02*
X53770800Y-74366802D01*
G75*
G02*
X53570800Y-74166802I0J200000D01*
G01*
X53570800Y-73256802D01*
G75*
G02*
X53770800Y-73056802I200000J0D01*
G01*
X54280798Y-73056802D01*
G75*
G02*
X54480798Y-73256802I0J-200000D01*
G01*
X54480798Y-74166802D01*
G75*
G02*
X54280798Y-74366802I-200000J0D01*
G01*
G37*
G36*
G01*
X53010798Y-74366802D02*
X52500800Y-74366802D01*
G75*
G02*
X52300800Y-74166802I0J200000D01*
G01*
X52300800Y-73256802D01*
G75*
G02*
X52500800Y-73056802I200000J0D01*
G01*
X53010798Y-73056802D01*
G75*
G02*
X53210798Y-73256802I0J-200000D01*
G01*
X53210798Y-74166802D01*
G75*
G02*
X53010798Y-74366802I-200000J0D01*
G01*
G37*
G36*
G01*
X51740798Y-74366802D02*
X51230800Y-74366802D01*
G75*
G02*
X51030800Y-74166802I0J200000D01*
G01*
X51030800Y-73256802D01*
G75*
G02*
X51230800Y-73056802I200000J0D01*
G01*
X51740798Y-73056802D01*
G75*
G02*
X51940798Y-73256802I0J-200000D01*
G01*
X51940798Y-74166802D01*
G75*
G02*
X51740798Y-74366802I-200000J0D01*
G01*
G37*
G36*
G01*
X50470798Y-74366802D02*
X49960800Y-74366802D01*
G75*
G02*
X49760800Y-74166802I0J200000D01*
G01*
X49760800Y-73256802D01*
G75*
G02*
X49960800Y-73056802I200000J0D01*
G01*
X50470798Y-73056802D01*
G75*
G02*
X50670798Y-73256802I0J-200000D01*
G01*
X50670798Y-74166802D01*
G75*
G02*
X50470798Y-74366802I-200000J0D01*
G01*
G37*
G36*
G01*
X43944799Y-82351801D02*
X43944799Y-79801801D01*
G75*
G02*
X44144799Y-79601801I200000J0D01*
G01*
X46654799Y-79601801D01*
G75*
G02*
X46854799Y-79801801I0J-200000D01*
G01*
X46854799Y-82351801D01*
G75*
G02*
X46654799Y-82551801I-200000J0D01*
G01*
X44144799Y-82551801D01*
G75*
G02*
X43944799Y-82351801I0J200000D01*
G01*
G37*
G36*
G01*
X46654798Y-80501801D02*
X45954798Y-80501801D01*
G75*
G02*
X45754798Y-80301801I0J200000D01*
G01*
X45754798Y-79901803D01*
G75*
G02*
X45954798Y-79701803I200000J0D01*
G01*
X46654798Y-79701803D01*
G75*
G02*
X46854798Y-79901803I0J-200000D01*
G01*
X46854798Y-80301801D01*
G75*
G02*
X46654798Y-80501801I-200000J0D01*
G01*
G37*
G36*
G01*
X46654798Y-81151799D02*
X45954798Y-81151799D01*
G75*
G02*
X45754798Y-80951799I0J200000D01*
G01*
X45754798Y-80551801D01*
G75*
G02*
X45954798Y-80351801I200000J0D01*
G01*
X46654798Y-80351801D01*
G75*
G02*
X46854798Y-80551801I0J-200000D01*
G01*
X46854798Y-80951799D01*
G75*
G02*
X46654798Y-81151799I-200000J0D01*
G01*
G37*
G36*
G01*
X46654798Y-81801801D02*
X45954798Y-81801801D01*
G75*
G02*
X45754798Y-81601801I0J200000D01*
G01*
X45754798Y-81201803D01*
G75*
G02*
X45954798Y-81001803I200000J0D01*
G01*
X46654798Y-81001803D01*
G75*
G02*
X46854798Y-81201803I0J-200000D01*
G01*
X46854798Y-81601801D01*
G75*
G02*
X46654798Y-81801801I-200000J0D01*
G01*
G37*
G36*
G01*
X46654798Y-82451799D02*
X45954798Y-82451799D01*
G75*
G02*
X45754798Y-82251799I0J200000D01*
G01*
X45754798Y-81851801D01*
G75*
G02*
X45954798Y-81651801I200000J0D01*
G01*
X46654798Y-81651801D01*
G75*
G02*
X46854798Y-81851801I0J-200000D01*
G01*
X46854798Y-82251799D01*
G75*
G02*
X46654798Y-82451799I-200000J0D01*
G01*
G37*
G36*
G01*
X43554800Y-82451799D02*
X42854800Y-82451799D01*
G75*
G02*
X42654800Y-82251799I0J200000D01*
G01*
X42654800Y-81851801D01*
G75*
G02*
X42854800Y-81651801I200000J0D01*
G01*
X43554800Y-81651801D01*
G75*
G02*
X43754800Y-81851801I0J-200000D01*
G01*
X43754800Y-82251799D01*
G75*
G02*
X43554800Y-82451799I-200000J0D01*
G01*
G37*
G36*
G01*
X43554800Y-81801798D02*
X42854800Y-81801798D01*
G75*
G02*
X42654800Y-81601798I0J200000D01*
G01*
X42654800Y-81201800D01*
G75*
G02*
X42854800Y-81001800I200000J0D01*
G01*
X43554800Y-81001800D01*
G75*
G02*
X43754800Y-81201800I0J-200000D01*
G01*
X43754800Y-81601798D01*
G75*
G02*
X43554800Y-81801798I-200000J0D01*
G01*
G37*
G36*
G01*
X43554800Y-81151799D02*
X42854800Y-81151799D01*
G75*
G02*
X42654800Y-80951799I0J200000D01*
G01*
X42654800Y-80551801D01*
G75*
G02*
X42854800Y-80351801I200000J0D01*
G01*
X43554800Y-80351801D01*
G75*
G02*
X43754800Y-80551801I0J-200000D01*
G01*
X43754800Y-80951799D01*
G75*
G02*
X43554800Y-81151799I-200000J0D01*
G01*
G37*
G36*
G01*
X43554800Y-80501798D02*
X42854800Y-80501798D01*
G75*
G02*
X42654800Y-80301798I0J200000D01*
G01*
X42654800Y-79901800D01*
G75*
G02*
X42854800Y-79701800I200000J0D01*
G01*
X43554800Y-79701800D01*
G75*
G02*
X43754800Y-79901800I0J-200000D01*
G01*
X43754800Y-80301798D01*
G75*
G02*
X43554800Y-80501798I-200000J0D01*
G01*
G37*
G36*
G01*
X58048499Y-69682402D02*
X58048499Y-70241202D01*
G75*
G02*
X57848499Y-70441202I-200000J0D01*
G01*
X56870599Y-70441202D01*
G75*
G02*
X56670599Y-70241202I0J200000D01*
G01*
X56670599Y-69682402D01*
G75*
G02*
X56870599Y-69482402I200000J0D01*
G01*
X57848499Y-69482402D01*
G75*
G02*
X58048499Y-69682402I0J-200000D01*
G01*
G37*
G36*
G01*
X58048499Y-68732401D02*
X58048499Y-69291201D01*
G75*
G02*
X57848499Y-69491201I-200000J0D01*
G01*
X56870599Y-69491201D01*
G75*
G02*
X56670599Y-69291201I0J200000D01*
G01*
X56670599Y-68732401D01*
G75*
G02*
X56870599Y-68532401I200000J0D01*
G01*
X57848499Y-68532401D01*
G75*
G02*
X58048499Y-68732401I0J-200000D01*
G01*
G37*
G36*
G01*
X58048499Y-67782400D02*
X58048499Y-68341200D01*
G75*
G02*
X57848499Y-68541200I-200000J0D01*
G01*
X56870599Y-68541200D01*
G75*
G02*
X56670599Y-68341200I0J200000D01*
G01*
X56670599Y-67782400D01*
G75*
G02*
X56870599Y-67582400I200000J0D01*
G01*
X57848499Y-67582400D01*
G75*
G02*
X58048499Y-67782400I0J-200000D01*
G01*
G37*
G36*
G01*
X60778999Y-67782400D02*
X60778999Y-68341200D01*
G75*
G02*
X60578999Y-68541200I-200000J0D01*
G01*
X59601099Y-68541200D01*
G75*
G02*
X59401099Y-68341200I0J200000D01*
G01*
X59401099Y-67782400D01*
G75*
G02*
X59601099Y-67582400I200000J0D01*
G01*
X60578999Y-67582400D01*
G75*
G02*
X60778999Y-67782400I0J-200000D01*
G01*
G37*
G36*
G01*
X60778999Y-68732401D02*
X60778999Y-69291201D01*
G75*
G02*
X60578999Y-69491201I-200000J0D01*
G01*
X59601099Y-69491201D01*
G75*
G02*
X59401099Y-69291201I0J200000D01*
G01*
X59401099Y-68732401D01*
G75*
G02*
X59601099Y-68532401I200000J0D01*
G01*
X60578999Y-68532401D01*
G75*
G02*
X60778999Y-68732401I0J-200000D01*
G01*
G37*
G36*
G01*
X60778999Y-69682402D02*
X60778999Y-70241202D01*
G75*
G02*
X60578999Y-70441202I-200000J0D01*
G01*
X59601099Y-70441202D01*
G75*
G02*
X59401099Y-70241202I0J200000D01*
G01*
X59401099Y-69682402D01*
G75*
G02*
X59601099Y-69482402I200000J0D01*
G01*
X60578999Y-69482402D01*
G75*
G02*
X60778999Y-69682402I0J-200000D01*
G01*
G37*
G36*
G01*
X33092999Y-82509402D02*
X33092999Y-83068202D01*
G75*
G02*
X32892999Y-83268202I-200000J0D01*
G01*
X31915099Y-83268202D01*
G75*
G02*
X31715099Y-83068202I0J200000D01*
G01*
X31715099Y-82509402D01*
G75*
G02*
X31915099Y-82309402I200000J0D01*
G01*
X32892999Y-82309402D01*
G75*
G02*
X33092999Y-82509402I0J-200000D01*
G01*
G37*
G36*
G01*
X33092999Y-81559401D02*
X33092999Y-82118201D01*
G75*
G02*
X32892999Y-82318201I-200000J0D01*
G01*
X31915099Y-82318201D01*
G75*
G02*
X31715099Y-82118201I0J200000D01*
G01*
X31715099Y-81559401D01*
G75*
G02*
X31915099Y-81359401I200000J0D01*
G01*
X32892999Y-81359401D01*
G75*
G02*
X33092999Y-81559401I0J-200000D01*
G01*
G37*
G36*
G01*
X33092999Y-80609400D02*
X33092999Y-81168200D01*
G75*
G02*
X32892999Y-81368200I-200000J0D01*
G01*
X31915099Y-81368200D01*
G75*
G02*
X31715099Y-81168200I0J200000D01*
G01*
X31715099Y-80609400D01*
G75*
G02*
X31915099Y-80409400I200000J0D01*
G01*
X32892999Y-80409400D01*
G75*
G02*
X33092999Y-80609400I0J-200000D01*
G01*
G37*
G36*
G01*
X30362499Y-80609400D02*
X30362499Y-81168200D01*
G75*
G02*
X30162499Y-81368200I-200000J0D01*
G01*
X29184599Y-81368200D01*
G75*
G02*
X28984599Y-81168200I0J200000D01*
G01*
X28984599Y-80609400D01*
G75*
G02*
X29184599Y-80409400I200000J0D01*
G01*
X30162499Y-80409400D01*
G75*
G02*
X30362499Y-80609400I0J-200000D01*
G01*
G37*
G36*
G01*
X30362499Y-81559401D02*
X30362499Y-82118201D01*
G75*
G02*
X30162499Y-82318201I-200000J0D01*
G01*
X29184599Y-82318201D01*
G75*
G02*
X28984599Y-82118201I0J200000D01*
G01*
X28984599Y-81559401D01*
G75*
G02*
X29184599Y-81359401I200000J0D01*
G01*
X30162499Y-81359401D01*
G75*
G02*
X30362499Y-81559401I0J-200000D01*
G01*
G37*
G36*
G01*
X30362499Y-82509402D02*
X30362499Y-83068202D01*
G75*
G02*
X30162499Y-83268202I-200000J0D01*
G01*
X29184599Y-83268202D01*
G75*
G02*
X28984599Y-83068202I0J200000D01*
G01*
X28984599Y-82509402D01*
G75*
G02*
X29184599Y-82309402I200000J0D01*
G01*
X30162499Y-82309402D01*
G75*
G02*
X30362499Y-82509402I0J-200000D01*
G01*
G37*
M02*
