G04 #@! TF.GenerationSoftware,KiCad,Pcbnew,(5.1.10)-1*
G04 #@! TF.CreationDate,2021-05-18T14:50:01+02:00*
G04 #@! TF.ProjectId,PEE50_MPPT,50454535-305f-44d5-9050-542e6b696361,rev?*
G04 #@! TF.SameCoordinates,Original*
G04 #@! TF.FileFunction,Paste,Top*
G04 #@! TF.FilePolarity,Positive*
%FSLAX46Y46*%
G04 Gerber Fmt 4.6, Leading zero omitted, Abs format (unit mm)*
G04 Created by KiCad (PCBNEW (5.1.10)-1) date 2021-05-18 14:50:01*
%MOMM*%
%LPD*%
G01*
G04 APERTURE LIST*
%ADD10C,0.152400*%
%ADD11R,0.354800X1.461999*%
%ADD12C,0.306367*%
%ADD13R,0.249999X0.599999*%
%ADD14R,0.249999X0.725000*%
%ADD15C,0.289687*%
%ADD16R,0.625000X0.249999*%
%ADD17C,0.258750*%
%ADD18C,0.332306*%
%ADD19R,0.675000X0.249999*%
%ADD20R,0.599999X0.249999*%
%ADD21R,1.425001X0.375001*%
%ADD22R,5.283200X6.350000*%
%ADD23R,5.588000X5.334000*%
%ADD24R,0.508000X0.355600*%
%ADD25R,4.570001X4.490001*%
%ADD26R,0.509999X0.910001*%
%ADD27R,0.700001X0.399999*%
%ADD28R,2.510000X2.550000*%
%ADD29R,0.977900X0.558800*%
%ADD30R,0.800000X0.900000*%
%ADD31R,1.404099X0.279400*%
G04 APERTURE END LIST*
D10*
X63902999Y-159503001D02*
X63852999Y-159553001D01*
X63902999Y-158828001D02*
X63902999Y-159503001D01*
X63852999Y-158778001D02*
X63902999Y-158828001D01*
X63378001Y-158778001D02*
X63852999Y-158778001D01*
X63328001Y-158828001D02*
X63378001Y-158778001D01*
X63327999Y-159128000D02*
X63328001Y-158828001D01*
X63378001Y-159178000D02*
X63327999Y-159128000D01*
X63678001Y-159178000D02*
X63378001Y-159178000D01*
X63678001Y-159503001D02*
X63678001Y-159178000D01*
X63728001Y-159553001D02*
X63678001Y-159503001D01*
X63852999Y-159553001D02*
X63728001Y-159553001D01*
X63728001Y-155152999D02*
X63852999Y-155152999D01*
X63678001Y-155202999D02*
X63728001Y-155152999D01*
X63678001Y-155528000D02*
X63678001Y-155202999D01*
X63378001Y-155528000D02*
X63678001Y-155528000D01*
X63327999Y-155578000D02*
X63378001Y-155528000D01*
X63328001Y-155877999D02*
X63327999Y-155578000D01*
X63378001Y-155928002D02*
X63328001Y-155877999D01*
X63852999Y-155927999D02*
X63378001Y-155928002D01*
X63903001Y-155877999D02*
X63852999Y-155927999D01*
X63903001Y-155202999D02*
X63903001Y-155877999D01*
X63852999Y-155153002D02*
X63903001Y-155202999D01*
X63852999Y-155152999D02*
X63852999Y-155153002D01*
X66876999Y-159503001D02*
X66827001Y-159553001D01*
X66877001Y-159202999D02*
X66876999Y-159503001D01*
X67177001Y-159202999D02*
X66877001Y-159202999D01*
X67227000Y-159152999D02*
X67177001Y-159202999D01*
X67227000Y-158902999D02*
X67227000Y-159152999D01*
X67177001Y-158853000D02*
X67227000Y-158902999D01*
X66702000Y-158853000D02*
X67177001Y-158853000D01*
X66652000Y-158902999D02*
X66702000Y-158853000D01*
X66652000Y-159503001D02*
X66652000Y-158902999D01*
X66702000Y-159553001D02*
X66652000Y-159503001D01*
X66827001Y-159553001D02*
X66702000Y-159553001D01*
X66702000Y-155152999D02*
X66827001Y-155152999D01*
X66651998Y-155202999D02*
X66702000Y-155152999D01*
X66652000Y-155803001D02*
X66651998Y-155202999D01*
X66702000Y-155853000D02*
X66652000Y-155803001D01*
X67177001Y-155853000D02*
X66702000Y-155853000D01*
X67227000Y-155803001D02*
X67177001Y-155853000D01*
X67227000Y-155553001D02*
X67227000Y-155803001D01*
X67177001Y-155503001D02*
X67227000Y-155553001D01*
X66877001Y-155503001D02*
X67177001Y-155503001D01*
X66876999Y-155202999D02*
X66877001Y-155503001D01*
X66827001Y-155152999D02*
X66876999Y-155202999D01*
X51749000Y-161897997D02*
X52899000Y-161897997D01*
X52899000Y-161897997D02*
X52908754Y-161898960D01*
X52908754Y-161898960D02*
X52918134Y-161901805D01*
X52918134Y-161901805D02*
X52926778Y-161906425D01*
X52926778Y-161906425D02*
X52934354Y-161912643D01*
X52934354Y-161912643D02*
X52940572Y-161920220D01*
X52940572Y-161920220D02*
X52945195Y-161928863D01*
X52945195Y-161928863D02*
X52948040Y-161938244D01*
X52948040Y-161938244D02*
X52949000Y-161948000D01*
X52949000Y-161948000D02*
X52949000Y-163427997D01*
X52949000Y-163427997D02*
X52948040Y-163437753D01*
X52948040Y-163437753D02*
X52945195Y-163447133D01*
X52945195Y-163447133D02*
X52940572Y-163455777D01*
X52940572Y-163455777D02*
X52934354Y-163463354D01*
X52934354Y-163463354D02*
X52926778Y-163469571D01*
X52926778Y-163469571D02*
X52918134Y-163474192D01*
X52918134Y-163474192D02*
X52908754Y-163477037D01*
X52908754Y-163477037D02*
X52899000Y-163477997D01*
X52899000Y-163477997D02*
X51749000Y-163477997D01*
X51749000Y-163477997D02*
X51739246Y-163477037D01*
X51739246Y-163477037D02*
X51729866Y-163474192D01*
X51729866Y-163474192D02*
X51721222Y-163469571D01*
X51721222Y-163469571D02*
X51713646Y-163463354D01*
X51713646Y-163463354D02*
X51707428Y-163455777D01*
X51707428Y-163455777D02*
X51702805Y-163447133D01*
X51702805Y-163447133D02*
X51699960Y-163437753D01*
X51699960Y-163437753D02*
X51699000Y-163427997D01*
X51699000Y-163427997D02*
X51699000Y-161948000D01*
X51699000Y-161948000D02*
X51699960Y-161938244D01*
X51699960Y-161938244D02*
X51702805Y-161928863D01*
X51702805Y-161928863D02*
X51707428Y-161920220D01*
X51707428Y-161920220D02*
X51713646Y-161912643D01*
X51713646Y-161912643D02*
X51721222Y-161906425D01*
X51721222Y-161906425D02*
X51729866Y-161901805D01*
X51729866Y-161901805D02*
X51739246Y-161898960D01*
X51739246Y-161898960D02*
X51749000Y-161897997D01*
X52899000Y-165258001D02*
X51749000Y-165258001D01*
X51749000Y-165258001D02*
X51739246Y-165257038D01*
X51739246Y-165257038D02*
X51729866Y-165254193D01*
X51729866Y-165254193D02*
X51721222Y-165249573D01*
X51721222Y-165249573D02*
X51713646Y-165243355D01*
X51713646Y-165243355D02*
X51707428Y-165235778D01*
X51707428Y-165235778D02*
X51702805Y-165227135D01*
X51702805Y-165227135D02*
X51699960Y-165217754D01*
X51699960Y-165217754D02*
X51699000Y-165207998D01*
X51699000Y-165207998D02*
X51699000Y-163728001D01*
X51699000Y-163728001D02*
X51699960Y-163718245D01*
X51699960Y-163718245D02*
X51702805Y-163708865D01*
X51702805Y-163708865D02*
X51707428Y-163700221D01*
X51707428Y-163700221D02*
X51713646Y-163692644D01*
X51713646Y-163692644D02*
X51721222Y-163686426D01*
X51721222Y-163686426D02*
X51729866Y-163681806D01*
X51729866Y-163681806D02*
X51739246Y-163678961D01*
X51739246Y-163678961D02*
X51749000Y-163678001D01*
X51749000Y-163678001D02*
X52899000Y-163678001D01*
X52899000Y-163678001D02*
X52908754Y-163678961D01*
X52908754Y-163678961D02*
X52918134Y-163681806D01*
X52918134Y-163681806D02*
X52926778Y-163686426D01*
X52926778Y-163686426D02*
X52934354Y-163692644D01*
X52934354Y-163692644D02*
X52940572Y-163700221D01*
X52940572Y-163700221D02*
X52945195Y-163708865D01*
X52945195Y-163708865D02*
X52948040Y-163718245D01*
X52948040Y-163718245D02*
X52949000Y-163728001D01*
X52949000Y-163728001D02*
X52949000Y-165207998D01*
X52949000Y-165207998D02*
X52948040Y-165217754D01*
X52948040Y-165217754D02*
X52945195Y-165227135D01*
X52945195Y-165227135D02*
X52940572Y-165235778D01*
X52940572Y-165235778D02*
X52934354Y-165243355D01*
X52934354Y-165243355D02*
X52926778Y-165249573D01*
X52926778Y-165249573D02*
X52918134Y-165254193D01*
X52918134Y-165254193D02*
X52908754Y-165257038D01*
X52908754Y-165257038D02*
X52899000Y-165258001D01*
X54349000Y-165258001D02*
X53199000Y-165258001D01*
X53199000Y-165258001D02*
X53189246Y-165257038D01*
X53189246Y-165257038D02*
X53179866Y-165254193D01*
X53179866Y-165254193D02*
X53171222Y-165249573D01*
X53171222Y-165249573D02*
X53163645Y-165243355D01*
X53163645Y-165243355D02*
X53157427Y-165235778D01*
X53157427Y-165235778D02*
X53152805Y-165227135D01*
X53152805Y-165227135D02*
X53149960Y-165217754D01*
X53149960Y-165217754D02*
X53149000Y-165207998D01*
X53149000Y-165207998D02*
X53149000Y-163728001D01*
X53149000Y-163728001D02*
X53149960Y-163718245D01*
X53149960Y-163718245D02*
X53152805Y-163708865D01*
X53152805Y-163708865D02*
X53157427Y-163700221D01*
X53157427Y-163700221D02*
X53163645Y-163692644D01*
X53163645Y-163692644D02*
X53171222Y-163686426D01*
X53171222Y-163686426D02*
X53179866Y-163681806D01*
X53179866Y-163681806D02*
X53189246Y-163678961D01*
X53189246Y-163678961D02*
X53199000Y-163678001D01*
X53199000Y-163678001D02*
X54349000Y-163678001D01*
X54349000Y-163678001D02*
X54358753Y-163678961D01*
X54358753Y-163678961D02*
X54368134Y-163681806D01*
X54368134Y-163681806D02*
X54376777Y-163686426D01*
X54376777Y-163686426D02*
X54384354Y-163692644D01*
X54384354Y-163692644D02*
X54390572Y-163700221D01*
X54390572Y-163700221D02*
X54395195Y-163708865D01*
X54395195Y-163708865D02*
X54398040Y-163718245D01*
X54398040Y-163718245D02*
X54399000Y-163728001D01*
X54399000Y-163728001D02*
X54399000Y-165207998D01*
X54399000Y-165207998D02*
X54398040Y-165217754D01*
X54398040Y-165217754D02*
X54395195Y-165227135D01*
X54395195Y-165227135D02*
X54390572Y-165235778D01*
X54390572Y-165235778D02*
X54384354Y-165243355D01*
X54384354Y-165243355D02*
X54376777Y-165249573D01*
X54376777Y-165249573D02*
X54368134Y-165254193D01*
X54368134Y-165254193D02*
X54358753Y-165257038D01*
X54358753Y-165257038D02*
X54349000Y-165258001D01*
X53199000Y-161897997D02*
X54349000Y-161897997D01*
X54349000Y-161897997D02*
X54358753Y-161898960D01*
X54358753Y-161898960D02*
X54368134Y-161901805D01*
X54368134Y-161901805D02*
X54376777Y-161906425D01*
X54376777Y-161906425D02*
X54384354Y-161912643D01*
X54384354Y-161912643D02*
X54390572Y-161920220D01*
X54390572Y-161920220D02*
X54395195Y-161928863D01*
X54395195Y-161928863D02*
X54398040Y-161938244D01*
X54398040Y-161938244D02*
X54399000Y-161948000D01*
X54399000Y-161948000D02*
X54399000Y-163427997D01*
X54399000Y-163427997D02*
X54398040Y-163437753D01*
X54398040Y-163437753D02*
X54395195Y-163447133D01*
X54395195Y-163447133D02*
X54390572Y-163455777D01*
X54390572Y-163455777D02*
X54384354Y-163463354D01*
X54384354Y-163463354D02*
X54376777Y-163469571D01*
X54376777Y-163469571D02*
X54368134Y-163474192D01*
X54368134Y-163474192D02*
X54358753Y-163477037D01*
X54358753Y-163477037D02*
X54349000Y-163477997D01*
X54349000Y-163477997D02*
X53199000Y-163477997D01*
X53199000Y-163477997D02*
X53189246Y-163477037D01*
X53189246Y-163477037D02*
X53179866Y-163474192D01*
X53179866Y-163474192D02*
X53171222Y-163469571D01*
X53171222Y-163469571D02*
X53163645Y-163463354D01*
X53163645Y-163463354D02*
X53157427Y-163455777D01*
X53157427Y-163455777D02*
X53152805Y-163447133D01*
X53152805Y-163447133D02*
X53149960Y-163437753D01*
X53149960Y-163437753D02*
X53149000Y-163427997D01*
X53149000Y-163427997D02*
X53149000Y-161948000D01*
X53149000Y-161948000D02*
X53149960Y-161938244D01*
X53149960Y-161938244D02*
X53152805Y-161928863D01*
X53152805Y-161928863D02*
X53157427Y-161920220D01*
X53157427Y-161920220D02*
X53163645Y-161912643D01*
X53163645Y-161912643D02*
X53171222Y-161906425D01*
X53171222Y-161906425D02*
X53179866Y-161901805D01*
X53179866Y-161901805D02*
X53189246Y-161898960D01*
X53189246Y-161898960D02*
X53199000Y-161897997D01*
X50299000Y-161897997D02*
X51449000Y-161897997D01*
X51449000Y-161897997D02*
X51458754Y-161898960D01*
X51458754Y-161898960D02*
X51468134Y-161901805D01*
X51468134Y-161901805D02*
X51476778Y-161906425D01*
X51476778Y-161906425D02*
X51484355Y-161912643D01*
X51484355Y-161912643D02*
X51490573Y-161920220D01*
X51490573Y-161920220D02*
X51495195Y-161928863D01*
X51495195Y-161928863D02*
X51498040Y-161938244D01*
X51498040Y-161938244D02*
X51499000Y-161948000D01*
X51499000Y-161948000D02*
X51499000Y-163427997D01*
X51499000Y-163427997D02*
X51498040Y-163437753D01*
X51498040Y-163437753D02*
X51495195Y-163447133D01*
X51495195Y-163447133D02*
X51490573Y-163455777D01*
X51490573Y-163455777D02*
X51484355Y-163463354D01*
X51484355Y-163463354D02*
X51476778Y-163469571D01*
X51476778Y-163469571D02*
X51468134Y-163474192D01*
X51468134Y-163474192D02*
X51458754Y-163477037D01*
X51458754Y-163477037D02*
X51449000Y-163477997D01*
X51449000Y-163477997D02*
X50299000Y-163477997D01*
X50299000Y-163477997D02*
X50289247Y-163477037D01*
X50289247Y-163477037D02*
X50279866Y-163474192D01*
X50279866Y-163474192D02*
X50271223Y-163469571D01*
X50271223Y-163469571D02*
X50263646Y-163463354D01*
X50263646Y-163463354D02*
X50257428Y-163455777D01*
X50257428Y-163455777D02*
X50252805Y-163447133D01*
X50252805Y-163447133D02*
X50249960Y-163437753D01*
X50249960Y-163437753D02*
X50249000Y-163427997D01*
X50249000Y-163427997D02*
X50249000Y-161948000D01*
X50249000Y-161948000D02*
X50249960Y-161938244D01*
X50249960Y-161938244D02*
X50252805Y-161928863D01*
X50252805Y-161928863D02*
X50257428Y-161920220D01*
X50257428Y-161920220D02*
X50263646Y-161912643D01*
X50263646Y-161912643D02*
X50271223Y-161906425D01*
X50271223Y-161906425D02*
X50279866Y-161901805D01*
X50279866Y-161901805D02*
X50289247Y-161898960D01*
X50289247Y-161898960D02*
X50299000Y-161897997D01*
X51449000Y-165258001D02*
X50299000Y-165258001D01*
X50299000Y-165258001D02*
X50289247Y-165257038D01*
X50289247Y-165257038D02*
X50279866Y-165254193D01*
X50279866Y-165254193D02*
X50271223Y-165249573D01*
X50271223Y-165249573D02*
X50263646Y-165243355D01*
X50263646Y-165243355D02*
X50257428Y-165235778D01*
X50257428Y-165235778D02*
X50252805Y-165227135D01*
X50252805Y-165227135D02*
X50249960Y-165217754D01*
X50249960Y-165217754D02*
X50249000Y-165207998D01*
X50249000Y-165207998D02*
X50249000Y-163728001D01*
X50249000Y-163728001D02*
X50249960Y-163718245D01*
X50249960Y-163718245D02*
X50252805Y-163708865D01*
X50252805Y-163708865D02*
X50257428Y-163700221D01*
X50257428Y-163700221D02*
X50263646Y-163692644D01*
X50263646Y-163692644D02*
X50271223Y-163686426D01*
X50271223Y-163686426D02*
X50279866Y-163681806D01*
X50279866Y-163681806D02*
X50289247Y-163678961D01*
X50289247Y-163678961D02*
X50299000Y-163678001D01*
X50299000Y-163678001D02*
X51449000Y-163678001D01*
X51449000Y-163678001D02*
X51458754Y-163678961D01*
X51458754Y-163678961D02*
X51468134Y-163681806D01*
X51468134Y-163681806D02*
X51476778Y-163686426D01*
X51476778Y-163686426D02*
X51484355Y-163692644D01*
X51484355Y-163692644D02*
X51490573Y-163700221D01*
X51490573Y-163700221D02*
X51495195Y-163708865D01*
X51495195Y-163708865D02*
X51498040Y-163718245D01*
X51498040Y-163718245D02*
X51499000Y-163728001D01*
X51499000Y-163728001D02*
X51499000Y-165207998D01*
X51499000Y-165207998D02*
X51498040Y-165217754D01*
X51498040Y-165217754D02*
X51495195Y-165227135D01*
X51495195Y-165227135D02*
X51490573Y-165235778D01*
X51490573Y-165235778D02*
X51484355Y-165243355D01*
X51484355Y-165243355D02*
X51476778Y-165249573D01*
X51476778Y-165249573D02*
X51468134Y-165254193D01*
X51468134Y-165254193D02*
X51458754Y-165257038D01*
X51458754Y-165257038D02*
X51449000Y-165258001D01*
X59344052Y-153047718D02*
X59345002Y-153057347D01*
X59341245Y-153038459D02*
X59344052Y-153047718D01*
X59336683Y-153029928D02*
X59341245Y-153038459D01*
X59330547Y-153022450D02*
X59336683Y-153029928D01*
X59323069Y-153016313D02*
X59330547Y-153022450D01*
X59314537Y-153011751D02*
X59323069Y-153016313D01*
X59305279Y-153008945D02*
X59314537Y-153011751D01*
X59295650Y-153007995D02*
X59305279Y-153008945D01*
X58689352Y-153007995D02*
X59295650Y-153007995D01*
X58679723Y-153008945D02*
X58689352Y-153007995D01*
X58670464Y-153011751D02*
X58679723Y-153008945D01*
X58661932Y-153016313D02*
X58670464Y-153011751D01*
X58654455Y-153022450D02*
X58661932Y-153016313D01*
X58648318Y-153029928D02*
X58654455Y-153022450D01*
X58643756Y-153038459D02*
X58648318Y-153029928D01*
X58640950Y-153047718D02*
X58643756Y-153038459D01*
X58640002Y-153057347D02*
X58640950Y-153047718D01*
X58640002Y-154083644D02*
X58640002Y-153057347D01*
X58640950Y-154093273D02*
X58640002Y-154083644D01*
X58643756Y-154102532D02*
X58640950Y-154093273D01*
X58648318Y-154111063D02*
X58643756Y-154102532D01*
X58654455Y-154118541D02*
X58648318Y-154111063D01*
X58661932Y-154124678D02*
X58654455Y-154118541D01*
X58670464Y-154129240D02*
X58661932Y-154124678D01*
X58679723Y-154132046D02*
X58670464Y-154129240D01*
X58689352Y-154132994D02*
X58679723Y-154132046D01*
X59295650Y-154132994D02*
X58689352Y-154132994D01*
X59305279Y-154132046D02*
X59295650Y-154132994D01*
X59314537Y-154129240D02*
X59305279Y-154132046D01*
X59323069Y-154124678D02*
X59314537Y-154129240D01*
X59330547Y-154118541D02*
X59323069Y-154124678D01*
X59336683Y-154111063D02*
X59330547Y-154118541D01*
X59341245Y-154102532D02*
X59336683Y-154111063D01*
X59344052Y-154093273D02*
X59341245Y-154102532D01*
X59345002Y-154083644D02*
X59344052Y-154093273D01*
X59345002Y-153057347D02*
X59345002Y-154083644D01*
X59344052Y-151722722D02*
X59345002Y-151732351D01*
X59341245Y-151713463D02*
X59344052Y-151722722D01*
X59336683Y-151704932D02*
X59341245Y-151713463D01*
X59330547Y-151697454D02*
X59336683Y-151704932D01*
X59323069Y-151691317D02*
X59330547Y-151697454D01*
X59314537Y-151686755D02*
X59323069Y-151691317D01*
X59305279Y-151683949D02*
X59314537Y-151686755D01*
X59295650Y-151683001D02*
X59305279Y-151683949D01*
X58689352Y-151683001D02*
X59295650Y-151683001D01*
X58679723Y-151683949D02*
X58689352Y-151683001D01*
X58670464Y-151686755D02*
X58679723Y-151683949D01*
X58661932Y-151691317D02*
X58670464Y-151686755D01*
X58654455Y-151697454D02*
X58661932Y-151691317D01*
X58648318Y-151704932D02*
X58654455Y-151697454D01*
X58643756Y-151713463D02*
X58648318Y-151704932D01*
X58640950Y-151722722D02*
X58643756Y-151713463D01*
X58640002Y-151732351D02*
X58640950Y-151722722D01*
X58640002Y-152758648D02*
X58640002Y-151732351D01*
X58640950Y-152768277D02*
X58640002Y-152758648D01*
X58643756Y-152777535D02*
X58640950Y-152768277D01*
X58648318Y-152786067D02*
X58643756Y-152777535D01*
X58654455Y-152793545D02*
X58648318Y-152786067D01*
X58661932Y-152799682D02*
X58654455Y-152793545D01*
X58670464Y-152804244D02*
X58661932Y-152799682D01*
X58679723Y-152807050D02*
X58670464Y-152804244D01*
X58689352Y-152808000D02*
X58679723Y-152807050D01*
X59295650Y-152808000D02*
X58689352Y-152808000D01*
X59305279Y-152807050D02*
X59295650Y-152808000D01*
X59314537Y-152804244D02*
X59305279Y-152807050D01*
X59323069Y-152799682D02*
X59314537Y-152804244D01*
X59330547Y-152793545D02*
X59323069Y-152799682D01*
X59336683Y-152786067D02*
X59330547Y-152793545D01*
X59341245Y-152777535D02*
X59336683Y-152786067D01*
X59344052Y-152768277D02*
X59341245Y-152777535D01*
X59345002Y-152758648D02*
X59344052Y-152768277D01*
X59345002Y-151732351D02*
X59345002Y-152758648D01*
X59545949Y-152768277D02*
X59545002Y-152758648D01*
X59548756Y-152777535D02*
X59545949Y-152768277D01*
X59553318Y-152786067D02*
X59548756Y-152777535D01*
X59559454Y-152793545D02*
X59553318Y-152786067D01*
X59566932Y-152799682D02*
X59559454Y-152793545D01*
X59575464Y-152804244D02*
X59566932Y-152799682D01*
X59584722Y-152807050D02*
X59575464Y-152804244D01*
X59594351Y-152808000D02*
X59584722Y-152807050D01*
X60200649Y-152808000D02*
X59594351Y-152808000D01*
X60210278Y-152807050D02*
X60200649Y-152808000D01*
X60219537Y-152804244D02*
X60210278Y-152807050D01*
X60228069Y-152799682D02*
X60219537Y-152804244D01*
X60235546Y-152793545D02*
X60228069Y-152799682D01*
X60241683Y-152786067D02*
X60235546Y-152793545D01*
X60246245Y-152777535D02*
X60241683Y-152786067D01*
X60249051Y-152768277D02*
X60246245Y-152777535D01*
X60250001Y-152758648D02*
X60249051Y-152768277D01*
X60250001Y-151732351D02*
X60250001Y-152758648D01*
X60249051Y-151722722D02*
X60250001Y-151732351D01*
X60246245Y-151713463D02*
X60249051Y-151722722D01*
X60241683Y-151704932D02*
X60246245Y-151713463D01*
X60235546Y-151697454D02*
X60241683Y-151704932D01*
X60228069Y-151691317D02*
X60235546Y-151697454D01*
X60219537Y-151686755D02*
X60228069Y-151691317D01*
X60210278Y-151683949D02*
X60219537Y-151686755D01*
X60200649Y-151683001D02*
X60210278Y-151683949D01*
X59594351Y-151683001D02*
X60200649Y-151683001D01*
X59584722Y-151683949D02*
X59594351Y-151683001D01*
X59575464Y-151686755D02*
X59584722Y-151683949D01*
X59566932Y-151691317D02*
X59575464Y-151686755D01*
X59559454Y-151697454D02*
X59566932Y-151691317D01*
X59553318Y-151704932D02*
X59559454Y-151697454D01*
X59548756Y-151713463D02*
X59553318Y-151704932D01*
X59545949Y-151722722D02*
X59548756Y-151713463D01*
X59545002Y-151732351D02*
X59545949Y-151722722D01*
X59545002Y-152758648D02*
X59545002Y-151732351D01*
X59545949Y-154093273D02*
X59545002Y-154083644D01*
X59548756Y-154102532D02*
X59545949Y-154093273D01*
X59553318Y-154111063D02*
X59548756Y-154102532D01*
X59559454Y-154118541D02*
X59553318Y-154111063D01*
X59566932Y-154124678D02*
X59559454Y-154118541D01*
X59575464Y-154129240D02*
X59566932Y-154124678D01*
X59584722Y-154132046D02*
X59575464Y-154129240D01*
X59594351Y-154132994D02*
X59584722Y-154132046D01*
X60200649Y-154132994D02*
X59594351Y-154132994D01*
X60210278Y-154132046D02*
X60200649Y-154132994D01*
X60219537Y-154129240D02*
X60210278Y-154132046D01*
X60228069Y-154124678D02*
X60219537Y-154129240D01*
X60235546Y-154118541D02*
X60228069Y-154124678D01*
X60241683Y-154111063D02*
X60235546Y-154118541D01*
X60246245Y-154102532D02*
X60241683Y-154111063D01*
X60249051Y-154093273D02*
X60246245Y-154102532D01*
X60250001Y-154083644D02*
X60249051Y-154093273D01*
X60250001Y-153057347D02*
X60250001Y-154083644D01*
X60249051Y-153047718D02*
X60250001Y-153057347D01*
X60246245Y-153038459D02*
X60249051Y-153047718D01*
X60241683Y-153029928D02*
X60246245Y-153038459D01*
X60235546Y-153022450D02*
X60241683Y-153029928D01*
X60228069Y-153016313D02*
X60235546Y-153022450D01*
X60219537Y-153011751D02*
X60228069Y-153016313D01*
X60210278Y-153008945D02*
X60219537Y-153011751D01*
X60200649Y-153007995D02*
X60210278Y-153008945D01*
X59594351Y-153007995D02*
X60200649Y-153007995D01*
X59584722Y-153008945D02*
X59594351Y-153007995D01*
X59575464Y-153011751D02*
X59584722Y-153008945D01*
X59566932Y-153016313D02*
X59575464Y-153011751D01*
X59559454Y-153022450D02*
X59566932Y-153016313D01*
X59553318Y-153029928D02*
X59559454Y-153022450D01*
X59548756Y-153038459D02*
X59553318Y-153029928D01*
X59545949Y-153047718D02*
X59548756Y-153038459D01*
X59545002Y-153057347D02*
X59545949Y-153047718D01*
X59545002Y-154083644D02*
X59545002Y-153057347D01*
X115542955Y-167196237D02*
X115533201Y-167197200D01*
X115552335Y-167193392D02*
X115542955Y-167196237D01*
X115560979Y-167188772D02*
X115552335Y-167193392D01*
X115568556Y-167182554D02*
X115560979Y-167188772D01*
X115574774Y-167174977D02*
X115568556Y-167182554D01*
X115579396Y-167166334D02*
X115574774Y-167174977D01*
X115582241Y-167156953D02*
X115579396Y-167166334D01*
X115583201Y-167147197D02*
X115582241Y-167156953D01*
X115583201Y-165667200D02*
X115583201Y-167147197D01*
X115582241Y-165657444D02*
X115583201Y-165667200D01*
X115579396Y-165648064D02*
X115582241Y-165657444D01*
X115574774Y-165639420D02*
X115579396Y-165648064D01*
X115568556Y-165631843D02*
X115574774Y-165639420D01*
X115560979Y-165625625D02*
X115568556Y-165631843D01*
X115552335Y-165621005D02*
X115560979Y-165625625D01*
X115542955Y-165618160D02*
X115552335Y-165621005D01*
X115533201Y-165617200D02*
X115542955Y-165618160D01*
X114383201Y-165617200D02*
X115533201Y-165617200D01*
X114373448Y-165618160D02*
X114383201Y-165617200D01*
X114364067Y-165621005D02*
X114373448Y-165618160D01*
X114355424Y-165625625D02*
X114364067Y-165621005D01*
X114347847Y-165631843D02*
X114355424Y-165625625D01*
X114341629Y-165639420D02*
X114347847Y-165631843D01*
X114337006Y-165648064D02*
X114341629Y-165639420D01*
X114334161Y-165657444D02*
X114337006Y-165648064D01*
X114333201Y-165667200D02*
X114334161Y-165657444D01*
X114333201Y-167147197D02*
X114333201Y-165667200D01*
X114334161Y-167156953D02*
X114333201Y-167147197D01*
X114337006Y-167166334D02*
X114334161Y-167156953D01*
X114341629Y-167174977D02*
X114337006Y-167166334D01*
X114347847Y-167182554D02*
X114341629Y-167174977D01*
X114355424Y-167188772D02*
X114347847Y-167182554D01*
X114364067Y-167193392D02*
X114355424Y-167188772D01*
X114373448Y-167196237D02*
X114364067Y-167193392D01*
X114383201Y-167197200D02*
X114373448Y-167196237D01*
X115533201Y-167197200D02*
X114383201Y-167197200D01*
X114373448Y-163838159D02*
X114383201Y-163837196D01*
X114364067Y-163841004D02*
X114373448Y-163838159D01*
X114355424Y-163845624D02*
X114364067Y-163841004D01*
X114347847Y-163851842D02*
X114355424Y-163845624D01*
X114341629Y-163859419D02*
X114347847Y-163851842D01*
X114337006Y-163868062D02*
X114341629Y-163859419D01*
X114334161Y-163877443D02*
X114337006Y-163868062D01*
X114333201Y-163887199D02*
X114334161Y-163877443D01*
X114333201Y-165367196D02*
X114333201Y-163887199D01*
X114334161Y-165376952D02*
X114333201Y-165367196D01*
X114337006Y-165386332D02*
X114334161Y-165376952D01*
X114341629Y-165394976D02*
X114337006Y-165386332D01*
X114347847Y-165402553D02*
X114341629Y-165394976D01*
X114355424Y-165408770D02*
X114347847Y-165402553D01*
X114364067Y-165413391D02*
X114355424Y-165408770D01*
X114373448Y-165416236D02*
X114364067Y-165413391D01*
X114383201Y-165417196D02*
X114373448Y-165416236D01*
X115533201Y-165417196D02*
X114383201Y-165417196D01*
X115542955Y-165416236D02*
X115533201Y-165417196D01*
X115552335Y-165413391D02*
X115542955Y-165416236D01*
X115560979Y-165408770D02*
X115552335Y-165413391D01*
X115568556Y-165402553D02*
X115560979Y-165408770D01*
X115574774Y-165394976D02*
X115568556Y-165402553D01*
X115579396Y-165386332D02*
X115574774Y-165394976D01*
X115582241Y-165376952D02*
X115579396Y-165386332D01*
X115583201Y-165367196D02*
X115582241Y-165376952D01*
X115583201Y-163887199D02*
X115583201Y-165367196D01*
X115582241Y-163877443D02*
X115583201Y-163887199D01*
X115579396Y-163868062D02*
X115582241Y-163877443D01*
X115574774Y-163859419D02*
X115579396Y-163868062D01*
X115568556Y-163851842D02*
X115574774Y-163859419D01*
X115560979Y-163845624D02*
X115568556Y-163851842D01*
X115552335Y-163841004D02*
X115560979Y-163845624D01*
X115542955Y-163838159D02*
X115552335Y-163841004D01*
X115533201Y-163837196D02*
X115542955Y-163838159D01*
X114383201Y-163837196D02*
X115533201Y-163837196D01*
X117273447Y-163838159D02*
X117283201Y-163837196D01*
X117264067Y-163841004D02*
X117273447Y-163838159D01*
X117255423Y-163845624D02*
X117264067Y-163841004D01*
X117247846Y-163851842D02*
X117255423Y-163845624D01*
X117241628Y-163859419D02*
X117247846Y-163851842D01*
X117237006Y-163868062D02*
X117241628Y-163859419D01*
X117234161Y-163877443D02*
X117237006Y-163868062D01*
X117233201Y-163887199D02*
X117234161Y-163877443D01*
X117233201Y-165367196D02*
X117233201Y-163887199D01*
X117234161Y-165376952D02*
X117233201Y-165367196D01*
X117237006Y-165386332D02*
X117234161Y-165376952D01*
X117241628Y-165394976D02*
X117237006Y-165386332D01*
X117247846Y-165402553D02*
X117241628Y-165394976D01*
X117255423Y-165408770D02*
X117247846Y-165402553D01*
X117264067Y-165413391D02*
X117255423Y-165408770D01*
X117273447Y-165416236D02*
X117264067Y-165413391D01*
X117283201Y-165417196D02*
X117273447Y-165416236D01*
X118433201Y-165417196D02*
X117283201Y-165417196D01*
X118442954Y-165416236D02*
X118433201Y-165417196D01*
X118452335Y-165413391D02*
X118442954Y-165416236D01*
X118460978Y-165408770D02*
X118452335Y-165413391D01*
X118468555Y-165402553D02*
X118460978Y-165408770D01*
X118474773Y-165394976D02*
X118468555Y-165402553D01*
X118479396Y-165386332D02*
X118474773Y-165394976D01*
X118482241Y-165376952D02*
X118479396Y-165386332D01*
X118483201Y-165367196D02*
X118482241Y-165376952D01*
X118483201Y-163887199D02*
X118483201Y-165367196D01*
X118482241Y-163877443D02*
X118483201Y-163887199D01*
X118479396Y-163868062D02*
X118482241Y-163877443D01*
X118474773Y-163859419D02*
X118479396Y-163868062D01*
X118468555Y-163851842D02*
X118474773Y-163859419D01*
X118460978Y-163845624D02*
X118468555Y-163851842D01*
X118452335Y-163841004D02*
X118460978Y-163845624D01*
X118442954Y-163838159D02*
X118452335Y-163841004D01*
X118433201Y-163837196D02*
X118442954Y-163838159D01*
X117283201Y-163837196D02*
X118433201Y-163837196D01*
X118442954Y-167196237D02*
X118433201Y-167197200D01*
X118452335Y-167193392D02*
X118442954Y-167196237D01*
X118460978Y-167188772D02*
X118452335Y-167193392D01*
X118468555Y-167182554D02*
X118460978Y-167188772D01*
X118474773Y-167174977D02*
X118468555Y-167182554D01*
X118479396Y-167166334D02*
X118474773Y-167174977D01*
X118482241Y-167156953D02*
X118479396Y-167166334D01*
X118483201Y-167147197D02*
X118482241Y-167156953D01*
X118483201Y-165667200D02*
X118483201Y-167147197D01*
X118482241Y-165657444D02*
X118483201Y-165667200D01*
X118479396Y-165648064D02*
X118482241Y-165657444D01*
X118474773Y-165639420D02*
X118479396Y-165648064D01*
X118468555Y-165631843D02*
X118474773Y-165639420D01*
X118460978Y-165625625D02*
X118468555Y-165631843D01*
X118452335Y-165621005D02*
X118460978Y-165625625D01*
X118442954Y-165618160D02*
X118452335Y-165621005D01*
X118433201Y-165617200D02*
X118442954Y-165618160D01*
X117283201Y-165617200D02*
X118433201Y-165617200D01*
X117273447Y-165618160D02*
X117283201Y-165617200D01*
X117264067Y-165621005D02*
X117273447Y-165618160D01*
X117255423Y-165625625D02*
X117264067Y-165621005D01*
X117247846Y-165631843D02*
X117255423Y-165625625D01*
X117241628Y-165639420D02*
X117247846Y-165631843D01*
X117237006Y-165648064D02*
X117241628Y-165639420D01*
X117234161Y-165657444D02*
X117237006Y-165648064D01*
X117233201Y-165667200D02*
X117234161Y-165657444D01*
X117233201Y-167147197D02*
X117233201Y-165667200D01*
X117234161Y-167156953D02*
X117233201Y-167147197D01*
X117237006Y-167166334D02*
X117234161Y-167156953D01*
X117241628Y-167174977D02*
X117237006Y-167166334D01*
X117247846Y-167182554D02*
X117241628Y-167174977D01*
X117255423Y-167188772D02*
X117247846Y-167182554D01*
X117264067Y-167193392D02*
X117255423Y-167188772D01*
X117273447Y-167196237D02*
X117264067Y-167193392D01*
X117283201Y-167197200D02*
X117273447Y-167196237D01*
X118433201Y-167197200D02*
X117283201Y-167197200D01*
X116992955Y-167196237D02*
X116983201Y-167197200D01*
X117002335Y-167193392D02*
X116992955Y-167196237D01*
X117010979Y-167188772D02*
X117002335Y-167193392D01*
X117018555Y-167182554D02*
X117010979Y-167188772D01*
X117024773Y-167174977D02*
X117018555Y-167182554D01*
X117029396Y-167166334D02*
X117024773Y-167174977D01*
X117032241Y-167156953D02*
X117029396Y-167166334D01*
X117033201Y-167147197D02*
X117032241Y-167156953D01*
X117033201Y-165667200D02*
X117033201Y-167147197D01*
X117032241Y-165657444D02*
X117033201Y-165667200D01*
X117029396Y-165648064D02*
X117032241Y-165657444D01*
X117024773Y-165639420D02*
X117029396Y-165648064D01*
X117018555Y-165631843D02*
X117024773Y-165639420D01*
X117010979Y-165625625D02*
X117018555Y-165631843D01*
X117002335Y-165621005D02*
X117010979Y-165625625D01*
X116992955Y-165618160D02*
X117002335Y-165621005D01*
X116983201Y-165617200D02*
X116992955Y-165618160D01*
X115833201Y-165617200D02*
X116983201Y-165617200D01*
X115823447Y-165618160D02*
X115833201Y-165617200D01*
X115814067Y-165621005D02*
X115823447Y-165618160D01*
X115805423Y-165625625D02*
X115814067Y-165621005D01*
X115797847Y-165631843D02*
X115805423Y-165625625D01*
X115791629Y-165639420D02*
X115797847Y-165631843D01*
X115787006Y-165648064D02*
X115791629Y-165639420D01*
X115784161Y-165657444D02*
X115787006Y-165648064D01*
X115783201Y-165667200D02*
X115784161Y-165657444D01*
X115783201Y-167147197D02*
X115783201Y-165667200D01*
X115784161Y-167156953D02*
X115783201Y-167147197D01*
X115787006Y-167166334D02*
X115784161Y-167156953D01*
X115791629Y-167174977D02*
X115787006Y-167166334D01*
X115797847Y-167182554D02*
X115791629Y-167174977D01*
X115805423Y-167188772D02*
X115797847Y-167182554D01*
X115814067Y-167193392D02*
X115805423Y-167188772D01*
X115823447Y-167196237D02*
X115814067Y-167193392D01*
X115833201Y-167197200D02*
X115823447Y-167196237D01*
X116983201Y-167197200D02*
X115833201Y-167197200D01*
X115823447Y-163838159D02*
X115833201Y-163837196D01*
X115814067Y-163841004D02*
X115823447Y-163838159D01*
X115805423Y-163845624D02*
X115814067Y-163841004D01*
X115797847Y-163851842D02*
X115805423Y-163845624D01*
X115791629Y-163859419D02*
X115797847Y-163851842D01*
X115787006Y-163868062D02*
X115791629Y-163859419D01*
X115784161Y-163877443D02*
X115787006Y-163868062D01*
X115783201Y-163887199D02*
X115784161Y-163877443D01*
X115783201Y-165367196D02*
X115783201Y-163887199D01*
X115784161Y-165376952D02*
X115783201Y-165367196D01*
X115787006Y-165386332D02*
X115784161Y-165376952D01*
X115791629Y-165394976D02*
X115787006Y-165386332D01*
X115797847Y-165402553D02*
X115791629Y-165394976D01*
X115805423Y-165408770D02*
X115797847Y-165402553D01*
X115814067Y-165413391D02*
X115805423Y-165408770D01*
X115823447Y-165416236D02*
X115814067Y-165413391D01*
X115833201Y-165417196D02*
X115823447Y-165416236D01*
X116983201Y-165417196D02*
X115833201Y-165417196D01*
X116992955Y-165416236D02*
X116983201Y-165417196D01*
X117002335Y-165413391D02*
X116992955Y-165416236D01*
X117010979Y-165408770D02*
X117002335Y-165413391D01*
X117018555Y-165402553D02*
X117010979Y-165408770D01*
X117024773Y-165394976D02*
X117018555Y-165402553D01*
X117029396Y-165386332D02*
X117024773Y-165394976D01*
X117032241Y-165376952D02*
X117029396Y-165386332D01*
X117033201Y-165367196D02*
X117032241Y-165376952D01*
X117033201Y-163887199D02*
X117033201Y-165367196D01*
X117032241Y-163877443D02*
X117033201Y-163887199D01*
X117029396Y-163868062D02*
X117032241Y-163877443D01*
X117024773Y-163859419D02*
X117029396Y-163868062D01*
X117018555Y-163851842D02*
X117024773Y-163859419D01*
X117010979Y-163845624D02*
X117018555Y-163851842D01*
X117002335Y-163841004D02*
X117010979Y-163845624D01*
X116992955Y-163838159D02*
X117002335Y-163841004D01*
X116983201Y-163837196D02*
X116992955Y-163838159D01*
X115833201Y-163837196D02*
X116983201Y-163837196D01*
X123428253Y-154986917D02*
X123429203Y-154996546D01*
X123425446Y-154977658D02*
X123428253Y-154986917D01*
X123420884Y-154969127D02*
X123425446Y-154977658D01*
X123414748Y-154961649D02*
X123420884Y-154969127D01*
X123407270Y-154955512D02*
X123414748Y-154961649D01*
X123398738Y-154950950D02*
X123407270Y-154955512D01*
X123389480Y-154948144D02*
X123398738Y-154950950D01*
X123379851Y-154947194D02*
X123389480Y-154948144D01*
X122773553Y-154947194D02*
X123379851Y-154947194D01*
X122763924Y-154948144D02*
X122773553Y-154947194D01*
X122754665Y-154950950D02*
X122763924Y-154948144D01*
X122746133Y-154955512D02*
X122754665Y-154950950D01*
X122738656Y-154961649D02*
X122746133Y-154955512D01*
X122732519Y-154969127D02*
X122738656Y-154961649D01*
X122727957Y-154977658D02*
X122732519Y-154969127D01*
X122725151Y-154986917D02*
X122727957Y-154977658D01*
X122724203Y-154996546D02*
X122725151Y-154986917D01*
X122724203Y-156022843D02*
X122724203Y-154996546D01*
X122725151Y-156032472D02*
X122724203Y-156022843D01*
X122727957Y-156041731D02*
X122725151Y-156032472D01*
X122732519Y-156050262D02*
X122727957Y-156041731D01*
X122738656Y-156057740D02*
X122732519Y-156050262D01*
X122746133Y-156063877D02*
X122738656Y-156057740D01*
X122754665Y-156068439D02*
X122746133Y-156063877D01*
X122763924Y-156071245D02*
X122754665Y-156068439D01*
X122773553Y-156072193D02*
X122763924Y-156071245D01*
X123379851Y-156072193D02*
X122773553Y-156072193D01*
X123389480Y-156071245D02*
X123379851Y-156072193D01*
X123398738Y-156068439D02*
X123389480Y-156071245D01*
X123407270Y-156063877D02*
X123398738Y-156068439D01*
X123414748Y-156057740D02*
X123407270Y-156063877D01*
X123420884Y-156050262D02*
X123414748Y-156057740D01*
X123425446Y-156041731D02*
X123420884Y-156050262D01*
X123428253Y-156032472D02*
X123425446Y-156041731D01*
X123429203Y-156022843D02*
X123428253Y-156032472D01*
X123429203Y-154996546D02*
X123429203Y-156022843D01*
X123428253Y-153661921D02*
X123429203Y-153671550D01*
X123425446Y-153652662D02*
X123428253Y-153661921D01*
X123420884Y-153644131D02*
X123425446Y-153652662D01*
X123414748Y-153636653D02*
X123420884Y-153644131D01*
X123407270Y-153630516D02*
X123414748Y-153636653D01*
X123398738Y-153625954D02*
X123407270Y-153630516D01*
X123389480Y-153623148D02*
X123398738Y-153625954D01*
X123379851Y-153622200D02*
X123389480Y-153623148D01*
X122773553Y-153622200D02*
X123379851Y-153622200D01*
X122763924Y-153623148D02*
X122773553Y-153622200D01*
X122754665Y-153625954D02*
X122763924Y-153623148D01*
X122746133Y-153630516D02*
X122754665Y-153625954D01*
X122738656Y-153636653D02*
X122746133Y-153630516D01*
X122732519Y-153644131D02*
X122738656Y-153636653D01*
X122727957Y-153652662D02*
X122732519Y-153644131D01*
X122725151Y-153661921D02*
X122727957Y-153652662D01*
X122724203Y-153671550D02*
X122725151Y-153661921D01*
X122724203Y-154697847D02*
X122724203Y-153671550D01*
X122725151Y-154707476D02*
X122724203Y-154697847D01*
X122727957Y-154716734D02*
X122725151Y-154707476D01*
X122732519Y-154725266D02*
X122727957Y-154716734D01*
X122738656Y-154732744D02*
X122732519Y-154725266D01*
X122746133Y-154738881D02*
X122738656Y-154732744D01*
X122754665Y-154743443D02*
X122746133Y-154738881D01*
X122763924Y-154746249D02*
X122754665Y-154743443D01*
X122773553Y-154747199D02*
X122763924Y-154746249D01*
X123379851Y-154747199D02*
X122773553Y-154747199D01*
X123389480Y-154746249D02*
X123379851Y-154747199D01*
X123398738Y-154743443D02*
X123389480Y-154746249D01*
X123407270Y-154738881D02*
X123398738Y-154743443D01*
X123414748Y-154732744D02*
X123407270Y-154738881D01*
X123420884Y-154725266D02*
X123414748Y-154732744D01*
X123425446Y-154716734D02*
X123420884Y-154725266D01*
X123428253Y-154707476D02*
X123425446Y-154716734D01*
X123429203Y-154697847D02*
X123428253Y-154707476D01*
X123429203Y-153671550D02*
X123429203Y-154697847D01*
X123630150Y-154707476D02*
X123629203Y-154697847D01*
X123632957Y-154716734D02*
X123630150Y-154707476D01*
X123637519Y-154725266D02*
X123632957Y-154716734D01*
X123643655Y-154732744D02*
X123637519Y-154725266D01*
X123651133Y-154738881D02*
X123643655Y-154732744D01*
X123659665Y-154743443D02*
X123651133Y-154738881D01*
X123668923Y-154746249D02*
X123659665Y-154743443D01*
X123678552Y-154747199D02*
X123668923Y-154746249D01*
X124284850Y-154747199D02*
X123678552Y-154747199D01*
X124294479Y-154746249D02*
X124284850Y-154747199D01*
X124303738Y-154743443D02*
X124294479Y-154746249D01*
X124312270Y-154738881D02*
X124303738Y-154743443D01*
X124319747Y-154732744D02*
X124312270Y-154738881D01*
X124325884Y-154725266D02*
X124319747Y-154732744D01*
X124330446Y-154716734D02*
X124325884Y-154725266D01*
X124333252Y-154707476D02*
X124330446Y-154716734D01*
X124334202Y-154697847D02*
X124333252Y-154707476D01*
X124334202Y-153671550D02*
X124334202Y-154697847D01*
X124333252Y-153661921D02*
X124334202Y-153671550D01*
X124330446Y-153652662D02*
X124333252Y-153661921D01*
X124325884Y-153644131D02*
X124330446Y-153652662D01*
X124319747Y-153636653D02*
X124325884Y-153644131D01*
X124312270Y-153630516D02*
X124319747Y-153636653D01*
X124303738Y-153625954D02*
X124312270Y-153630516D01*
X124294479Y-153623148D02*
X124303738Y-153625954D01*
X124284850Y-153622200D02*
X124294479Y-153623148D01*
X123678552Y-153622200D02*
X124284850Y-153622200D01*
X123668923Y-153623148D02*
X123678552Y-153622200D01*
X123659665Y-153625954D02*
X123668923Y-153623148D01*
X123651133Y-153630516D02*
X123659665Y-153625954D01*
X123643655Y-153636653D02*
X123651133Y-153630516D01*
X123637519Y-153644131D02*
X123643655Y-153636653D01*
X123632957Y-153652662D02*
X123637519Y-153644131D01*
X123630150Y-153661921D02*
X123632957Y-153652662D01*
X123629203Y-153671550D02*
X123630150Y-153661921D01*
X123629203Y-154697847D02*
X123629203Y-153671550D01*
X123630150Y-156032472D02*
X123629203Y-156022843D01*
X123632957Y-156041731D02*
X123630150Y-156032472D01*
X123637519Y-156050262D02*
X123632957Y-156041731D01*
X123643655Y-156057740D02*
X123637519Y-156050262D01*
X123651133Y-156063877D02*
X123643655Y-156057740D01*
X123659665Y-156068439D02*
X123651133Y-156063877D01*
X123668923Y-156071245D02*
X123659665Y-156068439D01*
X123678552Y-156072193D02*
X123668923Y-156071245D01*
X124284850Y-156072193D02*
X123678552Y-156072193D01*
X124294479Y-156071245D02*
X124284850Y-156072193D01*
X124303738Y-156068439D02*
X124294479Y-156071245D01*
X124312270Y-156063877D02*
X124303738Y-156068439D01*
X124319747Y-156057740D02*
X124312270Y-156063877D01*
X124325884Y-156050262D02*
X124319747Y-156057740D01*
X124330446Y-156041731D02*
X124325884Y-156050262D01*
X124333252Y-156032472D02*
X124330446Y-156041731D01*
X124334202Y-156022843D02*
X124333252Y-156032472D01*
X124334202Y-154996546D02*
X124334202Y-156022843D01*
X124333252Y-154986917D02*
X124334202Y-154996546D01*
X124330446Y-154977658D02*
X124333252Y-154986917D01*
X124325884Y-154969127D02*
X124330446Y-154977658D01*
X124319747Y-154961649D02*
X124325884Y-154969127D01*
X124312270Y-154955512D02*
X124319747Y-154961649D01*
X124303738Y-154950950D02*
X124312270Y-154955512D01*
X124294479Y-154948144D02*
X124303738Y-154950950D01*
X124284850Y-154947194D02*
X124294479Y-154948144D01*
X123678552Y-154947194D02*
X124284850Y-154947194D01*
X123668923Y-154948144D02*
X123678552Y-154947194D01*
X123659665Y-154950950D02*
X123668923Y-154948144D01*
X123651133Y-154955512D02*
X123659665Y-154950950D01*
X123643655Y-154961649D02*
X123651133Y-154955512D01*
X123637519Y-154969127D02*
X123643655Y-154961649D01*
X123632957Y-154977658D02*
X123637519Y-154969127D01*
X123630150Y-154986917D02*
X123632957Y-154977658D01*
X123629203Y-154996546D02*
X123630150Y-154986917D01*
X123629203Y-156022843D02*
X123629203Y-154996546D01*
X127987200Y-161442200D02*
X127937200Y-161492200D01*
X127987200Y-160767200D02*
X127987200Y-161442200D01*
X127937200Y-160717200D02*
X127987200Y-160767200D01*
X127462202Y-160717200D02*
X127937200Y-160717200D01*
X127412202Y-160767200D02*
X127462202Y-160717200D01*
X127412200Y-161067199D02*
X127412202Y-160767200D01*
X127462202Y-161117199D02*
X127412200Y-161067199D01*
X127762202Y-161117199D02*
X127462202Y-161117199D01*
X127762202Y-161442200D02*
X127762202Y-161117199D01*
X127812202Y-161492200D02*
X127762202Y-161442200D01*
X127937200Y-161492200D02*
X127812202Y-161492200D01*
X127812202Y-157092198D02*
X127937200Y-157092198D01*
X127762202Y-157142198D02*
X127812202Y-157092198D01*
X127762202Y-157467199D02*
X127762202Y-157142198D01*
X127462202Y-157467199D02*
X127762202Y-157467199D01*
X127412200Y-157517199D02*
X127462202Y-157467199D01*
X127412202Y-157817198D02*
X127412200Y-157517199D01*
X127462202Y-157867201D02*
X127412202Y-157817198D01*
X127937200Y-157867198D02*
X127462202Y-157867201D01*
X127987202Y-157817198D02*
X127937200Y-157867198D01*
X127987202Y-157142198D02*
X127987202Y-157817198D01*
X127937200Y-157092201D02*
X127987202Y-157142198D01*
X127937200Y-157092198D02*
X127937200Y-157092201D01*
X130961200Y-161442200D02*
X130911202Y-161492200D01*
X130961202Y-161142198D02*
X130961200Y-161442200D01*
X131261202Y-161142198D02*
X130961202Y-161142198D01*
X131311201Y-161092198D02*
X131261202Y-161142198D01*
X131311201Y-160842198D02*
X131311201Y-161092198D01*
X131261202Y-160792199D02*
X131311201Y-160842198D01*
X130786201Y-160792199D02*
X131261202Y-160792199D01*
X130736201Y-160842198D02*
X130786201Y-160792199D01*
X130736201Y-161442200D02*
X130736201Y-160842198D01*
X130786201Y-161492200D02*
X130736201Y-161442200D01*
X130911202Y-161492200D02*
X130786201Y-161492200D01*
X130786201Y-157092198D02*
X130911202Y-157092198D01*
X130736199Y-157142198D02*
X130786201Y-157092198D01*
X130736201Y-157742200D02*
X130736199Y-157142198D01*
X130786201Y-157792199D02*
X130736201Y-157742200D01*
X131261202Y-157792199D02*
X130786201Y-157792199D01*
X131311201Y-157742200D02*
X131261202Y-157792199D01*
X131311201Y-157492200D02*
X131311201Y-157742200D01*
X131261202Y-157442200D02*
X131311201Y-157492200D01*
X130961202Y-157442200D02*
X131261202Y-157442200D01*
X130961200Y-157142198D02*
X130961202Y-157442200D01*
X130911202Y-157092198D02*
X130961200Y-157142198D01*
X52986045Y-68727763D02*
X52995799Y-68726800D01*
X52976665Y-68730608D02*
X52986045Y-68727763D01*
X52968021Y-68735228D02*
X52976665Y-68730608D01*
X52960444Y-68741446D02*
X52968021Y-68735228D01*
X52954226Y-68749023D02*
X52960444Y-68741446D01*
X52949604Y-68757666D02*
X52954226Y-68749023D01*
X52946759Y-68767047D02*
X52949604Y-68757666D01*
X52945799Y-68776803D02*
X52946759Y-68767047D01*
X52945799Y-70256800D02*
X52945799Y-68776803D01*
X52946759Y-70266556D02*
X52945799Y-70256800D01*
X52949604Y-70275936D02*
X52946759Y-70266556D01*
X52954226Y-70284580D02*
X52949604Y-70275936D01*
X52960444Y-70292157D02*
X52954226Y-70284580D01*
X52968021Y-70298375D02*
X52960444Y-70292157D01*
X52976665Y-70302995D02*
X52968021Y-70298375D01*
X52986045Y-70305840D02*
X52976665Y-70302995D01*
X52995799Y-70306800D02*
X52986045Y-70305840D01*
X54145799Y-70306800D02*
X52995799Y-70306800D01*
X54155552Y-70305840D02*
X54145799Y-70306800D01*
X54164933Y-70302995D02*
X54155552Y-70305840D01*
X54173576Y-70298375D02*
X54164933Y-70302995D01*
X54181153Y-70292157D02*
X54173576Y-70298375D01*
X54187371Y-70284580D02*
X54181153Y-70292157D01*
X54191994Y-70275936D02*
X54187371Y-70284580D01*
X54194839Y-70266556D02*
X54191994Y-70275936D01*
X54195799Y-70256800D02*
X54194839Y-70266556D01*
X54195799Y-68776803D02*
X54195799Y-70256800D01*
X54194839Y-68767047D02*
X54195799Y-68776803D01*
X54191994Y-68757666D02*
X54194839Y-68767047D01*
X54187371Y-68749023D02*
X54191994Y-68757666D01*
X54181153Y-68741446D02*
X54187371Y-68749023D01*
X54173576Y-68735228D02*
X54181153Y-68741446D01*
X54164933Y-68730608D02*
X54173576Y-68735228D01*
X54155552Y-68727763D02*
X54164933Y-68730608D01*
X54145799Y-68726800D02*
X54155552Y-68727763D01*
X52995799Y-68726800D02*
X54145799Y-68726800D01*
X54155552Y-72085841D02*
X54145799Y-72086804D01*
X54164933Y-72082996D02*
X54155552Y-72085841D01*
X54173576Y-72078376D02*
X54164933Y-72082996D01*
X54181153Y-72072158D02*
X54173576Y-72078376D01*
X54187371Y-72064581D02*
X54181153Y-72072158D01*
X54191994Y-72055938D02*
X54187371Y-72064581D01*
X54194839Y-72046557D02*
X54191994Y-72055938D01*
X54195799Y-72036801D02*
X54194839Y-72046557D01*
X54195799Y-70556804D02*
X54195799Y-72036801D01*
X54194839Y-70547048D02*
X54195799Y-70556804D01*
X54191994Y-70537668D02*
X54194839Y-70547048D01*
X54187371Y-70529024D02*
X54191994Y-70537668D01*
X54181153Y-70521447D02*
X54187371Y-70529024D01*
X54173576Y-70515230D02*
X54181153Y-70521447D01*
X54164933Y-70510609D02*
X54173576Y-70515230D01*
X54155552Y-70507764D02*
X54164933Y-70510609D01*
X54145799Y-70506804D02*
X54155552Y-70507764D01*
X52995799Y-70506804D02*
X54145799Y-70506804D01*
X52986045Y-70507764D02*
X52995799Y-70506804D01*
X52976665Y-70510609D02*
X52986045Y-70507764D01*
X52968021Y-70515230D02*
X52976665Y-70510609D01*
X52960444Y-70521447D02*
X52968021Y-70515230D01*
X52954226Y-70529024D02*
X52960444Y-70521447D01*
X52949604Y-70537668D02*
X52954226Y-70529024D01*
X52946759Y-70547048D02*
X52949604Y-70537668D01*
X52945799Y-70556804D02*
X52946759Y-70547048D01*
X52945799Y-72036801D02*
X52945799Y-70556804D01*
X52946759Y-72046557D02*
X52945799Y-72036801D01*
X52949604Y-72055938D02*
X52946759Y-72046557D01*
X52954226Y-72064581D02*
X52949604Y-72055938D01*
X52960444Y-72072158D02*
X52954226Y-72064581D01*
X52968021Y-72078376D02*
X52960444Y-72072158D01*
X52976665Y-72082996D02*
X52968021Y-72078376D01*
X52986045Y-72085841D02*
X52976665Y-72082996D01*
X52995799Y-72086804D02*
X52986045Y-72085841D01*
X54145799Y-72086804D02*
X52995799Y-72086804D01*
X51255553Y-72085841D02*
X51245799Y-72086804D01*
X51264933Y-72082996D02*
X51255553Y-72085841D01*
X51273577Y-72078376D02*
X51264933Y-72082996D01*
X51281154Y-72072158D02*
X51273577Y-72078376D01*
X51287372Y-72064581D02*
X51281154Y-72072158D01*
X51291994Y-72055938D02*
X51287372Y-72064581D01*
X51294839Y-72046557D02*
X51291994Y-72055938D01*
X51295799Y-72036801D02*
X51294839Y-72046557D01*
X51295799Y-70556804D02*
X51295799Y-72036801D01*
X51294839Y-70547048D02*
X51295799Y-70556804D01*
X51291994Y-70537668D02*
X51294839Y-70547048D01*
X51287372Y-70529024D02*
X51291994Y-70537668D01*
X51281154Y-70521447D02*
X51287372Y-70529024D01*
X51273577Y-70515230D02*
X51281154Y-70521447D01*
X51264933Y-70510609D02*
X51273577Y-70515230D01*
X51255553Y-70507764D02*
X51264933Y-70510609D01*
X51245799Y-70506804D02*
X51255553Y-70507764D01*
X50095799Y-70506804D02*
X51245799Y-70506804D01*
X50086046Y-70507764D02*
X50095799Y-70506804D01*
X50076665Y-70510609D02*
X50086046Y-70507764D01*
X50068022Y-70515230D02*
X50076665Y-70510609D01*
X50060445Y-70521447D02*
X50068022Y-70515230D01*
X50054227Y-70529024D02*
X50060445Y-70521447D01*
X50049604Y-70537668D02*
X50054227Y-70529024D01*
X50046759Y-70547048D02*
X50049604Y-70537668D01*
X50045799Y-70556804D02*
X50046759Y-70547048D01*
X50045799Y-72036801D02*
X50045799Y-70556804D01*
X50046759Y-72046557D02*
X50045799Y-72036801D01*
X50049604Y-72055938D02*
X50046759Y-72046557D01*
X50054227Y-72064581D02*
X50049604Y-72055938D01*
X50060445Y-72072158D02*
X50054227Y-72064581D01*
X50068022Y-72078376D02*
X50060445Y-72072158D01*
X50076665Y-72082996D02*
X50068022Y-72078376D01*
X50086046Y-72085841D02*
X50076665Y-72082996D01*
X50095799Y-72086804D02*
X50086046Y-72085841D01*
X51245799Y-72086804D02*
X50095799Y-72086804D01*
X50086046Y-68727763D02*
X50095799Y-68726800D01*
X50076665Y-68730608D02*
X50086046Y-68727763D01*
X50068022Y-68735228D02*
X50076665Y-68730608D01*
X50060445Y-68741446D02*
X50068022Y-68735228D01*
X50054227Y-68749023D02*
X50060445Y-68741446D01*
X50049604Y-68757666D02*
X50054227Y-68749023D01*
X50046759Y-68767047D02*
X50049604Y-68757666D01*
X50045799Y-68776803D02*
X50046759Y-68767047D01*
X50045799Y-70256800D02*
X50045799Y-68776803D01*
X50046759Y-70266556D02*
X50045799Y-70256800D01*
X50049604Y-70275936D02*
X50046759Y-70266556D01*
X50054227Y-70284580D02*
X50049604Y-70275936D01*
X50060445Y-70292157D02*
X50054227Y-70284580D01*
X50068022Y-70298375D02*
X50060445Y-70292157D01*
X50076665Y-70302995D02*
X50068022Y-70298375D01*
X50086046Y-70305840D02*
X50076665Y-70302995D01*
X50095799Y-70306800D02*
X50086046Y-70305840D01*
X51245799Y-70306800D02*
X50095799Y-70306800D01*
X51255553Y-70305840D02*
X51245799Y-70306800D01*
X51264933Y-70302995D02*
X51255553Y-70305840D01*
X51273577Y-70298375D02*
X51264933Y-70302995D01*
X51281154Y-70292157D02*
X51273577Y-70298375D01*
X51287372Y-70284580D02*
X51281154Y-70292157D01*
X51291994Y-70275936D02*
X51287372Y-70284580D01*
X51294839Y-70266556D02*
X51291994Y-70275936D01*
X51295799Y-70256800D02*
X51294839Y-70266556D01*
X51295799Y-68776803D02*
X51295799Y-70256800D01*
X51294839Y-68767047D02*
X51295799Y-68776803D01*
X51291994Y-68757666D02*
X51294839Y-68767047D01*
X51287372Y-68749023D02*
X51291994Y-68757666D01*
X51281154Y-68741446D02*
X51287372Y-68749023D01*
X51273577Y-68735228D02*
X51281154Y-68741446D01*
X51264933Y-68730608D02*
X51273577Y-68735228D01*
X51255553Y-68727763D02*
X51264933Y-68730608D01*
X51245799Y-68726800D02*
X51255553Y-68727763D01*
X50095799Y-68726800D02*
X51245799Y-68726800D01*
X51536045Y-68727763D02*
X51545799Y-68726800D01*
X51526665Y-68730608D02*
X51536045Y-68727763D01*
X51518021Y-68735228D02*
X51526665Y-68730608D01*
X51510445Y-68741446D02*
X51518021Y-68735228D01*
X51504227Y-68749023D02*
X51510445Y-68741446D01*
X51499604Y-68757666D02*
X51504227Y-68749023D01*
X51496759Y-68767047D02*
X51499604Y-68757666D01*
X51495799Y-68776803D02*
X51496759Y-68767047D01*
X51495799Y-70256800D02*
X51495799Y-68776803D01*
X51496759Y-70266556D02*
X51495799Y-70256800D01*
X51499604Y-70275936D02*
X51496759Y-70266556D01*
X51504227Y-70284580D02*
X51499604Y-70275936D01*
X51510445Y-70292157D02*
X51504227Y-70284580D01*
X51518021Y-70298375D02*
X51510445Y-70292157D01*
X51526665Y-70302995D02*
X51518021Y-70298375D01*
X51536045Y-70305840D02*
X51526665Y-70302995D01*
X51545799Y-70306800D02*
X51536045Y-70305840D01*
X52695799Y-70306800D02*
X51545799Y-70306800D01*
X52705553Y-70305840D02*
X52695799Y-70306800D01*
X52714933Y-70302995D02*
X52705553Y-70305840D01*
X52723577Y-70298375D02*
X52714933Y-70302995D01*
X52731153Y-70292157D02*
X52723577Y-70298375D01*
X52737371Y-70284580D02*
X52731153Y-70292157D01*
X52741994Y-70275936D02*
X52737371Y-70284580D01*
X52744839Y-70266556D02*
X52741994Y-70275936D01*
X52745799Y-70256800D02*
X52744839Y-70266556D01*
X52745799Y-68776803D02*
X52745799Y-70256800D01*
X52744839Y-68767047D02*
X52745799Y-68776803D01*
X52741994Y-68757666D02*
X52744839Y-68767047D01*
X52737371Y-68749023D02*
X52741994Y-68757666D01*
X52731153Y-68741446D02*
X52737371Y-68749023D01*
X52723577Y-68735228D02*
X52731153Y-68741446D01*
X52714933Y-68730608D02*
X52723577Y-68735228D01*
X52705553Y-68727763D02*
X52714933Y-68730608D01*
X52695799Y-68726800D02*
X52705553Y-68727763D01*
X51545799Y-68726800D02*
X52695799Y-68726800D01*
X52705553Y-72085841D02*
X52695799Y-72086804D01*
X52714933Y-72082996D02*
X52705553Y-72085841D01*
X52723577Y-72078376D02*
X52714933Y-72082996D01*
X52731153Y-72072158D02*
X52723577Y-72078376D01*
X52737371Y-72064581D02*
X52731153Y-72072158D01*
X52741994Y-72055938D02*
X52737371Y-72064581D01*
X52744839Y-72046557D02*
X52741994Y-72055938D01*
X52745799Y-72036801D02*
X52744839Y-72046557D01*
X52745799Y-70556804D02*
X52745799Y-72036801D01*
X52744839Y-70547048D02*
X52745799Y-70556804D01*
X52741994Y-70537668D02*
X52744839Y-70547048D01*
X52737371Y-70529024D02*
X52741994Y-70537668D01*
X52731153Y-70521447D02*
X52737371Y-70529024D01*
X52723577Y-70515230D02*
X52731153Y-70521447D01*
X52714933Y-70510609D02*
X52723577Y-70515230D01*
X52705553Y-70507764D02*
X52714933Y-70510609D01*
X52695799Y-70506804D02*
X52705553Y-70507764D01*
X51545799Y-70506804D02*
X52695799Y-70506804D01*
X51536045Y-70507764D02*
X51545799Y-70506804D01*
X51526665Y-70510609D02*
X51536045Y-70507764D01*
X51518021Y-70515230D02*
X51526665Y-70510609D01*
X51510445Y-70521447D02*
X51518021Y-70515230D01*
X51504227Y-70529024D02*
X51510445Y-70521447D01*
X51499604Y-70537668D02*
X51504227Y-70529024D01*
X51496759Y-70547048D02*
X51499604Y-70537668D01*
X51495799Y-70556804D02*
X51496759Y-70547048D01*
X51495799Y-72036801D02*
X51495799Y-70556804D01*
X51496759Y-72046557D02*
X51495799Y-72036801D01*
X51499604Y-72055938D02*
X51496759Y-72046557D01*
X51504227Y-72064581D02*
X51499604Y-72055938D01*
X51510445Y-72072158D02*
X51504227Y-72064581D01*
X51518021Y-72078376D02*
X51510445Y-72072158D01*
X51526665Y-72082996D02*
X51518021Y-72078376D01*
X51536045Y-72085841D02*
X51526665Y-72082996D01*
X51545799Y-72086804D02*
X51536045Y-72085841D01*
X52695799Y-72086804D02*
X51545799Y-72086804D01*
X45100747Y-80937083D02*
X45099797Y-80927454D01*
X45103554Y-80946342D02*
X45100747Y-80937083D01*
X45108116Y-80954873D02*
X45103554Y-80946342D01*
X45114252Y-80962351D02*
X45108116Y-80954873D01*
X45121730Y-80968488D02*
X45114252Y-80962351D01*
X45130262Y-80973050D02*
X45121730Y-80968488D01*
X45139520Y-80975856D02*
X45130262Y-80973050D01*
X45149149Y-80976806D02*
X45139520Y-80975856D01*
X45755447Y-80976806D02*
X45149149Y-80976806D01*
X45765076Y-80975856D02*
X45755447Y-80976806D01*
X45774335Y-80973050D02*
X45765076Y-80975856D01*
X45782867Y-80968488D02*
X45774335Y-80973050D01*
X45790344Y-80962351D02*
X45782867Y-80968488D01*
X45796481Y-80954873D02*
X45790344Y-80962351D01*
X45801043Y-80946342D02*
X45796481Y-80954873D01*
X45803849Y-80937083D02*
X45801043Y-80946342D01*
X45804797Y-80927454D02*
X45803849Y-80937083D01*
X45804797Y-79901157D02*
X45804797Y-80927454D01*
X45803849Y-79891528D02*
X45804797Y-79901157D01*
X45801043Y-79882269D02*
X45803849Y-79891528D01*
X45796481Y-79873738D02*
X45801043Y-79882269D01*
X45790344Y-79866260D02*
X45796481Y-79873738D01*
X45782867Y-79860123D02*
X45790344Y-79866260D01*
X45774335Y-79855561D02*
X45782867Y-79860123D01*
X45765076Y-79852755D02*
X45774335Y-79855561D01*
X45755447Y-79851807D02*
X45765076Y-79852755D01*
X45149149Y-79851807D02*
X45755447Y-79851807D01*
X45139520Y-79852755D02*
X45149149Y-79851807D01*
X45130262Y-79855561D02*
X45139520Y-79852755D01*
X45121730Y-79860123D02*
X45130262Y-79855561D01*
X45114252Y-79866260D02*
X45121730Y-79860123D01*
X45108116Y-79873738D02*
X45114252Y-79866260D01*
X45103554Y-79882269D02*
X45108116Y-79873738D01*
X45100747Y-79891528D02*
X45103554Y-79882269D01*
X45099797Y-79901157D02*
X45100747Y-79891528D01*
X45099797Y-80927454D02*
X45099797Y-79901157D01*
X45100747Y-82262079D02*
X45099797Y-82252450D01*
X45103554Y-82271338D02*
X45100747Y-82262079D01*
X45108116Y-82279869D02*
X45103554Y-82271338D01*
X45114252Y-82287347D02*
X45108116Y-82279869D01*
X45121730Y-82293484D02*
X45114252Y-82287347D01*
X45130262Y-82298046D02*
X45121730Y-82293484D01*
X45139520Y-82300852D02*
X45130262Y-82298046D01*
X45149149Y-82301800D02*
X45139520Y-82300852D01*
X45755447Y-82301800D02*
X45149149Y-82301800D01*
X45765076Y-82300852D02*
X45755447Y-82301800D01*
X45774335Y-82298046D02*
X45765076Y-82300852D01*
X45782867Y-82293484D02*
X45774335Y-82298046D01*
X45790344Y-82287347D02*
X45782867Y-82293484D01*
X45796481Y-82279869D02*
X45790344Y-82287347D01*
X45801043Y-82271338D02*
X45796481Y-82279869D01*
X45803849Y-82262079D02*
X45801043Y-82271338D01*
X45804797Y-82252450D02*
X45803849Y-82262079D01*
X45804797Y-81226153D02*
X45804797Y-82252450D01*
X45803849Y-81216524D02*
X45804797Y-81226153D01*
X45801043Y-81207266D02*
X45803849Y-81216524D01*
X45796481Y-81198734D02*
X45801043Y-81207266D01*
X45790344Y-81191256D02*
X45796481Y-81198734D01*
X45782867Y-81185119D02*
X45790344Y-81191256D01*
X45774335Y-81180557D02*
X45782867Y-81185119D01*
X45765076Y-81177751D02*
X45774335Y-81180557D01*
X45755447Y-81176801D02*
X45765076Y-81177751D01*
X45149149Y-81176801D02*
X45755447Y-81176801D01*
X45139520Y-81177751D02*
X45149149Y-81176801D01*
X45130262Y-81180557D02*
X45139520Y-81177751D01*
X45121730Y-81185119D02*
X45130262Y-81180557D01*
X45114252Y-81191256D02*
X45121730Y-81185119D01*
X45108116Y-81198734D02*
X45114252Y-81191256D01*
X45103554Y-81207266D02*
X45108116Y-81198734D01*
X45100747Y-81216524D02*
X45103554Y-81207266D01*
X45099797Y-81226153D02*
X45100747Y-81216524D01*
X45099797Y-82252450D02*
X45099797Y-81226153D01*
X44898850Y-81216524D02*
X44899797Y-81226153D01*
X44896043Y-81207266D02*
X44898850Y-81216524D01*
X44891481Y-81198734D02*
X44896043Y-81207266D01*
X44885345Y-81191256D02*
X44891481Y-81198734D01*
X44877867Y-81185119D02*
X44885345Y-81191256D01*
X44869335Y-81180557D02*
X44877867Y-81185119D01*
X44860077Y-81177751D02*
X44869335Y-81180557D01*
X44850448Y-81176801D02*
X44860077Y-81177751D01*
X44244150Y-81176801D02*
X44850448Y-81176801D01*
X44234521Y-81177751D02*
X44244150Y-81176801D01*
X44225262Y-81180557D02*
X44234521Y-81177751D01*
X44216730Y-81185119D02*
X44225262Y-81180557D01*
X44209253Y-81191256D02*
X44216730Y-81185119D01*
X44203116Y-81198734D02*
X44209253Y-81191256D01*
X44198554Y-81207266D02*
X44203116Y-81198734D01*
X44195748Y-81216524D02*
X44198554Y-81207266D01*
X44194798Y-81226153D02*
X44195748Y-81216524D01*
X44194798Y-82252450D02*
X44194798Y-81226153D01*
X44195748Y-82262079D02*
X44194798Y-82252450D01*
X44198554Y-82271338D02*
X44195748Y-82262079D01*
X44203116Y-82279869D02*
X44198554Y-82271338D01*
X44209253Y-82287347D02*
X44203116Y-82279869D01*
X44216730Y-82293484D02*
X44209253Y-82287347D01*
X44225262Y-82298046D02*
X44216730Y-82293484D01*
X44234521Y-82300852D02*
X44225262Y-82298046D01*
X44244150Y-82301800D02*
X44234521Y-82300852D01*
X44850448Y-82301800D02*
X44244150Y-82301800D01*
X44860077Y-82300852D02*
X44850448Y-82301800D01*
X44869335Y-82298046D02*
X44860077Y-82300852D01*
X44877867Y-82293484D02*
X44869335Y-82298046D01*
X44885345Y-82287347D02*
X44877867Y-82293484D01*
X44891481Y-82279869D02*
X44885345Y-82287347D01*
X44896043Y-82271338D02*
X44891481Y-82279869D01*
X44898850Y-82262079D02*
X44896043Y-82271338D01*
X44899797Y-82252450D02*
X44898850Y-82262079D01*
X44899797Y-81226153D02*
X44899797Y-82252450D01*
X44898850Y-79891528D02*
X44899797Y-79901157D01*
X44896043Y-79882269D02*
X44898850Y-79891528D01*
X44891481Y-79873738D02*
X44896043Y-79882269D01*
X44885345Y-79866260D02*
X44891481Y-79873738D01*
X44877867Y-79860123D02*
X44885345Y-79866260D01*
X44869335Y-79855561D02*
X44877867Y-79860123D01*
X44860077Y-79852755D02*
X44869335Y-79855561D01*
X44850448Y-79851807D02*
X44860077Y-79852755D01*
X44244150Y-79851807D02*
X44850448Y-79851807D01*
X44234521Y-79852755D02*
X44244150Y-79851807D01*
X44225262Y-79855561D02*
X44234521Y-79852755D01*
X44216730Y-79860123D02*
X44225262Y-79855561D01*
X44209253Y-79866260D02*
X44216730Y-79860123D01*
X44203116Y-79873738D02*
X44209253Y-79866260D01*
X44198554Y-79882269D02*
X44203116Y-79873738D01*
X44195748Y-79891528D02*
X44198554Y-79882269D01*
X44194798Y-79901157D02*
X44195748Y-79891528D01*
X44194798Y-80927454D02*
X44194798Y-79901157D01*
X44195748Y-80937083D02*
X44194798Y-80927454D01*
X44198554Y-80946342D02*
X44195748Y-80937083D01*
X44203116Y-80954873D02*
X44198554Y-80946342D01*
X44209253Y-80962351D02*
X44203116Y-80954873D01*
X44216730Y-80968488D02*
X44209253Y-80962351D01*
X44225262Y-80973050D02*
X44216730Y-80968488D01*
X44234521Y-80975856D02*
X44225262Y-80973050D01*
X44244150Y-80976806D02*
X44234521Y-80975856D01*
X44850448Y-80976806D02*
X44244150Y-80976806D01*
X44860077Y-80975856D02*
X44850448Y-80976806D01*
X44869335Y-80973050D02*
X44860077Y-80975856D01*
X44877867Y-80968488D02*
X44869335Y-80973050D01*
X44885345Y-80962351D02*
X44877867Y-80968488D01*
X44891481Y-80954873D02*
X44885345Y-80962351D01*
X44896043Y-80946342D02*
X44891481Y-80954873D01*
X44898850Y-80937083D02*
X44896043Y-80946342D01*
X44899797Y-80927454D02*
X44898850Y-80937083D01*
X44899797Y-79901157D02*
X44899797Y-80927454D01*
X37617798Y-78831802D02*
X37567800Y-78781802D01*
X37567800Y-78781802D02*
X37567798Y-78481800D01*
X37567798Y-78481800D02*
X37267798Y-78481800D01*
X37267798Y-78481800D02*
X37217799Y-78431800D01*
X37217799Y-78431800D02*
X37217799Y-78181800D01*
X37217799Y-78181800D02*
X37267798Y-78131801D01*
X37267798Y-78131801D02*
X37742799Y-78131801D01*
X37742799Y-78131801D02*
X37792799Y-78181800D01*
X37792799Y-78181800D02*
X37792801Y-78781802D01*
X37792801Y-78781802D02*
X37742799Y-78831802D01*
X37742799Y-78831802D02*
X37617798Y-78831802D01*
X37617798Y-74431800D02*
X37742799Y-74431800D01*
X37742799Y-74431800D02*
X37792799Y-74481800D01*
X37792799Y-74481800D02*
X37792799Y-75081802D01*
X37792799Y-75081802D02*
X37742799Y-75131801D01*
X37742799Y-75131801D02*
X37267798Y-75131801D01*
X37267798Y-75131801D02*
X37217799Y-75081802D01*
X37217799Y-75081802D02*
X37217799Y-74831802D01*
X37217799Y-74831802D02*
X37267798Y-74781802D01*
X37267798Y-74781802D02*
X37567798Y-74781802D01*
X37567798Y-74781802D02*
X37567800Y-74481800D01*
X37567800Y-74481800D02*
X37617798Y-74431800D01*
X40591800Y-78831802D02*
X40591800Y-78831799D01*
X40591800Y-78831799D02*
X40541798Y-78781802D01*
X40541798Y-78781802D02*
X40541798Y-78106802D01*
X40541798Y-78106802D02*
X40591800Y-78056802D01*
X40591800Y-78056802D02*
X41066798Y-78056799D01*
X41066798Y-78056799D02*
X41116798Y-78106802D01*
X41116798Y-78106802D02*
X41116800Y-78406801D01*
X41116800Y-78406801D02*
X41066798Y-78456801D01*
X41066798Y-78456801D02*
X40766798Y-78456801D01*
X40766798Y-78456801D02*
X40766798Y-78781802D01*
X40766798Y-78781802D02*
X40716798Y-78831802D01*
X40716798Y-78831802D02*
X40591800Y-78831802D01*
X40591800Y-74431800D02*
X40716798Y-74431800D01*
X40716798Y-74431800D02*
X40766798Y-74481800D01*
X40766798Y-74481800D02*
X40766798Y-74806801D01*
X40766798Y-74806801D02*
X41066798Y-74806801D01*
X41066798Y-74806801D02*
X41116800Y-74856801D01*
X41116800Y-74856801D02*
X41116798Y-75156800D01*
X41116798Y-75156800D02*
X41066798Y-75206800D01*
X41066798Y-75206800D02*
X40591800Y-75206800D01*
X40591800Y-75206800D02*
X40541800Y-75156800D01*
X40541800Y-75156800D02*
X40541800Y-74481800D01*
X40541800Y-74481800D02*
X40591800Y-74431800D01*
X116449799Y-72128804D02*
X115299799Y-72128804D01*
X115299799Y-72128804D02*
X115290045Y-72127841D01*
X115290045Y-72127841D02*
X115280665Y-72124996D01*
X115280665Y-72124996D02*
X115272021Y-72120376D01*
X115272021Y-72120376D02*
X115264445Y-72114158D01*
X115264445Y-72114158D02*
X115258227Y-72106581D01*
X115258227Y-72106581D02*
X115253604Y-72097938D01*
X115253604Y-72097938D02*
X115250759Y-72088557D01*
X115250759Y-72088557D02*
X115249799Y-72078801D01*
X115249799Y-72078801D02*
X115249799Y-70598804D01*
X115249799Y-70598804D02*
X115250759Y-70589048D01*
X115250759Y-70589048D02*
X115253604Y-70579668D01*
X115253604Y-70579668D02*
X115258227Y-70571024D01*
X115258227Y-70571024D02*
X115264445Y-70563447D01*
X115264445Y-70563447D02*
X115272021Y-70557230D01*
X115272021Y-70557230D02*
X115280665Y-70552609D01*
X115280665Y-70552609D02*
X115290045Y-70549764D01*
X115290045Y-70549764D02*
X115299799Y-70548804D01*
X115299799Y-70548804D02*
X116449799Y-70548804D01*
X116449799Y-70548804D02*
X116459553Y-70549764D01*
X116459553Y-70549764D02*
X116468933Y-70552609D01*
X116468933Y-70552609D02*
X116477577Y-70557230D01*
X116477577Y-70557230D02*
X116485153Y-70563447D01*
X116485153Y-70563447D02*
X116491371Y-70571024D01*
X116491371Y-70571024D02*
X116495994Y-70579668D01*
X116495994Y-70579668D02*
X116498839Y-70589048D01*
X116498839Y-70589048D02*
X116499799Y-70598804D01*
X116499799Y-70598804D02*
X116499799Y-72078801D01*
X116499799Y-72078801D02*
X116498839Y-72088557D01*
X116498839Y-72088557D02*
X116495994Y-72097938D01*
X116495994Y-72097938D02*
X116491371Y-72106581D01*
X116491371Y-72106581D02*
X116485153Y-72114158D01*
X116485153Y-72114158D02*
X116477577Y-72120376D01*
X116477577Y-72120376D02*
X116468933Y-72124996D01*
X116468933Y-72124996D02*
X116459553Y-72127841D01*
X116459553Y-72127841D02*
X116449799Y-72128804D01*
X115299799Y-68768800D02*
X116449799Y-68768800D01*
X116449799Y-68768800D02*
X116459553Y-68769763D01*
X116459553Y-68769763D02*
X116468933Y-68772608D01*
X116468933Y-68772608D02*
X116477577Y-68777228D01*
X116477577Y-68777228D02*
X116485153Y-68783446D01*
X116485153Y-68783446D02*
X116491371Y-68791023D01*
X116491371Y-68791023D02*
X116495994Y-68799666D01*
X116495994Y-68799666D02*
X116498839Y-68809047D01*
X116498839Y-68809047D02*
X116499799Y-68818803D01*
X116499799Y-68818803D02*
X116499799Y-70298800D01*
X116499799Y-70298800D02*
X116498839Y-70308556D01*
X116498839Y-70308556D02*
X116495994Y-70317936D01*
X116495994Y-70317936D02*
X116491371Y-70326580D01*
X116491371Y-70326580D02*
X116485153Y-70334157D01*
X116485153Y-70334157D02*
X116477577Y-70340375D01*
X116477577Y-70340375D02*
X116468933Y-70344995D01*
X116468933Y-70344995D02*
X116459553Y-70347840D01*
X116459553Y-70347840D02*
X116449799Y-70348800D01*
X116449799Y-70348800D02*
X115299799Y-70348800D01*
X115299799Y-70348800D02*
X115290045Y-70347840D01*
X115290045Y-70347840D02*
X115280665Y-70344995D01*
X115280665Y-70344995D02*
X115272021Y-70340375D01*
X115272021Y-70340375D02*
X115264445Y-70334157D01*
X115264445Y-70334157D02*
X115258227Y-70326580D01*
X115258227Y-70326580D02*
X115253604Y-70317936D01*
X115253604Y-70317936D02*
X115250759Y-70308556D01*
X115250759Y-70308556D02*
X115249799Y-70298800D01*
X115249799Y-70298800D02*
X115249799Y-68818803D01*
X115249799Y-68818803D02*
X115250759Y-68809047D01*
X115250759Y-68809047D02*
X115253604Y-68799666D01*
X115253604Y-68799666D02*
X115258227Y-68791023D01*
X115258227Y-68791023D02*
X115264445Y-68783446D01*
X115264445Y-68783446D02*
X115272021Y-68777228D01*
X115272021Y-68777228D02*
X115280665Y-68772608D01*
X115280665Y-68772608D02*
X115290045Y-68769763D01*
X115290045Y-68769763D02*
X115299799Y-68768800D01*
X113849799Y-68768800D02*
X114999799Y-68768800D01*
X114999799Y-68768800D02*
X115009553Y-68769763D01*
X115009553Y-68769763D02*
X115018933Y-68772608D01*
X115018933Y-68772608D02*
X115027577Y-68777228D01*
X115027577Y-68777228D02*
X115035154Y-68783446D01*
X115035154Y-68783446D02*
X115041372Y-68791023D01*
X115041372Y-68791023D02*
X115045994Y-68799666D01*
X115045994Y-68799666D02*
X115048839Y-68809047D01*
X115048839Y-68809047D02*
X115049799Y-68818803D01*
X115049799Y-68818803D02*
X115049799Y-70298800D01*
X115049799Y-70298800D02*
X115048839Y-70308556D01*
X115048839Y-70308556D02*
X115045994Y-70317936D01*
X115045994Y-70317936D02*
X115041372Y-70326580D01*
X115041372Y-70326580D02*
X115035154Y-70334157D01*
X115035154Y-70334157D02*
X115027577Y-70340375D01*
X115027577Y-70340375D02*
X115018933Y-70344995D01*
X115018933Y-70344995D02*
X115009553Y-70347840D01*
X115009553Y-70347840D02*
X114999799Y-70348800D01*
X114999799Y-70348800D02*
X113849799Y-70348800D01*
X113849799Y-70348800D02*
X113840046Y-70347840D01*
X113840046Y-70347840D02*
X113830665Y-70344995D01*
X113830665Y-70344995D02*
X113822022Y-70340375D01*
X113822022Y-70340375D02*
X113814445Y-70334157D01*
X113814445Y-70334157D02*
X113808227Y-70326580D01*
X113808227Y-70326580D02*
X113803604Y-70317936D01*
X113803604Y-70317936D02*
X113800759Y-70308556D01*
X113800759Y-70308556D02*
X113799799Y-70298800D01*
X113799799Y-70298800D02*
X113799799Y-68818803D01*
X113799799Y-68818803D02*
X113800759Y-68809047D01*
X113800759Y-68809047D02*
X113803604Y-68799666D01*
X113803604Y-68799666D02*
X113808227Y-68791023D01*
X113808227Y-68791023D02*
X113814445Y-68783446D01*
X113814445Y-68783446D02*
X113822022Y-68777228D01*
X113822022Y-68777228D02*
X113830665Y-68772608D01*
X113830665Y-68772608D02*
X113840046Y-68769763D01*
X113840046Y-68769763D02*
X113849799Y-68768800D01*
X114999799Y-72128804D02*
X113849799Y-72128804D01*
X113849799Y-72128804D02*
X113840046Y-72127841D01*
X113840046Y-72127841D02*
X113830665Y-72124996D01*
X113830665Y-72124996D02*
X113822022Y-72120376D01*
X113822022Y-72120376D02*
X113814445Y-72114158D01*
X113814445Y-72114158D02*
X113808227Y-72106581D01*
X113808227Y-72106581D02*
X113803604Y-72097938D01*
X113803604Y-72097938D02*
X113800759Y-72088557D01*
X113800759Y-72088557D02*
X113799799Y-72078801D01*
X113799799Y-72078801D02*
X113799799Y-70598804D01*
X113799799Y-70598804D02*
X113800759Y-70589048D01*
X113800759Y-70589048D02*
X113803604Y-70579668D01*
X113803604Y-70579668D02*
X113808227Y-70571024D01*
X113808227Y-70571024D02*
X113814445Y-70563447D01*
X113814445Y-70563447D02*
X113822022Y-70557230D01*
X113822022Y-70557230D02*
X113830665Y-70552609D01*
X113830665Y-70552609D02*
X113840046Y-70549764D01*
X113840046Y-70549764D02*
X113849799Y-70548804D01*
X113849799Y-70548804D02*
X114999799Y-70548804D01*
X114999799Y-70548804D02*
X115009553Y-70549764D01*
X115009553Y-70549764D02*
X115018933Y-70552609D01*
X115018933Y-70552609D02*
X115027577Y-70557230D01*
X115027577Y-70557230D02*
X115035154Y-70563447D01*
X115035154Y-70563447D02*
X115041372Y-70571024D01*
X115041372Y-70571024D02*
X115045994Y-70579668D01*
X115045994Y-70579668D02*
X115048839Y-70589048D01*
X115048839Y-70589048D02*
X115049799Y-70598804D01*
X115049799Y-70598804D02*
X115049799Y-72078801D01*
X115049799Y-72078801D02*
X115048839Y-72088557D01*
X115048839Y-72088557D02*
X115045994Y-72097938D01*
X115045994Y-72097938D02*
X115041372Y-72106581D01*
X115041372Y-72106581D02*
X115035154Y-72114158D01*
X115035154Y-72114158D02*
X115027577Y-72120376D01*
X115027577Y-72120376D02*
X115018933Y-72124996D01*
X115018933Y-72124996D02*
X115009553Y-72127841D01*
X115009553Y-72127841D02*
X114999799Y-72128804D01*
X117899799Y-72128804D02*
X116749799Y-72128804D01*
X116749799Y-72128804D02*
X116740045Y-72127841D01*
X116740045Y-72127841D02*
X116730665Y-72124996D01*
X116730665Y-72124996D02*
X116722021Y-72120376D01*
X116722021Y-72120376D02*
X116714444Y-72114158D01*
X116714444Y-72114158D02*
X116708226Y-72106581D01*
X116708226Y-72106581D02*
X116703604Y-72097938D01*
X116703604Y-72097938D02*
X116700759Y-72088557D01*
X116700759Y-72088557D02*
X116699799Y-72078801D01*
X116699799Y-72078801D02*
X116699799Y-70598804D01*
X116699799Y-70598804D02*
X116700759Y-70589048D01*
X116700759Y-70589048D02*
X116703604Y-70579668D01*
X116703604Y-70579668D02*
X116708226Y-70571024D01*
X116708226Y-70571024D02*
X116714444Y-70563447D01*
X116714444Y-70563447D02*
X116722021Y-70557230D01*
X116722021Y-70557230D02*
X116730665Y-70552609D01*
X116730665Y-70552609D02*
X116740045Y-70549764D01*
X116740045Y-70549764D02*
X116749799Y-70548804D01*
X116749799Y-70548804D02*
X117899799Y-70548804D01*
X117899799Y-70548804D02*
X117909552Y-70549764D01*
X117909552Y-70549764D02*
X117918933Y-70552609D01*
X117918933Y-70552609D02*
X117927576Y-70557230D01*
X117927576Y-70557230D02*
X117935153Y-70563447D01*
X117935153Y-70563447D02*
X117941371Y-70571024D01*
X117941371Y-70571024D02*
X117945994Y-70579668D01*
X117945994Y-70579668D02*
X117948839Y-70589048D01*
X117948839Y-70589048D02*
X117949799Y-70598804D01*
X117949799Y-70598804D02*
X117949799Y-72078801D01*
X117949799Y-72078801D02*
X117948839Y-72088557D01*
X117948839Y-72088557D02*
X117945994Y-72097938D01*
X117945994Y-72097938D02*
X117941371Y-72106581D01*
X117941371Y-72106581D02*
X117935153Y-72114158D01*
X117935153Y-72114158D02*
X117927576Y-72120376D01*
X117927576Y-72120376D02*
X117918933Y-72124996D01*
X117918933Y-72124996D02*
X117909552Y-72127841D01*
X117909552Y-72127841D02*
X117899799Y-72128804D01*
X116749799Y-68768800D02*
X117899799Y-68768800D01*
X117899799Y-68768800D02*
X117909552Y-68769763D01*
X117909552Y-68769763D02*
X117918933Y-68772608D01*
X117918933Y-68772608D02*
X117927576Y-68777228D01*
X117927576Y-68777228D02*
X117935153Y-68783446D01*
X117935153Y-68783446D02*
X117941371Y-68791023D01*
X117941371Y-68791023D02*
X117945994Y-68799666D01*
X117945994Y-68799666D02*
X117948839Y-68809047D01*
X117948839Y-68809047D02*
X117949799Y-68818803D01*
X117949799Y-68818803D02*
X117949799Y-70298800D01*
X117949799Y-70298800D02*
X117948839Y-70308556D01*
X117948839Y-70308556D02*
X117945994Y-70317936D01*
X117945994Y-70317936D02*
X117941371Y-70326580D01*
X117941371Y-70326580D02*
X117935153Y-70334157D01*
X117935153Y-70334157D02*
X117927576Y-70340375D01*
X117927576Y-70340375D02*
X117918933Y-70344995D01*
X117918933Y-70344995D02*
X117909552Y-70347840D01*
X117909552Y-70347840D02*
X117899799Y-70348800D01*
X117899799Y-70348800D02*
X116749799Y-70348800D01*
X116749799Y-70348800D02*
X116740045Y-70347840D01*
X116740045Y-70347840D02*
X116730665Y-70344995D01*
X116730665Y-70344995D02*
X116722021Y-70340375D01*
X116722021Y-70340375D02*
X116714444Y-70334157D01*
X116714444Y-70334157D02*
X116708226Y-70326580D01*
X116708226Y-70326580D02*
X116703604Y-70317936D01*
X116703604Y-70317936D02*
X116700759Y-70308556D01*
X116700759Y-70308556D02*
X116699799Y-70298800D01*
X116699799Y-70298800D02*
X116699799Y-68818803D01*
X116699799Y-68818803D02*
X116700759Y-68809047D01*
X116700759Y-68809047D02*
X116703604Y-68799666D01*
X116703604Y-68799666D02*
X116708226Y-68791023D01*
X116708226Y-68791023D02*
X116714444Y-68783446D01*
X116714444Y-68783446D02*
X116722021Y-68777228D01*
X116722021Y-68777228D02*
X116730665Y-68772608D01*
X116730665Y-68772608D02*
X116740045Y-68769763D01*
X116740045Y-68769763D02*
X116749799Y-68768800D01*
X108653797Y-79943157D02*
X108653797Y-80969454D01*
X108653797Y-80969454D02*
X108652850Y-80979083D01*
X108652850Y-80979083D02*
X108650043Y-80988342D01*
X108650043Y-80988342D02*
X108645481Y-80996873D01*
X108645481Y-80996873D02*
X108639345Y-81004351D01*
X108639345Y-81004351D02*
X108631867Y-81010488D01*
X108631867Y-81010488D02*
X108623335Y-81015050D01*
X108623335Y-81015050D02*
X108614077Y-81017856D01*
X108614077Y-81017856D02*
X108604448Y-81018806D01*
X108604448Y-81018806D02*
X107998150Y-81018806D01*
X107998150Y-81018806D02*
X107988521Y-81017856D01*
X107988521Y-81017856D02*
X107979262Y-81015050D01*
X107979262Y-81015050D02*
X107970730Y-81010488D01*
X107970730Y-81010488D02*
X107963253Y-81004351D01*
X107963253Y-81004351D02*
X107957116Y-80996873D01*
X107957116Y-80996873D02*
X107952554Y-80988342D01*
X107952554Y-80988342D02*
X107949748Y-80979083D01*
X107949748Y-80979083D02*
X107948798Y-80969454D01*
X107948798Y-80969454D02*
X107948798Y-79943157D01*
X107948798Y-79943157D02*
X107949748Y-79933528D01*
X107949748Y-79933528D02*
X107952554Y-79924269D01*
X107952554Y-79924269D02*
X107957116Y-79915738D01*
X107957116Y-79915738D02*
X107963253Y-79908260D01*
X107963253Y-79908260D02*
X107970730Y-79902123D01*
X107970730Y-79902123D02*
X107979262Y-79897561D01*
X107979262Y-79897561D02*
X107988521Y-79894755D01*
X107988521Y-79894755D02*
X107998150Y-79893807D01*
X107998150Y-79893807D02*
X108604448Y-79893807D01*
X108604448Y-79893807D02*
X108614077Y-79894755D01*
X108614077Y-79894755D02*
X108623335Y-79897561D01*
X108623335Y-79897561D02*
X108631867Y-79902123D01*
X108631867Y-79902123D02*
X108639345Y-79908260D01*
X108639345Y-79908260D02*
X108645481Y-79915738D01*
X108645481Y-79915738D02*
X108650043Y-79924269D01*
X108650043Y-79924269D02*
X108652850Y-79933528D01*
X108652850Y-79933528D02*
X108653797Y-79943157D01*
X108653797Y-81268153D02*
X108653797Y-82294450D01*
X108653797Y-82294450D02*
X108652850Y-82304079D01*
X108652850Y-82304079D02*
X108650043Y-82313338D01*
X108650043Y-82313338D02*
X108645481Y-82321869D01*
X108645481Y-82321869D02*
X108639345Y-82329347D01*
X108639345Y-82329347D02*
X108631867Y-82335484D01*
X108631867Y-82335484D02*
X108623335Y-82340046D01*
X108623335Y-82340046D02*
X108614077Y-82342852D01*
X108614077Y-82342852D02*
X108604448Y-82343800D01*
X108604448Y-82343800D02*
X107998150Y-82343800D01*
X107998150Y-82343800D02*
X107988521Y-82342852D01*
X107988521Y-82342852D02*
X107979262Y-82340046D01*
X107979262Y-82340046D02*
X107970730Y-82335484D01*
X107970730Y-82335484D02*
X107963253Y-82329347D01*
X107963253Y-82329347D02*
X107957116Y-82321869D01*
X107957116Y-82321869D02*
X107952554Y-82313338D01*
X107952554Y-82313338D02*
X107949748Y-82304079D01*
X107949748Y-82304079D02*
X107948798Y-82294450D01*
X107948798Y-82294450D02*
X107948798Y-81268153D01*
X107948798Y-81268153D02*
X107949748Y-81258524D01*
X107949748Y-81258524D02*
X107952554Y-81249266D01*
X107952554Y-81249266D02*
X107957116Y-81240734D01*
X107957116Y-81240734D02*
X107963253Y-81233256D01*
X107963253Y-81233256D02*
X107970730Y-81227119D01*
X107970730Y-81227119D02*
X107979262Y-81222557D01*
X107979262Y-81222557D02*
X107988521Y-81219751D01*
X107988521Y-81219751D02*
X107998150Y-81218801D01*
X107998150Y-81218801D02*
X108604448Y-81218801D01*
X108604448Y-81218801D02*
X108614077Y-81219751D01*
X108614077Y-81219751D02*
X108623335Y-81222557D01*
X108623335Y-81222557D02*
X108631867Y-81227119D01*
X108631867Y-81227119D02*
X108639345Y-81233256D01*
X108639345Y-81233256D02*
X108645481Y-81240734D01*
X108645481Y-81240734D02*
X108650043Y-81249266D01*
X108650043Y-81249266D02*
X108652850Y-81258524D01*
X108652850Y-81258524D02*
X108653797Y-81268153D01*
X108853797Y-82294450D02*
X108853797Y-81268153D01*
X108853797Y-81268153D02*
X108854747Y-81258524D01*
X108854747Y-81258524D02*
X108857554Y-81249266D01*
X108857554Y-81249266D02*
X108862116Y-81240734D01*
X108862116Y-81240734D02*
X108868252Y-81233256D01*
X108868252Y-81233256D02*
X108875730Y-81227119D01*
X108875730Y-81227119D02*
X108884262Y-81222557D01*
X108884262Y-81222557D02*
X108893520Y-81219751D01*
X108893520Y-81219751D02*
X108903149Y-81218801D01*
X108903149Y-81218801D02*
X109509447Y-81218801D01*
X109509447Y-81218801D02*
X109519076Y-81219751D01*
X109519076Y-81219751D02*
X109528335Y-81222557D01*
X109528335Y-81222557D02*
X109536867Y-81227119D01*
X109536867Y-81227119D02*
X109544344Y-81233256D01*
X109544344Y-81233256D02*
X109550481Y-81240734D01*
X109550481Y-81240734D02*
X109555043Y-81249266D01*
X109555043Y-81249266D02*
X109557849Y-81258524D01*
X109557849Y-81258524D02*
X109558797Y-81268153D01*
X109558797Y-81268153D02*
X109558797Y-82294450D01*
X109558797Y-82294450D02*
X109557849Y-82304079D01*
X109557849Y-82304079D02*
X109555043Y-82313338D01*
X109555043Y-82313338D02*
X109550481Y-82321869D01*
X109550481Y-82321869D02*
X109544344Y-82329347D01*
X109544344Y-82329347D02*
X109536867Y-82335484D01*
X109536867Y-82335484D02*
X109528335Y-82340046D01*
X109528335Y-82340046D02*
X109519076Y-82342852D01*
X109519076Y-82342852D02*
X109509447Y-82343800D01*
X109509447Y-82343800D02*
X108903149Y-82343800D01*
X108903149Y-82343800D02*
X108893520Y-82342852D01*
X108893520Y-82342852D02*
X108884262Y-82340046D01*
X108884262Y-82340046D02*
X108875730Y-82335484D01*
X108875730Y-82335484D02*
X108868252Y-82329347D01*
X108868252Y-82329347D02*
X108862116Y-82321869D01*
X108862116Y-82321869D02*
X108857554Y-82313338D01*
X108857554Y-82313338D02*
X108854747Y-82304079D01*
X108854747Y-82304079D02*
X108853797Y-82294450D01*
X108853797Y-80969454D02*
X108853797Y-79943157D01*
X108853797Y-79943157D02*
X108854747Y-79933528D01*
X108854747Y-79933528D02*
X108857554Y-79924269D01*
X108857554Y-79924269D02*
X108862116Y-79915738D01*
X108862116Y-79915738D02*
X108868252Y-79908260D01*
X108868252Y-79908260D02*
X108875730Y-79902123D01*
X108875730Y-79902123D02*
X108884262Y-79897561D01*
X108884262Y-79897561D02*
X108893520Y-79894755D01*
X108893520Y-79894755D02*
X108903149Y-79893807D01*
X108903149Y-79893807D02*
X109509447Y-79893807D01*
X109509447Y-79893807D02*
X109519076Y-79894755D01*
X109519076Y-79894755D02*
X109528335Y-79897561D01*
X109528335Y-79897561D02*
X109536867Y-79902123D01*
X109536867Y-79902123D02*
X109544344Y-79908260D01*
X109544344Y-79908260D02*
X109550481Y-79915738D01*
X109550481Y-79915738D02*
X109555043Y-79924269D01*
X109555043Y-79924269D02*
X109557849Y-79933528D01*
X109557849Y-79933528D02*
X109558797Y-79943157D01*
X109558797Y-79943157D02*
X109558797Y-80969454D01*
X109558797Y-80969454D02*
X109557849Y-80979083D01*
X109557849Y-80979083D02*
X109555043Y-80988342D01*
X109555043Y-80988342D02*
X109550481Y-80996873D01*
X109550481Y-80996873D02*
X109544344Y-81004351D01*
X109544344Y-81004351D02*
X109536867Y-81010488D01*
X109536867Y-81010488D02*
X109528335Y-81015050D01*
X109528335Y-81015050D02*
X109519076Y-81017856D01*
X109519076Y-81017856D02*
X109509447Y-81018806D01*
X109509447Y-81018806D02*
X108903149Y-81018806D01*
X108903149Y-81018806D02*
X108893520Y-81017856D01*
X108893520Y-81017856D02*
X108884262Y-81015050D01*
X108884262Y-81015050D02*
X108875730Y-81010488D01*
X108875730Y-81010488D02*
X108868252Y-81004351D01*
X108868252Y-81004351D02*
X108862116Y-80996873D01*
X108862116Y-80996873D02*
X108857554Y-80988342D01*
X108857554Y-80988342D02*
X108854747Y-80979083D01*
X108854747Y-80979083D02*
X108853797Y-80969454D01*
X104295800Y-74523800D02*
X104345800Y-74473800D01*
X104295800Y-75198800D02*
X104295800Y-74523800D01*
X104345800Y-75248800D02*
X104295800Y-75198800D01*
X104820798Y-75248800D02*
X104345800Y-75248800D01*
X104870798Y-75198800D02*
X104820798Y-75248800D01*
X104870800Y-74898801D02*
X104870798Y-75198800D01*
X104820798Y-74848801D02*
X104870800Y-74898801D01*
X104520798Y-74848801D02*
X104820798Y-74848801D01*
X104520798Y-74523800D02*
X104520798Y-74848801D01*
X104470798Y-74473800D02*
X104520798Y-74523800D01*
X104345800Y-74473800D02*
X104470798Y-74473800D01*
X104470798Y-78873802D02*
X104345800Y-78873802D01*
X104520798Y-78823802D02*
X104470798Y-78873802D01*
X104520798Y-78498801D02*
X104520798Y-78823802D01*
X104820798Y-78498801D02*
X104520798Y-78498801D01*
X104870800Y-78448801D02*
X104820798Y-78498801D01*
X104870798Y-78148802D02*
X104870800Y-78448801D01*
X104820798Y-78098799D02*
X104870798Y-78148802D01*
X104345800Y-78098802D02*
X104820798Y-78098799D01*
X104295798Y-78148802D02*
X104345800Y-78098802D01*
X104295798Y-78823802D02*
X104295798Y-78148802D01*
X104345800Y-78873799D02*
X104295798Y-78823802D01*
X104345800Y-78873802D02*
X104345800Y-78873799D01*
X101321800Y-74523800D02*
X101371798Y-74473800D01*
X101321798Y-74823802D02*
X101321800Y-74523800D01*
X101021798Y-74823802D02*
X101321798Y-74823802D01*
X100971799Y-74873802D02*
X101021798Y-74823802D01*
X100971799Y-75123802D02*
X100971799Y-74873802D01*
X101021798Y-75173801D02*
X100971799Y-75123802D01*
X101496799Y-75173801D02*
X101021798Y-75173801D01*
X101546799Y-75123802D02*
X101496799Y-75173801D01*
X101546799Y-74523800D02*
X101546799Y-75123802D01*
X101496799Y-74473800D02*
X101546799Y-74523800D01*
X101371798Y-74473800D02*
X101496799Y-74473800D01*
X101496799Y-78873802D02*
X101371798Y-78873802D01*
X101546801Y-78823802D02*
X101496799Y-78873802D01*
X101546799Y-78223800D02*
X101546801Y-78823802D01*
X101496799Y-78173801D02*
X101546799Y-78223800D01*
X101021798Y-78173801D02*
X101496799Y-78173801D01*
X100971799Y-78223800D02*
X101021798Y-78173801D01*
X100971799Y-78473800D02*
X100971799Y-78223800D01*
X101021798Y-78523800D02*
X100971799Y-78473800D01*
X101321798Y-78523800D02*
X101021798Y-78523800D01*
X101321800Y-78823802D02*
X101321798Y-78523800D01*
X101371798Y-78873802D02*
X101321800Y-78823802D01*
G36*
G01*
X49587500Y-108475000D02*
X49587500Y-107225000D01*
G75*
G02*
X49837500Y-106975000I250000J0D01*
G01*
X50762500Y-106975000D01*
G75*
G02*
X51012500Y-107225000I0J-250000D01*
G01*
X51012500Y-108475000D01*
G75*
G02*
X50762500Y-108725000I-250000J0D01*
G01*
X49837500Y-108725000D01*
G75*
G02*
X49587500Y-108475000I0J250000D01*
G01*
G37*
G36*
G01*
X46612500Y-108475000D02*
X46612500Y-107225000D01*
G75*
G02*
X46862500Y-106975000I250000J0D01*
G01*
X47787500Y-106975000D01*
G75*
G02*
X48037500Y-107225000I0J-250000D01*
G01*
X48037500Y-108475000D01*
G75*
G02*
X47787500Y-108725000I-250000J0D01*
G01*
X46862500Y-108725000D01*
G75*
G02*
X46612500Y-108475000I0J250000D01*
G01*
G37*
D11*
X77694500Y-110261400D03*
X77044499Y-110261400D03*
X76394500Y-110261400D03*
X75744499Y-110261400D03*
X75094501Y-110261400D03*
X74444499Y-110261400D03*
X73794501Y-110261400D03*
X73144499Y-110261400D03*
X72494501Y-110261400D03*
X71844499Y-110261400D03*
X71194501Y-110261400D03*
X70544500Y-110261400D03*
X69894501Y-110261400D03*
X69244500Y-110261400D03*
X69244502Y-104622600D03*
X69894501Y-104622600D03*
X70544502Y-104622600D03*
X71194501Y-104622600D03*
X71844502Y-104622600D03*
X72494501Y-104622600D03*
X73144502Y-104622600D03*
X73794501Y-104622600D03*
X74444499Y-104622600D03*
X75094501Y-104622600D03*
X75744499Y-104622600D03*
X76394500Y-104622600D03*
X77044499Y-104622600D03*
X77694500Y-104622600D03*
D12*
X63723312Y-159013939D03*
D13*
X64277999Y-159252999D03*
D14*
X64778001Y-159190500D03*
X65278000Y-159190500D03*
X65777999Y-159190500D03*
D13*
X66278001Y-159252999D03*
D15*
X66831688Y-159013939D03*
D16*
X66915500Y-158477999D03*
X66915500Y-157978000D03*
X66915500Y-157478001D03*
X66915500Y-156728000D03*
X66915500Y-156228001D03*
D17*
X67083249Y-155709249D03*
D13*
X66278001Y-155453001D03*
D14*
X65777999Y-155515500D03*
X65278000Y-155515500D03*
X64778001Y-155515500D03*
D13*
X64277999Y-155453001D03*
D18*
X63687376Y-155712376D03*
D19*
X63665499Y-156303000D03*
D20*
X63628001Y-157103000D03*
X63628001Y-157603000D03*
D19*
X63665499Y-158403000D03*
D21*
X65278000Y-157978000D03*
X65278000Y-157353000D03*
X65278000Y-156728000D03*
G36*
G01*
X65962500Y-168011000D02*
X65962500Y-166761000D01*
G75*
G02*
X66212500Y-166511000I250000J0D01*
G01*
X67137500Y-166511000D01*
G75*
G02*
X67387500Y-166761000I0J-250000D01*
G01*
X67387500Y-168011000D01*
G75*
G02*
X67137500Y-168261000I-250000J0D01*
G01*
X66212500Y-168261000D01*
G75*
G02*
X65962500Y-168011000I0J250000D01*
G01*
G37*
G36*
G01*
X62987500Y-168011000D02*
X62987500Y-166761000D01*
G75*
G02*
X63237500Y-166511000I250000J0D01*
G01*
X64162500Y-166511000D01*
G75*
G02*
X64412500Y-166761000I0J-250000D01*
G01*
X64412500Y-168011000D01*
G75*
G02*
X64162500Y-168261000I-250000J0D01*
G01*
X63237500Y-168261000D01*
G75*
G02*
X62987500Y-168011000I0J250000D01*
G01*
G37*
G36*
G01*
X65926000Y-165598000D02*
X65926000Y-164348000D01*
G75*
G02*
X66176000Y-164098000I250000J0D01*
G01*
X67101000Y-164098000D01*
G75*
G02*
X67351000Y-164348000I0J-250000D01*
G01*
X67351000Y-165598000D01*
G75*
G02*
X67101000Y-165848000I-250000J0D01*
G01*
X66176000Y-165848000D01*
G75*
G02*
X65926000Y-165598000I0J250000D01*
G01*
G37*
G36*
G01*
X62951000Y-165598000D02*
X62951000Y-164348000D01*
G75*
G02*
X63201000Y-164098000I250000J0D01*
G01*
X64126000Y-164098000D01*
G75*
G02*
X64376000Y-164348000I0J-250000D01*
G01*
X64376000Y-165598000D01*
G75*
G02*
X64126000Y-165848000I-250000J0D01*
G01*
X63201000Y-165848000D01*
G75*
G02*
X62951000Y-165598000I0J250000D01*
G01*
G37*
G36*
G01*
X62914500Y-163185000D02*
X62914500Y-161935000D01*
G75*
G02*
X63164500Y-161685000I250000J0D01*
G01*
X64089500Y-161685000D01*
G75*
G02*
X64339500Y-161935000I0J-250000D01*
G01*
X64339500Y-163185000D01*
G75*
G02*
X64089500Y-163435000I-250000J0D01*
G01*
X63164500Y-163435000D01*
G75*
G02*
X62914500Y-163185000I0J250000D01*
G01*
G37*
G36*
G01*
X65889500Y-163185000D02*
X65889500Y-161935000D01*
G75*
G02*
X66139500Y-161685000I250000J0D01*
G01*
X67064500Y-161685000D01*
G75*
G02*
X67314500Y-161935000I0J-250000D01*
G01*
X67314500Y-163185000D01*
G75*
G02*
X67064500Y-163435000I-250000J0D01*
G01*
X66139500Y-163435000D01*
G75*
G02*
X65889500Y-163185000I0J250000D01*
G01*
G37*
G36*
G01*
X57617000Y-159248000D02*
X57617000Y-157998000D01*
G75*
G02*
X57867000Y-157748000I250000J0D01*
G01*
X58792000Y-157748000D01*
G75*
G02*
X59042000Y-157998000I0J-250000D01*
G01*
X59042000Y-159248000D01*
G75*
G02*
X58792000Y-159498000I-250000J0D01*
G01*
X57867000Y-159498000D01*
G75*
G02*
X57617000Y-159248000I0J250000D01*
G01*
G37*
G36*
G01*
X60592000Y-159248000D02*
X60592000Y-157998000D01*
G75*
G02*
X60842000Y-157748000I250000J0D01*
G01*
X61767000Y-157748000D01*
G75*
G02*
X62017000Y-157998000I0J-250000D01*
G01*
X62017000Y-159248000D01*
G75*
G02*
X61767000Y-159498000I-250000J0D01*
G01*
X60842000Y-159498000D01*
G75*
G02*
X60592000Y-159248000I0J250000D01*
G01*
G37*
G36*
G01*
X63998000Y-150482000D02*
X62748000Y-150482000D01*
G75*
G02*
X62498000Y-150232000I0J250000D01*
G01*
X62498000Y-149307000D01*
G75*
G02*
X62748000Y-149057000I250000J0D01*
G01*
X63998000Y-149057000D01*
G75*
G02*
X64248000Y-149307000I0J-250000D01*
G01*
X64248000Y-150232000D01*
G75*
G02*
X63998000Y-150482000I-250000J0D01*
G01*
G37*
G36*
G01*
X63998000Y-153457000D02*
X62748000Y-153457000D01*
G75*
G02*
X62498000Y-153207000I0J250000D01*
G01*
X62498000Y-152282000D01*
G75*
G02*
X62748000Y-152032000I250000J0D01*
G01*
X63998000Y-152032000D01*
G75*
G02*
X64248000Y-152282000I0J-250000D01*
G01*
X64248000Y-153207000D01*
G75*
G02*
X63998000Y-153457000I-250000J0D01*
G01*
G37*
G36*
G01*
X62688500Y-155331000D02*
X62688500Y-156581000D01*
G75*
G02*
X62438500Y-156831000I-250000J0D01*
G01*
X61513500Y-156831000D01*
G75*
G02*
X61263500Y-156581000I0J250000D01*
G01*
X61263500Y-155331000D01*
G75*
G02*
X61513500Y-155081000I250000J0D01*
G01*
X62438500Y-155081000D01*
G75*
G02*
X62688500Y-155331000I0J-250000D01*
G01*
G37*
G36*
G01*
X59713500Y-155331000D02*
X59713500Y-156581000D01*
G75*
G02*
X59463500Y-156831000I-250000J0D01*
G01*
X58538500Y-156831000D01*
G75*
G02*
X58288500Y-156581000I0J250000D01*
G01*
X58288500Y-155331000D01*
G75*
G02*
X58538500Y-155081000I250000J0D01*
G01*
X59463500Y-155081000D01*
G75*
G02*
X59713500Y-155331000I0J-250000D01*
G01*
G37*
G36*
G01*
X70988500Y-160137000D02*
X70988500Y-158887000D01*
G75*
G02*
X71238500Y-158637000I250000J0D01*
G01*
X72163500Y-158637000D01*
G75*
G02*
X72413500Y-158887000I0J-250000D01*
G01*
X72413500Y-160137000D01*
G75*
G02*
X72163500Y-160387000I-250000J0D01*
G01*
X71238500Y-160387000D01*
G75*
G02*
X70988500Y-160137000I0J250000D01*
G01*
G37*
G36*
G01*
X73963500Y-160137000D02*
X73963500Y-158887000D01*
G75*
G02*
X74213500Y-158637000I250000J0D01*
G01*
X75138500Y-158637000D01*
G75*
G02*
X75388500Y-158887000I0J-250000D01*
G01*
X75388500Y-160137000D01*
G75*
G02*
X75138500Y-160387000I-250000J0D01*
G01*
X74213500Y-160387000D01*
G75*
G02*
X73963500Y-160137000I0J250000D01*
G01*
G37*
G36*
G01*
X73963500Y-162550000D02*
X73963500Y-161300000D01*
G75*
G02*
X74213500Y-161050000I250000J0D01*
G01*
X75138500Y-161050000D01*
G75*
G02*
X75388500Y-161300000I0J-250000D01*
G01*
X75388500Y-162550000D01*
G75*
G02*
X75138500Y-162800000I-250000J0D01*
G01*
X74213500Y-162800000D01*
G75*
G02*
X73963500Y-162550000I0J250000D01*
G01*
G37*
G36*
G01*
X70988500Y-162550000D02*
X70988500Y-161300000D01*
G75*
G02*
X71238500Y-161050000I250000J0D01*
G01*
X72163500Y-161050000D01*
G75*
G02*
X72413500Y-161300000I0J-250000D01*
G01*
X72413500Y-162550000D01*
G75*
G02*
X72163500Y-162800000I-250000J0D01*
G01*
X71238500Y-162800000D01*
G75*
G02*
X70988500Y-162550000I0J250000D01*
G01*
G37*
G36*
G01*
X65669000Y-148966500D02*
X66919000Y-148966500D01*
G75*
G02*
X67169000Y-149216500I0J-250000D01*
G01*
X67169000Y-150141500D01*
G75*
G02*
X66919000Y-150391500I-250000J0D01*
G01*
X65669000Y-150391500D01*
G75*
G02*
X65419000Y-150141500I0J250000D01*
G01*
X65419000Y-149216500D01*
G75*
G02*
X65669000Y-148966500I250000J0D01*
G01*
G37*
G36*
G01*
X65669000Y-151941500D02*
X66919000Y-151941500D01*
G75*
G02*
X67169000Y-152191500I0J-250000D01*
G01*
X67169000Y-153116500D01*
G75*
G02*
X66919000Y-153366500I-250000J0D01*
G01*
X65669000Y-153366500D01*
G75*
G02*
X65419000Y-153116500I0J250000D01*
G01*
X65419000Y-152191500D01*
G75*
G02*
X65669000Y-151941500I250000J0D01*
G01*
G37*
G36*
G01*
X70952000Y-164963000D02*
X70952000Y-163713000D01*
G75*
G02*
X71202000Y-163463000I250000J0D01*
G01*
X72127000Y-163463000D01*
G75*
G02*
X72377000Y-163713000I0J-250000D01*
G01*
X72377000Y-164963000D01*
G75*
G02*
X72127000Y-165213000I-250000J0D01*
G01*
X71202000Y-165213000D01*
G75*
G02*
X70952000Y-164963000I0J250000D01*
G01*
G37*
G36*
G01*
X73927000Y-164963000D02*
X73927000Y-163713000D01*
G75*
G02*
X74177000Y-163463000I250000J0D01*
G01*
X75102000Y-163463000D01*
G75*
G02*
X75352000Y-163713000I0J-250000D01*
G01*
X75352000Y-164963000D01*
G75*
G02*
X75102000Y-165213000I-250000J0D01*
G01*
X74177000Y-165213000D01*
G75*
G02*
X73927000Y-164963000I0J250000D01*
G01*
G37*
G36*
G01*
X68717000Y-161684000D02*
X69967000Y-161684000D01*
G75*
G02*
X70217000Y-161934000I0J-250000D01*
G01*
X70217000Y-162859000D01*
G75*
G02*
X69967000Y-163109000I-250000J0D01*
G01*
X68717000Y-163109000D01*
G75*
G02*
X68467000Y-162859000I0J250000D01*
G01*
X68467000Y-161934000D01*
G75*
G02*
X68717000Y-161684000I250000J0D01*
G01*
G37*
G36*
G01*
X68717000Y-158709000D02*
X69967000Y-158709000D01*
G75*
G02*
X70217000Y-158959000I0J-250000D01*
G01*
X70217000Y-159884000D01*
G75*
G02*
X69967000Y-160134000I-250000J0D01*
G01*
X68717000Y-160134000D01*
G75*
G02*
X68467000Y-159884000I0J250000D01*
G01*
X68467000Y-158959000D01*
G75*
G02*
X68717000Y-158709000I250000J0D01*
G01*
G37*
G36*
G01*
X42840000Y-163459000D02*
X42840000Y-164709000D01*
G75*
G02*
X42590000Y-164959000I-250000J0D01*
G01*
X41665000Y-164959000D01*
G75*
G02*
X41415000Y-164709000I0J250000D01*
G01*
X41415000Y-163459000D01*
G75*
G02*
X41665000Y-163209000I250000J0D01*
G01*
X42590000Y-163209000D01*
G75*
G02*
X42840000Y-163459000I0J-250000D01*
G01*
G37*
G36*
G01*
X39865000Y-163459000D02*
X39865000Y-164709000D01*
G75*
G02*
X39615000Y-164959000I-250000J0D01*
G01*
X38690000Y-164959000D01*
G75*
G02*
X38440000Y-164709000I0J250000D01*
G01*
X38440000Y-163459000D01*
G75*
G02*
X38690000Y-163209000I250000J0D01*
G01*
X39615000Y-163209000D01*
G75*
G02*
X39865000Y-163459000I0J-250000D01*
G01*
G37*
G36*
G01*
X72761000Y-146708500D02*
X71511000Y-146708500D01*
G75*
G02*
X71261000Y-146458500I0J250000D01*
G01*
X71261000Y-145533500D01*
G75*
G02*
X71511000Y-145283500I250000J0D01*
G01*
X72761000Y-145283500D01*
G75*
G02*
X73011000Y-145533500I0J-250000D01*
G01*
X73011000Y-146458500D01*
G75*
G02*
X72761000Y-146708500I-250000J0D01*
G01*
G37*
G36*
G01*
X72761000Y-149683500D02*
X71511000Y-149683500D01*
G75*
G02*
X71261000Y-149433500I0J250000D01*
G01*
X71261000Y-148508500D01*
G75*
G02*
X71511000Y-148258500I250000J0D01*
G01*
X72761000Y-148258500D01*
G75*
G02*
X73011000Y-148508500I0J-250000D01*
G01*
X73011000Y-149433500D01*
G75*
G02*
X72761000Y-149683500I-250000J0D01*
G01*
G37*
D22*
X29946301Y-148209000D03*
D23*
X52021299Y-143134001D03*
X52021299Y-153283999D03*
G36*
G01*
X47420500Y-173599000D02*
X47420500Y-172349000D01*
G75*
G02*
X47670500Y-172099000I250000J0D01*
G01*
X48595500Y-172099000D01*
G75*
G02*
X48845500Y-172349000I0J-250000D01*
G01*
X48845500Y-173599000D01*
G75*
G02*
X48595500Y-173849000I-250000J0D01*
G01*
X47670500Y-173849000D01*
G75*
G02*
X47420500Y-173599000I0J250000D01*
G01*
G37*
G36*
G01*
X50395500Y-173599000D02*
X50395500Y-172349000D01*
G75*
G02*
X50645500Y-172099000I250000J0D01*
G01*
X51570500Y-172099000D01*
G75*
G02*
X51820500Y-172349000I0J-250000D01*
G01*
X51820500Y-173599000D01*
G75*
G02*
X51570500Y-173849000I-250000J0D01*
G01*
X50645500Y-173849000D01*
G75*
G02*
X50395500Y-173599000I0J250000D01*
G01*
G37*
G36*
G01*
X48845500Y-175143000D02*
X48845500Y-176393000D01*
G75*
G02*
X48595500Y-176643000I-250000J0D01*
G01*
X47670500Y-176643000D01*
G75*
G02*
X47420500Y-176393000I0J250000D01*
G01*
X47420500Y-175143000D01*
G75*
G02*
X47670500Y-174893000I250000J0D01*
G01*
X48595500Y-174893000D01*
G75*
G02*
X48845500Y-175143000I0J-250000D01*
G01*
G37*
G36*
G01*
X51820500Y-175143000D02*
X51820500Y-176393000D01*
G75*
G02*
X51570500Y-176643000I-250000J0D01*
G01*
X50645500Y-176643000D01*
G75*
G02*
X50395500Y-176393000I0J250000D01*
G01*
X50395500Y-175143000D01*
G75*
G02*
X50645500Y-174893000I250000J0D01*
G01*
X51570500Y-174893000D01*
G75*
G02*
X51820500Y-175143000I0J-250000D01*
G01*
G37*
G36*
G01*
X43307500Y-167738999D02*
X43307500Y-170589001D01*
G75*
G02*
X43057501Y-170839000I-249999J0D01*
G01*
X42032499Y-170839000D01*
G75*
G02*
X41782500Y-170589001I0J249999D01*
G01*
X41782500Y-167738999D01*
G75*
G02*
X42032499Y-167489000I249999J0D01*
G01*
X43057501Y-167489000D01*
G75*
G02*
X43307500Y-167738999I0J-249999D01*
G01*
G37*
G36*
G01*
X49282500Y-167738999D02*
X49282500Y-170589001D01*
G75*
G02*
X49032501Y-170839000I-249999J0D01*
G01*
X48007499Y-170839000D01*
G75*
G02*
X47757500Y-170589001I0J249999D01*
G01*
X47757500Y-167738999D01*
G75*
G02*
X48007499Y-167489000I249999J0D01*
G01*
X49032501Y-167489000D01*
G75*
G02*
X49282500Y-167738999I0J-249999D01*
G01*
G37*
G36*
G01*
X62779000Y-136027000D02*
X62779000Y-137277000D01*
G75*
G02*
X62529000Y-137527000I-250000J0D01*
G01*
X61604000Y-137527000D01*
G75*
G02*
X61354000Y-137277000I0J250000D01*
G01*
X61354000Y-136027000D01*
G75*
G02*
X61604000Y-135777000I250000J0D01*
G01*
X62529000Y-135777000D01*
G75*
G02*
X62779000Y-136027000I0J-250000D01*
G01*
G37*
G36*
G01*
X59804000Y-136027000D02*
X59804000Y-137277000D01*
G75*
G02*
X59554000Y-137527000I-250000J0D01*
G01*
X58629000Y-137527000D01*
G75*
G02*
X58379000Y-137277000I0J250000D01*
G01*
X58379000Y-136027000D01*
G75*
G02*
X58629000Y-135777000I250000J0D01*
G01*
X59554000Y-135777000D01*
G75*
G02*
X59804000Y-136027000I0J-250000D01*
G01*
G37*
G36*
G01*
X64520500Y-144282000D02*
X64520500Y-145532000D01*
G75*
G02*
X64270500Y-145782000I-250000J0D01*
G01*
X63345500Y-145782000D01*
G75*
G02*
X63095500Y-145532000I0J250000D01*
G01*
X63095500Y-144282000D01*
G75*
G02*
X63345500Y-144032000I250000J0D01*
G01*
X64270500Y-144032000D01*
G75*
G02*
X64520500Y-144282000I0J-250000D01*
G01*
G37*
G36*
G01*
X61545500Y-144282000D02*
X61545500Y-145532000D01*
G75*
G02*
X61295500Y-145782000I-250000J0D01*
G01*
X60370500Y-145782000D01*
G75*
G02*
X60120500Y-145532000I0J250000D01*
G01*
X60120500Y-144282000D01*
G75*
G02*
X60370500Y-144032000I250000J0D01*
G01*
X61295500Y-144032000D01*
G75*
G02*
X61545500Y-144282000I0J-250000D01*
G01*
G37*
G36*
G01*
X68810500Y-141849000D02*
X68810500Y-140599000D01*
G75*
G02*
X69060500Y-140349000I250000J0D01*
G01*
X69985500Y-140349000D01*
G75*
G02*
X70235500Y-140599000I0J-250000D01*
G01*
X70235500Y-141849000D01*
G75*
G02*
X69985500Y-142099000I-250000J0D01*
G01*
X69060500Y-142099000D01*
G75*
G02*
X68810500Y-141849000I0J250000D01*
G01*
G37*
G36*
G01*
X65835500Y-141849000D02*
X65835500Y-140599000D01*
G75*
G02*
X66085500Y-140349000I250000J0D01*
G01*
X67010500Y-140349000D01*
G75*
G02*
X67260500Y-140599000I0J-250000D01*
G01*
X67260500Y-141849000D01*
G75*
G02*
X67010500Y-142099000I-250000J0D01*
G01*
X66085500Y-142099000D01*
G75*
G02*
X65835500Y-141849000I0J250000D01*
G01*
G37*
G36*
G01*
X62968500Y-134356000D02*
X62968500Y-133106000D01*
G75*
G02*
X63218500Y-132856000I250000J0D01*
G01*
X64143500Y-132856000D01*
G75*
G02*
X64393500Y-133106000I0J-250000D01*
G01*
X64393500Y-134356000D01*
G75*
G02*
X64143500Y-134606000I-250000J0D01*
G01*
X63218500Y-134606000D01*
G75*
G02*
X62968500Y-134356000I0J250000D01*
G01*
G37*
G36*
G01*
X59993500Y-134356000D02*
X59993500Y-133106000D01*
G75*
G02*
X60243500Y-132856000I250000J0D01*
G01*
X61168500Y-132856000D01*
G75*
G02*
X61418500Y-133106000I0J-250000D01*
G01*
X61418500Y-134356000D01*
G75*
G02*
X61168500Y-134606000I-250000J0D01*
G01*
X60243500Y-134606000D01*
G75*
G02*
X59993500Y-134356000I0J250000D01*
G01*
G37*
G36*
G01*
X70165000Y-154784999D02*
X70165000Y-157635001D01*
G75*
G02*
X69915001Y-157885000I-249999J0D01*
G01*
X68889999Y-157885000D01*
G75*
G02*
X68640000Y-157635001I0J249999D01*
G01*
X68640000Y-154784999D01*
G75*
G02*
X68889999Y-154535000I249999J0D01*
G01*
X69915001Y-154535000D01*
G75*
G02*
X70165000Y-154784999I0J-249999D01*
G01*
G37*
G36*
G01*
X76140000Y-154784999D02*
X76140000Y-157635001D01*
G75*
G02*
X75890001Y-157885000I-249999J0D01*
G01*
X74864999Y-157885000D01*
G75*
G02*
X74615000Y-157635001I0J249999D01*
G01*
X74615000Y-154784999D01*
G75*
G02*
X74864999Y-154535000I249999J0D01*
G01*
X75890001Y-154535000D01*
G75*
G02*
X76140000Y-154784999I0J-249999D01*
G01*
G37*
D24*
X58305700Y-139446000D03*
X57010300Y-139941300D03*
X57010300Y-138950700D03*
D25*
X52324000Y-164073002D03*
D26*
X54229000Y-165863001D03*
X52959000Y-165863001D03*
X51689000Y-165863001D03*
X50419000Y-165863001D03*
X50419000Y-160272999D03*
X51689000Y-160272999D03*
X52959000Y-160272999D03*
X54229000Y-160272999D03*
D27*
X61239999Y-153883002D03*
X61239999Y-153233001D03*
X61239999Y-152583002D03*
X61239999Y-151933001D03*
X58140001Y-151933001D03*
X58140001Y-152582999D03*
X58140001Y-153233001D03*
X58140001Y-153882999D03*
D28*
X59045000Y-152908000D03*
D29*
X47085250Y-164022999D03*
X47085250Y-164973000D03*
X47085250Y-165923001D03*
X44354750Y-165923001D03*
X44354750Y-164973000D03*
X44354750Y-164022999D03*
X72040750Y-151195999D03*
X72040750Y-152146000D03*
X72040750Y-153096001D03*
X74771250Y-153096001D03*
X74771250Y-152146000D03*
X74771250Y-151195999D03*
G36*
G01*
X56437500Y-171059000D02*
X56437500Y-169809000D01*
G75*
G02*
X56687500Y-169559000I250000J0D01*
G01*
X57612500Y-169559000D01*
G75*
G02*
X57862500Y-169809000I0J-250000D01*
G01*
X57862500Y-171059000D01*
G75*
G02*
X57612500Y-171309000I-250000J0D01*
G01*
X56687500Y-171309000D01*
G75*
G02*
X56437500Y-171059000I0J250000D01*
G01*
G37*
G36*
G01*
X53462500Y-171059000D02*
X53462500Y-169809000D01*
G75*
G02*
X53712500Y-169559000I250000J0D01*
G01*
X54637500Y-169559000D01*
G75*
G02*
X54887500Y-169809000I0J-250000D01*
G01*
X54887500Y-171059000D01*
G75*
G02*
X54637500Y-171309000I-250000J0D01*
G01*
X53712500Y-171309000D01*
G75*
G02*
X53462500Y-171059000I0J250000D01*
G01*
G37*
G36*
G01*
X57862500Y-172349000D02*
X57862500Y-173599000D01*
G75*
G02*
X57612500Y-173849000I-250000J0D01*
G01*
X56687500Y-173849000D01*
G75*
G02*
X56437500Y-173599000I0J250000D01*
G01*
X56437500Y-172349000D01*
G75*
G02*
X56687500Y-172099000I250000J0D01*
G01*
X57612500Y-172099000D01*
G75*
G02*
X57862500Y-172349000I0J-250000D01*
G01*
G37*
G36*
G01*
X54887500Y-172349000D02*
X54887500Y-173599000D01*
G75*
G02*
X54637500Y-173849000I-250000J0D01*
G01*
X53712500Y-173849000D01*
G75*
G02*
X53462500Y-173599000I0J250000D01*
G01*
X53462500Y-172349000D01*
G75*
G02*
X53712500Y-172099000I250000J0D01*
G01*
X54637500Y-172099000D01*
G75*
G02*
X54887500Y-172349000I0J-250000D01*
G01*
G37*
G36*
G01*
X59866500Y-161915000D02*
X59866500Y-160665000D01*
G75*
G02*
X60116500Y-160415000I250000J0D01*
G01*
X61041500Y-160415000D01*
G75*
G02*
X61291500Y-160665000I0J-250000D01*
G01*
X61291500Y-161915000D01*
G75*
G02*
X61041500Y-162165000I-250000J0D01*
G01*
X60116500Y-162165000D01*
G75*
G02*
X59866500Y-161915000I0J250000D01*
G01*
G37*
G36*
G01*
X56891500Y-161915000D02*
X56891500Y-160665000D01*
G75*
G02*
X57141500Y-160415000I250000J0D01*
G01*
X58066500Y-160415000D01*
G75*
G02*
X58316500Y-160665000I0J-250000D01*
G01*
X58316500Y-161915000D01*
G75*
G02*
X58066500Y-162165000I-250000J0D01*
G01*
X57141500Y-162165000D01*
G75*
G02*
X56891500Y-161915000I0J250000D01*
G01*
G37*
G36*
G01*
X63129000Y-172134500D02*
X64379000Y-172134500D01*
G75*
G02*
X64629000Y-172384500I0J-250000D01*
G01*
X64629000Y-173309500D01*
G75*
G02*
X64379000Y-173559500I-250000J0D01*
G01*
X63129000Y-173559500D01*
G75*
G02*
X62879000Y-173309500I0J250000D01*
G01*
X62879000Y-172384500D01*
G75*
G02*
X63129000Y-172134500I250000J0D01*
G01*
G37*
G36*
G01*
X63129000Y-169159500D02*
X64379000Y-169159500D01*
G75*
G02*
X64629000Y-169409500I0J-250000D01*
G01*
X64629000Y-170334500D01*
G75*
G02*
X64379000Y-170584500I-250000J0D01*
G01*
X63129000Y-170584500D01*
G75*
G02*
X62879000Y-170334500I0J250000D01*
G01*
X62879000Y-169409500D01*
G75*
G02*
X63129000Y-169159500I250000J0D01*
G01*
G37*
G36*
G01*
X68463000Y-164641500D02*
X69713000Y-164641500D01*
G75*
G02*
X69963000Y-164891500I0J-250000D01*
G01*
X69963000Y-165816500D01*
G75*
G02*
X69713000Y-166066500I-250000J0D01*
G01*
X68463000Y-166066500D01*
G75*
G02*
X68213000Y-165816500I0J250000D01*
G01*
X68213000Y-164891500D01*
G75*
G02*
X68463000Y-164641500I250000J0D01*
G01*
G37*
G36*
G01*
X68463000Y-167616500D02*
X69713000Y-167616500D01*
G75*
G02*
X69963000Y-167866500I0J-250000D01*
G01*
X69963000Y-168791500D01*
G75*
G02*
X69713000Y-169041500I-250000J0D01*
G01*
X68463000Y-169041500D01*
G75*
G02*
X68213000Y-168791500I0J250000D01*
G01*
X68213000Y-167866500D01*
G75*
G02*
X68463000Y-167616500I250000J0D01*
G01*
G37*
G36*
G01*
X65796000Y-169123000D02*
X67046000Y-169123000D01*
G75*
G02*
X67296000Y-169373000I0J-250000D01*
G01*
X67296000Y-170298000D01*
G75*
G02*
X67046000Y-170548000I-250000J0D01*
G01*
X65796000Y-170548000D01*
G75*
G02*
X65546000Y-170298000I0J250000D01*
G01*
X65546000Y-169373000D01*
G75*
G02*
X65796000Y-169123000I250000J0D01*
G01*
G37*
G36*
G01*
X65796000Y-172098000D02*
X67046000Y-172098000D01*
G75*
G02*
X67296000Y-172348000I0J-250000D01*
G01*
X67296000Y-173273000D01*
G75*
G02*
X67046000Y-173523000I-250000J0D01*
G01*
X65796000Y-173523000D01*
G75*
G02*
X65546000Y-173273000I0J250000D01*
G01*
X65546000Y-172348000D01*
G75*
G02*
X65796000Y-172098000I250000J0D01*
G01*
G37*
G36*
G01*
X61926500Y-149489000D02*
X61926500Y-150739000D01*
G75*
G02*
X61676500Y-150989000I-250000J0D01*
G01*
X60751500Y-150989000D01*
G75*
G02*
X60501500Y-150739000I0J250000D01*
G01*
X60501500Y-149489000D01*
G75*
G02*
X60751500Y-149239000I250000J0D01*
G01*
X61676500Y-149239000D01*
G75*
G02*
X61926500Y-149489000I0J-250000D01*
G01*
G37*
G36*
G01*
X58951500Y-149489000D02*
X58951500Y-150739000D01*
G75*
G02*
X58701500Y-150989000I-250000J0D01*
G01*
X57776500Y-150989000D01*
G75*
G02*
X57526500Y-150739000I0J250000D01*
G01*
X57526500Y-149489000D01*
G75*
G02*
X57776500Y-149239000I250000J0D01*
G01*
X58701500Y-149239000D01*
G75*
G02*
X58951500Y-149489000I0J-250000D01*
G01*
G37*
G36*
G01*
X69459000Y-150391500D02*
X68209000Y-150391500D01*
G75*
G02*
X67959000Y-150141500I0J250000D01*
G01*
X67959000Y-149216500D01*
G75*
G02*
X68209000Y-148966500I250000J0D01*
G01*
X69459000Y-148966500D01*
G75*
G02*
X69709000Y-149216500I0J-250000D01*
G01*
X69709000Y-150141500D01*
G75*
G02*
X69459000Y-150391500I-250000J0D01*
G01*
G37*
G36*
G01*
X69459000Y-153366500D02*
X68209000Y-153366500D01*
G75*
G02*
X67959000Y-153116500I0J250000D01*
G01*
X67959000Y-152191500D01*
G75*
G02*
X68209000Y-151941500I250000J0D01*
G01*
X69459000Y-151941500D01*
G75*
G02*
X69709000Y-152191500I0J-250000D01*
G01*
X69709000Y-153116500D01*
G75*
G02*
X69459000Y-153366500I-250000J0D01*
G01*
G37*
G36*
G01*
X68429500Y-147945000D02*
X68429500Y-146695000D01*
G75*
G02*
X68679500Y-146445000I250000J0D01*
G01*
X69604500Y-146445000D01*
G75*
G02*
X69854500Y-146695000I0J-250000D01*
G01*
X69854500Y-147945000D01*
G75*
G02*
X69604500Y-148195000I-250000J0D01*
G01*
X68679500Y-148195000D01*
G75*
G02*
X68429500Y-147945000I0J250000D01*
G01*
G37*
G36*
G01*
X65454500Y-147945000D02*
X65454500Y-146695000D01*
G75*
G02*
X65704500Y-146445000I250000J0D01*
G01*
X66629500Y-146445000D01*
G75*
G02*
X66879500Y-146695000I0J-250000D01*
G01*
X66879500Y-147945000D01*
G75*
G02*
X66629500Y-148195000I-250000J0D01*
G01*
X65704500Y-148195000D01*
G75*
G02*
X65454500Y-147945000I0J250000D01*
G01*
G37*
G36*
G01*
X36498500Y-131689000D02*
X36498500Y-130439000D01*
G75*
G02*
X36748500Y-130189000I250000J0D01*
G01*
X37673500Y-130189000D01*
G75*
G02*
X37923500Y-130439000I0J-250000D01*
G01*
X37923500Y-131689000D01*
G75*
G02*
X37673500Y-131939000I-250000J0D01*
G01*
X36748500Y-131939000D01*
G75*
G02*
X36498500Y-131689000I0J250000D01*
G01*
G37*
G36*
G01*
X39473500Y-131689000D02*
X39473500Y-130439000D01*
G75*
G02*
X39723500Y-130189000I250000J0D01*
G01*
X40648500Y-130189000D01*
G75*
G02*
X40898500Y-130439000I0J-250000D01*
G01*
X40898500Y-131689000D01*
G75*
G02*
X40648500Y-131939000I-250000J0D01*
G01*
X39723500Y-131939000D01*
G75*
G02*
X39473500Y-131689000I0J250000D01*
G01*
G37*
G36*
G01*
X41856500Y-128246500D02*
X43106500Y-128246500D01*
G75*
G02*
X43356500Y-128496500I0J-250000D01*
G01*
X43356500Y-129421500D01*
G75*
G02*
X43106500Y-129671500I-250000J0D01*
G01*
X41856500Y-129671500D01*
G75*
G02*
X41606500Y-129421500I0J250000D01*
G01*
X41606500Y-128496500D01*
G75*
G02*
X41856500Y-128246500I250000J0D01*
G01*
G37*
G36*
G01*
X41856500Y-125271500D02*
X43106500Y-125271500D01*
G75*
G02*
X43356500Y-125521500I0J-250000D01*
G01*
X43356500Y-126446500D01*
G75*
G02*
X43106500Y-126696500I-250000J0D01*
G01*
X41856500Y-126696500D01*
G75*
G02*
X41606500Y-126446500I0J250000D01*
G01*
X41606500Y-125521500D01*
G75*
G02*
X41856500Y-125271500I250000J0D01*
G01*
G37*
G36*
G01*
X37669500Y-121739500D02*
X37669500Y-122989500D01*
G75*
G02*
X37419500Y-123239500I-250000J0D01*
G01*
X36494500Y-123239500D01*
G75*
G02*
X36244500Y-122989500I0J250000D01*
G01*
X36244500Y-121739500D01*
G75*
G02*
X36494500Y-121489500I250000J0D01*
G01*
X37419500Y-121489500D01*
G75*
G02*
X37669500Y-121739500I0J-250000D01*
G01*
G37*
G36*
G01*
X34694500Y-121739500D02*
X34694500Y-122989500D01*
G75*
G02*
X34444500Y-123239500I-250000J0D01*
G01*
X33519500Y-123239500D01*
G75*
G02*
X33269500Y-122989500I0J250000D01*
G01*
X33269500Y-121739500D01*
G75*
G02*
X33519500Y-121489500I250000J0D01*
G01*
X34444500Y-121489500D01*
G75*
G02*
X34694500Y-121739500I0J-250000D01*
G01*
G37*
G36*
G01*
X45539500Y-128373500D02*
X46789500Y-128373500D01*
G75*
G02*
X47039500Y-128623500I0J-250000D01*
G01*
X47039500Y-129548500D01*
G75*
G02*
X46789500Y-129798500I-250000J0D01*
G01*
X45539500Y-129798500D01*
G75*
G02*
X45289500Y-129548500I0J250000D01*
G01*
X45289500Y-128623500D01*
G75*
G02*
X45539500Y-128373500I250000J0D01*
G01*
G37*
G36*
G01*
X45539500Y-125398500D02*
X46789500Y-125398500D01*
G75*
G02*
X47039500Y-125648500I0J-250000D01*
G01*
X47039500Y-126573500D01*
G75*
G02*
X46789500Y-126823500I-250000J0D01*
G01*
X45539500Y-126823500D01*
G75*
G02*
X45289500Y-126573500I0J250000D01*
G01*
X45289500Y-125648500D01*
G75*
G02*
X45539500Y-125398500I250000J0D01*
G01*
G37*
G36*
G01*
X57604500Y-107718500D02*
X58854500Y-107718500D01*
G75*
G02*
X59104500Y-107968500I0J-250000D01*
G01*
X59104500Y-108893500D01*
G75*
G02*
X58854500Y-109143500I-250000J0D01*
G01*
X57604500Y-109143500D01*
G75*
G02*
X57354500Y-108893500I0J250000D01*
G01*
X57354500Y-107968500D01*
G75*
G02*
X57604500Y-107718500I250000J0D01*
G01*
G37*
G36*
G01*
X57604500Y-110693500D02*
X58854500Y-110693500D01*
G75*
G02*
X59104500Y-110943500I0J-250000D01*
G01*
X59104500Y-111868500D01*
G75*
G02*
X58854500Y-112118500I-250000J0D01*
G01*
X57604500Y-112118500D01*
G75*
G02*
X57354500Y-111868500I0J250000D01*
G01*
X57354500Y-110943500D01*
G75*
G02*
X57604500Y-110693500I250000J0D01*
G01*
G37*
G36*
G01*
X130046701Y-169950199D02*
X130046701Y-168700199D01*
G75*
G02*
X130296701Y-168450199I250000J0D01*
G01*
X131221701Y-168450199D01*
G75*
G02*
X131471701Y-168700199I0J-250000D01*
G01*
X131471701Y-169950199D01*
G75*
G02*
X131221701Y-170200199I-250000J0D01*
G01*
X130296701Y-170200199D01*
G75*
G02*
X130046701Y-169950199I0J250000D01*
G01*
G37*
G36*
G01*
X127071701Y-169950199D02*
X127071701Y-168700199D01*
G75*
G02*
X127321701Y-168450199I250000J0D01*
G01*
X128246701Y-168450199D01*
G75*
G02*
X128496701Y-168700199I0J-250000D01*
G01*
X128496701Y-169950199D01*
G75*
G02*
X128246701Y-170200199I-250000J0D01*
G01*
X127321701Y-170200199D01*
G75*
G02*
X127071701Y-169950199I0J250000D01*
G01*
G37*
G36*
G01*
X127035201Y-167537199D02*
X127035201Y-166287199D01*
G75*
G02*
X127285201Y-166037199I250000J0D01*
G01*
X128210201Y-166037199D01*
G75*
G02*
X128460201Y-166287199I0J-250000D01*
G01*
X128460201Y-167537199D01*
G75*
G02*
X128210201Y-167787199I-250000J0D01*
G01*
X127285201Y-167787199D01*
G75*
G02*
X127035201Y-167537199I0J250000D01*
G01*
G37*
G36*
G01*
X130010201Y-167537199D02*
X130010201Y-166287199D01*
G75*
G02*
X130260201Y-166037199I250000J0D01*
G01*
X131185201Y-166037199D01*
G75*
G02*
X131435201Y-166287199I0J-250000D01*
G01*
X131435201Y-167537199D01*
G75*
G02*
X131185201Y-167787199I-250000J0D01*
G01*
X130260201Y-167787199D01*
G75*
G02*
X130010201Y-167537199I0J250000D01*
G01*
G37*
G36*
G01*
X129973701Y-165124199D02*
X129973701Y-163874199D01*
G75*
G02*
X130223701Y-163624199I250000J0D01*
G01*
X131148701Y-163624199D01*
G75*
G02*
X131398701Y-163874199I0J-250000D01*
G01*
X131398701Y-165124199D01*
G75*
G02*
X131148701Y-165374199I-250000J0D01*
G01*
X130223701Y-165374199D01*
G75*
G02*
X129973701Y-165124199I0J250000D01*
G01*
G37*
G36*
G01*
X126998701Y-165124199D02*
X126998701Y-163874199D01*
G75*
G02*
X127248701Y-163624199I250000J0D01*
G01*
X128173701Y-163624199D01*
G75*
G02*
X128423701Y-163874199I0J-250000D01*
G01*
X128423701Y-165124199D01*
G75*
G02*
X128173701Y-165374199I-250000J0D01*
G01*
X127248701Y-165374199D01*
G75*
G02*
X126998701Y-165124199I0J250000D01*
G01*
G37*
G36*
G01*
X121701201Y-161187199D02*
X121701201Y-159937199D01*
G75*
G02*
X121951201Y-159687199I250000J0D01*
G01*
X122876201Y-159687199D01*
G75*
G02*
X123126201Y-159937199I0J-250000D01*
G01*
X123126201Y-161187199D01*
G75*
G02*
X122876201Y-161437199I-250000J0D01*
G01*
X121951201Y-161437199D01*
G75*
G02*
X121701201Y-161187199I0J250000D01*
G01*
G37*
G36*
G01*
X124676201Y-161187199D02*
X124676201Y-159937199D01*
G75*
G02*
X124926201Y-159687199I250000J0D01*
G01*
X125851201Y-159687199D01*
G75*
G02*
X126101201Y-159937199I0J-250000D01*
G01*
X126101201Y-161187199D01*
G75*
G02*
X125851201Y-161437199I-250000J0D01*
G01*
X124926201Y-161437199D01*
G75*
G02*
X124676201Y-161187199I0J250000D01*
G01*
G37*
G36*
G01*
X128082201Y-155396199D02*
X126832201Y-155396199D01*
G75*
G02*
X126582201Y-155146199I0J250000D01*
G01*
X126582201Y-154221199D01*
G75*
G02*
X126832201Y-153971199I250000J0D01*
G01*
X128082201Y-153971199D01*
G75*
G02*
X128332201Y-154221199I0J-250000D01*
G01*
X128332201Y-155146199D01*
G75*
G02*
X128082201Y-155396199I-250000J0D01*
G01*
G37*
G36*
G01*
X128082201Y-152421199D02*
X126832201Y-152421199D01*
G75*
G02*
X126582201Y-152171199I0J250000D01*
G01*
X126582201Y-151246199D01*
G75*
G02*
X126832201Y-150996199I250000J0D01*
G01*
X128082201Y-150996199D01*
G75*
G02*
X128332201Y-151246199I0J-250000D01*
G01*
X128332201Y-152171199D01*
G75*
G02*
X128082201Y-152421199I-250000J0D01*
G01*
G37*
G36*
G01*
X126772701Y-157270199D02*
X126772701Y-158520199D01*
G75*
G02*
X126522701Y-158770199I-250000J0D01*
G01*
X125597701Y-158770199D01*
G75*
G02*
X125347701Y-158520199I0J250000D01*
G01*
X125347701Y-157270199D01*
G75*
G02*
X125597701Y-157020199I250000J0D01*
G01*
X126522701Y-157020199D01*
G75*
G02*
X126772701Y-157270199I0J-250000D01*
G01*
G37*
G36*
G01*
X123797701Y-157270199D02*
X123797701Y-158520199D01*
G75*
G02*
X123547701Y-158770199I-250000J0D01*
G01*
X122622701Y-158770199D01*
G75*
G02*
X122372701Y-158520199I0J250000D01*
G01*
X122372701Y-157270199D01*
G75*
G02*
X122622701Y-157020199I250000J0D01*
G01*
X123547701Y-157020199D01*
G75*
G02*
X123797701Y-157270199I0J-250000D01*
G01*
G37*
G36*
G01*
X138047701Y-162076199D02*
X138047701Y-160826199D01*
G75*
G02*
X138297701Y-160576199I250000J0D01*
G01*
X139222701Y-160576199D01*
G75*
G02*
X139472701Y-160826199I0J-250000D01*
G01*
X139472701Y-162076199D01*
G75*
G02*
X139222701Y-162326199I-250000J0D01*
G01*
X138297701Y-162326199D01*
G75*
G02*
X138047701Y-162076199I0J250000D01*
G01*
G37*
G36*
G01*
X135072701Y-162076199D02*
X135072701Y-160826199D01*
G75*
G02*
X135322701Y-160576199I250000J0D01*
G01*
X136247701Y-160576199D01*
G75*
G02*
X136497701Y-160826199I0J-250000D01*
G01*
X136497701Y-162076199D01*
G75*
G02*
X136247701Y-162326199I-250000J0D01*
G01*
X135322701Y-162326199D01*
G75*
G02*
X135072701Y-162076199I0J250000D01*
G01*
G37*
G36*
G01*
X135072701Y-164489199D02*
X135072701Y-163239199D01*
G75*
G02*
X135322701Y-162989199I250000J0D01*
G01*
X136247701Y-162989199D01*
G75*
G02*
X136497701Y-163239199I0J-250000D01*
G01*
X136497701Y-164489199D01*
G75*
G02*
X136247701Y-164739199I-250000J0D01*
G01*
X135322701Y-164739199D01*
G75*
G02*
X135072701Y-164489199I0J250000D01*
G01*
G37*
G36*
G01*
X138047701Y-164489199D02*
X138047701Y-163239199D01*
G75*
G02*
X138297701Y-162989199I250000J0D01*
G01*
X139222701Y-162989199D01*
G75*
G02*
X139472701Y-163239199I0J-250000D01*
G01*
X139472701Y-164489199D01*
G75*
G02*
X139222701Y-164739199I-250000J0D01*
G01*
X138297701Y-164739199D01*
G75*
G02*
X138047701Y-164489199I0J250000D01*
G01*
G37*
G36*
G01*
X129753201Y-153880699D02*
X131003201Y-153880699D01*
G75*
G02*
X131253201Y-154130699I0J-250000D01*
G01*
X131253201Y-155055699D01*
G75*
G02*
X131003201Y-155305699I-250000J0D01*
G01*
X129753201Y-155305699D01*
G75*
G02*
X129503201Y-155055699I0J250000D01*
G01*
X129503201Y-154130699D01*
G75*
G02*
X129753201Y-153880699I250000J0D01*
G01*
G37*
G36*
G01*
X129753201Y-150905699D02*
X131003201Y-150905699D01*
G75*
G02*
X131253201Y-151155699I0J-250000D01*
G01*
X131253201Y-152080699D01*
G75*
G02*
X131003201Y-152330699I-250000J0D01*
G01*
X129753201Y-152330699D01*
G75*
G02*
X129503201Y-152080699I0J250000D01*
G01*
X129503201Y-151155699D01*
G75*
G02*
X129753201Y-150905699I250000J0D01*
G01*
G37*
G36*
G01*
X138011201Y-166902199D02*
X138011201Y-165652199D01*
G75*
G02*
X138261201Y-165402199I250000J0D01*
G01*
X139186201Y-165402199D01*
G75*
G02*
X139436201Y-165652199I0J-250000D01*
G01*
X139436201Y-166902199D01*
G75*
G02*
X139186201Y-167152199I-250000J0D01*
G01*
X138261201Y-167152199D01*
G75*
G02*
X138011201Y-166902199I0J250000D01*
G01*
G37*
G36*
G01*
X135036201Y-166902199D02*
X135036201Y-165652199D01*
G75*
G02*
X135286201Y-165402199I250000J0D01*
G01*
X136211201Y-165402199D01*
G75*
G02*
X136461201Y-165652199I0J-250000D01*
G01*
X136461201Y-166902199D01*
G75*
G02*
X136211201Y-167152199I-250000J0D01*
G01*
X135286201Y-167152199D01*
G75*
G02*
X135036201Y-166902199I0J250000D01*
G01*
G37*
G36*
G01*
X132801201Y-160648199D02*
X134051201Y-160648199D01*
G75*
G02*
X134301201Y-160898199I0J-250000D01*
G01*
X134301201Y-161823199D01*
G75*
G02*
X134051201Y-162073199I-250000J0D01*
G01*
X132801201Y-162073199D01*
G75*
G02*
X132551201Y-161823199I0J250000D01*
G01*
X132551201Y-160898199D01*
G75*
G02*
X132801201Y-160648199I250000J0D01*
G01*
G37*
G36*
G01*
X132801201Y-163623199D02*
X134051201Y-163623199D01*
G75*
G02*
X134301201Y-163873199I0J-250000D01*
G01*
X134301201Y-164798199D01*
G75*
G02*
X134051201Y-165048199I-250000J0D01*
G01*
X132801201Y-165048199D01*
G75*
G02*
X132551201Y-164798199I0J250000D01*
G01*
X132551201Y-163873199D01*
G75*
G02*
X132801201Y-163623199I250000J0D01*
G01*
G37*
G36*
G01*
X106924201Y-165398199D02*
X106924201Y-166648199D01*
G75*
G02*
X106674201Y-166898199I-250000J0D01*
G01*
X105749201Y-166898199D01*
G75*
G02*
X105499201Y-166648199I0J250000D01*
G01*
X105499201Y-165398199D01*
G75*
G02*
X105749201Y-165148199I250000J0D01*
G01*
X106674201Y-165148199D01*
G75*
G02*
X106924201Y-165398199I0J-250000D01*
G01*
G37*
G36*
G01*
X103949201Y-165398199D02*
X103949201Y-166648199D01*
G75*
G02*
X103699201Y-166898199I-250000J0D01*
G01*
X102774201Y-166898199D01*
G75*
G02*
X102524201Y-166648199I0J250000D01*
G01*
X102524201Y-165398199D01*
G75*
G02*
X102774201Y-165148199I250000J0D01*
G01*
X103699201Y-165148199D01*
G75*
G02*
X103949201Y-165398199I0J-250000D01*
G01*
G37*
G36*
G01*
X136845201Y-151622699D02*
X135595201Y-151622699D01*
G75*
G02*
X135345201Y-151372699I0J250000D01*
G01*
X135345201Y-150447699D01*
G75*
G02*
X135595201Y-150197699I250000J0D01*
G01*
X136845201Y-150197699D01*
G75*
G02*
X137095201Y-150447699I0J-250000D01*
G01*
X137095201Y-151372699D01*
G75*
G02*
X136845201Y-151622699I-250000J0D01*
G01*
G37*
G36*
G01*
X136845201Y-148647699D02*
X135595201Y-148647699D01*
G75*
G02*
X135345201Y-148397699I0J250000D01*
G01*
X135345201Y-147472699D01*
G75*
G02*
X135595201Y-147222699I250000J0D01*
G01*
X136845201Y-147222699D01*
G75*
G02*
X137095201Y-147472699I0J-250000D01*
G01*
X137095201Y-148397699D01*
G75*
G02*
X136845201Y-148647699I-250000J0D01*
G01*
G37*
D23*
X116105500Y-155223198D03*
X116105500Y-145073200D03*
D22*
X94030502Y-150148199D03*
G36*
G01*
X85875500Y-110881000D02*
X85875500Y-112131000D01*
G75*
G02*
X85625500Y-112381000I-250000J0D01*
G01*
X84700500Y-112381000D01*
G75*
G02*
X84450500Y-112131000I0J250000D01*
G01*
X84450500Y-110881000D01*
G75*
G02*
X84700500Y-110631000I250000J0D01*
G01*
X85625500Y-110631000D01*
G75*
G02*
X85875500Y-110881000I0J-250000D01*
G01*
G37*
G36*
G01*
X88850500Y-110881000D02*
X88850500Y-112131000D01*
G75*
G02*
X88600500Y-112381000I-250000J0D01*
G01*
X87675500Y-112381000D01*
G75*
G02*
X87425500Y-112131000I0J250000D01*
G01*
X87425500Y-110881000D01*
G75*
G02*
X87675500Y-110631000I250000J0D01*
G01*
X88600500Y-110631000D01*
G75*
G02*
X88850500Y-110881000I0J-250000D01*
G01*
G37*
G36*
G01*
X83048000Y-112218500D02*
X81798000Y-112218500D01*
G75*
G02*
X81548000Y-111968500I0J250000D01*
G01*
X81548000Y-111043500D01*
G75*
G02*
X81798000Y-110793500I250000J0D01*
G01*
X83048000Y-110793500D01*
G75*
G02*
X83298000Y-111043500I0J-250000D01*
G01*
X83298000Y-111968500D01*
G75*
G02*
X83048000Y-112218500I-250000J0D01*
G01*
G37*
G36*
G01*
X83048000Y-109243500D02*
X81798000Y-109243500D01*
G75*
G02*
X81548000Y-108993500I0J250000D01*
G01*
X81548000Y-108068500D01*
G75*
G02*
X81798000Y-107818500I250000J0D01*
G01*
X83048000Y-107818500D01*
G75*
G02*
X83298000Y-108068500I0J-250000D01*
G01*
X83298000Y-108993500D01*
G75*
G02*
X83048000Y-109243500I-250000J0D01*
G01*
G37*
G36*
G01*
X111504701Y-175538199D02*
X111504701Y-174288199D01*
G75*
G02*
X111754701Y-174038199I250000J0D01*
G01*
X112679701Y-174038199D01*
G75*
G02*
X112929701Y-174288199I0J-250000D01*
G01*
X112929701Y-175538199D01*
G75*
G02*
X112679701Y-175788199I-250000J0D01*
G01*
X111754701Y-175788199D01*
G75*
G02*
X111504701Y-175538199I0J250000D01*
G01*
G37*
G36*
G01*
X114479701Y-175538199D02*
X114479701Y-174288199D01*
G75*
G02*
X114729701Y-174038199I250000J0D01*
G01*
X115654701Y-174038199D01*
G75*
G02*
X115904701Y-174288199I0J-250000D01*
G01*
X115904701Y-175538199D01*
G75*
G02*
X115654701Y-175788199I-250000J0D01*
G01*
X114729701Y-175788199D01*
G75*
G02*
X114479701Y-175538199I0J250000D01*
G01*
G37*
G36*
G01*
X112929701Y-177082199D02*
X112929701Y-178332199D01*
G75*
G02*
X112679701Y-178582199I-250000J0D01*
G01*
X111754701Y-178582199D01*
G75*
G02*
X111504701Y-178332199I0J250000D01*
G01*
X111504701Y-177082199D01*
G75*
G02*
X111754701Y-176832199I250000J0D01*
G01*
X112679701Y-176832199D01*
G75*
G02*
X112929701Y-177082199I0J-250000D01*
G01*
G37*
G36*
G01*
X115904701Y-177082199D02*
X115904701Y-178332199D01*
G75*
G02*
X115654701Y-178582199I-250000J0D01*
G01*
X114729701Y-178582199D01*
G75*
G02*
X114479701Y-178332199I0J250000D01*
G01*
X114479701Y-177082199D01*
G75*
G02*
X114729701Y-176832199I250000J0D01*
G01*
X115654701Y-176832199D01*
G75*
G02*
X115904701Y-177082199I0J-250000D01*
G01*
G37*
G36*
G01*
X107391701Y-169678198D02*
X107391701Y-172528200D01*
G75*
G02*
X107141702Y-172778199I-249999J0D01*
G01*
X106116700Y-172778199D01*
G75*
G02*
X105866701Y-172528200I0J249999D01*
G01*
X105866701Y-169678198D01*
G75*
G02*
X106116700Y-169428199I249999J0D01*
G01*
X107141702Y-169428199D01*
G75*
G02*
X107391701Y-169678198I0J-249999D01*
G01*
G37*
G36*
G01*
X113366701Y-169678198D02*
X113366701Y-172528200D01*
G75*
G02*
X113116702Y-172778199I-249999J0D01*
G01*
X112091700Y-172778199D01*
G75*
G02*
X111841701Y-172528200I0J249999D01*
G01*
X111841701Y-169678198D01*
G75*
G02*
X112091700Y-169428199I249999J0D01*
G01*
X113116702Y-169428199D01*
G75*
G02*
X113366701Y-169678198I0J-249999D01*
G01*
G37*
G36*
G01*
X126863201Y-137966199D02*
X126863201Y-139216199D01*
G75*
G02*
X126613201Y-139466199I-250000J0D01*
G01*
X125688201Y-139466199D01*
G75*
G02*
X125438201Y-139216199I0J250000D01*
G01*
X125438201Y-137966199D01*
G75*
G02*
X125688201Y-137716199I250000J0D01*
G01*
X126613201Y-137716199D01*
G75*
G02*
X126863201Y-137966199I0J-250000D01*
G01*
G37*
G36*
G01*
X123888201Y-137966199D02*
X123888201Y-139216199D01*
G75*
G02*
X123638201Y-139466199I-250000J0D01*
G01*
X122713201Y-139466199D01*
G75*
G02*
X122463201Y-139216199I0J250000D01*
G01*
X122463201Y-137966199D01*
G75*
G02*
X122713201Y-137716199I250000J0D01*
G01*
X123638201Y-137716199D01*
G75*
G02*
X123888201Y-137966199I0J-250000D01*
G01*
G37*
G36*
G01*
X128604701Y-146221199D02*
X128604701Y-147471199D01*
G75*
G02*
X128354701Y-147721199I-250000J0D01*
G01*
X127429701Y-147721199D01*
G75*
G02*
X127179701Y-147471199I0J250000D01*
G01*
X127179701Y-146221199D01*
G75*
G02*
X127429701Y-145971199I250000J0D01*
G01*
X128354701Y-145971199D01*
G75*
G02*
X128604701Y-146221199I0J-250000D01*
G01*
G37*
G36*
G01*
X125629701Y-146221199D02*
X125629701Y-147471199D01*
G75*
G02*
X125379701Y-147721199I-250000J0D01*
G01*
X124454701Y-147721199D01*
G75*
G02*
X124204701Y-147471199I0J250000D01*
G01*
X124204701Y-146221199D01*
G75*
G02*
X124454701Y-145971199I250000J0D01*
G01*
X125379701Y-145971199D01*
G75*
G02*
X125629701Y-146221199I0J-250000D01*
G01*
G37*
G36*
G01*
X132894701Y-143788199D02*
X132894701Y-142538199D01*
G75*
G02*
X133144701Y-142288199I250000J0D01*
G01*
X134069701Y-142288199D01*
G75*
G02*
X134319701Y-142538199I0J-250000D01*
G01*
X134319701Y-143788199D01*
G75*
G02*
X134069701Y-144038199I-250000J0D01*
G01*
X133144701Y-144038199D01*
G75*
G02*
X132894701Y-143788199I0J250000D01*
G01*
G37*
G36*
G01*
X129919701Y-143788199D02*
X129919701Y-142538199D01*
G75*
G02*
X130169701Y-142288199I250000J0D01*
G01*
X131094701Y-142288199D01*
G75*
G02*
X131344701Y-142538199I0J-250000D01*
G01*
X131344701Y-143788199D01*
G75*
G02*
X131094701Y-144038199I-250000J0D01*
G01*
X130169701Y-144038199D01*
G75*
G02*
X129919701Y-143788199I0J250000D01*
G01*
G37*
G36*
G01*
X127052701Y-136295199D02*
X127052701Y-135045199D01*
G75*
G02*
X127302701Y-134795199I250000J0D01*
G01*
X128227701Y-134795199D01*
G75*
G02*
X128477701Y-135045199I0J-250000D01*
G01*
X128477701Y-136295199D01*
G75*
G02*
X128227701Y-136545199I-250000J0D01*
G01*
X127302701Y-136545199D01*
G75*
G02*
X127052701Y-136295199I0J250000D01*
G01*
G37*
G36*
G01*
X124077701Y-136295199D02*
X124077701Y-135045199D01*
G75*
G02*
X124327701Y-134795199I250000J0D01*
G01*
X125252701Y-134795199D01*
G75*
G02*
X125502701Y-135045199I0J-250000D01*
G01*
X125502701Y-136295199D01*
G75*
G02*
X125252701Y-136545199I-250000J0D01*
G01*
X124327701Y-136545199D01*
G75*
G02*
X124077701Y-136295199I0J250000D01*
G01*
G37*
G36*
G01*
X140224201Y-156724198D02*
X140224201Y-159574200D01*
G75*
G02*
X139974202Y-159824199I-249999J0D01*
G01*
X138949200Y-159824199D01*
G75*
G02*
X138699201Y-159574200I0J249999D01*
G01*
X138699201Y-156724198D01*
G75*
G02*
X138949200Y-156474199I249999J0D01*
G01*
X139974202Y-156474199D01*
G75*
G02*
X140224201Y-156724198I0J-249999D01*
G01*
G37*
G36*
G01*
X134249201Y-156724198D02*
X134249201Y-159574200D01*
G75*
G02*
X133999202Y-159824199I-249999J0D01*
G01*
X132974200Y-159824199D01*
G75*
G02*
X132724201Y-159574200I0J249999D01*
G01*
X132724201Y-156724198D01*
G75*
G02*
X132974200Y-156474199I249999J0D01*
G01*
X133999202Y-156474199D01*
G75*
G02*
X134249201Y-156724198I0J-249999D01*
G01*
G37*
G36*
G01*
X117546701Y-172998199D02*
X117546701Y-171748199D01*
G75*
G02*
X117796701Y-171498199I250000J0D01*
G01*
X118721701Y-171498199D01*
G75*
G02*
X118971701Y-171748199I0J-250000D01*
G01*
X118971701Y-172998199D01*
G75*
G02*
X118721701Y-173248199I-250000J0D01*
G01*
X117796701Y-173248199D01*
G75*
G02*
X117546701Y-172998199I0J250000D01*
G01*
G37*
G36*
G01*
X120521701Y-172998199D02*
X120521701Y-171748199D01*
G75*
G02*
X120771701Y-171498199I250000J0D01*
G01*
X121696701Y-171498199D01*
G75*
G02*
X121946701Y-171748199I0J-250000D01*
G01*
X121946701Y-172998199D01*
G75*
G02*
X121696701Y-173248199I-250000J0D01*
G01*
X120771701Y-173248199D01*
G75*
G02*
X120521701Y-172998199I0J250000D01*
G01*
G37*
G36*
G01*
X121946701Y-174288199D02*
X121946701Y-175538199D01*
G75*
G02*
X121696701Y-175788199I-250000J0D01*
G01*
X120771701Y-175788199D01*
G75*
G02*
X120521701Y-175538199I0J250000D01*
G01*
X120521701Y-174288199D01*
G75*
G02*
X120771701Y-174038199I250000J0D01*
G01*
X121696701Y-174038199D01*
G75*
G02*
X121946701Y-174288199I0J-250000D01*
G01*
G37*
G36*
G01*
X118971701Y-174288199D02*
X118971701Y-175538199D01*
G75*
G02*
X118721701Y-175788199I-250000J0D01*
G01*
X117796701Y-175788199D01*
G75*
G02*
X117546701Y-175538199I0J250000D01*
G01*
X117546701Y-174288199D01*
G75*
G02*
X117796701Y-174038199I250000J0D01*
G01*
X118721701Y-174038199D01*
G75*
G02*
X118971701Y-174288199I0J-250000D01*
G01*
G37*
G36*
G01*
X123950701Y-163854199D02*
X123950701Y-162604199D01*
G75*
G02*
X124200701Y-162354199I250000J0D01*
G01*
X125125701Y-162354199D01*
G75*
G02*
X125375701Y-162604199I0J-250000D01*
G01*
X125375701Y-163854199D01*
G75*
G02*
X125125701Y-164104199I-250000J0D01*
G01*
X124200701Y-164104199D01*
G75*
G02*
X123950701Y-163854199I0J250000D01*
G01*
G37*
G36*
G01*
X120975701Y-163854199D02*
X120975701Y-162604199D01*
G75*
G02*
X121225701Y-162354199I250000J0D01*
G01*
X122150701Y-162354199D01*
G75*
G02*
X122400701Y-162604199I0J-250000D01*
G01*
X122400701Y-163854199D01*
G75*
G02*
X122150701Y-164104199I-250000J0D01*
G01*
X121225701Y-164104199D01*
G75*
G02*
X120975701Y-163854199I0J250000D01*
G01*
G37*
G36*
G01*
X127213201Y-174073699D02*
X128463201Y-174073699D01*
G75*
G02*
X128713201Y-174323699I0J-250000D01*
G01*
X128713201Y-175248699D01*
G75*
G02*
X128463201Y-175498699I-250000J0D01*
G01*
X127213201Y-175498699D01*
G75*
G02*
X126963201Y-175248699I0J250000D01*
G01*
X126963201Y-174323699D01*
G75*
G02*
X127213201Y-174073699I250000J0D01*
G01*
G37*
G36*
G01*
X127213201Y-171098699D02*
X128463201Y-171098699D01*
G75*
G02*
X128713201Y-171348699I0J-250000D01*
G01*
X128713201Y-172273699D01*
G75*
G02*
X128463201Y-172523699I-250000J0D01*
G01*
X127213201Y-172523699D01*
G75*
G02*
X126963201Y-172273699I0J250000D01*
G01*
X126963201Y-171348699D01*
G75*
G02*
X127213201Y-171098699I250000J0D01*
G01*
G37*
G36*
G01*
X132547201Y-169555699D02*
X133797201Y-169555699D01*
G75*
G02*
X134047201Y-169805699I0J-250000D01*
G01*
X134047201Y-170730699D01*
G75*
G02*
X133797201Y-170980699I-250000J0D01*
G01*
X132547201Y-170980699D01*
G75*
G02*
X132297201Y-170730699I0J250000D01*
G01*
X132297201Y-169805699D01*
G75*
G02*
X132547201Y-169555699I250000J0D01*
G01*
G37*
G36*
G01*
X132547201Y-166580699D02*
X133797201Y-166580699D01*
G75*
G02*
X134047201Y-166830699I0J-250000D01*
G01*
X134047201Y-167755699D01*
G75*
G02*
X133797201Y-168005699I-250000J0D01*
G01*
X132547201Y-168005699D01*
G75*
G02*
X132297201Y-167755699I0J250000D01*
G01*
X132297201Y-166830699D01*
G75*
G02*
X132547201Y-166580699I250000J0D01*
G01*
G37*
G36*
G01*
X129880201Y-171062199D02*
X131130201Y-171062199D01*
G75*
G02*
X131380201Y-171312199I0J-250000D01*
G01*
X131380201Y-172237199D01*
G75*
G02*
X131130201Y-172487199I-250000J0D01*
G01*
X129880201Y-172487199D01*
G75*
G02*
X129630201Y-172237199I0J250000D01*
G01*
X129630201Y-171312199D01*
G75*
G02*
X129880201Y-171062199I250000J0D01*
G01*
G37*
G36*
G01*
X129880201Y-174037199D02*
X131130201Y-174037199D01*
G75*
G02*
X131380201Y-174287199I0J-250000D01*
G01*
X131380201Y-175212199D01*
G75*
G02*
X131130201Y-175462199I-250000J0D01*
G01*
X129880201Y-175462199D01*
G75*
G02*
X129630201Y-175212199I0J250000D01*
G01*
X129630201Y-174287199D01*
G75*
G02*
X129880201Y-174037199I250000J0D01*
G01*
G37*
G36*
G01*
X126010701Y-151428199D02*
X126010701Y-152678199D01*
G75*
G02*
X125760701Y-152928199I-250000J0D01*
G01*
X124835701Y-152928199D01*
G75*
G02*
X124585701Y-152678199I0J250000D01*
G01*
X124585701Y-151428199D01*
G75*
G02*
X124835701Y-151178199I250000J0D01*
G01*
X125760701Y-151178199D01*
G75*
G02*
X126010701Y-151428199I0J-250000D01*
G01*
G37*
G36*
G01*
X123035701Y-151428199D02*
X123035701Y-152678199D01*
G75*
G02*
X122785701Y-152928199I-250000J0D01*
G01*
X121860701Y-152928199D01*
G75*
G02*
X121610701Y-152678199I0J250000D01*
G01*
X121610701Y-151428199D01*
G75*
G02*
X121860701Y-151178199I250000J0D01*
G01*
X122785701Y-151178199D01*
G75*
G02*
X123035701Y-151428199I0J-250000D01*
G01*
G37*
G36*
G01*
X133543201Y-152330699D02*
X132293201Y-152330699D01*
G75*
G02*
X132043201Y-152080699I0J250000D01*
G01*
X132043201Y-151155699D01*
G75*
G02*
X132293201Y-150905699I250000J0D01*
G01*
X133543201Y-150905699D01*
G75*
G02*
X133793201Y-151155699I0J-250000D01*
G01*
X133793201Y-152080699D01*
G75*
G02*
X133543201Y-152330699I-250000J0D01*
G01*
G37*
G36*
G01*
X133543201Y-155305699D02*
X132293201Y-155305699D01*
G75*
G02*
X132043201Y-155055699I0J250000D01*
G01*
X132043201Y-154130699D01*
G75*
G02*
X132293201Y-153880699I250000J0D01*
G01*
X133543201Y-153880699D01*
G75*
G02*
X133793201Y-154130699I0J-250000D01*
G01*
X133793201Y-155055699D01*
G75*
G02*
X133543201Y-155305699I-250000J0D01*
G01*
G37*
G36*
G01*
X129538701Y-149884199D02*
X129538701Y-148634199D01*
G75*
G02*
X129788701Y-148384199I250000J0D01*
G01*
X130713701Y-148384199D01*
G75*
G02*
X130963701Y-148634199I0J-250000D01*
G01*
X130963701Y-149884199D01*
G75*
G02*
X130713701Y-150134199I-250000J0D01*
G01*
X129788701Y-150134199D01*
G75*
G02*
X129538701Y-149884199I0J250000D01*
G01*
G37*
G36*
G01*
X132513701Y-149884199D02*
X132513701Y-148634199D01*
G75*
G02*
X132763701Y-148384199I250000J0D01*
G01*
X133688701Y-148384199D01*
G75*
G02*
X133938701Y-148634199I0J-250000D01*
G01*
X133938701Y-149884199D01*
G75*
G02*
X133688701Y-150134199I-250000J0D01*
G01*
X132763701Y-150134199D01*
G75*
G02*
X132513701Y-149884199I0J250000D01*
G01*
G37*
D30*
X38859500Y-126000000D03*
X36959500Y-126000000D03*
X37909500Y-128000000D03*
D31*
X66513448Y-102814999D03*
X66513448Y-103315000D03*
X66513448Y-103814999D03*
X66513448Y-104315001D03*
X66513448Y-104815000D03*
X66513448Y-105314999D03*
X66513448Y-105815000D03*
X66513448Y-106314999D03*
X66513448Y-106814998D03*
X66513448Y-107315000D03*
X66513448Y-107814999D03*
X66513448Y-108315001D03*
X66513448Y-108815000D03*
X66513448Y-109314999D03*
X66513448Y-109815000D03*
X66513448Y-110314999D03*
X66513448Y-110815001D03*
X66513448Y-111315000D03*
X66513448Y-111814999D03*
X60613552Y-111815001D03*
X60613552Y-111315000D03*
X60613552Y-110815001D03*
X60613552Y-110314999D03*
X60613552Y-109815000D03*
X60613552Y-109315001D03*
X60613552Y-108815000D03*
X60613552Y-108315001D03*
X60613552Y-107814999D03*
X60613552Y-107315000D03*
X60613552Y-106815001D03*
X60613552Y-106314999D03*
X60613552Y-105815000D03*
X60613552Y-105314999D03*
X60613552Y-104815000D03*
X60613552Y-104315001D03*
X60613552Y-103814999D03*
X60613552Y-103315000D03*
X60613552Y-102815001D03*
D24*
X122389901Y-141385199D03*
X121094501Y-141880499D03*
X121094501Y-140889899D03*
D25*
X116408201Y-166012201D03*
D26*
X118313201Y-167802200D03*
X117043201Y-167802200D03*
X115773201Y-167802200D03*
X114503201Y-167802200D03*
X114503201Y-162212198D03*
X115773201Y-162212198D03*
X117043201Y-162212198D03*
X118313201Y-162212198D03*
D28*
X123129201Y-154847199D03*
D27*
X122224202Y-155822198D03*
X122224202Y-155172200D03*
X122224202Y-154522198D03*
X122224202Y-153872200D03*
X125324200Y-153872200D03*
X125324200Y-154522201D03*
X125324200Y-155172200D03*
X125324200Y-155822201D03*
D21*
X129362201Y-158667199D03*
X129362201Y-159292199D03*
X129362201Y-159917199D03*
D19*
X127749700Y-160342199D03*
D20*
X127712202Y-159542199D03*
X127712202Y-159042199D03*
D19*
X127749700Y-158242199D03*
D18*
X127771577Y-157651575D03*
D13*
X128362200Y-157392200D03*
D14*
X128862202Y-157454699D03*
X129362201Y-157454699D03*
X129862200Y-157454699D03*
D13*
X130362202Y-157392200D03*
D17*
X131167450Y-157648448D03*
D16*
X130999701Y-158167200D03*
X130999701Y-158667199D03*
X130999701Y-159417200D03*
X130999701Y-159917199D03*
X130999701Y-160417198D03*
D15*
X130915889Y-160953138D03*
D13*
X130362202Y-161192198D03*
D14*
X129862200Y-161129699D03*
X129362201Y-161129699D03*
X128862202Y-161129699D03*
D13*
X128362200Y-161192198D03*
D12*
X127807513Y-160953138D03*
D29*
X111169451Y-165962198D03*
X111169451Y-166912199D03*
X111169451Y-167862200D03*
X108438951Y-167862200D03*
X108438951Y-166912199D03*
X108438951Y-165962198D03*
X138855451Y-153135198D03*
X138855451Y-154085199D03*
X138855451Y-155035200D03*
X136124951Y-155035200D03*
X136124951Y-154085199D03*
X136124951Y-153135198D03*
G36*
G01*
X78889500Y-105336500D02*
X78889500Y-104086500D01*
G75*
G02*
X79139500Y-103836500I250000J0D01*
G01*
X80064500Y-103836500D01*
G75*
G02*
X80314500Y-104086500I0J-250000D01*
G01*
X80314500Y-105336500D01*
G75*
G02*
X80064500Y-105586500I-250000J0D01*
G01*
X79139500Y-105586500D01*
G75*
G02*
X78889500Y-105336500I0J250000D01*
G01*
G37*
G36*
G01*
X81864500Y-105336500D02*
X81864500Y-104086500D01*
G75*
G02*
X82114500Y-103836500I250000J0D01*
G01*
X83039500Y-103836500D01*
G75*
G02*
X83289500Y-104086500I0J-250000D01*
G01*
X83289500Y-105336500D01*
G75*
G02*
X83039500Y-105586500I-250000J0D01*
G01*
X82114500Y-105586500D01*
G75*
G02*
X81864500Y-105336500I0J250000D01*
G01*
G37*
G36*
G01*
X38482299Y-65973801D02*
X38482299Y-67223801D01*
G75*
G02*
X38232299Y-67473801I-250000J0D01*
G01*
X37307299Y-67473801D01*
G75*
G02*
X37057299Y-67223801I0J250000D01*
G01*
X37057299Y-65973801D01*
G75*
G02*
X37307299Y-65723801I250000J0D01*
G01*
X38232299Y-65723801D01*
G75*
G02*
X38482299Y-65973801I0J-250000D01*
G01*
G37*
G36*
G01*
X41457299Y-65973801D02*
X41457299Y-67223801D01*
G75*
G02*
X41207299Y-67473801I-250000J0D01*
G01*
X40282299Y-67473801D01*
G75*
G02*
X40032299Y-67223801I0J250000D01*
G01*
X40032299Y-65973801D01*
G75*
G02*
X40282299Y-65723801I250000J0D01*
G01*
X41207299Y-65723801D01*
G75*
G02*
X41457299Y-65973801I0J-250000D01*
G01*
G37*
G36*
G01*
X41493799Y-68386801D02*
X41493799Y-69636801D01*
G75*
G02*
X41243799Y-69886801I-250000J0D01*
G01*
X40318799Y-69886801D01*
G75*
G02*
X40068799Y-69636801I0J250000D01*
G01*
X40068799Y-68386801D01*
G75*
G02*
X40318799Y-68136801I250000J0D01*
G01*
X41243799Y-68136801D01*
G75*
G02*
X41493799Y-68386801I0J-250000D01*
G01*
G37*
G36*
G01*
X38518799Y-68386801D02*
X38518799Y-69636801D01*
G75*
G02*
X38268799Y-69886801I-250000J0D01*
G01*
X37343799Y-69886801D01*
G75*
G02*
X37093799Y-69636801I0J250000D01*
G01*
X37093799Y-68386801D01*
G75*
G02*
X37343799Y-68136801I250000J0D01*
G01*
X38268799Y-68136801D01*
G75*
G02*
X38518799Y-68386801I0J-250000D01*
G01*
G37*
G36*
G01*
X38555299Y-70799801D02*
X38555299Y-72049801D01*
G75*
G02*
X38305299Y-72299801I-250000J0D01*
G01*
X37380299Y-72299801D01*
G75*
G02*
X37130299Y-72049801I0J250000D01*
G01*
X37130299Y-70799801D01*
G75*
G02*
X37380299Y-70549801I250000J0D01*
G01*
X38305299Y-70549801D01*
G75*
G02*
X38555299Y-70799801I0J-250000D01*
G01*
G37*
G36*
G01*
X41530299Y-70799801D02*
X41530299Y-72049801D01*
G75*
G02*
X41280299Y-72299801I-250000J0D01*
G01*
X40355299Y-72299801D01*
G75*
G02*
X40105299Y-72049801I0J250000D01*
G01*
X40105299Y-70799801D01*
G75*
G02*
X40355299Y-70549801I250000J0D01*
G01*
X41280299Y-70549801D01*
G75*
G02*
X41530299Y-70799801I0J-250000D01*
G01*
G37*
G36*
G01*
X46827799Y-74736801D02*
X46827799Y-75986801D01*
G75*
G02*
X46577799Y-76236801I-250000J0D01*
G01*
X45652799Y-76236801D01*
G75*
G02*
X45402799Y-75986801I0J250000D01*
G01*
X45402799Y-74736801D01*
G75*
G02*
X45652799Y-74486801I250000J0D01*
G01*
X46577799Y-74486801D01*
G75*
G02*
X46827799Y-74736801I0J-250000D01*
G01*
G37*
G36*
G01*
X43852799Y-74736801D02*
X43852799Y-75986801D01*
G75*
G02*
X43602799Y-76236801I-250000J0D01*
G01*
X42677799Y-76236801D01*
G75*
G02*
X42427799Y-75986801I0J250000D01*
G01*
X42427799Y-74736801D01*
G75*
G02*
X42677799Y-74486801I250000J0D01*
G01*
X43602799Y-74486801D01*
G75*
G02*
X43852799Y-74736801I0J-250000D01*
G01*
G37*
G36*
G01*
X40446799Y-83502801D02*
X41696799Y-83502801D01*
G75*
G02*
X41946799Y-83752801I0J-250000D01*
G01*
X41946799Y-84677801D01*
G75*
G02*
X41696799Y-84927801I-250000J0D01*
G01*
X40446799Y-84927801D01*
G75*
G02*
X40196799Y-84677801I0J250000D01*
G01*
X40196799Y-83752801D01*
G75*
G02*
X40446799Y-83502801I250000J0D01*
G01*
G37*
G36*
G01*
X40446799Y-80527801D02*
X41696799Y-80527801D01*
G75*
G02*
X41946799Y-80777801I0J-250000D01*
G01*
X41946799Y-81702801D01*
G75*
G02*
X41696799Y-81952801I-250000J0D01*
G01*
X40446799Y-81952801D01*
G75*
G02*
X40196799Y-81702801I0J250000D01*
G01*
X40196799Y-80777801D01*
G75*
G02*
X40446799Y-80527801I250000J0D01*
G01*
G37*
G36*
G01*
X44731299Y-78653801D02*
X44731299Y-77403801D01*
G75*
G02*
X44981299Y-77153801I250000J0D01*
G01*
X45906299Y-77153801D01*
G75*
G02*
X46156299Y-77403801I0J-250000D01*
G01*
X46156299Y-78653801D01*
G75*
G02*
X45906299Y-78903801I-250000J0D01*
G01*
X44981299Y-78903801D01*
G75*
G02*
X44731299Y-78653801I0J250000D01*
G01*
G37*
G36*
G01*
X41756299Y-78653801D02*
X41756299Y-77403801D01*
G75*
G02*
X42006299Y-77153801I250000J0D01*
G01*
X42931299Y-77153801D01*
G75*
G02*
X43181299Y-77403801I0J-250000D01*
G01*
X43181299Y-78653801D01*
G75*
G02*
X42931299Y-78903801I-250000J0D01*
G01*
X42006299Y-78903801D01*
G75*
G02*
X41756299Y-78653801I0J250000D01*
G01*
G37*
G36*
G01*
X33456299Y-73847801D02*
X33456299Y-75097801D01*
G75*
G02*
X33206299Y-75347801I-250000J0D01*
G01*
X32281299Y-75347801D01*
G75*
G02*
X32031299Y-75097801I0J250000D01*
G01*
X32031299Y-73847801D01*
G75*
G02*
X32281299Y-73597801I250000J0D01*
G01*
X33206299Y-73597801D01*
G75*
G02*
X33456299Y-73847801I0J-250000D01*
G01*
G37*
G36*
G01*
X30481299Y-73847801D02*
X30481299Y-75097801D01*
G75*
G02*
X30231299Y-75347801I-250000J0D01*
G01*
X29306299Y-75347801D01*
G75*
G02*
X29056299Y-75097801I0J250000D01*
G01*
X29056299Y-73847801D01*
G75*
G02*
X29306299Y-73597801I250000J0D01*
G01*
X30231299Y-73597801D01*
G75*
G02*
X30481299Y-73847801I0J-250000D01*
G01*
G37*
G36*
G01*
X30481299Y-71434801D02*
X30481299Y-72684801D01*
G75*
G02*
X30231299Y-72934801I-250000J0D01*
G01*
X29306299Y-72934801D01*
G75*
G02*
X29056299Y-72684801I0J250000D01*
G01*
X29056299Y-71434801D01*
G75*
G02*
X29306299Y-71184801I250000J0D01*
G01*
X30231299Y-71184801D01*
G75*
G02*
X30481299Y-71434801I0J-250000D01*
G01*
G37*
G36*
G01*
X33456299Y-71434801D02*
X33456299Y-72684801D01*
G75*
G02*
X33206299Y-72934801I-250000J0D01*
G01*
X32281299Y-72934801D01*
G75*
G02*
X32031299Y-72684801I0J250000D01*
G01*
X32031299Y-71434801D01*
G75*
G02*
X32281299Y-71184801I250000J0D01*
G01*
X33206299Y-71184801D01*
G75*
G02*
X33456299Y-71434801I0J-250000D01*
G01*
G37*
G36*
G01*
X38775799Y-85018301D02*
X37525799Y-85018301D01*
G75*
G02*
X37275799Y-84768301I0J250000D01*
G01*
X37275799Y-83843301D01*
G75*
G02*
X37525799Y-83593301I250000J0D01*
G01*
X38775799Y-83593301D01*
G75*
G02*
X39025799Y-83843301I0J-250000D01*
G01*
X39025799Y-84768301D01*
G75*
G02*
X38775799Y-85018301I-250000J0D01*
G01*
G37*
G36*
G01*
X38775799Y-82043301D02*
X37525799Y-82043301D01*
G75*
G02*
X37275799Y-81793301I0J250000D01*
G01*
X37275799Y-80868301D01*
G75*
G02*
X37525799Y-80618301I250000J0D01*
G01*
X38775799Y-80618301D01*
G75*
G02*
X39025799Y-80868301I0J-250000D01*
G01*
X39025799Y-81793301D01*
G75*
G02*
X38775799Y-82043301I-250000J0D01*
G01*
G37*
G36*
G01*
X33492799Y-69021801D02*
X33492799Y-70271801D01*
G75*
G02*
X33242799Y-70521801I-250000J0D01*
G01*
X32317799Y-70521801D01*
G75*
G02*
X32067799Y-70271801I0J250000D01*
G01*
X32067799Y-69021801D01*
G75*
G02*
X32317799Y-68771801I250000J0D01*
G01*
X33242799Y-68771801D01*
G75*
G02*
X33492799Y-69021801I0J-250000D01*
G01*
G37*
G36*
G01*
X30517799Y-69021801D02*
X30517799Y-70271801D01*
G75*
G02*
X30267799Y-70521801I-250000J0D01*
G01*
X29342799Y-70521801D01*
G75*
G02*
X29092799Y-70271801I0J250000D01*
G01*
X29092799Y-69021801D01*
G75*
G02*
X29342799Y-68771801I250000J0D01*
G01*
X30267799Y-68771801D01*
G75*
G02*
X30517799Y-69021801I0J-250000D01*
G01*
G37*
G36*
G01*
X35727799Y-72300801D02*
X34477799Y-72300801D01*
G75*
G02*
X34227799Y-72050801I0J250000D01*
G01*
X34227799Y-71125801D01*
G75*
G02*
X34477799Y-70875801I250000J0D01*
G01*
X35727799Y-70875801D01*
G75*
G02*
X35977799Y-71125801I0J-250000D01*
G01*
X35977799Y-72050801D01*
G75*
G02*
X35727799Y-72300801I-250000J0D01*
G01*
G37*
G36*
G01*
X35727799Y-75275801D02*
X34477799Y-75275801D01*
G75*
G02*
X34227799Y-75025801I0J250000D01*
G01*
X34227799Y-74100801D01*
G75*
G02*
X34477799Y-73850801I250000J0D01*
G01*
X35727799Y-73850801D01*
G75*
G02*
X35977799Y-74100801I0J-250000D01*
G01*
X35977799Y-75025801D01*
G75*
G02*
X35727799Y-75275801I-250000J0D01*
G01*
G37*
G36*
G01*
X64579799Y-70525801D02*
X64579799Y-69275801D01*
G75*
G02*
X64829799Y-69025801I250000J0D01*
G01*
X65754799Y-69025801D01*
G75*
G02*
X66004799Y-69275801I0J-250000D01*
G01*
X66004799Y-70525801D01*
G75*
G02*
X65754799Y-70775801I-250000J0D01*
G01*
X64829799Y-70775801D01*
G75*
G02*
X64579799Y-70525801I0J250000D01*
G01*
G37*
G36*
G01*
X61604799Y-70525801D02*
X61604799Y-69275801D01*
G75*
G02*
X61854799Y-69025801I250000J0D01*
G01*
X62779799Y-69025801D01*
G75*
G02*
X63029799Y-69275801I0J-250000D01*
G01*
X63029799Y-70525801D01*
G75*
G02*
X62779799Y-70775801I-250000J0D01*
G01*
X61854799Y-70775801D01*
G75*
G02*
X61604799Y-70525801I0J250000D01*
G01*
G37*
G36*
G01*
X31683799Y-87276301D02*
X32933799Y-87276301D01*
G75*
G02*
X33183799Y-87526301I0J-250000D01*
G01*
X33183799Y-88451301D01*
G75*
G02*
X32933799Y-88701301I-250000J0D01*
G01*
X31683799Y-88701301D01*
G75*
G02*
X31433799Y-88451301I0J250000D01*
G01*
X31433799Y-87526301D01*
G75*
G02*
X31683799Y-87276301I250000J0D01*
G01*
G37*
G36*
G01*
X31683799Y-84301301D02*
X32933799Y-84301301D01*
G75*
G02*
X33183799Y-84551301I0J-250000D01*
G01*
X33183799Y-85476301D01*
G75*
G02*
X32933799Y-85726301I-250000J0D01*
G01*
X31683799Y-85726301D01*
G75*
G02*
X31433799Y-85476301I0J250000D01*
G01*
X31433799Y-84551301D01*
G75*
G02*
X31683799Y-84301301I250000J0D01*
G01*
G37*
G36*
G01*
X105211299Y-66015801D02*
X105211299Y-67265801D01*
G75*
G02*
X104961299Y-67515801I-250000J0D01*
G01*
X104036299Y-67515801D01*
G75*
G02*
X103786299Y-67265801I0J250000D01*
G01*
X103786299Y-66015801D01*
G75*
G02*
X104036299Y-65765801I250000J0D01*
G01*
X104961299Y-65765801D01*
G75*
G02*
X105211299Y-66015801I0J-250000D01*
G01*
G37*
G36*
G01*
X102236299Y-66015801D02*
X102236299Y-67265801D01*
G75*
G02*
X101986299Y-67515801I-250000J0D01*
G01*
X101061299Y-67515801D01*
G75*
G02*
X100811299Y-67265801I0J250000D01*
G01*
X100811299Y-66015801D01*
G75*
G02*
X101061299Y-65765801I250000J0D01*
G01*
X101986299Y-65765801D01*
G75*
G02*
X102236299Y-66015801I0J-250000D01*
G01*
G37*
G36*
G01*
X105247799Y-68428801D02*
X105247799Y-69678801D01*
G75*
G02*
X104997799Y-69928801I-250000J0D01*
G01*
X104072799Y-69928801D01*
G75*
G02*
X103822799Y-69678801I0J250000D01*
G01*
X103822799Y-68428801D01*
G75*
G02*
X104072799Y-68178801I250000J0D01*
G01*
X104997799Y-68178801D01*
G75*
G02*
X105247799Y-68428801I0J-250000D01*
G01*
G37*
G36*
G01*
X102272799Y-68428801D02*
X102272799Y-69678801D01*
G75*
G02*
X102022799Y-69928801I-250000J0D01*
G01*
X101097799Y-69928801D01*
G75*
G02*
X100847799Y-69678801I0J250000D01*
G01*
X100847799Y-68428801D01*
G75*
G02*
X101097799Y-68178801I250000J0D01*
G01*
X102022799Y-68178801D01*
G75*
G02*
X102272799Y-68428801I0J-250000D01*
G01*
G37*
G36*
G01*
X102309299Y-70841801D02*
X102309299Y-72091801D01*
G75*
G02*
X102059299Y-72341801I-250000J0D01*
G01*
X101134299Y-72341801D01*
G75*
G02*
X100884299Y-72091801I0J250000D01*
G01*
X100884299Y-70841801D01*
G75*
G02*
X101134299Y-70591801I250000J0D01*
G01*
X102059299Y-70591801D01*
G75*
G02*
X102309299Y-70841801I0J-250000D01*
G01*
G37*
G36*
G01*
X105284299Y-70841801D02*
X105284299Y-72091801D01*
G75*
G02*
X105034299Y-72341801I-250000J0D01*
G01*
X104109299Y-72341801D01*
G75*
G02*
X103859299Y-72091801I0J250000D01*
G01*
X103859299Y-70841801D01*
G75*
G02*
X104109299Y-70591801I250000J0D01*
G01*
X105034299Y-70591801D01*
G75*
G02*
X105284299Y-70841801I0J-250000D01*
G01*
G37*
G36*
G01*
X107606799Y-74778801D02*
X107606799Y-76028801D01*
G75*
G02*
X107356799Y-76278801I-250000J0D01*
G01*
X106431799Y-76278801D01*
G75*
G02*
X106181799Y-76028801I0J250000D01*
G01*
X106181799Y-74778801D01*
G75*
G02*
X106431799Y-74528801I250000J0D01*
G01*
X107356799Y-74528801D01*
G75*
G02*
X107606799Y-74778801I0J-250000D01*
G01*
G37*
G36*
G01*
X110581799Y-74778801D02*
X110581799Y-76028801D01*
G75*
G02*
X110331799Y-76278801I-250000J0D01*
G01*
X109406799Y-76278801D01*
G75*
G02*
X109156799Y-76028801I0J250000D01*
G01*
X109156799Y-74778801D01*
G75*
G02*
X109406799Y-74528801I250000J0D01*
G01*
X110331799Y-74528801D01*
G75*
G02*
X110581799Y-74778801I0J-250000D01*
G01*
G37*
G36*
G01*
X104200799Y-80569801D02*
X105450799Y-80569801D01*
G75*
G02*
X105700799Y-80819801I0J-250000D01*
G01*
X105700799Y-81744801D01*
G75*
G02*
X105450799Y-81994801I-250000J0D01*
G01*
X104200799Y-81994801D01*
G75*
G02*
X103950799Y-81744801I0J250000D01*
G01*
X103950799Y-80819801D01*
G75*
G02*
X104200799Y-80569801I250000J0D01*
G01*
G37*
G36*
G01*
X104200799Y-83544801D02*
X105450799Y-83544801D01*
G75*
G02*
X105700799Y-83794801I0J-250000D01*
G01*
X105700799Y-84719801D01*
G75*
G02*
X105450799Y-84969801I-250000J0D01*
G01*
X104200799Y-84969801D01*
G75*
G02*
X103950799Y-84719801I0J250000D01*
G01*
X103950799Y-83794801D01*
G75*
G02*
X104200799Y-83544801I250000J0D01*
G01*
G37*
G36*
G01*
X105510299Y-78695801D02*
X105510299Y-77445801D01*
G75*
G02*
X105760299Y-77195801I250000J0D01*
G01*
X106685299Y-77195801D01*
G75*
G02*
X106935299Y-77445801I0J-250000D01*
G01*
X106935299Y-78695801D01*
G75*
G02*
X106685299Y-78945801I-250000J0D01*
G01*
X105760299Y-78945801D01*
G75*
G02*
X105510299Y-78695801I0J250000D01*
G01*
G37*
G36*
G01*
X108485299Y-78695801D02*
X108485299Y-77445801D01*
G75*
G02*
X108735299Y-77195801I250000J0D01*
G01*
X109660299Y-77195801D01*
G75*
G02*
X109910299Y-77445801I0J-250000D01*
G01*
X109910299Y-78695801D01*
G75*
G02*
X109660299Y-78945801I-250000J0D01*
G01*
X108735299Y-78945801D01*
G75*
G02*
X108485299Y-78695801I0J250000D01*
G01*
G37*
G36*
G01*
X97210299Y-73889801D02*
X97210299Y-75139801D01*
G75*
G02*
X96960299Y-75389801I-250000J0D01*
G01*
X96035299Y-75389801D01*
G75*
G02*
X95785299Y-75139801I0J250000D01*
G01*
X95785299Y-73889801D01*
G75*
G02*
X96035299Y-73639801I250000J0D01*
G01*
X96960299Y-73639801D01*
G75*
G02*
X97210299Y-73889801I0J-250000D01*
G01*
G37*
G36*
G01*
X94235299Y-73889801D02*
X94235299Y-75139801D01*
G75*
G02*
X93985299Y-75389801I-250000J0D01*
G01*
X93060299Y-75389801D01*
G75*
G02*
X92810299Y-75139801I0J250000D01*
G01*
X92810299Y-73889801D01*
G75*
G02*
X93060299Y-73639801I250000J0D01*
G01*
X93985299Y-73639801D01*
G75*
G02*
X94235299Y-73889801I0J-250000D01*
G01*
G37*
G36*
G01*
X97210299Y-71476801D02*
X97210299Y-72726801D01*
G75*
G02*
X96960299Y-72976801I-250000J0D01*
G01*
X96035299Y-72976801D01*
G75*
G02*
X95785299Y-72726801I0J250000D01*
G01*
X95785299Y-71476801D01*
G75*
G02*
X96035299Y-71226801I250000J0D01*
G01*
X96960299Y-71226801D01*
G75*
G02*
X97210299Y-71476801I0J-250000D01*
G01*
G37*
G36*
G01*
X94235299Y-71476801D02*
X94235299Y-72726801D01*
G75*
G02*
X93985299Y-72976801I-250000J0D01*
G01*
X93060299Y-72976801D01*
G75*
G02*
X92810299Y-72726801I0J250000D01*
G01*
X92810299Y-71476801D01*
G75*
G02*
X93060299Y-71226801I250000J0D01*
G01*
X93985299Y-71226801D01*
G75*
G02*
X94235299Y-71476801I0J-250000D01*
G01*
G37*
G36*
G01*
X102529799Y-82085301D02*
X101279799Y-82085301D01*
G75*
G02*
X101029799Y-81835301I0J250000D01*
G01*
X101029799Y-80910301D01*
G75*
G02*
X101279799Y-80660301I250000J0D01*
G01*
X102529799Y-80660301D01*
G75*
G02*
X102779799Y-80910301I0J-250000D01*
G01*
X102779799Y-81835301D01*
G75*
G02*
X102529799Y-82085301I-250000J0D01*
G01*
G37*
G36*
G01*
X102529799Y-85060301D02*
X101279799Y-85060301D01*
G75*
G02*
X101029799Y-84810301I0J250000D01*
G01*
X101029799Y-83885301D01*
G75*
G02*
X101279799Y-83635301I250000J0D01*
G01*
X102529799Y-83635301D01*
G75*
G02*
X102779799Y-83885301I0J-250000D01*
G01*
X102779799Y-84810301D01*
G75*
G02*
X102529799Y-85060301I-250000J0D01*
G01*
G37*
G36*
G01*
X94271799Y-69063801D02*
X94271799Y-70313801D01*
G75*
G02*
X94021799Y-70563801I-250000J0D01*
G01*
X93096799Y-70563801D01*
G75*
G02*
X92846799Y-70313801I0J250000D01*
G01*
X92846799Y-69063801D01*
G75*
G02*
X93096799Y-68813801I250000J0D01*
G01*
X94021799Y-68813801D01*
G75*
G02*
X94271799Y-69063801I0J-250000D01*
G01*
G37*
G36*
G01*
X97246799Y-69063801D02*
X97246799Y-70313801D01*
G75*
G02*
X96996799Y-70563801I-250000J0D01*
G01*
X96071799Y-70563801D01*
G75*
G02*
X95821799Y-70313801I0J250000D01*
G01*
X95821799Y-69063801D01*
G75*
G02*
X96071799Y-68813801I250000J0D01*
G01*
X96996799Y-68813801D01*
G75*
G02*
X97246799Y-69063801I0J-250000D01*
G01*
G37*
G36*
G01*
X99481799Y-75317801D02*
X98231799Y-75317801D01*
G75*
G02*
X97981799Y-75067801I0J250000D01*
G01*
X97981799Y-74142801D01*
G75*
G02*
X98231799Y-73892801I250000J0D01*
G01*
X99481799Y-73892801D01*
G75*
G02*
X99731799Y-74142801I0J-250000D01*
G01*
X99731799Y-75067801D01*
G75*
G02*
X99481799Y-75317801I-250000J0D01*
G01*
G37*
G36*
G01*
X99481799Y-72342801D02*
X98231799Y-72342801D01*
G75*
G02*
X97981799Y-72092801I0J250000D01*
G01*
X97981799Y-71167801D01*
G75*
G02*
X98231799Y-70917801I250000J0D01*
G01*
X99481799Y-70917801D01*
G75*
G02*
X99731799Y-71167801I0J-250000D01*
G01*
X99731799Y-72092801D01*
G75*
G02*
X99481799Y-72342801I-250000J0D01*
G01*
G37*
G36*
G01*
X125358799Y-70567801D02*
X125358799Y-69317801D01*
G75*
G02*
X125608799Y-69067801I250000J0D01*
G01*
X126533799Y-69067801D01*
G75*
G02*
X126783799Y-69317801I0J-250000D01*
G01*
X126783799Y-70567801D01*
G75*
G02*
X126533799Y-70817801I-250000J0D01*
G01*
X125608799Y-70817801D01*
G75*
G02*
X125358799Y-70567801I0J250000D01*
G01*
G37*
G36*
G01*
X128333799Y-70567801D02*
X128333799Y-69317801D01*
G75*
G02*
X128583799Y-69067801I250000J0D01*
G01*
X129508799Y-69067801D01*
G75*
G02*
X129758799Y-69317801I0J-250000D01*
G01*
X129758799Y-70567801D01*
G75*
G02*
X129508799Y-70817801I-250000J0D01*
G01*
X128583799Y-70817801D01*
G75*
G02*
X128333799Y-70567801I0J250000D01*
G01*
G37*
G36*
G01*
X95437799Y-87318301D02*
X96687799Y-87318301D01*
G75*
G02*
X96937799Y-87568301I0J-250000D01*
G01*
X96937799Y-88493301D01*
G75*
G02*
X96687799Y-88743301I-250000J0D01*
G01*
X95437799Y-88743301D01*
G75*
G02*
X95187799Y-88493301I0J250000D01*
G01*
X95187799Y-87568301D01*
G75*
G02*
X95437799Y-87318301I250000J0D01*
G01*
G37*
G36*
G01*
X95437799Y-84343301D02*
X96687799Y-84343301D01*
G75*
G02*
X96937799Y-84593301I0J-250000D01*
G01*
X96937799Y-85518301D01*
G75*
G02*
X96687799Y-85768301I-250000J0D01*
G01*
X95437799Y-85768301D01*
G75*
G02*
X95187799Y-85518301I0J250000D01*
G01*
X95187799Y-84593301D01*
G75*
G02*
X95437799Y-84343301I250000J0D01*
G01*
G37*
D22*
X74498498Y-85775801D03*
D23*
X52423500Y-90850800D03*
X52423500Y-80700802D03*
X116177500Y-80742802D03*
X116177500Y-90892800D03*
D22*
X138252498Y-85817801D03*
G36*
G01*
X54049299Y-60385801D02*
X54049299Y-61635801D01*
G75*
G02*
X53799299Y-61885801I-250000J0D01*
G01*
X52874299Y-61885801D01*
G75*
G02*
X52624299Y-61635801I0J250000D01*
G01*
X52624299Y-60385801D01*
G75*
G02*
X52874299Y-60135801I250000J0D01*
G01*
X53799299Y-60135801D01*
G75*
G02*
X54049299Y-60385801I0J-250000D01*
G01*
G37*
G36*
G01*
X57024299Y-60385801D02*
X57024299Y-61635801D01*
G75*
G02*
X56774299Y-61885801I-250000J0D01*
G01*
X55849299Y-61885801D01*
G75*
G02*
X55599299Y-61635801I0J250000D01*
G01*
X55599299Y-60385801D01*
G75*
G02*
X55849299Y-60135801I250000J0D01*
G01*
X56774299Y-60135801D01*
G75*
G02*
X57024299Y-60385801I0J-250000D01*
G01*
G37*
G36*
G01*
X52624299Y-58841801D02*
X52624299Y-57591801D01*
G75*
G02*
X52874299Y-57341801I250000J0D01*
G01*
X53799299Y-57341801D01*
G75*
G02*
X54049299Y-57591801I0J-250000D01*
G01*
X54049299Y-58841801D01*
G75*
G02*
X53799299Y-59091801I-250000J0D01*
G01*
X52874299Y-59091801D01*
G75*
G02*
X52624299Y-58841801I0J250000D01*
G01*
G37*
G36*
G01*
X55599299Y-58841801D02*
X55599299Y-57591801D01*
G75*
G02*
X55849299Y-57341801I250000J0D01*
G01*
X56774299Y-57341801D01*
G75*
G02*
X57024299Y-57591801I0J-250000D01*
G01*
X57024299Y-58841801D01*
G75*
G02*
X56774299Y-59091801I-250000J0D01*
G01*
X55849299Y-59091801D01*
G75*
G02*
X55599299Y-58841801I0J250000D01*
G01*
G37*
G36*
G01*
X61137299Y-66245802D02*
X61137299Y-63395800D01*
G75*
G02*
X61387298Y-63145801I249999J0D01*
G01*
X62412300Y-63145801D01*
G75*
G02*
X62662299Y-63395800I0J-249999D01*
G01*
X62662299Y-66245802D01*
G75*
G02*
X62412300Y-66495801I-249999J0D01*
G01*
X61387298Y-66495801D01*
G75*
G02*
X61137299Y-66245802I0J249999D01*
G01*
G37*
G36*
G01*
X55162299Y-66245802D02*
X55162299Y-63395800D01*
G75*
G02*
X55412298Y-63145801I249999J0D01*
G01*
X56437300Y-63145801D01*
G75*
G02*
X56687299Y-63395800I0J-249999D01*
G01*
X56687299Y-66245802D01*
G75*
G02*
X56437300Y-66495801I-249999J0D01*
G01*
X55412298Y-66495801D01*
G75*
G02*
X55162299Y-66245802I0J249999D01*
G01*
G37*
G36*
G01*
X44640799Y-97957801D02*
X44640799Y-96707801D01*
G75*
G02*
X44890799Y-96457801I250000J0D01*
G01*
X45815799Y-96457801D01*
G75*
G02*
X46065799Y-96707801I0J-250000D01*
G01*
X46065799Y-97957801D01*
G75*
G02*
X45815799Y-98207801I-250000J0D01*
G01*
X44890799Y-98207801D01*
G75*
G02*
X44640799Y-97957801I0J250000D01*
G01*
G37*
G36*
G01*
X41665799Y-97957801D02*
X41665799Y-96707801D01*
G75*
G02*
X41915799Y-96457801I250000J0D01*
G01*
X42840799Y-96457801D01*
G75*
G02*
X43090799Y-96707801I0J-250000D01*
G01*
X43090799Y-97957801D01*
G75*
G02*
X42840799Y-98207801I-250000J0D01*
G01*
X41915799Y-98207801D01*
G75*
G02*
X41665799Y-97957801I0J250000D01*
G01*
G37*
G36*
G01*
X42899299Y-89702801D02*
X42899299Y-88452801D01*
G75*
G02*
X43149299Y-88202801I250000J0D01*
G01*
X44074299Y-88202801D01*
G75*
G02*
X44324299Y-88452801I0J-250000D01*
G01*
X44324299Y-89702801D01*
G75*
G02*
X44074299Y-89952801I-250000J0D01*
G01*
X43149299Y-89952801D01*
G75*
G02*
X42899299Y-89702801I0J250000D01*
G01*
G37*
G36*
G01*
X39924299Y-89702801D02*
X39924299Y-88452801D01*
G75*
G02*
X40174299Y-88202801I250000J0D01*
G01*
X41099299Y-88202801D01*
G75*
G02*
X41349299Y-88452801I0J-250000D01*
G01*
X41349299Y-89702801D01*
G75*
G02*
X41099299Y-89952801I-250000J0D01*
G01*
X40174299Y-89952801D01*
G75*
G02*
X39924299Y-89702801I0J250000D01*
G01*
G37*
G36*
G01*
X38609299Y-92135801D02*
X38609299Y-93385801D01*
G75*
G02*
X38359299Y-93635801I-250000J0D01*
G01*
X37434299Y-93635801D01*
G75*
G02*
X37184299Y-93385801I0J250000D01*
G01*
X37184299Y-92135801D01*
G75*
G02*
X37434299Y-91885801I250000J0D01*
G01*
X38359299Y-91885801D01*
G75*
G02*
X38609299Y-92135801I0J-250000D01*
G01*
G37*
G36*
G01*
X35634299Y-92135801D02*
X35634299Y-93385801D01*
G75*
G02*
X35384299Y-93635801I-250000J0D01*
G01*
X34459299Y-93635801D01*
G75*
G02*
X34209299Y-93385801I0J250000D01*
G01*
X34209299Y-92135801D01*
G75*
G02*
X34459299Y-91885801I250000J0D01*
G01*
X35384299Y-91885801D01*
G75*
G02*
X35634299Y-92135801I0J-250000D01*
G01*
G37*
G36*
G01*
X41476299Y-99628801D02*
X41476299Y-100878801D01*
G75*
G02*
X41226299Y-101128801I-250000J0D01*
G01*
X40301299Y-101128801D01*
G75*
G02*
X40051299Y-100878801I0J250000D01*
G01*
X40051299Y-99628801D01*
G75*
G02*
X40301299Y-99378801I250000J0D01*
G01*
X41226299Y-99378801D01*
G75*
G02*
X41476299Y-99628801I0J-250000D01*
G01*
G37*
G36*
G01*
X44451299Y-99628801D02*
X44451299Y-100878801D01*
G75*
G02*
X44201299Y-101128801I-250000J0D01*
G01*
X43276299Y-101128801D01*
G75*
G02*
X43026299Y-100878801I0J250000D01*
G01*
X43026299Y-99628801D01*
G75*
G02*
X43276299Y-99378801I250000J0D01*
G01*
X44201299Y-99378801D01*
G75*
G02*
X44451299Y-99628801I0J-250000D01*
G01*
G37*
G36*
G01*
X28304799Y-79199802D02*
X28304799Y-76349800D01*
G75*
G02*
X28554798Y-76099801I249999J0D01*
G01*
X29579800Y-76099801D01*
G75*
G02*
X29829799Y-76349800I0J-249999D01*
G01*
X29829799Y-79199802D01*
G75*
G02*
X29579800Y-79449801I-249999J0D01*
G01*
X28554798Y-79449801D01*
G75*
G02*
X28304799Y-79199802I0J249999D01*
G01*
G37*
G36*
G01*
X34279799Y-79199802D02*
X34279799Y-76349800D01*
G75*
G02*
X34529798Y-76099801I249999J0D01*
G01*
X35554800Y-76099801D01*
G75*
G02*
X35804799Y-76349800I0J-249999D01*
G01*
X35804799Y-79199802D01*
G75*
G02*
X35554800Y-79449801I-249999J0D01*
G01*
X34529798Y-79449801D01*
G75*
G02*
X34279799Y-79199802I0J249999D01*
G01*
G37*
G36*
G01*
X50982299Y-62925801D02*
X50982299Y-64175801D01*
G75*
G02*
X50732299Y-64425801I-250000J0D01*
G01*
X49807299Y-64425801D01*
G75*
G02*
X49557299Y-64175801I0J250000D01*
G01*
X49557299Y-62925801D01*
G75*
G02*
X49807299Y-62675801I250000J0D01*
G01*
X50732299Y-62675801D01*
G75*
G02*
X50982299Y-62925801I0J-250000D01*
G01*
G37*
G36*
G01*
X48007299Y-62925801D02*
X48007299Y-64175801D01*
G75*
G02*
X47757299Y-64425801I-250000J0D01*
G01*
X46832299Y-64425801D01*
G75*
G02*
X46582299Y-64175801I0J250000D01*
G01*
X46582299Y-62925801D01*
G75*
G02*
X46832299Y-62675801I250000J0D01*
G01*
X47757299Y-62675801D01*
G75*
G02*
X48007299Y-62925801I0J-250000D01*
G01*
G37*
G36*
G01*
X49557299Y-61635801D02*
X49557299Y-60385801D01*
G75*
G02*
X49807299Y-60135801I250000J0D01*
G01*
X50732299Y-60135801D01*
G75*
G02*
X50982299Y-60385801I0J-250000D01*
G01*
X50982299Y-61635801D01*
G75*
G02*
X50732299Y-61885801I-250000J0D01*
G01*
X49807299Y-61885801D01*
G75*
G02*
X49557299Y-61635801I0J250000D01*
G01*
G37*
G36*
G01*
X46582299Y-61635801D02*
X46582299Y-60385801D01*
G75*
G02*
X46832299Y-60135801I250000J0D01*
G01*
X47757299Y-60135801D01*
G75*
G02*
X48007299Y-60385801I0J-250000D01*
G01*
X48007299Y-61635801D01*
G75*
G02*
X47757299Y-61885801I-250000J0D01*
G01*
X46832299Y-61885801D01*
G75*
G02*
X46582299Y-61635801I0J250000D01*
G01*
G37*
G36*
G01*
X47553299Y-72069801D02*
X47553299Y-73319801D01*
G75*
G02*
X47303299Y-73569801I-250000J0D01*
G01*
X46378299Y-73569801D01*
G75*
G02*
X46128299Y-73319801I0J250000D01*
G01*
X46128299Y-72069801D01*
G75*
G02*
X46378299Y-71819801I250000J0D01*
G01*
X47303299Y-71819801D01*
G75*
G02*
X47553299Y-72069801I0J-250000D01*
G01*
G37*
G36*
G01*
X44578299Y-72069801D02*
X44578299Y-73319801D01*
G75*
G02*
X44328299Y-73569801I-250000J0D01*
G01*
X43403299Y-73569801D01*
G75*
G02*
X43153299Y-73319801I0J250000D01*
G01*
X43153299Y-72069801D01*
G75*
G02*
X43403299Y-71819801I250000J0D01*
G01*
X44328299Y-71819801D01*
G75*
G02*
X44578299Y-72069801I0J-250000D01*
G01*
G37*
G36*
G01*
X41315799Y-61850301D02*
X40065799Y-61850301D01*
G75*
G02*
X39815799Y-61600301I0J250000D01*
G01*
X39815799Y-60675301D01*
G75*
G02*
X40065799Y-60425301I250000J0D01*
G01*
X41315799Y-60425301D01*
G75*
G02*
X41565799Y-60675301I0J-250000D01*
G01*
X41565799Y-61600301D01*
G75*
G02*
X41315799Y-61850301I-250000J0D01*
G01*
G37*
G36*
G01*
X41315799Y-64825301D02*
X40065799Y-64825301D01*
G75*
G02*
X39815799Y-64575301I0J250000D01*
G01*
X39815799Y-63650301D01*
G75*
G02*
X40065799Y-63400301I250000J0D01*
G01*
X41315799Y-63400301D01*
G75*
G02*
X41565799Y-63650301I0J-250000D01*
G01*
X41565799Y-64575301D01*
G75*
G02*
X41315799Y-64825301I-250000J0D01*
G01*
G37*
G36*
G01*
X35981799Y-69343301D02*
X34731799Y-69343301D01*
G75*
G02*
X34481799Y-69093301I0J250000D01*
G01*
X34481799Y-68168301D01*
G75*
G02*
X34731799Y-67918301I250000J0D01*
G01*
X35981799Y-67918301D01*
G75*
G02*
X36231799Y-68168301I0J-250000D01*
G01*
X36231799Y-69093301D01*
G75*
G02*
X35981799Y-69343301I-250000J0D01*
G01*
G37*
G36*
G01*
X35981799Y-66368301D02*
X34731799Y-66368301D01*
G75*
G02*
X34481799Y-66118301I0J250000D01*
G01*
X34481799Y-65193301D01*
G75*
G02*
X34731799Y-64943301I250000J0D01*
G01*
X35981799Y-64943301D01*
G75*
G02*
X36231799Y-65193301I0J-250000D01*
G01*
X36231799Y-66118301D01*
G75*
G02*
X35981799Y-66368301I-250000J0D01*
G01*
G37*
G36*
G01*
X38648799Y-64861801D02*
X37398799Y-64861801D01*
G75*
G02*
X37148799Y-64611801I0J250000D01*
G01*
X37148799Y-63686801D01*
G75*
G02*
X37398799Y-63436801I250000J0D01*
G01*
X38648799Y-63436801D01*
G75*
G02*
X38898799Y-63686801I0J-250000D01*
G01*
X38898799Y-64611801D01*
G75*
G02*
X38648799Y-64861801I-250000J0D01*
G01*
G37*
G36*
G01*
X38648799Y-61886801D02*
X37398799Y-61886801D01*
G75*
G02*
X37148799Y-61636801I0J250000D01*
G01*
X37148799Y-60711801D01*
G75*
G02*
X37398799Y-60461801I250000J0D01*
G01*
X38648799Y-60461801D01*
G75*
G02*
X38898799Y-60711801I0J-250000D01*
G01*
X38898799Y-61636801D01*
G75*
G02*
X38648799Y-61886801I-250000J0D01*
G01*
G37*
G36*
G01*
X45493299Y-84495801D02*
X45493299Y-83245801D01*
G75*
G02*
X45743299Y-82995801I250000J0D01*
G01*
X46668299Y-82995801D01*
G75*
G02*
X46918299Y-83245801I0J-250000D01*
G01*
X46918299Y-84495801D01*
G75*
G02*
X46668299Y-84745801I-250000J0D01*
G01*
X45743299Y-84745801D01*
G75*
G02*
X45493299Y-84495801I0J250000D01*
G01*
G37*
G36*
G01*
X42518299Y-84495801D02*
X42518299Y-83245801D01*
G75*
G02*
X42768299Y-82995801I250000J0D01*
G01*
X43693299Y-82995801D01*
G75*
G02*
X43943299Y-83245801I0J-250000D01*
G01*
X43943299Y-84495801D01*
G75*
G02*
X43693299Y-84745801I-250000J0D01*
G01*
X42768299Y-84745801D01*
G75*
G02*
X42518299Y-84495801I0J250000D01*
G01*
G37*
G36*
G01*
X34985799Y-80618301D02*
X36235799Y-80618301D01*
G75*
G02*
X36485799Y-80868301I0J-250000D01*
G01*
X36485799Y-81793301D01*
G75*
G02*
X36235799Y-82043301I-250000J0D01*
G01*
X34985799Y-82043301D01*
G75*
G02*
X34735799Y-81793301I0J250000D01*
G01*
X34735799Y-80868301D01*
G75*
G02*
X34985799Y-80618301I250000J0D01*
G01*
G37*
G36*
G01*
X34985799Y-83593301D02*
X36235799Y-83593301D01*
G75*
G02*
X36485799Y-83843301I0J-250000D01*
G01*
X36485799Y-84768301D01*
G75*
G02*
X36235799Y-85018301I-250000J0D01*
G01*
X34985799Y-85018301D01*
G75*
G02*
X34735799Y-84768301I0J250000D01*
G01*
X34735799Y-83843301D01*
G75*
G02*
X34985799Y-83593301I250000J0D01*
G01*
G37*
G36*
G01*
X36015299Y-86039801D02*
X36015299Y-87289801D01*
G75*
G02*
X35765299Y-87539801I-250000J0D01*
G01*
X34840299Y-87539801D01*
G75*
G02*
X34590299Y-87289801I0J250000D01*
G01*
X34590299Y-86039801D01*
G75*
G02*
X34840299Y-85789801I250000J0D01*
G01*
X35765299Y-85789801D01*
G75*
G02*
X36015299Y-86039801I0J-250000D01*
G01*
G37*
G36*
G01*
X38990299Y-86039801D02*
X38990299Y-87289801D01*
G75*
G02*
X38740299Y-87539801I-250000J0D01*
G01*
X37815299Y-87539801D01*
G75*
G02*
X37565299Y-87289801I0J250000D01*
G01*
X37565299Y-86039801D01*
G75*
G02*
X37815299Y-85789801I250000J0D01*
G01*
X38740299Y-85789801D01*
G75*
G02*
X38990299Y-86039801I0J-250000D01*
G01*
G37*
G36*
G01*
X120778299Y-60427801D02*
X120778299Y-61677801D01*
G75*
G02*
X120528299Y-61927801I-250000J0D01*
G01*
X119603299Y-61927801D01*
G75*
G02*
X119353299Y-61677801I0J250000D01*
G01*
X119353299Y-60427801D01*
G75*
G02*
X119603299Y-60177801I250000J0D01*
G01*
X120528299Y-60177801D01*
G75*
G02*
X120778299Y-60427801I0J-250000D01*
G01*
G37*
G36*
G01*
X117803299Y-60427801D02*
X117803299Y-61677801D01*
G75*
G02*
X117553299Y-61927801I-250000J0D01*
G01*
X116628299Y-61927801D01*
G75*
G02*
X116378299Y-61677801I0J250000D01*
G01*
X116378299Y-60427801D01*
G75*
G02*
X116628299Y-60177801I250000J0D01*
G01*
X117553299Y-60177801D01*
G75*
G02*
X117803299Y-60427801I0J-250000D01*
G01*
G37*
G36*
G01*
X119353299Y-58883801D02*
X119353299Y-57633801D01*
G75*
G02*
X119603299Y-57383801I250000J0D01*
G01*
X120528299Y-57383801D01*
G75*
G02*
X120778299Y-57633801I0J-250000D01*
G01*
X120778299Y-58883801D01*
G75*
G02*
X120528299Y-59133801I-250000J0D01*
G01*
X119603299Y-59133801D01*
G75*
G02*
X119353299Y-58883801I0J250000D01*
G01*
G37*
G36*
G01*
X116378299Y-58883801D02*
X116378299Y-57633801D01*
G75*
G02*
X116628299Y-57383801I250000J0D01*
G01*
X117553299Y-57383801D01*
G75*
G02*
X117803299Y-57633801I0J-250000D01*
G01*
X117803299Y-58883801D01*
G75*
G02*
X117553299Y-59133801I-250000J0D01*
G01*
X116628299Y-59133801D01*
G75*
G02*
X116378299Y-58883801I0J250000D01*
G01*
G37*
G36*
G01*
X118916299Y-66287802D02*
X118916299Y-63437800D01*
G75*
G02*
X119166298Y-63187801I249999J0D01*
G01*
X120191300Y-63187801D01*
G75*
G02*
X120441299Y-63437800I0J-249999D01*
G01*
X120441299Y-66287802D01*
G75*
G02*
X120191300Y-66537801I-249999J0D01*
G01*
X119166298Y-66537801D01*
G75*
G02*
X118916299Y-66287802I0J249999D01*
G01*
G37*
G36*
G01*
X124891299Y-66287802D02*
X124891299Y-63437800D01*
G75*
G02*
X125141298Y-63187801I249999J0D01*
G01*
X126166300Y-63187801D01*
G75*
G02*
X126416299Y-63437800I0J-249999D01*
G01*
X126416299Y-66287802D01*
G75*
G02*
X126166300Y-66537801I-249999J0D01*
G01*
X125141298Y-66537801D01*
G75*
G02*
X124891299Y-66287802I0J249999D01*
G01*
G37*
G36*
G01*
X105419799Y-97999801D02*
X105419799Y-96749801D01*
G75*
G02*
X105669799Y-96499801I250000J0D01*
G01*
X106594799Y-96499801D01*
G75*
G02*
X106844799Y-96749801I0J-250000D01*
G01*
X106844799Y-97999801D01*
G75*
G02*
X106594799Y-98249801I-250000J0D01*
G01*
X105669799Y-98249801D01*
G75*
G02*
X105419799Y-97999801I0J250000D01*
G01*
G37*
G36*
G01*
X108394799Y-97999801D02*
X108394799Y-96749801D01*
G75*
G02*
X108644799Y-96499801I250000J0D01*
G01*
X109569799Y-96499801D01*
G75*
G02*
X109819799Y-96749801I0J-250000D01*
G01*
X109819799Y-97999801D01*
G75*
G02*
X109569799Y-98249801I-250000J0D01*
G01*
X108644799Y-98249801D01*
G75*
G02*
X108394799Y-97999801I0J250000D01*
G01*
G37*
G36*
G01*
X103678299Y-89744801D02*
X103678299Y-88494801D01*
G75*
G02*
X103928299Y-88244801I250000J0D01*
G01*
X104853299Y-88244801D01*
G75*
G02*
X105103299Y-88494801I0J-250000D01*
G01*
X105103299Y-89744801D01*
G75*
G02*
X104853299Y-89994801I-250000J0D01*
G01*
X103928299Y-89994801D01*
G75*
G02*
X103678299Y-89744801I0J250000D01*
G01*
G37*
G36*
G01*
X106653299Y-89744801D02*
X106653299Y-88494801D01*
G75*
G02*
X106903299Y-88244801I250000J0D01*
G01*
X107828299Y-88244801D01*
G75*
G02*
X108078299Y-88494801I0J-250000D01*
G01*
X108078299Y-89744801D01*
G75*
G02*
X107828299Y-89994801I-250000J0D01*
G01*
X106903299Y-89994801D01*
G75*
G02*
X106653299Y-89744801I0J250000D01*
G01*
G37*
G36*
G01*
X99388299Y-92177801D02*
X99388299Y-93427801D01*
G75*
G02*
X99138299Y-93677801I-250000J0D01*
G01*
X98213299Y-93677801D01*
G75*
G02*
X97963299Y-93427801I0J250000D01*
G01*
X97963299Y-92177801D01*
G75*
G02*
X98213299Y-91927801I250000J0D01*
G01*
X99138299Y-91927801D01*
G75*
G02*
X99388299Y-92177801I0J-250000D01*
G01*
G37*
G36*
G01*
X102363299Y-92177801D02*
X102363299Y-93427801D01*
G75*
G02*
X102113299Y-93677801I-250000J0D01*
G01*
X101188299Y-93677801D01*
G75*
G02*
X100938299Y-93427801I0J250000D01*
G01*
X100938299Y-92177801D01*
G75*
G02*
X101188299Y-91927801I250000J0D01*
G01*
X102113299Y-91927801D01*
G75*
G02*
X102363299Y-92177801I0J-250000D01*
G01*
G37*
G36*
G01*
X108205299Y-99670801D02*
X108205299Y-100920801D01*
G75*
G02*
X107955299Y-101170801I-250000J0D01*
G01*
X107030299Y-101170801D01*
G75*
G02*
X106780299Y-100920801I0J250000D01*
G01*
X106780299Y-99670801D01*
G75*
G02*
X107030299Y-99420801I250000J0D01*
G01*
X107955299Y-99420801D01*
G75*
G02*
X108205299Y-99670801I0J-250000D01*
G01*
G37*
G36*
G01*
X105230299Y-99670801D02*
X105230299Y-100920801D01*
G75*
G02*
X104980299Y-101170801I-250000J0D01*
G01*
X104055299Y-101170801D01*
G75*
G02*
X103805299Y-100920801I0J250000D01*
G01*
X103805299Y-99670801D01*
G75*
G02*
X104055299Y-99420801I250000J0D01*
G01*
X104980299Y-99420801D01*
G75*
G02*
X105230299Y-99670801I0J-250000D01*
G01*
G37*
G36*
G01*
X98033799Y-79241802D02*
X98033799Y-76391800D01*
G75*
G02*
X98283798Y-76141801I249999J0D01*
G01*
X99308800Y-76141801D01*
G75*
G02*
X99558799Y-76391800I0J-249999D01*
G01*
X99558799Y-79241802D01*
G75*
G02*
X99308800Y-79491801I-249999J0D01*
G01*
X98283798Y-79491801D01*
G75*
G02*
X98033799Y-79241802I0J249999D01*
G01*
G37*
G36*
G01*
X92058799Y-79241802D02*
X92058799Y-76391800D01*
G75*
G02*
X92308798Y-76141801I249999J0D01*
G01*
X93333800Y-76141801D01*
G75*
G02*
X93583799Y-76391800I0J-249999D01*
G01*
X93583799Y-79241802D01*
G75*
G02*
X93333800Y-79491801I-249999J0D01*
G01*
X92308798Y-79491801D01*
G75*
G02*
X92058799Y-79241802I0J249999D01*
G01*
G37*
G36*
G01*
X111761299Y-62967801D02*
X111761299Y-64217801D01*
G75*
G02*
X111511299Y-64467801I-250000J0D01*
G01*
X110586299Y-64467801D01*
G75*
G02*
X110336299Y-64217801I0J250000D01*
G01*
X110336299Y-62967801D01*
G75*
G02*
X110586299Y-62717801I250000J0D01*
G01*
X111511299Y-62717801D01*
G75*
G02*
X111761299Y-62967801I0J-250000D01*
G01*
G37*
G36*
G01*
X114736299Y-62967801D02*
X114736299Y-64217801D01*
G75*
G02*
X114486299Y-64467801I-250000J0D01*
G01*
X113561299Y-64467801D01*
G75*
G02*
X113311299Y-64217801I0J250000D01*
G01*
X113311299Y-62967801D01*
G75*
G02*
X113561299Y-62717801I250000J0D01*
G01*
X114486299Y-62717801D01*
G75*
G02*
X114736299Y-62967801I0J-250000D01*
G01*
G37*
G36*
G01*
X110336299Y-61677801D02*
X110336299Y-60427801D01*
G75*
G02*
X110586299Y-60177801I250000J0D01*
G01*
X111511299Y-60177801D01*
G75*
G02*
X111761299Y-60427801I0J-250000D01*
G01*
X111761299Y-61677801D01*
G75*
G02*
X111511299Y-61927801I-250000J0D01*
G01*
X110586299Y-61927801D01*
G75*
G02*
X110336299Y-61677801I0J250000D01*
G01*
G37*
G36*
G01*
X113311299Y-61677801D02*
X113311299Y-60427801D01*
G75*
G02*
X113561299Y-60177801I250000J0D01*
G01*
X114486299Y-60177801D01*
G75*
G02*
X114736299Y-60427801I0J-250000D01*
G01*
X114736299Y-61677801D01*
G75*
G02*
X114486299Y-61927801I-250000J0D01*
G01*
X113561299Y-61927801D01*
G75*
G02*
X113311299Y-61677801I0J250000D01*
G01*
G37*
G36*
G01*
X108332299Y-72111801D02*
X108332299Y-73361801D01*
G75*
G02*
X108082299Y-73611801I-250000J0D01*
G01*
X107157299Y-73611801D01*
G75*
G02*
X106907299Y-73361801I0J250000D01*
G01*
X106907299Y-72111801D01*
G75*
G02*
X107157299Y-71861801I250000J0D01*
G01*
X108082299Y-71861801D01*
G75*
G02*
X108332299Y-72111801I0J-250000D01*
G01*
G37*
G36*
G01*
X111307299Y-72111801D02*
X111307299Y-73361801D01*
G75*
G02*
X111057299Y-73611801I-250000J0D01*
G01*
X110132299Y-73611801D01*
G75*
G02*
X109882299Y-73361801I0J250000D01*
G01*
X109882299Y-72111801D01*
G75*
G02*
X110132299Y-71861801I250000J0D01*
G01*
X111057299Y-71861801D01*
G75*
G02*
X111307299Y-72111801I0J-250000D01*
G01*
G37*
G36*
G01*
X105069799Y-61892301D02*
X103819799Y-61892301D01*
G75*
G02*
X103569799Y-61642301I0J250000D01*
G01*
X103569799Y-60717301D01*
G75*
G02*
X103819799Y-60467301I250000J0D01*
G01*
X105069799Y-60467301D01*
G75*
G02*
X105319799Y-60717301I0J-250000D01*
G01*
X105319799Y-61642301D01*
G75*
G02*
X105069799Y-61892301I-250000J0D01*
G01*
G37*
G36*
G01*
X105069799Y-64867301D02*
X103819799Y-64867301D01*
G75*
G02*
X103569799Y-64617301I0J250000D01*
G01*
X103569799Y-63692301D01*
G75*
G02*
X103819799Y-63442301I250000J0D01*
G01*
X105069799Y-63442301D01*
G75*
G02*
X105319799Y-63692301I0J-250000D01*
G01*
X105319799Y-64617301D01*
G75*
G02*
X105069799Y-64867301I-250000J0D01*
G01*
G37*
G36*
G01*
X99735799Y-66410301D02*
X98485799Y-66410301D01*
G75*
G02*
X98235799Y-66160301I0J250000D01*
G01*
X98235799Y-65235301D01*
G75*
G02*
X98485799Y-64985301I250000J0D01*
G01*
X99735799Y-64985301D01*
G75*
G02*
X99985799Y-65235301I0J-250000D01*
G01*
X99985799Y-66160301D01*
G75*
G02*
X99735799Y-66410301I-250000J0D01*
G01*
G37*
G36*
G01*
X99735799Y-69385301D02*
X98485799Y-69385301D01*
G75*
G02*
X98235799Y-69135301I0J250000D01*
G01*
X98235799Y-68210301D01*
G75*
G02*
X98485799Y-67960301I250000J0D01*
G01*
X99735799Y-67960301D01*
G75*
G02*
X99985799Y-68210301I0J-250000D01*
G01*
X99985799Y-69135301D01*
G75*
G02*
X99735799Y-69385301I-250000J0D01*
G01*
G37*
G36*
G01*
X102402799Y-64903801D02*
X101152799Y-64903801D01*
G75*
G02*
X100902799Y-64653801I0J250000D01*
G01*
X100902799Y-63728801D01*
G75*
G02*
X101152799Y-63478801I250000J0D01*
G01*
X102402799Y-63478801D01*
G75*
G02*
X102652799Y-63728801I0J-250000D01*
G01*
X102652799Y-64653801D01*
G75*
G02*
X102402799Y-64903801I-250000J0D01*
G01*
G37*
G36*
G01*
X102402799Y-61928801D02*
X101152799Y-61928801D01*
G75*
G02*
X100902799Y-61678801I0J250000D01*
G01*
X100902799Y-60753801D01*
G75*
G02*
X101152799Y-60503801I250000J0D01*
G01*
X102402799Y-60503801D01*
G75*
G02*
X102652799Y-60753801I0J-250000D01*
G01*
X102652799Y-61678801D01*
G75*
G02*
X102402799Y-61928801I-250000J0D01*
G01*
G37*
G36*
G01*
X106272299Y-84537801D02*
X106272299Y-83287801D01*
G75*
G02*
X106522299Y-83037801I250000J0D01*
G01*
X107447299Y-83037801D01*
G75*
G02*
X107697299Y-83287801I0J-250000D01*
G01*
X107697299Y-84537801D01*
G75*
G02*
X107447299Y-84787801I-250000J0D01*
G01*
X106522299Y-84787801D01*
G75*
G02*
X106272299Y-84537801I0J250000D01*
G01*
G37*
G36*
G01*
X109247299Y-84537801D02*
X109247299Y-83287801D01*
G75*
G02*
X109497299Y-83037801I250000J0D01*
G01*
X110422299Y-83037801D01*
G75*
G02*
X110672299Y-83287801I0J-250000D01*
G01*
X110672299Y-84537801D01*
G75*
G02*
X110422299Y-84787801I-250000J0D01*
G01*
X109497299Y-84787801D01*
G75*
G02*
X109247299Y-84537801I0J250000D01*
G01*
G37*
G36*
G01*
X98739799Y-80660301D02*
X99989799Y-80660301D01*
G75*
G02*
X100239799Y-80910301I0J-250000D01*
G01*
X100239799Y-81835301D01*
G75*
G02*
X99989799Y-82085301I-250000J0D01*
G01*
X98739799Y-82085301D01*
G75*
G02*
X98489799Y-81835301I0J250000D01*
G01*
X98489799Y-80910301D01*
G75*
G02*
X98739799Y-80660301I250000J0D01*
G01*
G37*
G36*
G01*
X98739799Y-83635301D02*
X99989799Y-83635301D01*
G75*
G02*
X100239799Y-83885301I0J-250000D01*
G01*
X100239799Y-84810301D01*
G75*
G02*
X99989799Y-85060301I-250000J0D01*
G01*
X98739799Y-85060301D01*
G75*
G02*
X98489799Y-84810301I0J250000D01*
G01*
X98489799Y-83885301D01*
G75*
G02*
X98739799Y-83635301I250000J0D01*
G01*
G37*
G36*
G01*
X99769299Y-86081801D02*
X99769299Y-87331801D01*
G75*
G02*
X99519299Y-87581801I-250000J0D01*
G01*
X98594299Y-87581801D01*
G75*
G02*
X98344299Y-87331801I0J250000D01*
G01*
X98344299Y-86081801D01*
G75*
G02*
X98594299Y-85831801I250000J0D01*
G01*
X99519299Y-85831801D01*
G75*
G02*
X99769299Y-86081801I0J-250000D01*
G01*
G37*
G36*
G01*
X102744299Y-86081801D02*
X102744299Y-87331801D01*
G75*
G02*
X102494299Y-87581801I-250000J0D01*
G01*
X101569299Y-87581801D01*
G75*
G02*
X101319299Y-87331801I0J250000D01*
G01*
X101319299Y-86081801D01*
G75*
G02*
X101569299Y-85831801I250000J0D01*
G01*
X102494299Y-85831801D01*
G75*
G02*
X102744299Y-86081801I0J-250000D01*
G01*
G37*
D24*
X46139099Y-94538801D03*
X47434499Y-94043501D03*
X47434499Y-95034101D03*
D25*
X52120799Y-69911799D03*
D26*
X50215799Y-68121800D03*
X51485799Y-68121800D03*
X52755799Y-68121800D03*
X54025799Y-68121800D03*
X54025799Y-73711802D03*
X52755799Y-73711802D03*
X51485799Y-73711802D03*
X50215799Y-73711802D03*
D28*
X45399799Y-81076801D03*
D27*
X46304798Y-80101802D03*
X46304798Y-80751800D03*
X46304798Y-81401802D03*
X46304798Y-82051800D03*
X43204800Y-82051800D03*
X43204800Y-81401799D03*
X43204800Y-80751800D03*
X43204800Y-80101799D03*
D12*
X40721487Y-74970862D03*
D13*
X40166800Y-74731802D03*
D14*
X39666798Y-74794301D03*
X39166799Y-74794301D03*
X38666800Y-74794301D03*
D13*
X38166798Y-74731802D03*
D15*
X37613111Y-74970862D03*
D16*
X37529299Y-75506802D03*
X37529299Y-76006801D03*
X37529299Y-76506800D03*
X37529299Y-77256801D03*
X37529299Y-77756800D03*
D17*
X37361550Y-78275552D03*
D13*
X38166798Y-78531800D03*
D14*
X38666800Y-78469301D03*
X39166799Y-78469301D03*
X39666798Y-78469301D03*
D13*
X40166800Y-78531800D03*
D18*
X40757423Y-78272425D03*
D19*
X40779300Y-77681801D03*
D20*
X40816798Y-76881801D03*
X40816798Y-76381801D03*
D19*
X40779300Y-75581801D03*
D21*
X39166799Y-76006801D03*
X39166799Y-76631801D03*
X39166799Y-77256801D03*
D29*
X57359549Y-69961802D03*
X57359549Y-69011801D03*
X57359549Y-68061800D03*
X60090049Y-68061800D03*
X60090049Y-69011801D03*
X60090049Y-69961802D03*
X32404049Y-82788802D03*
X32404049Y-81838801D03*
X32404049Y-80888800D03*
X29673549Y-80888800D03*
X29673549Y-81838801D03*
X29673549Y-82788802D03*
D24*
X111188499Y-95076101D03*
X111188499Y-94085501D03*
X109893099Y-94580801D03*
D26*
X113969799Y-73753802D03*
X115239799Y-73753802D03*
X116509799Y-73753802D03*
X117779799Y-73753802D03*
X117779799Y-68163800D03*
X116509799Y-68163800D03*
X115239799Y-68163800D03*
X113969799Y-68163800D03*
D25*
X115874799Y-69953799D03*
D27*
X106958800Y-80143799D03*
X106958800Y-80793800D03*
X106958800Y-81443799D03*
X106958800Y-82093800D03*
X110058798Y-82093800D03*
X110058798Y-81443802D03*
X110058798Y-80793800D03*
X110058798Y-80143802D03*
D28*
X109153799Y-81118801D03*
D21*
X102920799Y-77298801D03*
X102920799Y-76673801D03*
X102920799Y-76048801D03*
D19*
X104533300Y-75623801D03*
D20*
X104570798Y-76423801D03*
X104570798Y-76923801D03*
D19*
X104533300Y-77723801D03*
D18*
X104511423Y-78314425D03*
D13*
X103920800Y-78573800D03*
D14*
X103420798Y-78511301D03*
X102920799Y-78511301D03*
X102420800Y-78511301D03*
D13*
X101920798Y-78573800D03*
D17*
X101115550Y-78317552D03*
D16*
X101283299Y-77798800D03*
X101283299Y-77298801D03*
X101283299Y-76548800D03*
X101283299Y-76048801D03*
X101283299Y-75548802D03*
D15*
X101367111Y-75012862D03*
D13*
X101920798Y-74773802D03*
D14*
X102420800Y-74836301D03*
X102920799Y-74836301D03*
X103420798Y-74836301D03*
D13*
X103920800Y-74773802D03*
D12*
X104475487Y-75012862D03*
D29*
X121113549Y-70003802D03*
X121113549Y-69053801D03*
X121113549Y-68103800D03*
X123844049Y-68103800D03*
X123844049Y-69053801D03*
X123844049Y-70003802D03*
X96158049Y-82830802D03*
X96158049Y-81880801D03*
X96158049Y-80930800D03*
X93427549Y-80930800D03*
X93427549Y-81880801D03*
X93427549Y-82830802D03*
M02*
