M48
; DRILL file {KiCad (5.1.10)-1} date 05/18/21 14:54:31
; FORMAT={-:-/ absolute / metric / decimal}
; #@! TF.CreationDate,2021-05-18T14:54:31+02:00
; #@! TF.GenerationSoftware,Kicad,Pcbnew,(5.1.10)-1
; #@! TF.FileFunction,Plated,1,2,PTH
FMAT,2
METRIC
T1C0.400
T2C0.750
T3C1.000
T4C1.400
%
G90
G05
T1
X28.435Y-80.124
X30.924Y-81.915
X32.309Y-83.617
X35.825Y-80.0
X35.941Y-82.804
X36.131Y-88.011
X36.475Y-75.9
X37.643Y-79.35
X38.575Y-79.375
X41.212Y-85.725
X41.58Y-74.219
X41.672Y-79.819
X42.596Y-86.284
X46.152Y-90.602
X46.777Y-78.8
X46.799Y-77.533
X47.177Y-89.849
X47.371Y-112.649
X47.422Y-91.872
X48.311Y-90.983
X48.438Y-92.888
X48.438Y-92.888
X48.438Y-92.888
X48.438Y-92.888
X48.438Y-92.888
X48.565Y-88.57
X48.565Y-89.84
X55.435Y-105.283
X57.205Y-106.68
X58.229Y-109.982
X62.158Y-107.815
X62.388Y-67.402
X63.691Y-113.157
X63.7Y-105.791
X64.325Y-101.473
X64.325Y-107.061
X65.151Y-100.203
X65.151Y-107.823
X65.775Y-93.075
X68.135Y-104.457
X68.135Y-109.94
X70.424Y-112.144
X71.247Y-103.188
X71.819Y-111.633
X72.015Y-102.547
X72.072Y-81.661
X73.152Y-108.902
X73.375Y-107.54
X73.375Y-69.375
X73.787Y-111.887
X75.125Y-67.7
X75.248Y-108.458
X75.692Y-111.697
X75.946Y-71.183
X76.708Y-68.58
X76.793Y-111.772
X78.359Y-103.404
X79.947Y-111.506
X80.518Y-103.404
X80.581Y-108.521
X81.28Y-113.284
X81.915Y-81.661
X82.486Y-102.679
X84.074Y-104.521
X84.709Y-105.918
X85.788Y-106.617
T2
X41.072Y-92.761
X42.342Y-92.761
X43.612Y-92.761
T3
X53.34Y-96.456
X53.34Y-98.996
X53.34Y-101.536
X53.34Y-105.283
X53.34Y-107.823
X53.34Y-110.363
T4
X61.9Y-60.122
X66.98Y-60.122
T0
M30
