G04 #@! TF.GenerationSoftware,KiCad,Pcbnew,(5.1.10)-1*
G04 #@! TF.CreationDate,2021-05-18T14:50:01+02:00*
G04 #@! TF.ProjectId,PEE50_MPPT,50454535-305f-44d5-9050-542e6b696361,rev?*
G04 #@! TF.SameCoordinates,Original*
G04 #@! TF.FileFunction,Soldermask,Bot*
G04 #@! TF.FilePolarity,Negative*
%FSLAX46Y46*%
G04 Gerber Fmt 4.6, Leading zero omitted, Abs format (unit mm)*
G04 Created by KiCad (PCBNEW (5.1.10)-1) date 2021-05-18 14:50:01*
%MOMM*%
%LPD*%
G01*
G04 APERTURE LIST*
%ADD10C,2.178000*%
%ADD11O,2.100000X2.100000*%
%ADD12O,2.480000X4.000000*%
%ADD13O,1.450000X1.900000*%
%ADD14O,4.000000X2.480000*%
G04 APERTURE END LIST*
D10*
X75695000Y-134700000D03*
X75695000Y-132160000D03*
X75695000Y-129620000D03*
X68075000Y-129620000D03*
X68075000Y-134700000D03*
D11*
X53340000Y-96456500D03*
X53340000Y-98996500D03*
G36*
G01*
X54390000Y-100686500D02*
X54390000Y-102386500D01*
G75*
G02*
X54190000Y-102586500I-200000J0D01*
G01*
X52490000Y-102586500D01*
G75*
G02*
X52290000Y-102386500I0J200000D01*
G01*
X52290000Y-100686500D01*
G75*
G02*
X52490000Y-100486500I200000J0D01*
G01*
X54190000Y-100486500D01*
G75*
G02*
X54390000Y-100686500I0J-200000D01*
G01*
G37*
D12*
X42545000Y-173863000D03*
G36*
G01*
X36225000Y-175663000D02*
X36225000Y-172063000D01*
G75*
G02*
X36425000Y-171863000I200000J0D01*
G01*
X38505000Y-171863000D01*
G75*
G02*
X38705000Y-172063000I0J-200000D01*
G01*
X38705000Y-175663000D01*
G75*
G02*
X38505000Y-175863000I-200000J0D01*
G01*
X36425000Y-175863000D01*
G75*
G02*
X36225000Y-175663000I0J200000D01*
G01*
G37*
G36*
G01*
X60108000Y-141974000D02*
X60108000Y-140474000D01*
G75*
G02*
X60308000Y-140274000I200000J0D01*
G01*
X61358000Y-140274000D01*
G75*
G02*
X61558000Y-140474000I0J-200000D01*
G01*
X61558000Y-141974000D01*
G75*
G02*
X61358000Y-142174000I-200000J0D01*
G01*
X60308000Y-142174000D01*
G75*
G02*
X60108000Y-141974000I0J200000D01*
G01*
G37*
D13*
X63373000Y-141224000D03*
X62103000Y-141224000D03*
D14*
X145542000Y-113665000D03*
G36*
G01*
X147243927Y-119985000D02*
X143840073Y-119985000D01*
G75*
G02*
X143542000Y-119686927I0J298073D01*
G01*
X143542000Y-117803073D01*
G75*
G02*
X143840073Y-117505000I298073J0D01*
G01*
X147243927Y-117505000D01*
G75*
G02*
X147542000Y-117803073I0J-298073D01*
G01*
X147542000Y-119686927D01*
G75*
G02*
X147243927Y-119985000I-298073J0D01*
G01*
G37*
D11*
X29019500Y-131064000D03*
G36*
G01*
X27969500Y-129374000D02*
X27969500Y-127674000D01*
G75*
G02*
X28169500Y-127474000I200000J0D01*
G01*
X29869500Y-127474000D01*
G75*
G02*
X30069500Y-127674000I0J-200000D01*
G01*
X30069500Y-129374000D01*
G75*
G02*
X29869500Y-129574000I-200000J0D01*
G01*
X28169500Y-129574000D01*
G75*
G02*
X27969500Y-129374000I0J200000D01*
G01*
G37*
G36*
G01*
X52290000Y-106133000D02*
X52290000Y-104433000D01*
G75*
G02*
X52490000Y-104233000I200000J0D01*
G01*
X54190000Y-104233000D01*
G75*
G02*
X54390000Y-104433000I0J-200000D01*
G01*
X54390000Y-106133000D01*
G75*
G02*
X54190000Y-106333000I-200000J0D01*
G01*
X52490000Y-106333000D01*
G75*
G02*
X52290000Y-106133000I0J200000D01*
G01*
G37*
X53340000Y-107823000D03*
X53340000Y-110363000D03*
G36*
G01*
X100309201Y-177504126D02*
X100309201Y-174100272D01*
G75*
G02*
X100607274Y-173802199I298073J0D01*
G01*
X102491128Y-173802199D01*
G75*
G02*
X102789201Y-174100272I0J-298073D01*
G01*
X102789201Y-177504126D01*
G75*
G02*
X102491128Y-177802199I-298073J0D01*
G01*
X100607274Y-177802199D01*
G75*
G02*
X100309201Y-177504126I0J298073D01*
G01*
G37*
D12*
X106629201Y-175802199D03*
G36*
G01*
X34451000Y-130214000D02*
X34451000Y-131914000D01*
G75*
G02*
X34251000Y-132114000I-200000J0D01*
G01*
X32551000Y-132114000D01*
G75*
G02*
X32351000Y-131914000I0J200000D01*
G01*
X32351000Y-130214000D01*
G75*
G02*
X32551000Y-130014000I200000J0D01*
G01*
X34251000Y-130014000D01*
G75*
G02*
X34451000Y-130214000I0J-200000D01*
G01*
G37*
D11*
X33401000Y-128524000D03*
X33401000Y-125984000D03*
D13*
X126187201Y-143163199D03*
X127457201Y-143163199D03*
G36*
G01*
X124192201Y-143913199D02*
X124192201Y-142413199D01*
G75*
G02*
X124392201Y-142213199I200000J0D01*
G01*
X125442201Y-142213199D01*
G75*
G02*
X125642201Y-142413199I0J-200000D01*
G01*
X125642201Y-143913199D01*
G75*
G02*
X125442201Y-144113199I-200000J0D01*
G01*
X124392201Y-144113199D01*
G75*
G02*
X124192201Y-143913199I0J200000D01*
G01*
G37*
D12*
X61899799Y-60121801D03*
G36*
G01*
X68219799Y-58419874D02*
X68219799Y-61823728D01*
G75*
G02*
X67921726Y-62121801I-298073J0D01*
G01*
X66037872Y-62121801D01*
G75*
G02*
X65739799Y-61823728I0J298073D01*
G01*
X65739799Y-58419874D01*
G75*
G02*
X66037872Y-58121801I298073J0D01*
G01*
X67921726Y-58121801D01*
G75*
G02*
X68219799Y-58419874I0J-298073D01*
G01*
G37*
G36*
G01*
X131973799Y-58461874D02*
X131973799Y-61865728D01*
G75*
G02*
X131675726Y-62163801I-298073J0D01*
G01*
X129791872Y-62163801D01*
G75*
G02*
X129493799Y-61865728I0J298073D01*
G01*
X129493799Y-58461874D01*
G75*
G02*
X129791872Y-58163801I298073J0D01*
G01*
X131675726Y-58163801D01*
G75*
G02*
X131973799Y-58461874I0J-298073D01*
G01*
G37*
X125653799Y-60163801D03*
G36*
G01*
X44336799Y-92010801D02*
X44336799Y-93510801D01*
G75*
G02*
X44136799Y-93710801I-200000J0D01*
G01*
X43086799Y-93710801D01*
G75*
G02*
X42886799Y-93510801I0J200000D01*
G01*
X42886799Y-92010801D01*
G75*
G02*
X43086799Y-91810801I200000J0D01*
G01*
X44136799Y-91810801D01*
G75*
G02*
X44336799Y-92010801I0J-200000D01*
G01*
G37*
D13*
X41071799Y-92760801D03*
X42341799Y-92760801D03*
X106095799Y-92802801D03*
X104825799Y-92802801D03*
G36*
G01*
X108090799Y-92052801D02*
X108090799Y-93552801D01*
G75*
G02*
X107890799Y-93752801I-200000J0D01*
G01*
X106840799Y-93752801D01*
G75*
G02*
X106640799Y-93552801I0J200000D01*
G01*
X106640799Y-92052801D01*
G75*
G02*
X106840799Y-91852801I200000J0D01*
G01*
X107890799Y-91852801D01*
G75*
G02*
X108090799Y-92052801I0J-200000D01*
G01*
G37*
M02*
