%TF.GenerationSoftware,KiCad,Pcbnew,(5.1.9)-1*%
%TF.CreationDate,2021-05-20T13:00:32+02:00*%
%TF.ProjectId,PEE50-CurrentProtectionTemplate,50454535-302d-4437-9572-72656e745072,rev?*%
%TF.SameCoordinates,Original*%
%TF.FileFunction,Soldermask,Bot*%
%TF.FilePolarity,Negative*%
%FSLAX46Y46*%
G04 Gerber Fmt 4.6, Leading zero omitted, Abs format (unit mm)*
G04 Created by KiCad (PCBNEW (5.1.9)-1) date 2021-05-20 13:00:32*
%MOMM*%
%LPD*%
G01*
G04 APERTURE LIST*
%ADD10O,1.717500X1.800000*%
%ADD11R,1.717500X1.800000*%
%ADD12C,3.000000*%
%ADD13O,2.700000X3.300000*%
%ADD14O,1.700000X1.700000*%
%ADD15R,1.700000X1.700000*%
%ADD16C,2.000000*%
G04 APERTURE END LIST*
D10*
%TO.C,Q1*%
X72410000Y-17350000D03*
X74700000Y-17350000D03*
D11*
X76990000Y-17350000D03*
%TD*%
D12*
%TO.C,J3*%
X35100000Y-20260000D03*
X48700000Y-20260000D03*
D13*
X39800000Y-19800000D03*
X44000000Y-19800000D03*
X39800000Y-25300000D03*
G36*
G01*
X45350000Y-23900001D02*
X45350000Y-26699999D01*
G75*
G02*
X45099999Y-26950000I-250001J0D01*
G01*
X42900001Y-26950000D01*
G75*
G02*
X42650000Y-26699999I0J250001D01*
G01*
X42650000Y-23900001D01*
G75*
G02*
X42900001Y-23650000I250001J0D01*
G01*
X45099999Y-23650000D01*
G75*
G02*
X45350000Y-23900001I0J-250001D01*
G01*
G37*
%TD*%
D14*
%TO.C,J5*%
X19100000Y-45160000D03*
X19100000Y-47700000D03*
X19100000Y-50240000D03*
X19100000Y-52780000D03*
X19100000Y-55320000D03*
X19100000Y-57860000D03*
D15*
X19100000Y-60400000D03*
%TD*%
D14*
%TO.C,J4*%
X20900000Y-29880000D03*
X20900000Y-32420000D03*
X20900000Y-34960000D03*
D15*
X20900000Y-37500000D03*
%TD*%
D16*
%TO.C,TP7*%
X27100000Y-31100000D03*
%TD*%
%TO.C,TP6*%
X34800000Y-27600000D03*
%TD*%
%TO.C,TP4*%
X53300000Y-46100000D03*
%TD*%
%TO.C,TP3*%
X49600000Y-46100000D03*
%TD*%
%TO.C,TP2*%
X60700000Y-46200000D03*
%TD*%
%TO.C,TP1*%
X57000000Y-46200000D03*
%TD*%
%TO.C,TP5*%
X35700000Y-45300000D03*
%TD*%
%TO.C,SW1*%
X27600000Y-48300000D03*
X32100000Y-48300000D03*
X27600000Y-54800000D03*
X32100000Y-54800000D03*
%TD*%
D14*
%TO.C,J2*%
X16885000Y-29863000D03*
X16885000Y-32403000D03*
X16885000Y-34943000D03*
D15*
X16885000Y-37483000D03*
%TD*%
D12*
%TO.C,J1*%
X17100000Y-20260000D03*
X30700000Y-20260000D03*
D13*
X21800000Y-19800000D03*
X26000000Y-19800000D03*
X21800000Y-25300000D03*
G36*
G01*
X27350000Y-23900001D02*
X27350000Y-26699999D01*
G75*
G02*
X27099999Y-26950000I-250001J0D01*
G01*
X24900001Y-26950000D01*
G75*
G02*
X24650000Y-26699999I0J250001D01*
G01*
X24650000Y-23900001D01*
G75*
G02*
X24900001Y-23650000I250001J0D01*
G01*
X27099999Y-23650000D01*
G75*
G02*
X27350000Y-23900001I0J-250001D01*
G01*
G37*
%TD*%
M02*
