%TF.GenerationSoftware,KiCad,Pcbnew,(5.1.9)-1*%
%TF.CreationDate,2021-05-20T13:00:32+02:00*%
%TF.ProjectId,PEE50-CurrentProtectionTemplate,50454535-302d-4437-9572-72656e745072,rev?*%
%TF.SameCoordinates,Original*%
%TF.FileFunction,Paste,Top*%
%TF.FilePolarity,Positive*%
%FSLAX46Y46*%
G04 Gerber Fmt 4.6, Leading zero omitted, Abs format (unit mm)*
G04 Created by KiCad (PCBNEW (5.1.9)-1) date 2021-05-20 13:00:32*
%MOMM*%
%LPD*%
G01*
G04 APERTURE LIST*
%ADD10R,5.700000X6.200000*%
%ADD11R,1.404099X0.279400*%
%ADD12R,2.000000X4.500000*%
%ADD13R,5.410200X1.193800*%
%ADD14R,0.711200X1.193800*%
%ADD15R,1.100000X1.050000*%
%ADD16R,0.400000X1.560000*%
%ADD17R,0.558000X0.972299*%
%ADD18R,0.977900X0.457200*%
G04 APERTURE END LIST*
D10*
%TO.C,Q1*%
X74700000Y-24783333D03*
%TD*%
D11*
%TO.C,U2*%
X56549948Y-34399999D03*
X56549948Y-34900000D03*
X56549948Y-35399999D03*
X56549948Y-35900001D03*
X56549948Y-36400000D03*
X56549948Y-36899999D03*
X56549948Y-37400000D03*
X56549948Y-37899999D03*
X56549948Y-38399998D03*
X56549948Y-38900000D03*
X56549948Y-39399999D03*
X56549948Y-39900001D03*
X56549948Y-40400000D03*
X56549948Y-40899999D03*
X56549948Y-41400000D03*
X56549948Y-41899999D03*
X56549948Y-42400001D03*
X56549948Y-42900000D03*
X56549948Y-43399999D03*
X50650052Y-43400001D03*
X50650052Y-42900000D03*
X50650052Y-42400001D03*
X50650052Y-41899999D03*
X50650052Y-41400000D03*
X50650052Y-40900001D03*
X50650052Y-40400000D03*
X50650052Y-39900001D03*
X50650052Y-39399999D03*
X50650052Y-38900000D03*
X50650052Y-38400001D03*
X50650052Y-37899999D03*
X50650052Y-37400000D03*
X50650052Y-36899999D03*
X50650052Y-36400000D03*
X50650052Y-35900001D03*
X50650052Y-35399999D03*
X50650052Y-34900000D03*
X50650052Y-34400001D03*
%TD*%
%TO.C,R4*%
G36*
G01*
X54875000Y-30825001D02*
X54875000Y-29574999D01*
G75*
G02*
X55124999Y-29325000I249999J0D01*
G01*
X55750001Y-29325000D01*
G75*
G02*
X56000000Y-29574999I0J-249999D01*
G01*
X56000000Y-30825001D01*
G75*
G02*
X55750001Y-31075000I-249999J0D01*
G01*
X55124999Y-31075000D01*
G75*
G02*
X54875000Y-30825001I0J249999D01*
G01*
G37*
G36*
G01*
X57800000Y-30825001D02*
X57800000Y-29574999D01*
G75*
G02*
X58049999Y-29325000I249999J0D01*
G01*
X58675001Y-29325000D01*
G75*
G02*
X58925000Y-29574999I0J-249999D01*
G01*
X58925000Y-30825001D01*
G75*
G02*
X58675001Y-31075000I-249999J0D01*
G01*
X58049999Y-31075000D01*
G75*
G02*
X57800000Y-30825001I0J249999D01*
G01*
G37*
%TD*%
%TO.C,C14*%
G36*
G01*
X57800000Y-33250001D02*
X57800000Y-31949999D01*
G75*
G02*
X58049999Y-31700000I249999J0D01*
G01*
X58700001Y-31700000D01*
G75*
G02*
X58950000Y-31949999I0J-249999D01*
G01*
X58950000Y-33250001D01*
G75*
G02*
X58700001Y-33500000I-249999J0D01*
G01*
X58049999Y-33500000D01*
G75*
G02*
X57800000Y-33250001I0J249999D01*
G01*
G37*
G36*
G01*
X54850000Y-33250001D02*
X54850000Y-31949999D01*
G75*
G02*
X55099999Y-31700000I249999J0D01*
G01*
X55750001Y-31700000D01*
G75*
G02*
X56000000Y-31949999I0J-249999D01*
G01*
X56000000Y-33250001D01*
G75*
G02*
X55750001Y-33500000I-249999J0D01*
G01*
X55099999Y-33500000D01*
G75*
G02*
X54850000Y-33250001I0J249999D01*
G01*
G37*
%TD*%
D12*
%TO.C,Y2*%
X29100000Y-35550000D03*
X29100000Y-44050000D03*
%TD*%
D13*
%TO.C,R2*%
X60577700Y-27106500D03*
D14*
X64171800Y-27106500D03*
X64171800Y-24693500D03*
D13*
X60577700Y-24693500D03*
%TD*%
D15*
%TO.C,Y1*%
X48400000Y-41925000D03*
X48400000Y-40075000D03*
%TD*%
D16*
%TO.C,U5*%
X30220000Y-25050000D03*
X30870000Y-25050000D03*
X31530000Y-25050000D03*
X32180000Y-25050000D03*
X32180000Y-27750000D03*
X31530000Y-27750000D03*
X30870000Y-27750000D03*
X30220000Y-27750000D03*
%TD*%
%TO.C,U4*%
G36*
G01*
X41325000Y-32470000D02*
X41325000Y-32170000D01*
G75*
G02*
X41475000Y-32020000I150000J0D01*
G01*
X43225000Y-32020000D01*
G75*
G02*
X43375000Y-32170000I0J-150000D01*
G01*
X43375000Y-32470000D01*
G75*
G02*
X43225000Y-32620000I-150000J0D01*
G01*
X41475000Y-32620000D01*
G75*
G02*
X41325000Y-32470000I0J150000D01*
G01*
G37*
G36*
G01*
X41325000Y-33740000D02*
X41325000Y-33440000D01*
G75*
G02*
X41475000Y-33290000I150000J0D01*
G01*
X43225000Y-33290000D01*
G75*
G02*
X43375000Y-33440000I0J-150000D01*
G01*
X43375000Y-33740000D01*
G75*
G02*
X43225000Y-33890000I-150000J0D01*
G01*
X41475000Y-33890000D01*
G75*
G02*
X41325000Y-33740000I0J150000D01*
G01*
G37*
G36*
G01*
X41325000Y-35010000D02*
X41325000Y-34710000D01*
G75*
G02*
X41475000Y-34560000I150000J0D01*
G01*
X43225000Y-34560000D01*
G75*
G02*
X43375000Y-34710000I0J-150000D01*
G01*
X43375000Y-35010000D01*
G75*
G02*
X43225000Y-35160000I-150000J0D01*
G01*
X41475000Y-35160000D01*
G75*
G02*
X41325000Y-35010000I0J150000D01*
G01*
G37*
G36*
G01*
X41325000Y-36280000D02*
X41325000Y-35980000D01*
G75*
G02*
X41475000Y-35830000I150000J0D01*
G01*
X43225000Y-35830000D01*
G75*
G02*
X43375000Y-35980000I0J-150000D01*
G01*
X43375000Y-36280000D01*
G75*
G02*
X43225000Y-36430000I-150000J0D01*
G01*
X41475000Y-36430000D01*
G75*
G02*
X41325000Y-36280000I0J150000D01*
G01*
G37*
G36*
G01*
X41325000Y-37550000D02*
X41325000Y-37250000D01*
G75*
G02*
X41475000Y-37100000I150000J0D01*
G01*
X43225000Y-37100000D01*
G75*
G02*
X43375000Y-37250000I0J-150000D01*
G01*
X43375000Y-37550000D01*
G75*
G02*
X43225000Y-37700000I-150000J0D01*
G01*
X41475000Y-37700000D01*
G75*
G02*
X41325000Y-37550000I0J150000D01*
G01*
G37*
G36*
G01*
X41325000Y-38820000D02*
X41325000Y-38520000D01*
G75*
G02*
X41475000Y-38370000I150000J0D01*
G01*
X43225000Y-38370000D01*
G75*
G02*
X43375000Y-38520000I0J-150000D01*
G01*
X43375000Y-38820000D01*
G75*
G02*
X43225000Y-38970000I-150000J0D01*
G01*
X41475000Y-38970000D01*
G75*
G02*
X41325000Y-38820000I0J150000D01*
G01*
G37*
G36*
G01*
X41325000Y-40090000D02*
X41325000Y-39790000D01*
G75*
G02*
X41475000Y-39640000I150000J0D01*
G01*
X43225000Y-39640000D01*
G75*
G02*
X43375000Y-39790000I0J-150000D01*
G01*
X43375000Y-40090000D01*
G75*
G02*
X43225000Y-40240000I-150000J0D01*
G01*
X41475000Y-40240000D01*
G75*
G02*
X41325000Y-40090000I0J150000D01*
G01*
G37*
G36*
G01*
X41325000Y-41360000D02*
X41325000Y-41060000D01*
G75*
G02*
X41475000Y-40910000I150000J0D01*
G01*
X43225000Y-40910000D01*
G75*
G02*
X43375000Y-41060000I0J-150000D01*
G01*
X43375000Y-41360000D01*
G75*
G02*
X43225000Y-41510000I-150000J0D01*
G01*
X41475000Y-41510000D01*
G75*
G02*
X41325000Y-41360000I0J150000D01*
G01*
G37*
G36*
G01*
X41325000Y-42630000D02*
X41325000Y-42330000D01*
G75*
G02*
X41475000Y-42180000I150000J0D01*
G01*
X43225000Y-42180000D01*
G75*
G02*
X43375000Y-42330000I0J-150000D01*
G01*
X43375000Y-42630000D01*
G75*
G02*
X43225000Y-42780000I-150000J0D01*
G01*
X41475000Y-42780000D01*
G75*
G02*
X41325000Y-42630000I0J150000D01*
G01*
G37*
G36*
G01*
X32025000Y-42630000D02*
X32025000Y-42330000D01*
G75*
G02*
X32175000Y-42180000I150000J0D01*
G01*
X33925000Y-42180000D01*
G75*
G02*
X34075000Y-42330000I0J-150000D01*
G01*
X34075000Y-42630000D01*
G75*
G02*
X33925000Y-42780000I-150000J0D01*
G01*
X32175000Y-42780000D01*
G75*
G02*
X32025000Y-42630000I0J150000D01*
G01*
G37*
G36*
G01*
X32025000Y-41360000D02*
X32025000Y-41060000D01*
G75*
G02*
X32175000Y-40910000I150000J0D01*
G01*
X33925000Y-40910000D01*
G75*
G02*
X34075000Y-41060000I0J-150000D01*
G01*
X34075000Y-41360000D01*
G75*
G02*
X33925000Y-41510000I-150000J0D01*
G01*
X32175000Y-41510000D01*
G75*
G02*
X32025000Y-41360000I0J150000D01*
G01*
G37*
G36*
G01*
X32025000Y-40090000D02*
X32025000Y-39790000D01*
G75*
G02*
X32175000Y-39640000I150000J0D01*
G01*
X33925000Y-39640000D01*
G75*
G02*
X34075000Y-39790000I0J-150000D01*
G01*
X34075000Y-40090000D01*
G75*
G02*
X33925000Y-40240000I-150000J0D01*
G01*
X32175000Y-40240000D01*
G75*
G02*
X32025000Y-40090000I0J150000D01*
G01*
G37*
G36*
G01*
X32025000Y-38820000D02*
X32025000Y-38520000D01*
G75*
G02*
X32175000Y-38370000I150000J0D01*
G01*
X33925000Y-38370000D01*
G75*
G02*
X34075000Y-38520000I0J-150000D01*
G01*
X34075000Y-38820000D01*
G75*
G02*
X33925000Y-38970000I-150000J0D01*
G01*
X32175000Y-38970000D01*
G75*
G02*
X32025000Y-38820000I0J150000D01*
G01*
G37*
G36*
G01*
X32025000Y-37550000D02*
X32025000Y-37250000D01*
G75*
G02*
X32175000Y-37100000I150000J0D01*
G01*
X33925000Y-37100000D01*
G75*
G02*
X34075000Y-37250000I0J-150000D01*
G01*
X34075000Y-37550000D01*
G75*
G02*
X33925000Y-37700000I-150000J0D01*
G01*
X32175000Y-37700000D01*
G75*
G02*
X32025000Y-37550000I0J150000D01*
G01*
G37*
G36*
G01*
X32025000Y-36280000D02*
X32025000Y-35980000D01*
G75*
G02*
X32175000Y-35830000I150000J0D01*
G01*
X33925000Y-35830000D01*
G75*
G02*
X34075000Y-35980000I0J-150000D01*
G01*
X34075000Y-36280000D01*
G75*
G02*
X33925000Y-36430000I-150000J0D01*
G01*
X32175000Y-36430000D01*
G75*
G02*
X32025000Y-36280000I0J150000D01*
G01*
G37*
G36*
G01*
X32025000Y-35010000D02*
X32025000Y-34710000D01*
G75*
G02*
X32175000Y-34560000I150000J0D01*
G01*
X33925000Y-34560000D01*
G75*
G02*
X34075000Y-34710000I0J-150000D01*
G01*
X34075000Y-35010000D01*
G75*
G02*
X33925000Y-35160000I-150000J0D01*
G01*
X32175000Y-35160000D01*
G75*
G02*
X32025000Y-35010000I0J150000D01*
G01*
G37*
G36*
G01*
X32025000Y-33740000D02*
X32025000Y-33440000D01*
G75*
G02*
X32175000Y-33290000I150000J0D01*
G01*
X33925000Y-33290000D01*
G75*
G02*
X34075000Y-33440000I0J-150000D01*
G01*
X34075000Y-33740000D01*
G75*
G02*
X33925000Y-33890000I-150000J0D01*
G01*
X32175000Y-33890000D01*
G75*
G02*
X32025000Y-33740000I0J150000D01*
G01*
G37*
G36*
G01*
X32025000Y-32470000D02*
X32025000Y-32170000D01*
G75*
G02*
X32175000Y-32020000I150000J0D01*
G01*
X33925000Y-32020000D01*
G75*
G02*
X34075000Y-32170000I0J-150000D01*
G01*
X34075000Y-32470000D01*
G75*
G02*
X33925000Y-32620000I-150000J0D01*
G01*
X32175000Y-32620000D01*
G75*
G02*
X32025000Y-32470000I0J150000D01*
G01*
G37*
%TD*%
D17*
%TO.C,U3*%
X67650001Y-27262451D03*
X66700000Y-27262451D03*
X65749999Y-27262451D03*
X65749999Y-24537549D03*
X66700000Y-24537549D03*
X67650001Y-24537549D03*
%TD*%
D18*
%TO.C,U1*%
X53465250Y-26650040D03*
X53465250Y-28549960D03*
X50734750Y-28549960D03*
X50734750Y-27600000D03*
X50734750Y-26650040D03*
%TD*%
%TO.C,R3*%
G36*
G01*
X15774999Y-25900000D02*
X17025001Y-25900000D01*
G75*
G02*
X17275000Y-26149999I0J-249999D01*
G01*
X17275000Y-26775001D01*
G75*
G02*
X17025001Y-27025000I-249999J0D01*
G01*
X15774999Y-27025000D01*
G75*
G02*
X15525000Y-26775001I0J249999D01*
G01*
X15525000Y-26149999D01*
G75*
G02*
X15774999Y-25900000I249999J0D01*
G01*
G37*
G36*
G01*
X15774999Y-22975000D02*
X17025001Y-22975000D01*
G75*
G02*
X17275000Y-23224999I0J-249999D01*
G01*
X17275000Y-23850001D01*
G75*
G02*
X17025001Y-24100000I-249999J0D01*
G01*
X15774999Y-24100000D01*
G75*
G02*
X15525000Y-23850001I0J249999D01*
G01*
X15525000Y-23224999D01*
G75*
G02*
X15774999Y-22975000I249999J0D01*
G01*
G37*
%TD*%
%TO.C,R1*%
G36*
G01*
X21574999Y-55400000D02*
X22825001Y-55400000D01*
G75*
G02*
X23075000Y-55649999I0J-249999D01*
G01*
X23075000Y-56275001D01*
G75*
G02*
X22825001Y-56525000I-249999J0D01*
G01*
X21574999Y-56525000D01*
G75*
G02*
X21325000Y-56275001I0J249999D01*
G01*
X21325000Y-55649999D01*
G75*
G02*
X21574999Y-55400000I249999J0D01*
G01*
G37*
G36*
G01*
X21574999Y-52475000D02*
X22825001Y-52475000D01*
G75*
G02*
X23075000Y-52724999I0J-249999D01*
G01*
X23075000Y-53350001D01*
G75*
G02*
X22825001Y-53600000I-249999J0D01*
G01*
X21574999Y-53600000D01*
G75*
G02*
X21325000Y-53350001I0J249999D01*
G01*
X21325000Y-52724999D01*
G75*
G02*
X21574999Y-52475000I249999J0D01*
G01*
G37*
%TD*%
%TO.C,C13*%
G36*
G01*
X30400000Y-29449999D02*
X30400000Y-30750001D01*
G75*
G02*
X30150001Y-31000000I-249999J0D01*
G01*
X29499999Y-31000000D01*
G75*
G02*
X29250000Y-30750001I0J249999D01*
G01*
X29250000Y-29449999D01*
G75*
G02*
X29499999Y-29200000I249999J0D01*
G01*
X30150001Y-29200000D01*
G75*
G02*
X30400000Y-29449999I0J-249999D01*
G01*
G37*
G36*
G01*
X33350000Y-29449999D02*
X33350000Y-30750001D01*
G75*
G02*
X33100001Y-31000000I-249999J0D01*
G01*
X32449999Y-31000000D01*
G75*
G02*
X32200000Y-30750001I0J249999D01*
G01*
X32200000Y-29449999D01*
G75*
G02*
X32449999Y-29200000I249999J0D01*
G01*
X33100001Y-29200000D01*
G75*
G02*
X33350000Y-29449999I0J-249999D01*
G01*
G37*
%TD*%
%TO.C,C12*%
G36*
G01*
X21549999Y-48200000D02*
X22850001Y-48200000D01*
G75*
G02*
X23100000Y-48449999I0J-249999D01*
G01*
X23100000Y-49100001D01*
G75*
G02*
X22850001Y-49350000I-249999J0D01*
G01*
X21549999Y-49350000D01*
G75*
G02*
X21300000Y-49100001I0J249999D01*
G01*
X21300000Y-48449999D01*
G75*
G02*
X21549999Y-48200000I249999J0D01*
G01*
G37*
G36*
G01*
X21549999Y-45250000D02*
X22850001Y-45250000D01*
G75*
G02*
X23100000Y-45499999I0J-249999D01*
G01*
X23100000Y-46150001D01*
G75*
G02*
X22850001Y-46400000I-249999J0D01*
G01*
X21549999Y-46400000D01*
G75*
G02*
X21300000Y-46150001I0J249999D01*
G01*
X21300000Y-45499999D01*
G75*
G02*
X21549999Y-45250000I249999J0D01*
G01*
G37*
%TD*%
%TO.C,C11*%
G36*
G01*
X42000000Y-30850001D02*
X42000000Y-29549999D01*
G75*
G02*
X42249999Y-29300000I249999J0D01*
G01*
X42900001Y-29300000D01*
G75*
G02*
X43150000Y-29549999I0J-249999D01*
G01*
X43150000Y-30850001D01*
G75*
G02*
X42900001Y-31100000I-249999J0D01*
G01*
X42249999Y-31100000D01*
G75*
G02*
X42000000Y-30850001I0J249999D01*
G01*
G37*
G36*
G01*
X39050000Y-30850001D02*
X39050000Y-29549999D01*
G75*
G02*
X39299999Y-29300000I249999J0D01*
G01*
X39950001Y-29300000D01*
G75*
G02*
X40200000Y-29549999I0J-249999D01*
G01*
X40200000Y-30850001D01*
G75*
G02*
X39950001Y-31100000I-249999J0D01*
G01*
X39299999Y-31100000D01*
G75*
G02*
X39050000Y-30850001I0J249999D01*
G01*
G37*
%TD*%
%TO.C,C9*%
G36*
G01*
X25950001Y-35700000D02*
X24649999Y-35700000D01*
G75*
G02*
X24400000Y-35450001I0J249999D01*
G01*
X24400000Y-34799999D01*
G75*
G02*
X24649999Y-34550000I249999J0D01*
G01*
X25950001Y-34550000D01*
G75*
G02*
X26200000Y-34799999I0J-249999D01*
G01*
X26200000Y-35450001D01*
G75*
G02*
X25950001Y-35700000I-249999J0D01*
G01*
G37*
G36*
G01*
X25950001Y-38650000D02*
X24649999Y-38650000D01*
G75*
G02*
X24400000Y-38400001I0J249999D01*
G01*
X24400000Y-37749999D01*
G75*
G02*
X24649999Y-37500000I249999J0D01*
G01*
X25950001Y-37500000D01*
G75*
G02*
X26200000Y-37749999I0J-249999D01*
G01*
X26200000Y-38400001D01*
G75*
G02*
X25950001Y-38650000I-249999J0D01*
G01*
G37*
%TD*%
%TO.C,C10*%
G36*
G01*
X70350001Y-25100000D02*
X69049999Y-25100000D01*
G75*
G02*
X68800000Y-24850001I0J249999D01*
G01*
X68800000Y-24199999D01*
G75*
G02*
X69049999Y-23950000I249999J0D01*
G01*
X70350001Y-23950000D01*
G75*
G02*
X70600000Y-24199999I0J-249999D01*
G01*
X70600000Y-24850001D01*
G75*
G02*
X70350001Y-25100000I-249999J0D01*
G01*
G37*
G36*
G01*
X70350001Y-28050000D02*
X69049999Y-28050000D01*
G75*
G02*
X68800000Y-27800001I0J249999D01*
G01*
X68800000Y-27149999D01*
G75*
G02*
X69049999Y-26900000I249999J0D01*
G01*
X70350001Y-26900000D01*
G75*
G02*
X70600000Y-27149999I0J-249999D01*
G01*
X70600000Y-27800001D01*
G75*
G02*
X70350001Y-28050000I-249999J0D01*
G01*
G37*
%TD*%
%TO.C,C7*%
G36*
G01*
X25950001Y-42200000D02*
X24649999Y-42200000D01*
G75*
G02*
X24400000Y-41950001I0J249999D01*
G01*
X24400000Y-41299999D01*
G75*
G02*
X24649999Y-41050000I249999J0D01*
G01*
X25950001Y-41050000D01*
G75*
G02*
X26200000Y-41299999I0J-249999D01*
G01*
X26200000Y-41950001D01*
G75*
G02*
X25950001Y-42200000I-249999J0D01*
G01*
G37*
G36*
G01*
X25950001Y-45150000D02*
X24649999Y-45150000D01*
G75*
G02*
X24400000Y-44900001I0J249999D01*
G01*
X24400000Y-44249999D01*
G75*
G02*
X24649999Y-44000000I249999J0D01*
G01*
X25950001Y-44000000D01*
G75*
G02*
X26200000Y-44249999I0J-249999D01*
G01*
X26200000Y-44900001D01*
G75*
G02*
X25950001Y-45150000I-249999J0D01*
G01*
G37*
%TD*%
%TO.C,C8*%
G36*
G01*
X65700000Y-21849999D02*
X65700000Y-23150001D01*
G75*
G02*
X65450001Y-23400000I-249999J0D01*
G01*
X64799999Y-23400000D01*
G75*
G02*
X64550000Y-23150001I0J249999D01*
G01*
X64550000Y-21849999D01*
G75*
G02*
X64799999Y-21600000I249999J0D01*
G01*
X65450001Y-21600000D01*
G75*
G02*
X65700000Y-21849999I0J-249999D01*
G01*
G37*
G36*
G01*
X68650000Y-21849999D02*
X68650000Y-23150001D01*
G75*
G02*
X68400001Y-23400000I-249999J0D01*
G01*
X67749999Y-23400000D01*
G75*
G02*
X67500000Y-23150001I0J249999D01*
G01*
X67500000Y-21849999D01*
G75*
G02*
X67749999Y-21600000I249999J0D01*
G01*
X68400001Y-21600000D01*
G75*
G02*
X68650000Y-21849999I0J-249999D01*
G01*
G37*
%TD*%
%TO.C,C6*%
G36*
G01*
X46550001Y-37200000D02*
X45249999Y-37200000D01*
G75*
G02*
X45000000Y-36950001I0J249999D01*
G01*
X45000000Y-36299999D01*
G75*
G02*
X45249999Y-36050000I249999J0D01*
G01*
X46550001Y-36050000D01*
G75*
G02*
X46800000Y-36299999I0J-249999D01*
G01*
X46800000Y-36950001D01*
G75*
G02*
X46550001Y-37200000I-249999J0D01*
G01*
G37*
G36*
G01*
X46550001Y-40150000D02*
X45249999Y-40150000D01*
G75*
G02*
X45000000Y-39900001I0J249999D01*
G01*
X45000000Y-39249999D01*
G75*
G02*
X45249999Y-39000000I249999J0D01*
G01*
X46550001Y-39000000D01*
G75*
G02*
X46800000Y-39249999I0J-249999D01*
G01*
X46800000Y-39900001D01*
G75*
G02*
X46550001Y-40150000I-249999J0D01*
G01*
G37*
%TD*%
%TO.C,C5*%
G36*
G01*
X45649999Y-44000000D02*
X46950001Y-44000000D01*
G75*
G02*
X47200000Y-44249999I0J-249999D01*
G01*
X47200000Y-44900001D01*
G75*
G02*
X46950001Y-45150000I-249999J0D01*
G01*
X45649999Y-45150000D01*
G75*
G02*
X45400000Y-44900001I0J249999D01*
G01*
X45400000Y-44249999D01*
G75*
G02*
X45649999Y-44000000I249999J0D01*
G01*
G37*
G36*
G01*
X45649999Y-41050000D02*
X46950001Y-41050000D01*
G75*
G02*
X47200000Y-41299999I0J-249999D01*
G01*
X47200000Y-41950001D01*
G75*
G02*
X46950001Y-42200000I-249999J0D01*
G01*
X45649999Y-42200000D01*
G75*
G02*
X45400000Y-41950001I0J249999D01*
G01*
X45400000Y-41299999D01*
G75*
G02*
X45649999Y-41050000I249999J0D01*
G01*
G37*
%TD*%
%TO.C,C4*%
G36*
G01*
X53200000Y-25150001D02*
X53200000Y-23849999D01*
G75*
G02*
X53449999Y-23600000I249999J0D01*
G01*
X54100001Y-23600000D01*
G75*
G02*
X54350000Y-23849999I0J-249999D01*
G01*
X54350000Y-25150001D01*
G75*
G02*
X54100001Y-25400000I-249999J0D01*
G01*
X53449999Y-25400000D01*
G75*
G02*
X53200000Y-25150001I0J249999D01*
G01*
G37*
G36*
G01*
X50250000Y-25150001D02*
X50250000Y-23849999D01*
G75*
G02*
X50499999Y-23600000I249999J0D01*
G01*
X51150001Y-23600000D01*
G75*
G02*
X51400000Y-23849999I0J-249999D01*
G01*
X51400000Y-25150001D01*
G75*
G02*
X51150001Y-25400000I-249999J0D01*
G01*
X50499999Y-25400000D01*
G75*
G02*
X50250000Y-25150001I0J249999D01*
G01*
G37*
%TD*%
%TO.C,C3*%
G36*
G01*
X51300000Y-30049999D02*
X51300000Y-31350001D01*
G75*
G02*
X51050001Y-31600000I-249999J0D01*
G01*
X50399999Y-31600000D01*
G75*
G02*
X50150000Y-31350001I0J249999D01*
G01*
X50150000Y-30049999D01*
G75*
G02*
X50399999Y-29800000I249999J0D01*
G01*
X51050001Y-29800000D01*
G75*
G02*
X51300000Y-30049999I0J-249999D01*
G01*
G37*
G36*
G01*
X54250000Y-30049999D02*
X54250000Y-31350001D01*
G75*
G02*
X54000001Y-31600000I-249999J0D01*
G01*
X53349999Y-31600000D01*
G75*
G02*
X53100000Y-31350001I0J249999D01*
G01*
X53100000Y-30049999D01*
G75*
G02*
X53349999Y-29800000I249999J0D01*
G01*
X54000001Y-29800000D01*
G75*
G02*
X54250000Y-30049999I0J-249999D01*
G01*
G37*
%TD*%
%TO.C,C1*%
G36*
G01*
X48950001Y-35700000D02*
X47649999Y-35700000D01*
G75*
G02*
X47400000Y-35450001I0J249999D01*
G01*
X47400000Y-34799999D01*
G75*
G02*
X47649999Y-34550000I249999J0D01*
G01*
X48950001Y-34550000D01*
G75*
G02*
X49200000Y-34799999I0J-249999D01*
G01*
X49200000Y-35450001D01*
G75*
G02*
X48950001Y-35700000I-249999J0D01*
G01*
G37*
G36*
G01*
X48950001Y-38650000D02*
X47649999Y-38650000D01*
G75*
G02*
X47400000Y-38400001I0J249999D01*
G01*
X47400000Y-37749999D01*
G75*
G02*
X47649999Y-37500000I249999J0D01*
G01*
X48950001Y-37500000D01*
G75*
G02*
X49200000Y-37749999I0J-249999D01*
G01*
X49200000Y-38400001D01*
G75*
G02*
X48950001Y-38650000I-249999J0D01*
G01*
G37*
%TD*%
%TO.C,C2*%
G36*
G01*
X49450001Y-26200000D02*
X48149999Y-26200000D01*
G75*
G02*
X47900000Y-25950001I0J249999D01*
G01*
X47900000Y-25299999D01*
G75*
G02*
X48149999Y-25050000I249999J0D01*
G01*
X49450001Y-25050000D01*
G75*
G02*
X49700000Y-25299999I0J-249999D01*
G01*
X49700000Y-25950001D01*
G75*
G02*
X49450001Y-26200000I-249999J0D01*
G01*
G37*
G36*
G01*
X49450001Y-29150000D02*
X48149999Y-29150000D01*
G75*
G02*
X47900000Y-28900001I0J249999D01*
G01*
X47900000Y-28249999D01*
G75*
G02*
X48149999Y-28000000I249999J0D01*
G01*
X49450001Y-28000000D01*
G75*
G02*
X49700000Y-28249999I0J-249999D01*
G01*
X49700000Y-28900001D01*
G75*
G02*
X49450001Y-29150000I-249999J0D01*
G01*
G37*
%TD*%
M02*
