M48
; DRILL file {KiCad (5.1.7)-1} date 05/19/21 20:23:28
; FORMAT={-:-/ absolute / inch / decimal}
; #@! TF.CreationDate,2021-05-19T20:23:28+02:00
; #@! TF.GenerationSoftware,Kicad,Pcbnew,(5.1.7)-1
; #@! TF.FileFunction,Plated,1,2,PTH
FMAT,2
INCH
T1C0.0157
T2C0.0315
T3C0.0394
T4C0.0402
T5C0.0420
T6C0.0551
%
G90
G05
T1
X1.9094Y-1.8504
X1.9094Y-2.4016
X2.4811Y-2.574
X2.4962Y-1.9296
X2.5734Y-1.9468
X2.5787Y-2.1063
X2.5897Y-2.1741
X2.7376Y-2.8297
X2.8055Y-3.0429
X2.861Y-2.3236
X3.225Y-2.1
X3.325Y-2.1
X3.475Y-1.95
X3.55Y-2.2
X4.1164Y-2.3126
X4.1222Y-2.5641
X4.2209Y-2.3901
X4.273Y-2.397
X4.3657Y-2.599
X4.4624Y-2.6333
X4.4873Y-2.7674
X4.5105Y-2.6991
X4.5227Y-2.35
X4.5542Y-2.5631
X4.5648Y-2.6371
X4.5891Y-2.5814
X4.6397Y-2.3477
X4.669Y-2.9017
X4.7084Y-2.821
X4.7148Y-2.3573
X4.7477Y-2.8195
X4.765Y-1.8892
X4.8971Y-2.4893
X4.9059Y-2.6323
X4.9064Y-2.3127
X4.9184Y-2.1242
X5.109Y-2.072
X5.3855Y-2.3484
T2
X4.152Y-2.7294
X4.152Y-2.9215
T3
X4.422Y-1.95
X4.422Y-2.05
X4.522Y-1.95
X4.522Y-2.05
X4.622Y-1.95
X4.622Y-2.05
X4.296Y-1.742
X4.396Y-1.742
X4.496Y-1.742
T4
X2.4002Y-1.6137
X2.9724Y-3.5039
T5
X3.6624Y-3.7139
X4.4695Y-3.7139
X4.8588Y-3.3944
X5.6659Y-3.3944
T6
X2.033Y-2.1948
X2.033Y-2.3948
X2.029Y-1.5948
X2.029Y-1.7948
X2.033Y-2.7668
X5.3026Y-1.5938
X5.3026Y-1.7938
X2.027Y-3.5408
X2.4283Y-3.814
X2.6283Y-3.814
X5.3637Y-2.4967
X5.3637Y-2.6621
X5.5802Y-2.4967
X5.5802Y-2.6621
X2.033Y-2.9668
X2.027Y-3.3408
T0
M30
