%TF.GenerationSoftware,KiCad,Pcbnew,(5.1.7)-1*%
%TF.CreationDate,2021-05-19T20:23:41+02:00*%
%TF.ProjectId,PEE50-Schakeling,50454535-302d-4536-9368-616b656c696e,rev?*%
%TF.SameCoordinates,Original*%
%TF.FileFunction,Legend,Top*%
%TF.FilePolarity,Positive*%
%FSLAX46Y46*%
G04 Gerber Fmt 4.6, Leading zero omitted, Abs format (unit mm)*
G04 Created by KiCad (PCBNEW (5.1.7)-1) date 2021-05-19 20:23:41*
%MOMM*%
%LPD*%
G01*
G04 APERTURE LIST*
%ADD10C,0.120000*%
%ADD11C,0.200000*%
%ADD12C,0.152400*%
%ADD13C,0.127000*%
%ADD14C,0.150000*%
%ADD15C,0.254000*%
%ADD16C,0.015000*%
G04 APERTURE END LIST*
D10*
%TO.C,C1*%
X73990000Y-81084420D02*
X73990000Y-81365580D01*
X75010000Y-81084420D02*
X75010000Y-81365580D01*
%TO.C,C2*%
X72010000Y-59634420D02*
X72010000Y-59915580D01*
X70990000Y-59634420D02*
X70990000Y-59915580D01*
%TO.C,C3*%
X68990000Y-59634420D02*
X68990000Y-59915580D01*
X70010000Y-59634420D02*
X70010000Y-59915580D01*
%TO.C,C4*%
X124813600Y-49251180D02*
X124813600Y-48970020D01*
X125833600Y-49251180D02*
X125833600Y-48970020D01*
%TO.C,C5*%
X122835580Y-40917400D02*
X122554420Y-40917400D01*
X122835580Y-41937400D02*
X122554420Y-41937400D01*
%TO.C,C6*%
X74490000Y-43865580D02*
X74490000Y-43584420D01*
X75510000Y-43865580D02*
X75510000Y-43584420D01*
%TO.C,C7*%
X64990000Y-44865580D02*
X64990000Y-44584420D01*
X66010000Y-44865580D02*
X66010000Y-44584420D01*
%TO.C,C8*%
X62490000Y-51134420D02*
X62490000Y-51415580D01*
X63510000Y-51134420D02*
X63510000Y-51415580D01*
%TO.C,C9*%
X64490000Y-51415580D02*
X64490000Y-51134420D01*
X65510000Y-51415580D02*
X65510000Y-51134420D01*
%TO.C,C10*%
X63084420Y-74490000D02*
X63365580Y-74490000D01*
X63084420Y-75510000D02*
X63365580Y-75510000D01*
%TO.C,C11*%
X62134420Y-90510000D02*
X62415580Y-90510000D01*
X62134420Y-89490000D02*
X62415580Y-89490000D01*
%TO.C,C12*%
X105665180Y-54150800D02*
X105384020Y-54150800D01*
X105665180Y-55170800D02*
X105384020Y-55170800D01*
%TO.C,C13*%
X111300800Y-40615180D02*
X111300800Y-40334020D01*
X112320800Y-40615180D02*
X112320800Y-40334020D01*
%TO.C,C14*%
X122149180Y-50188400D02*
X121868020Y-50188400D01*
X122149180Y-51208400D02*
X121868020Y-51208400D01*
%TO.C,C15*%
X122201400Y-63930620D02*
X122201400Y-64211780D01*
X121181400Y-63930620D02*
X121181400Y-64211780D01*
%TO.C,C16*%
X112192380Y-71372000D02*
X111911220Y-71372000D01*
X112192380Y-72392000D02*
X111911220Y-72392000D01*
%TO.C,C17*%
X112166980Y-70360000D02*
X111885820Y-70360000D01*
X112166980Y-69340000D02*
X111885820Y-69340000D01*
%TO.C,C18*%
X114005900Y-40321920D02*
X114005900Y-40603080D01*
X115025900Y-40321920D02*
X115025900Y-40603080D01*
%TO.C,D1*%
X86685000Y-57112500D02*
X86685000Y-54627500D01*
X86685000Y-54627500D02*
X85315000Y-54627500D01*
X85315000Y-54627500D02*
X85315000Y-57112500D01*
%TO.C,D2*%
X82815000Y-54627500D02*
X82815000Y-57112500D01*
X84185000Y-54627500D02*
X82815000Y-54627500D01*
X84185000Y-57112500D02*
X84185000Y-54627500D01*
%TO.C,D3*%
X80315000Y-54627500D02*
X80315000Y-57112500D01*
X81685000Y-54627500D02*
X80315000Y-54627500D01*
X81685000Y-57112500D02*
X81685000Y-54627500D01*
D11*
%TO.C,IC1*%
X121156600Y-46630200D02*
X121156600Y-45430200D01*
X124106600Y-45080200D02*
X121206600Y-45080200D01*
X124106600Y-44480200D02*
X124106600Y-45080200D01*
X121206600Y-44480200D02*
X124106600Y-44480200D01*
X121206600Y-45080200D02*
X121206600Y-44480200D01*
D10*
%TO.C,J1*%
X53646400Y-36857200D02*
X41426400Y-36857200D01*
X41426400Y-36857200D02*
X41426400Y-49237200D01*
X41426400Y-49237200D02*
X53646400Y-49237200D01*
X53646400Y-49237200D02*
X53646400Y-36857200D01*
X42926400Y-36857200D02*
X44726400Y-36857200D01*
X44726400Y-36857200D02*
X44726400Y-49237200D01*
X44726400Y-49237200D02*
X42926400Y-49237200D01*
X42926400Y-49237200D02*
X42926400Y-36857200D01*
X41426400Y-39507200D02*
X41426400Y-41507200D01*
X41426400Y-41507200D02*
X42926400Y-41257200D01*
X42926400Y-41257200D02*
X42926400Y-39757200D01*
X42926400Y-39757200D02*
X41426400Y-39507200D01*
X41426400Y-44587200D02*
X41426400Y-46587200D01*
X41426400Y-46587200D02*
X42926400Y-46337200D01*
X42926400Y-46337200D02*
X42926400Y-44837200D01*
X42926400Y-44837200D02*
X41426400Y-44587200D01*
X54446400Y-40807200D02*
X53846400Y-40507200D01*
X53846400Y-40507200D02*
X54446400Y-40207200D01*
X54446400Y-40207200D02*
X54446400Y-40807200D01*
%TO.C,J2*%
X53748000Y-52097200D02*
X41528000Y-52097200D01*
X41528000Y-52097200D02*
X41528000Y-64477200D01*
X41528000Y-64477200D02*
X53748000Y-64477200D01*
X53748000Y-64477200D02*
X53748000Y-52097200D01*
X43028000Y-52097200D02*
X44828000Y-52097200D01*
X44828000Y-52097200D02*
X44828000Y-64477200D01*
X44828000Y-64477200D02*
X43028000Y-64477200D01*
X43028000Y-64477200D02*
X43028000Y-52097200D01*
X41528000Y-54747200D02*
X41528000Y-56747200D01*
X41528000Y-56747200D02*
X43028000Y-56497200D01*
X43028000Y-56497200D02*
X43028000Y-54997200D01*
X43028000Y-54997200D02*
X41528000Y-54747200D01*
X41528000Y-59827200D02*
X41528000Y-61827200D01*
X41528000Y-61827200D02*
X43028000Y-61577200D01*
X43028000Y-61577200D02*
X43028000Y-60077200D01*
X43028000Y-60077200D02*
X41528000Y-59827200D01*
X54548000Y-56047200D02*
X53948000Y-55747200D01*
X53948000Y-55747200D02*
X54548000Y-55447200D01*
X54548000Y-55447200D02*
X54548000Y-56047200D01*
%TO.C,J3*%
X54548000Y-69976000D02*
X54548000Y-70576000D01*
X53948000Y-70276000D02*
X54548000Y-69976000D01*
X54548000Y-70576000D02*
X53948000Y-70276000D01*
X43028000Y-74606000D02*
X41528000Y-74356000D01*
X43028000Y-76106000D02*
X43028000Y-74606000D01*
X41528000Y-76356000D02*
X43028000Y-76106000D01*
X41528000Y-74356000D02*
X41528000Y-76356000D01*
X43028000Y-69526000D02*
X41528000Y-69276000D01*
X43028000Y-71026000D02*
X43028000Y-69526000D01*
X41528000Y-71276000D02*
X43028000Y-71026000D01*
X41528000Y-69276000D02*
X41528000Y-71276000D01*
X43028000Y-79006000D02*
X43028000Y-66626000D01*
X44828000Y-79006000D02*
X43028000Y-79006000D01*
X44828000Y-66626000D02*
X44828000Y-79006000D01*
X43028000Y-66626000D02*
X44828000Y-66626000D01*
X53748000Y-79006000D02*
X53748000Y-66626000D01*
X41528000Y-79006000D02*
X53748000Y-79006000D01*
X41528000Y-66626000D02*
X41528000Y-79006000D01*
X53748000Y-66626000D02*
X41528000Y-66626000D01*
%TO.C,J4*%
X54395600Y-84555600D02*
X54395600Y-85155600D01*
X53795600Y-84855600D02*
X54395600Y-84555600D01*
X54395600Y-85155600D02*
X53795600Y-84855600D01*
X42875600Y-89185600D02*
X41375600Y-88935600D01*
X42875600Y-90685600D02*
X42875600Y-89185600D01*
X41375600Y-90935600D02*
X42875600Y-90685600D01*
X41375600Y-88935600D02*
X41375600Y-90935600D01*
X42875600Y-84105600D02*
X41375600Y-83855600D01*
X42875600Y-85605600D02*
X42875600Y-84105600D01*
X41375600Y-85855600D02*
X42875600Y-85605600D01*
X41375600Y-83855600D02*
X41375600Y-85855600D01*
X42875600Y-93585600D02*
X42875600Y-81205600D01*
X44675600Y-93585600D02*
X42875600Y-93585600D01*
X44675600Y-81205600D02*
X44675600Y-93585600D01*
X42875600Y-81205600D02*
X44675600Y-81205600D01*
X53595600Y-93585600D02*
X53595600Y-81205600D01*
X41375600Y-93585600D02*
X53595600Y-93585600D01*
X41375600Y-81205600D02*
X41375600Y-93585600D01*
X53595600Y-81205600D02*
X41375600Y-81205600D01*
%TO.C,J5*%
X110988800Y-53400000D02*
X110988800Y-52070000D01*
X112318800Y-53400000D02*
X110988800Y-53400000D01*
X110988800Y-50800000D02*
X110988800Y-48200000D01*
X113588800Y-50800000D02*
X110988800Y-50800000D01*
X113588800Y-53400000D02*
X113588800Y-50800000D01*
X110988800Y-48200000D02*
X118728800Y-48200000D01*
X113588800Y-53400000D02*
X118728800Y-53400000D01*
X118728800Y-53400000D02*
X118728800Y-48200000D01*
%TO.C,JP1*%
X115528400Y-42916800D02*
X115528400Y-44246800D01*
X114198400Y-42916800D02*
X115528400Y-42916800D01*
X112928400Y-42916800D02*
X112928400Y-45576800D01*
X112928400Y-45576800D02*
X107788400Y-45576800D01*
X112928400Y-42916800D02*
X107788400Y-42916800D01*
X107788400Y-42916800D02*
X107788400Y-45576800D01*
%TO.C,Q1*%
X87462660Y-75606600D02*
X92262660Y-75606600D01*
X87462660Y-80806600D02*
X93062660Y-80806600D01*
%TO.C,Q2*%
X84070000Y-82600000D02*
X79270000Y-82600000D01*
X84070000Y-77400000D02*
X78470000Y-77400000D01*
%TO.C,R1*%
X93587742Y-53227500D02*
X94062258Y-53227500D01*
X93587742Y-52182500D02*
X94062258Y-52182500D01*
%TO.C,R2*%
X93587742Y-49007500D02*
X94062258Y-49007500D01*
X93587742Y-50052500D02*
X94062258Y-50052500D01*
%TO.C,R3*%
X93297742Y-56402500D02*
X93772258Y-56402500D01*
X93297742Y-55357500D02*
X93772258Y-55357500D01*
%TO.C,R4*%
X75562258Y-76477500D02*
X75087742Y-76477500D01*
X75562258Y-77522500D02*
X75087742Y-77522500D01*
%TO.C,R5*%
X97022500Y-75587742D02*
X97022500Y-76062258D01*
X95977500Y-75587742D02*
X95977500Y-76062258D01*
%TO.C,R6*%
X98977500Y-75437742D02*
X98977500Y-75912258D01*
X100022500Y-75437742D02*
X100022500Y-75912258D01*
%TO.C,R7*%
X77937742Y-49977500D02*
X78412258Y-49977500D01*
X77937742Y-51022500D02*
X78412258Y-51022500D01*
%TO.C,R8*%
X69477500Y-80937742D02*
X69477500Y-81412258D01*
X70522500Y-80937742D02*
X70522500Y-81412258D01*
%TO.C,R9*%
X78087742Y-47977500D02*
X78562258Y-47977500D01*
X78087742Y-49022500D02*
X78562258Y-49022500D01*
%TO.C,R10*%
X70098382Y-40465480D02*
X70572898Y-40465480D01*
X70098382Y-41510480D02*
X70572898Y-41510480D01*
%TO.C,R11*%
X108220742Y-49849300D02*
X108695258Y-49849300D01*
X108220742Y-48804300D02*
X108695258Y-48804300D01*
%TO.C,R12*%
X58937742Y-46022500D02*
X59412258Y-46022500D01*
X58937742Y-44977500D02*
X59412258Y-44977500D01*
%TO.C,R13*%
X58437742Y-60477500D02*
X58912258Y-60477500D01*
X58437742Y-61522500D02*
X58912258Y-61522500D01*
%TO.C,R14*%
X58437742Y-75522500D02*
X58912258Y-75522500D01*
X58437742Y-74477500D02*
X58912258Y-74477500D01*
%TO.C,R15*%
X57937742Y-89477500D02*
X58412258Y-89477500D01*
X57937742Y-90522500D02*
X58412258Y-90522500D01*
%TO.C,R16*%
X126655300Y-67027058D02*
X126655300Y-66552542D01*
X127700300Y-67027058D02*
X127700300Y-66552542D01*
D12*
%TO.C,U1*%
X67896500Y-50059499D02*
X67896500Y-50440499D01*
X67642500Y-50059499D02*
X67896500Y-50059499D01*
X67642500Y-50440499D02*
X67642500Y-50059499D01*
X67896500Y-50440499D02*
X67642500Y-50440499D01*
X73103500Y-50559500D02*
X73103500Y-50940501D01*
X73357500Y-50559500D02*
X73103500Y-50559500D01*
X73357500Y-50940501D02*
X73357500Y-50559500D01*
X73103500Y-50940501D02*
X73357500Y-50940501D01*
X68328300Y-52709740D02*
X68328300Y-53171700D01*
X68790260Y-48828300D02*
X68328300Y-48828300D01*
X72671700Y-49290260D02*
X72671700Y-48828300D01*
X72209740Y-53171700D02*
X72671700Y-53171700D01*
X68328300Y-53171700D02*
X68790260Y-53171700D01*
X68328300Y-48828300D02*
X68328300Y-49290260D01*
X72671700Y-48828300D02*
X72209740Y-48828300D01*
X72671700Y-53171700D02*
X72671700Y-52709740D01*
%TO.C,U2*%
X107950503Y-64005947D02*
X107950503Y-64259947D01*
X107569503Y-64005947D02*
X107950503Y-64005947D01*
X107569503Y-64259947D02*
X107569503Y-64005947D01*
X107950503Y-64259947D02*
X107569503Y-64259947D01*
X102950502Y-64005947D02*
X102950502Y-64259947D01*
X102569502Y-64005947D02*
X102950502Y-64005947D01*
X102569502Y-64259947D02*
X102569502Y-64005947D01*
X102950502Y-64259947D02*
X102569502Y-64259947D01*
X107450501Y-56193949D02*
X107450501Y-55939949D01*
X107069501Y-56193949D02*
X107450501Y-56193949D01*
X107069501Y-55939949D02*
X107069501Y-56193949D01*
X107450501Y-55939949D02*
X107069501Y-55939949D01*
X112289201Y-62474848D02*
X112289201Y-57725048D01*
X102230801Y-57725048D02*
X102230801Y-62474848D01*
%TO.C,U3*%
X123814399Y-66304502D02*
X124068399Y-66304502D01*
X123814399Y-66685502D02*
X123814399Y-66304502D01*
X124068399Y-66685502D02*
X123814399Y-66685502D01*
X124068399Y-66304502D02*
X124068399Y-66685502D01*
X116205601Y-72154498D02*
X115951601Y-72154498D01*
X116205601Y-72535498D02*
X116205601Y-72154498D01*
X115951601Y-72535498D02*
X116205601Y-72535498D01*
X115951601Y-72154498D02*
X115951601Y-72535498D01*
X122034785Y-65991000D02*
X117985228Y-65991000D01*
X117985215Y-72849000D02*
X122034772Y-72849000D01*
D13*
%TO.C,U5*%
X123057600Y-56685200D02*
X123057600Y-60685200D01*
X128097600Y-56685200D02*
X128097600Y-60685200D01*
D11*
X128172600Y-54240200D02*
G75*
G03*
X128172600Y-54240200I-100000J0D01*
G01*
D10*
%TO.C,Y1*%
X107985800Y-74966100D02*
X107985800Y-68566100D01*
X102935800Y-74966100D02*
X102935800Y-68566100D01*
X107985800Y-74966100D02*
G75*
G02*
X102935800Y-74966100I-2525000J0D01*
G01*
X107985800Y-68566100D02*
G75*
G03*
X102935800Y-68566100I-2525000J0D01*
G01*
%TO.C,J7*%
X58028820Y-94765600D02*
X58028820Y-106985600D01*
X58028820Y-106985600D02*
X70408820Y-106985600D01*
X70408820Y-106985600D02*
X70408820Y-94765600D01*
X70408820Y-94765600D02*
X58028820Y-94765600D01*
X58028820Y-105485600D02*
X58028820Y-103685600D01*
X58028820Y-103685600D02*
X70408820Y-103685600D01*
X70408820Y-103685600D02*
X70408820Y-105485600D01*
X70408820Y-105485600D02*
X58028820Y-105485600D01*
X60678820Y-106985600D02*
X62678820Y-106985600D01*
X62678820Y-106985600D02*
X62428820Y-105485600D01*
X62428820Y-105485600D02*
X60928820Y-105485600D01*
X60928820Y-105485600D02*
X60678820Y-106985600D01*
X65758820Y-106985600D02*
X67758820Y-106985600D01*
X67758820Y-106985600D02*
X67508820Y-105485600D01*
X67508820Y-105485600D02*
X66008820Y-105485600D01*
X66008820Y-105485600D02*
X65758820Y-106985600D01*
X61978820Y-93965600D02*
X61678820Y-94565600D01*
X61678820Y-94565600D02*
X61378820Y-93965600D01*
X61378820Y-93965600D02*
X61978820Y-93965600D01*
%TO.C,D4*%
X129222500Y-47550400D02*
X126937500Y-47550400D01*
X126937500Y-47550400D02*
X126937500Y-49020400D01*
X126937500Y-49020400D02*
X129222500Y-49020400D01*
%TO.C,D5*%
X128405560Y-45782600D02*
X128405560Y-43497600D01*
X126935560Y-45782600D02*
X128405560Y-45782600D01*
X126935560Y-43497600D02*
X126935560Y-45782600D01*
%TO.C,R17*%
X130122400Y-64443342D02*
X130122400Y-64917858D01*
X131167400Y-64443342D02*
X131167400Y-64917858D01*
D13*
%TO.C,BT1*%
X145918380Y-83677760D02*
X143528380Y-83677760D01*
X145918380Y-88757760D02*
X143528380Y-88757760D01*
X145918380Y-88757760D02*
X145918380Y-83677760D01*
X143528380Y-88757760D02*
G75*
G02*
X143528380Y-83677760I-13611783J2540000D01*
G01*
D10*
%TO.C,J6*%
X133637980Y-70666180D02*
X136487980Y-70666180D01*
X133637980Y-67816180D02*
X133637980Y-70666180D01*
X145097980Y-63706180D02*
X145097980Y-65516180D01*
X143697980Y-63706180D02*
X145097980Y-63706180D01*
X143697980Y-60606180D02*
X143697980Y-63706180D01*
X133877980Y-60606180D02*
X143697980Y-60606180D01*
X133877980Y-65516180D02*
X133877980Y-60606180D01*
X145097980Y-67326180D02*
X145097980Y-65516180D01*
X143697980Y-67326180D02*
X145097980Y-67326180D01*
X143697980Y-70426180D02*
X143697980Y-67326180D01*
X133877980Y-70426180D02*
X143697980Y-70426180D01*
X133877980Y-65516180D02*
X133877980Y-70426180D01*
X143037980Y-58716180D02*
X143037980Y-60606180D01*
X139517980Y-58716180D02*
X139517980Y-60606180D01*
X143037980Y-72316180D02*
X143037980Y-70426180D01*
X139517980Y-72316180D02*
X139517980Y-70426180D01*
X139517980Y-72316180D02*
G75*
G03*
X143037980Y-72316180I1760000J0D01*
G01*
X143037980Y-58716180D02*
G75*
G03*
X139517980Y-58716180I-1760000J0D01*
G01*
%TO.C,J8*%
X131776040Y-45862520D02*
X131776040Y-45262520D01*
X132376040Y-45562520D02*
X131776040Y-45862520D01*
X131776040Y-45262520D02*
X132376040Y-45562520D01*
X143296040Y-41232520D02*
X144796040Y-41482520D01*
X143296040Y-39732520D02*
X143296040Y-41232520D01*
X144796040Y-39482520D02*
X143296040Y-39732520D01*
X144796040Y-41482520D02*
X144796040Y-39482520D01*
X143296040Y-46312520D02*
X144796040Y-46562520D01*
X143296040Y-44812520D02*
X143296040Y-46312520D01*
X144796040Y-44562520D02*
X143296040Y-44812520D01*
X144796040Y-46562520D02*
X144796040Y-44562520D01*
X143296040Y-36832520D02*
X143296040Y-49212520D01*
X141496040Y-36832520D02*
X143296040Y-36832520D01*
X141496040Y-49212520D02*
X141496040Y-36832520D01*
X143296040Y-49212520D02*
X141496040Y-49212520D01*
X132576040Y-36832520D02*
X132576040Y-49212520D01*
X144796040Y-36832520D02*
X132576040Y-36832520D01*
X144796040Y-49212520D02*
X144796040Y-36832520D01*
X132576040Y-49212520D02*
X144796040Y-49212520D01*
D13*
%TO.C,BT2*%
X115529820Y-96873060D02*
X115529820Y-91793060D01*
X115529820Y-96873060D02*
X113139820Y-96873060D01*
X115529820Y-91793060D02*
X113139820Y-91793060D01*
X113139820Y-96873060D02*
G75*
G02*
X113139820Y-91793060I-13611783J2540000D01*
G01*
%TO.C,REF\u002A\u002A*%
D14*
X41739986Y-103310080D02*
X41406653Y-102833890D01*
X41168558Y-103310080D02*
X41168558Y-102310080D01*
X41549510Y-102310080D01*
X41644748Y-102357700D01*
X41692367Y-102405319D01*
X41739986Y-102500557D01*
X41739986Y-102643414D01*
X41692367Y-102738652D01*
X41644748Y-102786271D01*
X41549510Y-102833890D01*
X41168558Y-102833890D01*
X42168558Y-102786271D02*
X42501891Y-102786271D01*
X42644748Y-103310080D02*
X42168558Y-103310080D01*
X42168558Y-102310080D01*
X42644748Y-102310080D01*
X43406653Y-102786271D02*
X43073320Y-102786271D01*
X43073320Y-103310080D02*
X43073320Y-102310080D01*
X43549510Y-102310080D01*
X44073320Y-102310080D02*
X44073320Y-102548176D01*
X43835224Y-102452938D02*
X44073320Y-102548176D01*
X44311415Y-102452938D01*
X43930462Y-102738652D02*
X44073320Y-102548176D01*
X44216177Y-102738652D01*
X44835224Y-102310080D02*
X44835224Y-102548176D01*
X44597129Y-102452938D02*
X44835224Y-102548176D01*
X45073320Y-102452938D01*
X44692367Y-102738652D02*
X44835224Y-102548176D01*
X44978081Y-102738652D01*
X91739886Y-37452960D02*
X91406553Y-36976770D01*
X91168458Y-37452960D02*
X91168458Y-36452960D01*
X91549410Y-36452960D01*
X91644648Y-36500580D01*
X91692267Y-36548199D01*
X91739886Y-36643437D01*
X91739886Y-36786294D01*
X91692267Y-36881532D01*
X91644648Y-36929151D01*
X91549410Y-36976770D01*
X91168458Y-36976770D01*
X92168458Y-36929151D02*
X92501791Y-36929151D01*
X92644648Y-37452960D02*
X92168458Y-37452960D01*
X92168458Y-36452960D01*
X92644648Y-36452960D01*
X93406553Y-36929151D02*
X93073220Y-36929151D01*
X93073220Y-37452960D02*
X93073220Y-36452960D01*
X93549410Y-36452960D01*
X94073220Y-36452960D02*
X94073220Y-36691056D01*
X93835124Y-36595818D02*
X94073220Y-36691056D01*
X94311315Y-36595818D01*
X93930362Y-36881532D02*
X94073220Y-36691056D01*
X94216077Y-36881532D01*
X94835124Y-36452960D02*
X94835124Y-36691056D01*
X94597029Y-36595818D02*
X94835124Y-36691056D01*
X95073220Y-36595818D01*
X94692267Y-36881532D02*
X94835124Y-36691056D01*
X94977981Y-36881532D01*
X142176666Y-103147520D02*
X141843333Y-102671330D01*
X141605238Y-103147520D02*
X141605238Y-102147520D01*
X141986190Y-102147520D01*
X142081428Y-102195140D01*
X142129047Y-102242759D01*
X142176666Y-102337997D01*
X142176666Y-102480854D01*
X142129047Y-102576092D01*
X142081428Y-102623711D01*
X141986190Y-102671330D01*
X141605238Y-102671330D01*
X142605238Y-102623711D02*
X142938571Y-102623711D01*
X143081428Y-103147520D02*
X142605238Y-103147520D01*
X142605238Y-102147520D01*
X143081428Y-102147520D01*
X143843333Y-102623711D02*
X143510000Y-102623711D01*
X143510000Y-103147520D02*
X143510000Y-102147520D01*
X143986190Y-102147520D01*
X144510000Y-102147520D02*
X144510000Y-102385616D01*
X144271904Y-102290378D02*
X144510000Y-102385616D01*
X144748095Y-102290378D01*
X144367142Y-102576092D02*
X144510000Y-102385616D01*
X144652857Y-102576092D01*
X145271904Y-102147520D02*
X145271904Y-102385616D01*
X145033809Y-102290378D02*
X145271904Y-102385616D01*
X145510000Y-102290378D01*
X145129047Y-102576092D02*
X145271904Y-102385616D01*
X145414761Y-102576092D01*
%TO.C,C1*%
X74333333Y-79357142D02*
X74285714Y-79404761D01*
X74142857Y-79452380D01*
X74047619Y-79452380D01*
X73904761Y-79404761D01*
X73809523Y-79309523D01*
X73761904Y-79214285D01*
X73714285Y-79023809D01*
X73714285Y-78880952D01*
X73761904Y-78690476D01*
X73809523Y-78595238D01*
X73904761Y-78500000D01*
X74047619Y-78452380D01*
X74142857Y-78452380D01*
X74285714Y-78500000D01*
X74333333Y-78547619D01*
X75285714Y-79452380D02*
X74714285Y-79452380D01*
X75000000Y-79452380D02*
X75000000Y-78452380D01*
X74904761Y-78595238D01*
X74809523Y-78690476D01*
X74714285Y-78738095D01*
%TO.C,C2*%
X73287142Y-60166666D02*
X73334761Y-60214285D01*
X73382380Y-60357142D01*
X73382380Y-60452380D01*
X73334761Y-60595238D01*
X73239523Y-60690476D01*
X73144285Y-60738095D01*
X72953809Y-60785714D01*
X72810952Y-60785714D01*
X72620476Y-60738095D01*
X72525238Y-60690476D01*
X72430000Y-60595238D01*
X72382380Y-60452380D01*
X72382380Y-60357142D01*
X72430000Y-60214285D01*
X72477619Y-60166666D01*
X72477619Y-59785714D02*
X72430000Y-59738095D01*
X72382380Y-59642857D01*
X72382380Y-59404761D01*
X72430000Y-59309523D01*
X72477619Y-59261904D01*
X72572857Y-59214285D01*
X72668095Y-59214285D01*
X72810952Y-59261904D01*
X73382380Y-59833333D01*
X73382380Y-59214285D01*
%TO.C,C3*%
X68357142Y-59941666D02*
X68404761Y-59989285D01*
X68452380Y-60132142D01*
X68452380Y-60227380D01*
X68404761Y-60370238D01*
X68309523Y-60465476D01*
X68214285Y-60513095D01*
X68023809Y-60560714D01*
X67880952Y-60560714D01*
X67690476Y-60513095D01*
X67595238Y-60465476D01*
X67500000Y-60370238D01*
X67452380Y-60227380D01*
X67452380Y-60132142D01*
X67500000Y-59989285D01*
X67547619Y-59941666D01*
X67452380Y-59608333D02*
X67452380Y-58989285D01*
X67833333Y-59322619D01*
X67833333Y-59179761D01*
X67880952Y-59084523D01*
X67928571Y-59036904D01*
X68023809Y-58989285D01*
X68261904Y-58989285D01*
X68357142Y-59036904D01*
X68404761Y-59084523D01*
X68452380Y-59179761D01*
X68452380Y-59465476D01*
X68404761Y-59560714D01*
X68357142Y-59608333D01*
%TO.C,C4*%
X125852893Y-51710862D02*
X125805274Y-51758481D01*
X125662417Y-51806100D01*
X125567179Y-51806100D01*
X125424321Y-51758481D01*
X125329083Y-51663243D01*
X125281464Y-51568005D01*
X125233845Y-51377529D01*
X125233845Y-51234672D01*
X125281464Y-51044196D01*
X125329083Y-50948958D01*
X125424321Y-50853720D01*
X125567179Y-50806100D01*
X125662417Y-50806100D01*
X125805274Y-50853720D01*
X125852893Y-50901339D01*
X126710036Y-51139434D02*
X126710036Y-51806100D01*
X126471940Y-50758481D02*
X126233845Y-51472767D01*
X126852893Y-51472767D01*
%TO.C,C5*%
X122528033Y-39991302D02*
X122480414Y-40038921D01*
X122337557Y-40086540D01*
X122242319Y-40086540D01*
X122099461Y-40038921D01*
X122004223Y-39943683D01*
X121956604Y-39848445D01*
X121908985Y-39657969D01*
X121908985Y-39515112D01*
X121956604Y-39324636D01*
X122004223Y-39229398D01*
X122099461Y-39134160D01*
X122242319Y-39086540D01*
X122337557Y-39086540D01*
X122480414Y-39134160D01*
X122528033Y-39181779D01*
X123432795Y-39086540D02*
X122956604Y-39086540D01*
X122908985Y-39562731D01*
X122956604Y-39515112D01*
X123051842Y-39467493D01*
X123289938Y-39467493D01*
X123385176Y-39515112D01*
X123432795Y-39562731D01*
X123480414Y-39657969D01*
X123480414Y-39896064D01*
X123432795Y-39991302D01*
X123385176Y-40038921D01*
X123289938Y-40086540D01*
X123051842Y-40086540D01*
X122956604Y-40038921D01*
X122908985Y-39991302D01*
%TO.C,C6*%
X75357142Y-41166666D02*
X75404761Y-41214285D01*
X75452380Y-41357142D01*
X75452380Y-41452380D01*
X75404761Y-41595238D01*
X75309523Y-41690476D01*
X75214285Y-41738095D01*
X75023809Y-41785714D01*
X74880952Y-41785714D01*
X74690476Y-41738095D01*
X74595238Y-41690476D01*
X74500000Y-41595238D01*
X74452380Y-41452380D01*
X74452380Y-41357142D01*
X74500000Y-41214285D01*
X74547619Y-41166666D01*
X74452380Y-40309523D02*
X74452380Y-40500000D01*
X74500000Y-40595238D01*
X74547619Y-40642857D01*
X74690476Y-40738095D01*
X74880952Y-40785714D01*
X75261904Y-40785714D01*
X75357142Y-40738095D01*
X75404761Y-40690476D01*
X75452380Y-40595238D01*
X75452380Y-40404761D01*
X75404761Y-40309523D01*
X75357142Y-40261904D01*
X75261904Y-40214285D01*
X75023809Y-40214285D01*
X74928571Y-40261904D01*
X74880952Y-40309523D01*
X74833333Y-40404761D01*
X74833333Y-40595238D01*
X74880952Y-40690476D01*
X74928571Y-40738095D01*
X75023809Y-40785714D01*
%TO.C,C7*%
X65857142Y-42166666D02*
X65904761Y-42214285D01*
X65952380Y-42357142D01*
X65952380Y-42452380D01*
X65904761Y-42595238D01*
X65809523Y-42690476D01*
X65714285Y-42738095D01*
X65523809Y-42785714D01*
X65380952Y-42785714D01*
X65190476Y-42738095D01*
X65095238Y-42690476D01*
X65000000Y-42595238D01*
X64952380Y-42452380D01*
X64952380Y-42357142D01*
X65000000Y-42214285D01*
X65047619Y-42166666D01*
X64952380Y-41833333D02*
X64952380Y-41166666D01*
X65952380Y-41595238D01*
%TO.C,C8*%
X61857142Y-51666666D02*
X61904761Y-51714285D01*
X61952380Y-51857142D01*
X61952380Y-51952380D01*
X61904761Y-52095238D01*
X61809523Y-52190476D01*
X61714285Y-52238095D01*
X61523809Y-52285714D01*
X61380952Y-52285714D01*
X61190476Y-52238095D01*
X61095238Y-52190476D01*
X61000000Y-52095238D01*
X60952380Y-51952380D01*
X60952380Y-51857142D01*
X61000000Y-51714285D01*
X61047619Y-51666666D01*
X61380952Y-51095238D02*
X61333333Y-51190476D01*
X61285714Y-51238095D01*
X61190476Y-51285714D01*
X61142857Y-51285714D01*
X61047619Y-51238095D01*
X61000000Y-51190476D01*
X60952380Y-51095238D01*
X60952380Y-50904761D01*
X61000000Y-50809523D01*
X61047619Y-50761904D01*
X61142857Y-50714285D01*
X61190476Y-50714285D01*
X61285714Y-50761904D01*
X61333333Y-50809523D01*
X61380952Y-50904761D01*
X61380952Y-51095238D01*
X61428571Y-51190476D01*
X61476190Y-51238095D01*
X61571428Y-51285714D01*
X61761904Y-51285714D01*
X61857142Y-51238095D01*
X61904761Y-51190476D01*
X61952380Y-51095238D01*
X61952380Y-50904761D01*
X61904761Y-50809523D01*
X61857142Y-50761904D01*
X61761904Y-50714285D01*
X61571428Y-50714285D01*
X61476190Y-50761904D01*
X61428571Y-50809523D01*
X61380952Y-50904761D01*
%TO.C,C9*%
X63833333Y-53857142D02*
X63785714Y-53904761D01*
X63642857Y-53952380D01*
X63547619Y-53952380D01*
X63404761Y-53904761D01*
X63309523Y-53809523D01*
X63261904Y-53714285D01*
X63214285Y-53523809D01*
X63214285Y-53380952D01*
X63261904Y-53190476D01*
X63309523Y-53095238D01*
X63404761Y-53000000D01*
X63547619Y-52952380D01*
X63642857Y-52952380D01*
X63785714Y-53000000D01*
X63833333Y-53047619D01*
X64309523Y-53952380D02*
X64500000Y-53952380D01*
X64595238Y-53904761D01*
X64642857Y-53857142D01*
X64738095Y-53714285D01*
X64785714Y-53523809D01*
X64785714Y-53142857D01*
X64738095Y-53047619D01*
X64690476Y-53000000D01*
X64595238Y-52952380D01*
X64404761Y-52952380D01*
X64309523Y-53000000D01*
X64261904Y-53047619D01*
X64214285Y-53142857D01*
X64214285Y-53380952D01*
X64261904Y-53476190D01*
X64309523Y-53523809D01*
X64404761Y-53571428D01*
X64595238Y-53571428D01*
X64690476Y-53523809D01*
X64738095Y-53476190D01*
X64785714Y-53380952D01*
%TO.C,C10*%
X62582142Y-73927142D02*
X62534523Y-73974761D01*
X62391666Y-74022380D01*
X62296428Y-74022380D01*
X62153571Y-73974761D01*
X62058333Y-73879523D01*
X62010714Y-73784285D01*
X61963095Y-73593809D01*
X61963095Y-73450952D01*
X62010714Y-73260476D01*
X62058333Y-73165238D01*
X62153571Y-73070000D01*
X62296428Y-73022380D01*
X62391666Y-73022380D01*
X62534523Y-73070000D01*
X62582142Y-73117619D01*
X63534523Y-74022380D02*
X62963095Y-74022380D01*
X63248809Y-74022380D02*
X63248809Y-73022380D01*
X63153571Y-73165238D01*
X63058333Y-73260476D01*
X62963095Y-73308095D01*
X64153571Y-73022380D02*
X64248809Y-73022380D01*
X64344047Y-73070000D01*
X64391666Y-73117619D01*
X64439285Y-73212857D01*
X64486904Y-73403333D01*
X64486904Y-73641428D01*
X64439285Y-73831904D01*
X64391666Y-73927142D01*
X64344047Y-73974761D01*
X64248809Y-74022380D01*
X64153571Y-74022380D01*
X64058333Y-73974761D01*
X64010714Y-73927142D01*
X63963095Y-73831904D01*
X63915476Y-73641428D01*
X63915476Y-73403333D01*
X63963095Y-73212857D01*
X64010714Y-73117619D01*
X64058333Y-73070000D01*
X64153571Y-73022380D01*
%TO.C,C11*%
X61632142Y-88927142D02*
X61584523Y-88974761D01*
X61441666Y-89022380D01*
X61346428Y-89022380D01*
X61203571Y-88974761D01*
X61108333Y-88879523D01*
X61060714Y-88784285D01*
X61013095Y-88593809D01*
X61013095Y-88450952D01*
X61060714Y-88260476D01*
X61108333Y-88165238D01*
X61203571Y-88070000D01*
X61346428Y-88022380D01*
X61441666Y-88022380D01*
X61584523Y-88070000D01*
X61632142Y-88117619D01*
X62584523Y-89022380D02*
X62013095Y-89022380D01*
X62298809Y-89022380D02*
X62298809Y-88022380D01*
X62203571Y-88165238D01*
X62108333Y-88260476D01*
X62013095Y-88308095D01*
X63536904Y-89022380D02*
X62965476Y-89022380D01*
X63251190Y-89022380D02*
X63251190Y-88022380D01*
X63155952Y-88165238D01*
X63060714Y-88260476D01*
X62965476Y-88308095D01*
%TO.C,C12*%
X103812102Y-53559982D02*
X103764483Y-53607601D01*
X103621626Y-53655220D01*
X103526388Y-53655220D01*
X103383531Y-53607601D01*
X103288293Y-53512363D01*
X103240674Y-53417125D01*
X103193055Y-53226649D01*
X103193055Y-53083792D01*
X103240674Y-52893316D01*
X103288293Y-52798078D01*
X103383531Y-52702840D01*
X103526388Y-52655220D01*
X103621626Y-52655220D01*
X103764483Y-52702840D01*
X103812102Y-52750459D01*
X104764483Y-53655220D02*
X104193055Y-53655220D01*
X104478769Y-53655220D02*
X104478769Y-52655220D01*
X104383531Y-52798078D01*
X104288293Y-52893316D01*
X104193055Y-52940935D01*
X105145436Y-52750459D02*
X105193055Y-52702840D01*
X105288293Y-52655220D01*
X105526388Y-52655220D01*
X105621626Y-52702840D01*
X105669245Y-52750459D01*
X105716864Y-52845697D01*
X105716864Y-52940935D01*
X105669245Y-53083792D01*
X105097817Y-53655220D01*
X105716864Y-53655220D01*
%TO.C,C13*%
X110562662Y-40048417D02*
X110610281Y-40096036D01*
X110657900Y-40238893D01*
X110657900Y-40334131D01*
X110610281Y-40476988D01*
X110515043Y-40572226D01*
X110419805Y-40619845D01*
X110229329Y-40667464D01*
X110086472Y-40667464D01*
X109895996Y-40619845D01*
X109800758Y-40572226D01*
X109705520Y-40476988D01*
X109657900Y-40334131D01*
X109657900Y-40238893D01*
X109705520Y-40096036D01*
X109753139Y-40048417D01*
X110657900Y-39096036D02*
X110657900Y-39667464D01*
X110657900Y-39381750D02*
X109657900Y-39381750D01*
X109800758Y-39476988D01*
X109895996Y-39572226D01*
X109943615Y-39667464D01*
X109657900Y-38762702D02*
X109657900Y-38143655D01*
X110038853Y-38476988D01*
X110038853Y-38334131D01*
X110086472Y-38238893D01*
X110134091Y-38191274D01*
X110229329Y-38143655D01*
X110467424Y-38143655D01*
X110562662Y-38191274D01*
X110610281Y-38238893D01*
X110657900Y-38334131D01*
X110657900Y-38619845D01*
X110610281Y-38715083D01*
X110562662Y-38762702D01*
%TO.C,C14*%
X121365742Y-52485542D02*
X121318123Y-52533161D01*
X121175266Y-52580780D01*
X121080028Y-52580780D01*
X120937171Y-52533161D01*
X120841933Y-52437923D01*
X120794314Y-52342685D01*
X120746695Y-52152209D01*
X120746695Y-52009352D01*
X120794314Y-51818876D01*
X120841933Y-51723638D01*
X120937171Y-51628400D01*
X121080028Y-51580780D01*
X121175266Y-51580780D01*
X121318123Y-51628400D01*
X121365742Y-51676019D01*
X122318123Y-52580780D02*
X121746695Y-52580780D01*
X122032409Y-52580780D02*
X122032409Y-51580780D01*
X121937171Y-51723638D01*
X121841933Y-51818876D01*
X121746695Y-51866495D01*
X123175266Y-51914114D02*
X123175266Y-52580780D01*
X122937171Y-51533161D02*
X122699076Y-52247447D01*
X123318123Y-52247447D01*
%TO.C,C15*%
X122099342Y-61754657D02*
X122146961Y-61802276D01*
X122194580Y-61945133D01*
X122194580Y-62040371D01*
X122146961Y-62183228D01*
X122051723Y-62278466D01*
X121956485Y-62326085D01*
X121766009Y-62373704D01*
X121623152Y-62373704D01*
X121432676Y-62326085D01*
X121337438Y-62278466D01*
X121242200Y-62183228D01*
X121194580Y-62040371D01*
X121194580Y-61945133D01*
X121242200Y-61802276D01*
X121289819Y-61754657D01*
X122194580Y-60802276D02*
X122194580Y-61373704D01*
X122194580Y-61087990D02*
X121194580Y-61087990D01*
X121337438Y-61183228D01*
X121432676Y-61278466D01*
X121480295Y-61373704D01*
X121194580Y-59897514D02*
X121194580Y-60373704D01*
X121670771Y-60421323D01*
X121623152Y-60373704D01*
X121575533Y-60278466D01*
X121575533Y-60040371D01*
X121623152Y-59945133D01*
X121670771Y-59897514D01*
X121766009Y-59849895D01*
X122004104Y-59849895D01*
X122099342Y-59897514D01*
X122146961Y-59945133D01*
X122194580Y-60040371D01*
X122194580Y-60278466D01*
X122146961Y-60373704D01*
X122099342Y-60421323D01*
%TO.C,C16*%
X112732582Y-73834262D02*
X112684963Y-73881881D01*
X112542106Y-73929500D01*
X112446868Y-73929500D01*
X112304011Y-73881881D01*
X112208773Y-73786643D01*
X112161154Y-73691405D01*
X112113535Y-73500929D01*
X112113535Y-73358072D01*
X112161154Y-73167596D01*
X112208773Y-73072358D01*
X112304011Y-72977120D01*
X112446868Y-72929500D01*
X112542106Y-72929500D01*
X112684963Y-72977120D01*
X112732582Y-73024739D01*
X113684963Y-73929500D02*
X113113535Y-73929500D01*
X113399249Y-73929500D02*
X113399249Y-72929500D01*
X113304011Y-73072358D01*
X113208773Y-73167596D01*
X113113535Y-73215215D01*
X114542106Y-72929500D02*
X114351630Y-72929500D01*
X114256392Y-72977120D01*
X114208773Y-73024739D01*
X114113535Y-73167596D01*
X114065916Y-73358072D01*
X114065916Y-73739024D01*
X114113535Y-73834262D01*
X114161154Y-73881881D01*
X114256392Y-73929500D01*
X114446868Y-73929500D01*
X114542106Y-73881881D01*
X114589725Y-73834262D01*
X114637344Y-73739024D01*
X114637344Y-73500929D01*
X114589725Y-73405691D01*
X114542106Y-73358072D01*
X114446868Y-73310453D01*
X114256392Y-73310453D01*
X114161154Y-73358072D01*
X114113535Y-73405691D01*
X114065916Y-73500929D01*
%TO.C,C17*%
X112646222Y-68581542D02*
X112598603Y-68629161D01*
X112455746Y-68676780D01*
X112360508Y-68676780D01*
X112217651Y-68629161D01*
X112122413Y-68533923D01*
X112074794Y-68438685D01*
X112027175Y-68248209D01*
X112027175Y-68105352D01*
X112074794Y-67914876D01*
X112122413Y-67819638D01*
X112217651Y-67724400D01*
X112360508Y-67676780D01*
X112455746Y-67676780D01*
X112598603Y-67724400D01*
X112646222Y-67772019D01*
X113598603Y-68676780D02*
X113027175Y-68676780D01*
X113312889Y-68676780D02*
X113312889Y-67676780D01*
X113217651Y-67819638D01*
X113122413Y-67914876D01*
X113027175Y-67962495D01*
X113931937Y-67676780D02*
X114598603Y-67676780D01*
X114170032Y-68676780D01*
%TO.C,C18*%
X116516422Y-40144937D02*
X116564041Y-40192556D01*
X116611660Y-40335413D01*
X116611660Y-40430651D01*
X116564041Y-40573508D01*
X116468803Y-40668746D01*
X116373565Y-40716365D01*
X116183089Y-40763984D01*
X116040232Y-40763984D01*
X115849756Y-40716365D01*
X115754518Y-40668746D01*
X115659280Y-40573508D01*
X115611660Y-40430651D01*
X115611660Y-40335413D01*
X115659280Y-40192556D01*
X115706899Y-40144937D01*
X116611660Y-39192556D02*
X116611660Y-39763984D01*
X116611660Y-39478270D02*
X115611660Y-39478270D01*
X115754518Y-39573508D01*
X115849756Y-39668746D01*
X115897375Y-39763984D01*
X116040232Y-38621127D02*
X115992613Y-38716365D01*
X115944994Y-38763984D01*
X115849756Y-38811603D01*
X115802137Y-38811603D01*
X115706899Y-38763984D01*
X115659280Y-38716365D01*
X115611660Y-38621127D01*
X115611660Y-38430651D01*
X115659280Y-38335413D01*
X115706899Y-38287794D01*
X115802137Y-38240175D01*
X115849756Y-38240175D01*
X115944994Y-38287794D01*
X115992613Y-38335413D01*
X116040232Y-38430651D01*
X116040232Y-38621127D01*
X116087851Y-38716365D01*
X116135470Y-38763984D01*
X116230708Y-38811603D01*
X116421184Y-38811603D01*
X116516422Y-38763984D01*
X116564041Y-38716365D01*
X116611660Y-38621127D01*
X116611660Y-38430651D01*
X116564041Y-38335413D01*
X116516422Y-38287794D01*
X116421184Y-38240175D01*
X116230708Y-38240175D01*
X116135470Y-38287794D01*
X116087851Y-38335413D01*
X116040232Y-38430651D01*
%TO.C,D1*%
X85761904Y-59452380D02*
X85761904Y-58452380D01*
X86000000Y-58452380D01*
X86142857Y-58500000D01*
X86238095Y-58595238D01*
X86285714Y-58690476D01*
X86333333Y-58880952D01*
X86333333Y-59023809D01*
X86285714Y-59214285D01*
X86238095Y-59309523D01*
X86142857Y-59404761D01*
X86000000Y-59452380D01*
X85761904Y-59452380D01*
X87285714Y-59452380D02*
X86714285Y-59452380D01*
X87000000Y-59452380D02*
X87000000Y-58452380D01*
X86904761Y-58595238D01*
X86809523Y-58690476D01*
X86714285Y-58738095D01*
%TO.C,D2*%
X80261904Y-59452380D02*
X80261904Y-58452380D01*
X80500000Y-58452380D01*
X80642857Y-58500000D01*
X80738095Y-58595238D01*
X80785714Y-58690476D01*
X80833333Y-58880952D01*
X80833333Y-59023809D01*
X80785714Y-59214285D01*
X80738095Y-59309523D01*
X80642857Y-59404761D01*
X80500000Y-59452380D01*
X80261904Y-59452380D01*
X81214285Y-58547619D02*
X81261904Y-58500000D01*
X81357142Y-58452380D01*
X81595238Y-58452380D01*
X81690476Y-58500000D01*
X81738095Y-58547619D01*
X81785714Y-58642857D01*
X81785714Y-58738095D01*
X81738095Y-58880952D01*
X81166666Y-59452380D01*
X81785714Y-59452380D01*
%TO.C,D3*%
X82261904Y-59452380D02*
X82261904Y-58452380D01*
X82500000Y-58452380D01*
X82642857Y-58500000D01*
X82738095Y-58595238D01*
X82785714Y-58690476D01*
X82833333Y-58880952D01*
X82833333Y-59023809D01*
X82785714Y-59214285D01*
X82738095Y-59309523D01*
X82642857Y-59404761D01*
X82500000Y-59452380D01*
X82261904Y-59452380D01*
X83166666Y-58452380D02*
X83785714Y-58452380D01*
X83452380Y-58833333D01*
X83595238Y-58833333D01*
X83690476Y-58880952D01*
X83738095Y-58928571D01*
X83785714Y-59023809D01*
X83785714Y-59261904D01*
X83738095Y-59357142D01*
X83690476Y-59404761D01*
X83595238Y-59452380D01*
X83309523Y-59452380D01*
X83214285Y-59404761D01*
X83166666Y-59357142D01*
%TO.C,IC1*%
D15*
X120347123Y-46317561D02*
X119077123Y-46317561D01*
X120226171Y-44987085D02*
X120286647Y-45047561D01*
X120347123Y-45228990D01*
X120347123Y-45349942D01*
X120286647Y-45531371D01*
X120165695Y-45652323D01*
X120044742Y-45712800D01*
X119802838Y-45773276D01*
X119621409Y-45773276D01*
X119379504Y-45712800D01*
X119258552Y-45652323D01*
X119137600Y-45531371D01*
X119077123Y-45349942D01*
X119077123Y-45228990D01*
X119137600Y-45047561D01*
X119198076Y-44987085D01*
X120347123Y-43777561D02*
X120347123Y-44503276D01*
X120347123Y-44140419D02*
X119077123Y-44140419D01*
X119258552Y-44261371D01*
X119379504Y-44382323D01*
X119439980Y-44503276D01*
%TO.C,J1*%
D14*
X54188780Y-43380533D02*
X54903066Y-43380533D01*
X55045923Y-43428152D01*
X55141161Y-43523390D01*
X55188780Y-43666247D01*
X55188780Y-43761485D01*
X55188780Y-42380533D02*
X55188780Y-42951961D01*
X55188780Y-42666247D02*
X54188780Y-42666247D01*
X54331638Y-42761485D01*
X54426876Y-42856723D01*
X54474495Y-42951961D01*
%TO.C,J2*%
X54290380Y-58620533D02*
X55004666Y-58620533D01*
X55147523Y-58668152D01*
X55242761Y-58763390D01*
X55290380Y-58906247D01*
X55290380Y-59001485D01*
X54385619Y-58191961D02*
X54338000Y-58144342D01*
X54290380Y-58049104D01*
X54290380Y-57811009D01*
X54338000Y-57715771D01*
X54385619Y-57668152D01*
X54480857Y-57620533D01*
X54576095Y-57620533D01*
X54718952Y-57668152D01*
X55290380Y-58239580D01*
X55290380Y-57620533D01*
%TO.C,J3*%
X54290380Y-73149333D02*
X55004666Y-73149333D01*
X55147523Y-73196952D01*
X55242761Y-73292190D01*
X55290380Y-73435047D01*
X55290380Y-73530285D01*
X54290380Y-72768380D02*
X54290380Y-72149333D01*
X54671333Y-72482666D01*
X54671333Y-72339809D01*
X54718952Y-72244571D01*
X54766571Y-72196952D01*
X54861809Y-72149333D01*
X55099904Y-72149333D01*
X55195142Y-72196952D01*
X55242761Y-72244571D01*
X55290380Y-72339809D01*
X55290380Y-72625523D01*
X55242761Y-72720761D01*
X55195142Y-72768380D01*
%TO.C,J4*%
X54137980Y-87728933D02*
X54852266Y-87728933D01*
X54995123Y-87776552D01*
X55090361Y-87871790D01*
X55137980Y-88014647D01*
X55137980Y-88109885D01*
X54471314Y-86824171D02*
X55137980Y-86824171D01*
X54090361Y-87062266D02*
X54804647Y-87300361D01*
X54804647Y-86681314D01*
%TO.C,J5*%
X109078780Y-52002013D02*
X109793066Y-52002013D01*
X109935923Y-52049632D01*
X110031161Y-52144870D01*
X110078780Y-52287727D01*
X110078780Y-52382965D01*
X109078780Y-51049632D02*
X109078780Y-51525822D01*
X109554971Y-51573441D01*
X109507352Y-51525822D01*
X109459733Y-51430584D01*
X109459733Y-51192489D01*
X109507352Y-51097251D01*
X109554971Y-51049632D01*
X109650209Y-51002013D01*
X109888304Y-51002013D01*
X109983542Y-51049632D01*
X110031161Y-51097251D01*
X110078780Y-51192489D01*
X110078780Y-51430584D01*
X110031161Y-51525822D01*
X109983542Y-51573441D01*
%TO.C,JP1*%
X115980780Y-45080133D02*
X116695066Y-45080133D01*
X116837923Y-45127752D01*
X116933161Y-45222990D01*
X116980780Y-45365847D01*
X116980780Y-45461085D01*
X116980780Y-44603942D02*
X115980780Y-44603942D01*
X115980780Y-44222990D01*
X116028400Y-44127752D01*
X116076019Y-44080133D01*
X116171257Y-44032514D01*
X116314114Y-44032514D01*
X116409352Y-44080133D01*
X116456971Y-44127752D01*
X116504590Y-44222990D01*
X116504590Y-44603942D01*
X116980780Y-43080133D02*
X116980780Y-43651561D01*
X116980780Y-43365847D02*
X115980780Y-43365847D01*
X116123638Y-43461085D01*
X116218876Y-43556323D01*
X116266495Y-43651561D01*
%TO.C,Q1*%
X89767421Y-82154219D02*
X89672183Y-82106600D01*
X89576945Y-82011361D01*
X89434088Y-81868504D01*
X89338850Y-81820885D01*
X89243612Y-81820885D01*
X89291231Y-82058980D02*
X89195993Y-82011361D01*
X89100755Y-81916123D01*
X89053136Y-81725647D01*
X89053136Y-81392314D01*
X89100755Y-81201838D01*
X89195993Y-81106600D01*
X89291231Y-81058980D01*
X89481707Y-81058980D01*
X89576945Y-81106600D01*
X89672183Y-81201838D01*
X89719802Y-81392314D01*
X89719802Y-81725647D01*
X89672183Y-81916123D01*
X89576945Y-82011361D01*
X89481707Y-82058980D01*
X89291231Y-82058980D01*
X90672183Y-82058980D02*
X90100755Y-82058980D01*
X90386469Y-82058980D02*
X90386469Y-81058980D01*
X90291231Y-81201838D01*
X90195993Y-81297076D01*
X90100755Y-81344695D01*
%TO.C,Q2*%
X82574761Y-84047619D02*
X82479523Y-84000000D01*
X82384285Y-83904761D01*
X82241428Y-83761904D01*
X82146190Y-83714285D01*
X82050952Y-83714285D01*
X82098571Y-83952380D02*
X82003333Y-83904761D01*
X81908095Y-83809523D01*
X81860476Y-83619047D01*
X81860476Y-83285714D01*
X81908095Y-83095238D01*
X82003333Y-83000000D01*
X82098571Y-82952380D01*
X82289047Y-82952380D01*
X82384285Y-83000000D01*
X82479523Y-83095238D01*
X82527142Y-83285714D01*
X82527142Y-83619047D01*
X82479523Y-83809523D01*
X82384285Y-83904761D01*
X82289047Y-83952380D01*
X82098571Y-83952380D01*
X82908095Y-83047619D02*
X82955714Y-83000000D01*
X83050952Y-82952380D01*
X83289047Y-82952380D01*
X83384285Y-83000000D01*
X83431904Y-83047619D01*
X83479523Y-83142857D01*
X83479523Y-83238095D01*
X83431904Y-83380952D01*
X82860476Y-83952380D01*
X83479523Y-83952380D01*
%TO.C,R1*%
X93833333Y-51657380D02*
X93500000Y-51181190D01*
X93261904Y-51657380D02*
X93261904Y-50657380D01*
X93642857Y-50657380D01*
X93738095Y-50705000D01*
X93785714Y-50752619D01*
X93833333Y-50847857D01*
X93833333Y-50990714D01*
X93785714Y-51085952D01*
X93738095Y-51133571D01*
X93642857Y-51181190D01*
X93261904Y-51181190D01*
X94785714Y-51657380D02*
X94214285Y-51657380D01*
X94500000Y-51657380D02*
X94500000Y-50657380D01*
X94404761Y-50800238D01*
X94309523Y-50895476D01*
X94214285Y-50943095D01*
%TO.C,R2*%
X93833333Y-48482380D02*
X93500000Y-48006190D01*
X93261904Y-48482380D02*
X93261904Y-47482380D01*
X93642857Y-47482380D01*
X93738095Y-47530000D01*
X93785714Y-47577619D01*
X93833333Y-47672857D01*
X93833333Y-47815714D01*
X93785714Y-47910952D01*
X93738095Y-47958571D01*
X93642857Y-48006190D01*
X93261904Y-48006190D01*
X94214285Y-47577619D02*
X94261904Y-47530000D01*
X94357142Y-47482380D01*
X94595238Y-47482380D01*
X94690476Y-47530000D01*
X94738095Y-47577619D01*
X94785714Y-47672857D01*
X94785714Y-47768095D01*
X94738095Y-47910952D01*
X94166666Y-48482380D01*
X94785714Y-48482380D01*
%TO.C,R3*%
X93543333Y-54832380D02*
X93210000Y-54356190D01*
X92971904Y-54832380D02*
X92971904Y-53832380D01*
X93352857Y-53832380D01*
X93448095Y-53880000D01*
X93495714Y-53927619D01*
X93543333Y-54022857D01*
X93543333Y-54165714D01*
X93495714Y-54260952D01*
X93448095Y-54308571D01*
X93352857Y-54356190D01*
X92971904Y-54356190D01*
X93876666Y-53832380D02*
X94495714Y-53832380D01*
X94162380Y-54213333D01*
X94305238Y-54213333D01*
X94400476Y-54260952D01*
X94448095Y-54308571D01*
X94495714Y-54403809D01*
X94495714Y-54641904D01*
X94448095Y-54737142D01*
X94400476Y-54784761D01*
X94305238Y-54832380D01*
X94019523Y-54832380D01*
X93924285Y-54784761D01*
X93876666Y-54737142D01*
%TO.C,R4*%
X72833333Y-77452380D02*
X72500000Y-76976190D01*
X72261904Y-77452380D02*
X72261904Y-76452380D01*
X72642857Y-76452380D01*
X72738095Y-76500000D01*
X72785714Y-76547619D01*
X72833333Y-76642857D01*
X72833333Y-76785714D01*
X72785714Y-76880952D01*
X72738095Y-76928571D01*
X72642857Y-76976190D01*
X72261904Y-76976190D01*
X73690476Y-76785714D02*
X73690476Y-77452380D01*
X73452380Y-76404761D02*
X73214285Y-77119047D01*
X73833333Y-77119047D01*
%TO.C,R5*%
X98382380Y-75991666D02*
X97906190Y-76325000D01*
X98382380Y-76563095D02*
X97382380Y-76563095D01*
X97382380Y-76182142D01*
X97430000Y-76086904D01*
X97477619Y-76039285D01*
X97572857Y-75991666D01*
X97715714Y-75991666D01*
X97810952Y-76039285D01*
X97858571Y-76086904D01*
X97906190Y-76182142D01*
X97906190Y-76563095D01*
X97382380Y-75086904D02*
X97382380Y-75563095D01*
X97858571Y-75610714D01*
X97810952Y-75563095D01*
X97763333Y-75467857D01*
X97763333Y-75229761D01*
X97810952Y-75134523D01*
X97858571Y-75086904D01*
X97953809Y-75039285D01*
X98191904Y-75039285D01*
X98287142Y-75086904D01*
X98334761Y-75134523D01*
X98382380Y-75229761D01*
X98382380Y-75467857D01*
X98334761Y-75563095D01*
X98287142Y-75610714D01*
%TO.C,R6*%
X101382380Y-75841666D02*
X100906190Y-76175000D01*
X101382380Y-76413095D02*
X100382380Y-76413095D01*
X100382380Y-76032142D01*
X100430000Y-75936904D01*
X100477619Y-75889285D01*
X100572857Y-75841666D01*
X100715714Y-75841666D01*
X100810952Y-75889285D01*
X100858571Y-75936904D01*
X100906190Y-76032142D01*
X100906190Y-76413095D01*
X100382380Y-74984523D02*
X100382380Y-75175000D01*
X100430000Y-75270238D01*
X100477619Y-75317857D01*
X100620476Y-75413095D01*
X100810952Y-75460714D01*
X101191904Y-75460714D01*
X101287142Y-75413095D01*
X101334761Y-75365476D01*
X101382380Y-75270238D01*
X101382380Y-75079761D01*
X101334761Y-74984523D01*
X101287142Y-74936904D01*
X101191904Y-74889285D01*
X100953809Y-74889285D01*
X100858571Y-74936904D01*
X100810952Y-74984523D01*
X100763333Y-75079761D01*
X100763333Y-75270238D01*
X100810952Y-75365476D01*
X100858571Y-75413095D01*
X100953809Y-75460714D01*
%TO.C,R7*%
X80833333Y-50952380D02*
X80500000Y-50476190D01*
X80261904Y-50952380D02*
X80261904Y-49952380D01*
X80642857Y-49952380D01*
X80738095Y-50000000D01*
X80785714Y-50047619D01*
X80833333Y-50142857D01*
X80833333Y-50285714D01*
X80785714Y-50380952D01*
X80738095Y-50428571D01*
X80642857Y-50476190D01*
X80261904Y-50476190D01*
X81166666Y-49952380D02*
X81833333Y-49952380D01*
X81404761Y-50952380D01*
%TO.C,R8*%
X68952380Y-81666666D02*
X68476190Y-82000000D01*
X68952380Y-82238095D02*
X67952380Y-82238095D01*
X67952380Y-81857142D01*
X68000000Y-81761904D01*
X68047619Y-81714285D01*
X68142857Y-81666666D01*
X68285714Y-81666666D01*
X68380952Y-81714285D01*
X68428571Y-81761904D01*
X68476190Y-81857142D01*
X68476190Y-82238095D01*
X68380952Y-81095238D02*
X68333333Y-81190476D01*
X68285714Y-81238095D01*
X68190476Y-81285714D01*
X68142857Y-81285714D01*
X68047619Y-81238095D01*
X68000000Y-81190476D01*
X67952380Y-81095238D01*
X67952380Y-80904761D01*
X68000000Y-80809523D01*
X68047619Y-80761904D01*
X68142857Y-80714285D01*
X68190476Y-80714285D01*
X68285714Y-80761904D01*
X68333333Y-80809523D01*
X68380952Y-80904761D01*
X68380952Y-81095238D01*
X68428571Y-81190476D01*
X68476190Y-81238095D01*
X68571428Y-81285714D01*
X68761904Y-81285714D01*
X68857142Y-81238095D01*
X68904761Y-81190476D01*
X68952380Y-81095238D01*
X68952380Y-80904761D01*
X68904761Y-80809523D01*
X68857142Y-80761904D01*
X68761904Y-80714285D01*
X68571428Y-80714285D01*
X68476190Y-80761904D01*
X68428571Y-80809523D01*
X68380952Y-80904761D01*
%TO.C,R9*%
X80833333Y-48952380D02*
X80500000Y-48476190D01*
X80261904Y-48952380D02*
X80261904Y-47952380D01*
X80642857Y-47952380D01*
X80738095Y-48000000D01*
X80785714Y-48047619D01*
X80833333Y-48142857D01*
X80833333Y-48285714D01*
X80785714Y-48380952D01*
X80738095Y-48428571D01*
X80642857Y-48476190D01*
X80261904Y-48476190D01*
X81309523Y-48952380D02*
X81500000Y-48952380D01*
X81595238Y-48904761D01*
X81642857Y-48857142D01*
X81738095Y-48714285D01*
X81785714Y-48523809D01*
X81785714Y-48142857D01*
X81738095Y-48047619D01*
X81690476Y-48000000D01*
X81595238Y-47952380D01*
X81404761Y-47952380D01*
X81309523Y-48000000D01*
X81261904Y-48047619D01*
X81214285Y-48142857D01*
X81214285Y-48380952D01*
X81261904Y-48476190D01*
X81309523Y-48523809D01*
X81404761Y-48571428D01*
X81595238Y-48571428D01*
X81690476Y-48523809D01*
X81738095Y-48476190D01*
X81785714Y-48380952D01*
%TO.C,R10*%
X69617922Y-44427640D02*
X69284589Y-43951450D01*
X69046494Y-44427640D02*
X69046494Y-43427640D01*
X69427446Y-43427640D01*
X69522684Y-43475260D01*
X69570303Y-43522879D01*
X69617922Y-43618117D01*
X69617922Y-43760974D01*
X69570303Y-43856212D01*
X69522684Y-43903831D01*
X69427446Y-43951450D01*
X69046494Y-43951450D01*
X70570303Y-44427640D02*
X69998875Y-44427640D01*
X70284589Y-44427640D02*
X70284589Y-43427640D01*
X70189351Y-43570498D01*
X70094113Y-43665736D01*
X69998875Y-43713355D01*
X71189351Y-43427640D02*
X71284589Y-43427640D01*
X71379827Y-43475260D01*
X71427446Y-43522879D01*
X71475065Y-43618117D01*
X71522684Y-43808593D01*
X71522684Y-44046688D01*
X71475065Y-44237164D01*
X71427446Y-44332402D01*
X71379827Y-44380021D01*
X71284589Y-44427640D01*
X71189351Y-44427640D01*
X71094113Y-44380021D01*
X71046494Y-44332402D01*
X70998875Y-44237164D01*
X70951256Y-44046688D01*
X70951256Y-43808593D01*
X70998875Y-43618117D01*
X71046494Y-43522879D01*
X71094113Y-43475260D01*
X71189351Y-43427640D01*
%TO.C,R11*%
X107815142Y-48349180D02*
X107481809Y-47872990D01*
X107243714Y-48349180D02*
X107243714Y-47349180D01*
X107624666Y-47349180D01*
X107719904Y-47396800D01*
X107767523Y-47444419D01*
X107815142Y-47539657D01*
X107815142Y-47682514D01*
X107767523Y-47777752D01*
X107719904Y-47825371D01*
X107624666Y-47872990D01*
X107243714Y-47872990D01*
X108767523Y-48349180D02*
X108196095Y-48349180D01*
X108481809Y-48349180D02*
X108481809Y-47349180D01*
X108386571Y-47492038D01*
X108291333Y-47587276D01*
X108196095Y-47634895D01*
X109719904Y-48349180D02*
X109148476Y-48349180D01*
X109434190Y-48349180D02*
X109434190Y-47349180D01*
X109338952Y-47492038D01*
X109243714Y-47587276D01*
X109148476Y-47634895D01*
%TO.C,R12*%
X58532142Y-44522380D02*
X58198809Y-44046190D01*
X57960714Y-44522380D02*
X57960714Y-43522380D01*
X58341666Y-43522380D01*
X58436904Y-43570000D01*
X58484523Y-43617619D01*
X58532142Y-43712857D01*
X58532142Y-43855714D01*
X58484523Y-43950952D01*
X58436904Y-43998571D01*
X58341666Y-44046190D01*
X57960714Y-44046190D01*
X59484523Y-44522380D02*
X58913095Y-44522380D01*
X59198809Y-44522380D02*
X59198809Y-43522380D01*
X59103571Y-43665238D01*
X59008333Y-43760476D01*
X58913095Y-43808095D01*
X59865476Y-43617619D02*
X59913095Y-43570000D01*
X60008333Y-43522380D01*
X60246428Y-43522380D01*
X60341666Y-43570000D01*
X60389285Y-43617619D01*
X60436904Y-43712857D01*
X60436904Y-43808095D01*
X60389285Y-43950952D01*
X59817857Y-44522380D01*
X60436904Y-44522380D01*
%TO.C,R13*%
X58032142Y-60022380D02*
X57698809Y-59546190D01*
X57460714Y-60022380D02*
X57460714Y-59022380D01*
X57841666Y-59022380D01*
X57936904Y-59070000D01*
X57984523Y-59117619D01*
X58032142Y-59212857D01*
X58032142Y-59355714D01*
X57984523Y-59450952D01*
X57936904Y-59498571D01*
X57841666Y-59546190D01*
X57460714Y-59546190D01*
X58984523Y-60022380D02*
X58413095Y-60022380D01*
X58698809Y-60022380D02*
X58698809Y-59022380D01*
X58603571Y-59165238D01*
X58508333Y-59260476D01*
X58413095Y-59308095D01*
X59317857Y-59022380D02*
X59936904Y-59022380D01*
X59603571Y-59403333D01*
X59746428Y-59403333D01*
X59841666Y-59450952D01*
X59889285Y-59498571D01*
X59936904Y-59593809D01*
X59936904Y-59831904D01*
X59889285Y-59927142D01*
X59841666Y-59974761D01*
X59746428Y-60022380D01*
X59460714Y-60022380D01*
X59365476Y-59974761D01*
X59317857Y-59927142D01*
%TO.C,R14*%
X58032142Y-74022380D02*
X57698809Y-73546190D01*
X57460714Y-74022380D02*
X57460714Y-73022380D01*
X57841666Y-73022380D01*
X57936904Y-73070000D01*
X57984523Y-73117619D01*
X58032142Y-73212857D01*
X58032142Y-73355714D01*
X57984523Y-73450952D01*
X57936904Y-73498571D01*
X57841666Y-73546190D01*
X57460714Y-73546190D01*
X58984523Y-74022380D02*
X58413095Y-74022380D01*
X58698809Y-74022380D02*
X58698809Y-73022380D01*
X58603571Y-73165238D01*
X58508333Y-73260476D01*
X58413095Y-73308095D01*
X59841666Y-73355714D02*
X59841666Y-74022380D01*
X59603571Y-72974761D02*
X59365476Y-73689047D01*
X59984523Y-73689047D01*
%TO.C,R15*%
X57532142Y-89022380D02*
X57198809Y-88546190D01*
X56960714Y-89022380D02*
X56960714Y-88022380D01*
X57341666Y-88022380D01*
X57436904Y-88070000D01*
X57484523Y-88117619D01*
X57532142Y-88212857D01*
X57532142Y-88355714D01*
X57484523Y-88450952D01*
X57436904Y-88498571D01*
X57341666Y-88546190D01*
X56960714Y-88546190D01*
X58484523Y-89022380D02*
X57913095Y-89022380D01*
X58198809Y-89022380D02*
X58198809Y-88022380D01*
X58103571Y-88165238D01*
X58008333Y-88260476D01*
X57913095Y-88308095D01*
X59389285Y-88022380D02*
X58913095Y-88022380D01*
X58865476Y-88498571D01*
X58913095Y-88450952D01*
X59008333Y-88403333D01*
X59246428Y-88403333D01*
X59341666Y-88450952D01*
X59389285Y-88498571D01*
X59436904Y-88593809D01*
X59436904Y-88831904D01*
X59389285Y-88927142D01*
X59341666Y-88974761D01*
X59246428Y-89022380D01*
X59008333Y-89022380D01*
X58913095Y-88974761D01*
X58865476Y-88927142D01*
%TO.C,R16*%
X127731780Y-64448657D02*
X127255590Y-64781990D01*
X127731780Y-65020085D02*
X126731780Y-65020085D01*
X126731780Y-64639133D01*
X126779400Y-64543895D01*
X126827019Y-64496276D01*
X126922257Y-64448657D01*
X127065114Y-64448657D01*
X127160352Y-64496276D01*
X127207971Y-64543895D01*
X127255590Y-64639133D01*
X127255590Y-65020085D01*
X127731780Y-63496276D02*
X127731780Y-64067704D01*
X127731780Y-63781990D02*
X126731780Y-63781990D01*
X126874638Y-63877228D01*
X126969876Y-63972466D01*
X127017495Y-64067704D01*
X126731780Y-62639133D02*
X126731780Y-62829609D01*
X126779400Y-62924847D01*
X126827019Y-62972466D01*
X126969876Y-63067704D01*
X127160352Y-63115323D01*
X127541304Y-63115323D01*
X127636542Y-63067704D01*
X127684161Y-63020085D01*
X127731780Y-62924847D01*
X127731780Y-62734371D01*
X127684161Y-62639133D01*
X127636542Y-62591514D01*
X127541304Y-62543895D01*
X127303209Y-62543895D01*
X127207971Y-62591514D01*
X127160352Y-62639133D01*
X127112733Y-62734371D01*
X127112733Y-62924847D01*
X127160352Y-63020085D01*
X127207971Y-63067704D01*
X127303209Y-63115323D01*
%TO.C,U1*%
X67452380Y-47761904D02*
X68261904Y-47761904D01*
X68357142Y-47714285D01*
X68404761Y-47666666D01*
X68452380Y-47571428D01*
X68452380Y-47380952D01*
X68404761Y-47285714D01*
X68357142Y-47238095D01*
X68261904Y-47190476D01*
X67452380Y-47190476D01*
X68452380Y-46190476D02*
X68452380Y-46761904D01*
X68452380Y-46476190D02*
X67452380Y-46476190D01*
X67595238Y-46571428D01*
X67690476Y-46666666D01*
X67738095Y-46761904D01*
X67952380Y-53984500D02*
X68190476Y-53984500D01*
X68095238Y-54222595D02*
X68190476Y-53984500D01*
X68095238Y-53746404D01*
X68380952Y-54127357D02*
X68190476Y-53984500D01*
X68380952Y-53841642D01*
X67952380Y-53984500D02*
X68190476Y-53984500D01*
X68095238Y-54222595D02*
X68190476Y-53984500D01*
X68095238Y-53746404D01*
X68380952Y-54127357D02*
X68190476Y-53984500D01*
X68380952Y-53841642D01*
%TO.C,U2*%
X106712381Y-60861852D02*
X107521905Y-60861852D01*
X107617143Y-60814233D01*
X107664762Y-60766614D01*
X107712381Y-60671376D01*
X107712381Y-60480900D01*
X107664762Y-60385662D01*
X107617143Y-60338043D01*
X107521905Y-60290424D01*
X106712381Y-60290424D01*
X106807620Y-59861852D02*
X106760001Y-59814233D01*
X106712381Y-59718995D01*
X106712381Y-59480900D01*
X106760001Y-59385662D01*
X106807620Y-59338043D01*
X106902858Y-59290424D01*
X106998096Y-59290424D01*
X107140953Y-59338043D01*
X107712381Y-59909471D01*
X107712381Y-59290424D01*
X101336881Y-68316333D02*
X100336881Y-68316333D01*
X101051167Y-67983000D01*
X100336881Y-67649666D01*
X101336881Y-67649666D01*
X101289262Y-67221095D02*
X101336881Y-67078238D01*
X101336881Y-66840142D01*
X101289262Y-66744904D01*
X101241643Y-66697285D01*
X101146405Y-66649666D01*
X101051167Y-66649666D01*
X100955929Y-66697285D01*
X100908310Y-66744904D01*
X100860691Y-66840142D01*
X100813072Y-67030619D01*
X100765453Y-67125857D01*
X100717834Y-67173476D01*
X100622596Y-67221095D01*
X100527358Y-67221095D01*
X100432120Y-67173476D01*
X100384501Y-67125857D01*
X100336881Y-67030619D01*
X100336881Y-66792523D01*
X100384501Y-66649666D01*
X101336881Y-66221095D02*
X100336881Y-66221095D01*
X100336881Y-65840142D01*
X100384501Y-65744904D01*
X100432120Y-65697285D01*
X100527358Y-65649666D01*
X100670215Y-65649666D01*
X100765453Y-65697285D01*
X100813072Y-65744904D01*
X100860691Y-65840142D01*
X100860691Y-66221095D01*
X100670215Y-64792523D02*
X101336881Y-64792523D01*
X100289262Y-65030619D02*
X101003548Y-65268714D01*
X101003548Y-64649666D01*
X100336881Y-64363952D02*
X100336881Y-63744904D01*
X100717834Y-64078238D01*
X100717834Y-63935380D01*
X100765453Y-63840142D01*
X100813072Y-63792523D01*
X100908310Y-63744904D01*
X101146405Y-63744904D01*
X101241643Y-63792523D01*
X101289262Y-63840142D01*
X101336881Y-63935380D01*
X101336881Y-64221095D01*
X101289262Y-64316333D01*
X101241643Y-64363952D01*
X100336881Y-63125857D02*
X100336881Y-63030619D01*
X100384501Y-62935380D01*
X100432120Y-62887761D01*
X100527358Y-62840142D01*
X100717834Y-62792523D01*
X100955929Y-62792523D01*
X101146405Y-62840142D01*
X101241643Y-62887761D01*
X101289262Y-62935380D01*
X101336881Y-63030619D01*
X101336881Y-63125857D01*
X101289262Y-63221095D01*
X101241643Y-63268714D01*
X101146405Y-63316333D01*
X100955929Y-63363952D01*
X100717834Y-63363952D01*
X100527358Y-63316333D01*
X100432120Y-63268714D01*
X100384501Y-63221095D01*
X100336881Y-63125857D01*
X100813072Y-62030619D02*
X100813072Y-62363952D01*
X101336881Y-62363952D02*
X100336881Y-62363952D01*
X100336881Y-61887761D01*
X101336881Y-60935380D02*
X100860691Y-61268714D01*
X101336881Y-61506809D02*
X100336881Y-61506809D01*
X100336881Y-61125857D01*
X100384501Y-61030619D01*
X100432120Y-60983000D01*
X100527358Y-60935380D01*
X100670215Y-60935380D01*
X100765453Y-60983000D01*
X100813072Y-61030619D01*
X100860691Y-61125857D01*
X100860691Y-61506809D01*
X100432120Y-60554428D02*
X100384501Y-60506809D01*
X100336881Y-60411571D01*
X100336881Y-60173476D01*
X100384501Y-60078238D01*
X100432120Y-60030619D01*
X100527358Y-59983000D01*
X100622596Y-59983000D01*
X100765453Y-60030619D01*
X101336881Y-60602047D01*
X101336881Y-59983000D01*
X100336881Y-59649666D02*
X100336881Y-59030619D01*
X100717834Y-59363952D01*
X100717834Y-59221095D01*
X100765453Y-59125857D01*
X100813072Y-59078238D01*
X100908310Y-59030619D01*
X101146405Y-59030619D01*
X101241643Y-59078238D01*
X101289262Y-59125857D01*
X101336881Y-59221095D01*
X101336881Y-59506809D01*
X101289262Y-59602047D01*
X101241643Y-59649666D01*
X100336881Y-58125857D02*
X100336881Y-58602047D01*
X100813072Y-58649666D01*
X100765453Y-58602047D01*
X100717834Y-58506809D01*
X100717834Y-58268714D01*
X100765453Y-58173476D01*
X100813072Y-58125857D01*
X100908310Y-58078238D01*
X101146405Y-58078238D01*
X101241643Y-58125857D01*
X101289262Y-58173476D01*
X101336881Y-58268714D01*
X101336881Y-58506809D01*
X101289262Y-58602047D01*
X101241643Y-58649666D01*
X100336881Y-57744904D02*
X100336881Y-57125857D01*
X100717834Y-57459190D01*
X100717834Y-57316333D01*
X100765453Y-57221095D01*
X100813072Y-57173476D01*
X100908310Y-57125857D01*
X101146405Y-57125857D01*
X101241643Y-57173476D01*
X101289262Y-57221095D01*
X101336881Y-57316333D01*
X101336881Y-57602047D01*
X101289262Y-57697285D01*
X101241643Y-57744904D01*
X100336881Y-56840142D02*
X100336881Y-56268714D01*
X101336881Y-56554428D02*
X100336881Y-56554428D01*
X101336881Y-55935380D02*
X100336881Y-55935380D01*
X100336881Y-55697285D01*
X100384501Y-55554428D01*
X100479739Y-55459190D01*
X100574977Y-55411571D01*
X100765453Y-55363952D01*
X100908310Y-55363952D01*
X101098786Y-55411571D01*
X101194024Y-55459190D01*
X101289262Y-55554428D01*
X101336881Y-55697285D01*
X101336881Y-55935380D01*
X100813072Y-54602047D02*
X100860691Y-54459190D01*
X100908310Y-54411571D01*
X101003548Y-54363952D01*
X101146405Y-54363952D01*
X101241643Y-54411571D01*
X101289262Y-54459190D01*
X101336881Y-54554428D01*
X101336881Y-54935380D01*
X100336881Y-54935380D01*
X100336881Y-54602047D01*
X100384501Y-54506809D01*
X100432120Y-54459190D01*
X100527358Y-54411571D01*
X100622596Y-54411571D01*
X100717834Y-54459190D01*
X100765453Y-54506809D01*
X100813072Y-54602047D01*
X100813072Y-54935380D01*
X100336881Y-54078238D02*
X100336881Y-53506809D01*
X101336881Y-53792523D02*
X100336881Y-53792523D01*
X112634781Y-56895998D02*
X112872877Y-56895998D01*
X112777639Y-57134093D02*
X112872877Y-56895998D01*
X112777639Y-56657902D01*
X113063353Y-57038855D02*
X112872877Y-56895998D01*
X113063353Y-56753140D01*
X112634781Y-56895998D02*
X112872877Y-56895998D01*
X112777639Y-57134093D02*
X112872877Y-56895998D01*
X112777639Y-56657902D01*
X113063353Y-57038855D02*
X112872877Y-56895998D01*
X113063353Y-56753140D01*
%TO.C,U3*%
X119248095Y-68872380D02*
X119248095Y-69681904D01*
X119295714Y-69777142D01*
X119343333Y-69824761D01*
X119438571Y-69872380D01*
X119629047Y-69872380D01*
X119724285Y-69824761D01*
X119771904Y-69777142D01*
X119819523Y-69681904D01*
X119819523Y-68872380D01*
X120200476Y-68872380D02*
X120819523Y-68872380D01*
X120486190Y-69253333D01*
X120629047Y-69253333D01*
X120724285Y-69300952D01*
X120771904Y-69348571D01*
X120819523Y-69443809D01*
X120819523Y-69681904D01*
X120771904Y-69777142D01*
X120724285Y-69824761D01*
X120629047Y-69872380D01*
X120343333Y-69872380D01*
X120248095Y-69824761D01*
X120200476Y-69777142D01*
X115113514Y-65374780D02*
X115113514Y-64374780D01*
X115446847Y-65089066D01*
X115780180Y-64374780D01*
X115780180Y-65374780D01*
X116827800Y-65279542D02*
X116780180Y-65327161D01*
X116637323Y-65374780D01*
X116542085Y-65374780D01*
X116399228Y-65327161D01*
X116303990Y-65231923D01*
X116256371Y-65136685D01*
X116208752Y-64946209D01*
X116208752Y-64803352D01*
X116256371Y-64612876D01*
X116303990Y-64517638D01*
X116399228Y-64422400D01*
X116542085Y-64374780D01*
X116637323Y-64374780D01*
X116780180Y-64422400D01*
X116827800Y-64470019D01*
X117256371Y-65374780D02*
X117256371Y-64374780D01*
X117637323Y-64374780D01*
X117732561Y-64422400D01*
X117780180Y-64470019D01*
X117827800Y-64565257D01*
X117827800Y-64708114D01*
X117780180Y-64803352D01*
X117732561Y-64850971D01*
X117637323Y-64898590D01*
X117256371Y-64898590D01*
X118208752Y-64470019D02*
X118256371Y-64422400D01*
X118351609Y-64374780D01*
X118589704Y-64374780D01*
X118684942Y-64422400D01*
X118732561Y-64470019D01*
X118780180Y-64565257D01*
X118780180Y-64660495D01*
X118732561Y-64803352D01*
X118161133Y-65374780D01*
X118780180Y-65374780D01*
X119684942Y-64374780D02*
X119208752Y-64374780D01*
X119161133Y-64850971D01*
X119208752Y-64803352D01*
X119303990Y-64755733D01*
X119542085Y-64755733D01*
X119637323Y-64803352D01*
X119684942Y-64850971D01*
X119732561Y-64946209D01*
X119732561Y-65184304D01*
X119684942Y-65279542D01*
X119637323Y-65327161D01*
X119542085Y-65374780D01*
X119303990Y-65374780D01*
X119208752Y-65327161D01*
X119161133Y-65279542D01*
X120684942Y-65374780D02*
X120113514Y-65374780D01*
X120399228Y-65374780D02*
X120399228Y-64374780D01*
X120303990Y-64517638D01*
X120208752Y-64612876D01*
X120113514Y-64660495D01*
X121589704Y-64374780D02*
X121113514Y-64374780D01*
X121065895Y-64850971D01*
X121113514Y-64803352D01*
X121208752Y-64755733D01*
X121446847Y-64755733D01*
X121542085Y-64803352D01*
X121589704Y-64850971D01*
X121637323Y-64946209D01*
X121637323Y-65184304D01*
X121589704Y-65279542D01*
X121542085Y-65327161D01*
X121446847Y-65374780D01*
X121208752Y-65374780D01*
X121113514Y-65327161D01*
X121065895Y-65279542D01*
X121923038Y-64374780D02*
X122494466Y-64374780D01*
X122208752Y-65374780D02*
X122208752Y-64374780D01*
X122827800Y-64993828D02*
X123589704Y-64993828D01*
X124065895Y-65374780D02*
X124065895Y-64374780D01*
X124303990Y-65470019D02*
X125065895Y-65470019D01*
X125256371Y-65327161D02*
X125399228Y-65374780D01*
X125637323Y-65374780D01*
X125732561Y-65327161D01*
X125780180Y-65279542D01*
X125827800Y-65184304D01*
X125827800Y-65089066D01*
X125780180Y-64993828D01*
X125732561Y-64946209D01*
X125637323Y-64898590D01*
X125446847Y-64850971D01*
X125351609Y-64803352D01*
X125303990Y-64755733D01*
X125256371Y-64660495D01*
X125256371Y-64565257D01*
X125303990Y-64470019D01*
X125351609Y-64422400D01*
X125446847Y-64374780D01*
X125684942Y-64374780D01*
X125827800Y-64422400D01*
X126113514Y-64374780D02*
X126684942Y-64374780D01*
X126399228Y-65374780D02*
X126399228Y-64374780D01*
%TO.C,U5*%
D16*
X128361980Y-58652104D02*
X129171504Y-58652104D01*
X129266742Y-58604485D01*
X129314361Y-58556866D01*
X129361980Y-58461628D01*
X129361980Y-58271152D01*
X129314361Y-58175914D01*
X129266742Y-58128295D01*
X129171504Y-58080676D01*
X128361980Y-58080676D01*
X128361980Y-57128295D02*
X128361980Y-57604485D01*
X128838171Y-57652104D01*
X128790552Y-57604485D01*
X128742933Y-57509247D01*
X128742933Y-57271152D01*
X128790552Y-57175914D01*
X128838171Y-57128295D01*
X128933409Y-57080676D01*
X129171504Y-57080676D01*
X129266742Y-57128295D01*
X129314361Y-57175914D01*
X129361980Y-57271152D01*
X129361980Y-57509247D01*
X129314361Y-57604485D01*
X129266742Y-57652104D01*
%TO.C,Y1*%
D14*
X101911990Y-72242290D02*
X102388180Y-72242290D01*
X101388180Y-72575623D02*
X101911990Y-72242290D01*
X101388180Y-71908957D01*
X102388180Y-71051814D02*
X102388180Y-71623242D01*
X102388180Y-71337528D02*
X101388180Y-71337528D01*
X101531038Y-71432766D01*
X101626276Y-71528004D01*
X101673895Y-71623242D01*
%TO.C,J7*%
X63885486Y-93127980D02*
X63885486Y-93842266D01*
X63837867Y-93985123D01*
X63742629Y-94080361D01*
X63599772Y-94127980D01*
X63504534Y-94127980D01*
X64266439Y-93127980D02*
X64933105Y-93127980D01*
X64504534Y-94127980D01*
%TO.C,D4*%
X128004344Y-47223940D02*
X128004344Y-46223940D01*
X128242440Y-46223940D01*
X128385297Y-46271560D01*
X128480535Y-46366798D01*
X128528154Y-46462036D01*
X128575773Y-46652512D01*
X128575773Y-46795369D01*
X128528154Y-46985845D01*
X128480535Y-47081083D01*
X128385297Y-47176321D01*
X128242440Y-47223940D01*
X128004344Y-47223940D01*
X129432916Y-46557274D02*
X129432916Y-47223940D01*
X129194820Y-46176321D02*
X128956725Y-46890607D01*
X129575773Y-46890607D01*
%TO.C,D5*%
X126692940Y-45035695D02*
X125692940Y-45035695D01*
X125692940Y-44797600D01*
X125740560Y-44654742D01*
X125835798Y-44559504D01*
X125931036Y-44511885D01*
X126121512Y-44464266D01*
X126264369Y-44464266D01*
X126454845Y-44511885D01*
X126550083Y-44559504D01*
X126645321Y-44654742D01*
X126692940Y-44797600D01*
X126692940Y-45035695D01*
X125692940Y-43559504D02*
X125692940Y-44035695D01*
X126169131Y-44083314D01*
X126121512Y-44035695D01*
X126073893Y-43940457D01*
X126073893Y-43702361D01*
X126121512Y-43607123D01*
X126169131Y-43559504D01*
X126264369Y-43511885D01*
X126502464Y-43511885D01*
X126597702Y-43559504D01*
X126645321Y-43607123D01*
X126692940Y-43702361D01*
X126692940Y-43940457D01*
X126645321Y-44035695D01*
X126597702Y-44083314D01*
%TO.C,R17*%
X129624080Y-64803257D02*
X129147890Y-65136590D01*
X129624080Y-65374685D02*
X128624080Y-65374685D01*
X128624080Y-64993733D01*
X128671700Y-64898495D01*
X128719319Y-64850876D01*
X128814557Y-64803257D01*
X128957414Y-64803257D01*
X129052652Y-64850876D01*
X129100271Y-64898495D01*
X129147890Y-64993733D01*
X129147890Y-65374685D01*
X129624080Y-63850876D02*
X129624080Y-64422304D01*
X129624080Y-64136590D02*
X128624080Y-64136590D01*
X128766938Y-64231828D01*
X128862176Y-64327066D01*
X128909795Y-64422304D01*
X128624080Y-63517542D02*
X128624080Y-62850876D01*
X129624080Y-63279447D01*
%TO.C,BT1*%
D16*
X144078651Y-78194754D02*
X144126270Y-78051897D01*
X144173889Y-78004278D01*
X144269127Y-77956659D01*
X144411984Y-77956659D01*
X144507222Y-78004278D01*
X144554841Y-78051897D01*
X144602460Y-78147135D01*
X144602460Y-78528087D01*
X143602460Y-78528087D01*
X143602460Y-78194754D01*
X143650080Y-78099516D01*
X143697699Y-78051897D01*
X143792937Y-78004278D01*
X143888175Y-78004278D01*
X143983413Y-78051897D01*
X144031032Y-78099516D01*
X144078651Y-78194754D01*
X144078651Y-78528087D01*
X143602460Y-77670944D02*
X143602460Y-77099516D01*
X144602460Y-77385230D02*
X143602460Y-77385230D01*
X144602460Y-76242373D02*
X144602460Y-76813801D01*
X144602460Y-76528087D02*
X143602460Y-76528087D01*
X143745318Y-76623325D01*
X143840556Y-76718563D01*
X143888175Y-76813801D01*
X115154380Y-87132093D02*
X115154380Y-86065426D01*
X144910480Y-82887753D02*
X144910480Y-81821086D01*
X145443813Y-82354420D02*
X144377146Y-82354420D01*
%TO.C,J6*%
D14*
X132240360Y-65849513D02*
X132954646Y-65849513D01*
X133097503Y-65897132D01*
X133192741Y-65992370D01*
X133240360Y-66135227D01*
X133240360Y-66230465D01*
X132240360Y-64944751D02*
X132240360Y-65135227D01*
X132287980Y-65230465D01*
X132335599Y-65278084D01*
X132478456Y-65373322D01*
X132668932Y-65420941D01*
X133049884Y-65420941D01*
X133145122Y-65373322D01*
X133192741Y-65325703D01*
X133240360Y-65230465D01*
X133240360Y-65039989D01*
X133192741Y-64944751D01*
X133145122Y-64897132D01*
X133049884Y-64849513D01*
X132811789Y-64849513D01*
X132716551Y-64897132D01*
X132668932Y-64944751D01*
X132621313Y-65039989D01*
X132621313Y-65230465D01*
X132668932Y-65325703D01*
X132716551Y-65373322D01*
X132811789Y-65420941D01*
%TO.C,J8*%
X130938420Y-43355853D02*
X131652706Y-43355853D01*
X131795563Y-43403472D01*
X131890801Y-43498710D01*
X131938420Y-43641567D01*
X131938420Y-43736805D01*
X131366992Y-42736805D02*
X131319373Y-42832043D01*
X131271754Y-42879662D01*
X131176516Y-42927281D01*
X131128897Y-42927281D01*
X131033659Y-42879662D01*
X130986040Y-42832043D01*
X130938420Y-42736805D01*
X130938420Y-42546329D01*
X130986040Y-42451091D01*
X131033659Y-42403472D01*
X131128897Y-42355853D01*
X131176516Y-42355853D01*
X131271754Y-42403472D01*
X131319373Y-42451091D01*
X131366992Y-42546329D01*
X131366992Y-42736805D01*
X131414611Y-42832043D01*
X131462230Y-42879662D01*
X131557468Y-42927281D01*
X131747944Y-42927281D01*
X131843182Y-42879662D01*
X131890801Y-42832043D01*
X131938420Y-42736805D01*
X131938420Y-42546329D01*
X131890801Y-42451091D01*
X131843182Y-42403472D01*
X131747944Y-42355853D01*
X131557468Y-42355853D01*
X131462230Y-42403472D01*
X131414611Y-42451091D01*
X131366992Y-42546329D01*
%TO.C,BT2*%
D16*
X83578391Y-100833774D02*
X83626010Y-100690917D01*
X83673629Y-100643298D01*
X83768867Y-100595679D01*
X83911724Y-100595679D01*
X84006962Y-100643298D01*
X84054581Y-100690917D01*
X84102200Y-100786155D01*
X84102200Y-101167107D01*
X83102200Y-101167107D01*
X83102200Y-100833774D01*
X83149820Y-100738536D01*
X83197439Y-100690917D01*
X83292677Y-100643298D01*
X83387915Y-100643298D01*
X83483153Y-100690917D01*
X83530772Y-100738536D01*
X83578391Y-100833774D01*
X83578391Y-101167107D01*
X83102200Y-100309964D02*
X83102200Y-99738536D01*
X84102200Y-100024250D02*
X83102200Y-100024250D01*
X83197439Y-99452821D02*
X83149820Y-99405202D01*
X83102200Y-99309964D01*
X83102200Y-99071869D01*
X83149820Y-98976631D01*
X83197439Y-98929012D01*
X83292677Y-98881393D01*
X83387915Y-98881393D01*
X83530772Y-98929012D01*
X84102200Y-99500440D01*
X84102200Y-98881393D01*
X84765820Y-95247393D02*
X84765820Y-94180726D01*
X114181560Y-90949713D02*
X114181560Y-89883046D01*
X114714893Y-90416380D02*
X113648226Y-90416380D01*
%TD*%
M02*
