%TF.GenerationSoftware,KiCad,Pcbnew,(5.1.7)-1*%
%TF.CreationDate,2021-05-19T20:23:41+02:00*%
%TF.ProjectId,PEE50-Schakeling,50454535-302d-4536-9368-616b656c696e,rev?*%
%TF.SameCoordinates,Original*%
%TF.FileFunction,Soldermask,Bot*%
%TF.FilePolarity,Negative*%
%FSLAX46Y46*%
G04 Gerber Fmt 4.6, Leading zero omitted, Abs format (unit mm)*
G04 Created by KiCad (PCBNEW (5.1.7)-1) date 2021-05-19 20:23:41*
%MOMM*%
%LPD*%
G01*
G04 APERTURE LIST*
%ADD10C,2.000000*%
%ADD11O,3.600000X2.080000*%
%ADD12R,1.700000X1.700000*%
%ADD13O,1.700000X1.700000*%
%ADD14C,1.500000*%
%ADD15O,2.080000X3.600000*%
%ADD16C,1.600200*%
%ADD17O,3.300000X2.700000*%
%ADD18C,3.000000*%
G04 APERTURE END LIST*
D10*
%TO.C,REF\u002A\u002A*%
X43073320Y-106057700D03*
%TD*%
%TO.C,REF\u002A\u002A*%
X93073220Y-40200580D03*
%TD*%
%TO.C,REF\u002A\u002A*%
X143510000Y-105895140D03*
%TD*%
D11*
%TO.C,J1*%
X51536400Y-45587200D03*
G36*
G01*
X49986399Y-39467200D02*
X53086401Y-39467200D01*
G75*
G02*
X53336400Y-39717199I0J-249999D01*
G01*
X53336400Y-41297201D01*
G75*
G02*
X53086401Y-41547200I-249999J0D01*
G01*
X49986399Y-41547200D01*
G75*
G02*
X49736400Y-41297201I0J249999D01*
G01*
X49736400Y-39717199D01*
G75*
G02*
X49986399Y-39467200I249999J0D01*
G01*
G37*
%TD*%
%TO.C,J2*%
X51638000Y-60827200D03*
G36*
G01*
X50087999Y-54707200D02*
X53188001Y-54707200D01*
G75*
G02*
X53438000Y-54957199I0J-249999D01*
G01*
X53438000Y-56537201D01*
G75*
G02*
X53188001Y-56787200I-249999J0D01*
G01*
X50087999Y-56787200D01*
G75*
G02*
X49838000Y-56537201I0J249999D01*
G01*
X49838000Y-54957199D01*
G75*
G02*
X50087999Y-54707200I249999J0D01*
G01*
G37*
%TD*%
%TO.C,J3*%
G36*
G01*
X50087999Y-69236000D02*
X53188001Y-69236000D01*
G75*
G02*
X53438000Y-69485999I0J-249999D01*
G01*
X53438000Y-71066001D01*
G75*
G02*
X53188001Y-71316000I-249999J0D01*
G01*
X50087999Y-71316000D01*
G75*
G02*
X49838000Y-71066001I0J249999D01*
G01*
X49838000Y-69485999D01*
G75*
G02*
X50087999Y-69236000I249999J0D01*
G01*
G37*
X51638000Y-75356000D03*
%TD*%
%TO.C,J4*%
G36*
G01*
X49935599Y-83815600D02*
X53035601Y-83815600D01*
G75*
G02*
X53285600Y-84065599I0J-249999D01*
G01*
X53285600Y-85645601D01*
G75*
G02*
X53035601Y-85895600I-249999J0D01*
G01*
X49935599Y-85895600D01*
G75*
G02*
X49685600Y-85645601I0J249999D01*
G01*
X49685600Y-84065599D01*
G75*
G02*
X49935599Y-83815600I249999J0D01*
G01*
G37*
X51485600Y-89935600D03*
%TD*%
D12*
%TO.C,J5*%
X112318800Y-52070000D03*
D13*
X112318800Y-49530000D03*
X114858800Y-52070000D03*
X114858800Y-49530000D03*
X117398800Y-52070000D03*
X117398800Y-49530000D03*
%TD*%
D12*
%TO.C,JP1*%
X114198400Y-44246800D03*
D13*
X111658400Y-44246800D03*
X109118400Y-44246800D03*
%TD*%
D14*
%TO.C,Y1*%
X105460800Y-74206100D03*
X105460800Y-69326100D03*
%TD*%
D15*
%TO.C,J7*%
X66758820Y-96875600D03*
G36*
G01*
X60638820Y-98425601D02*
X60638820Y-95325599D01*
G75*
G02*
X60888819Y-95075600I249999J0D01*
G01*
X62468821Y-95075600D01*
G75*
G02*
X62718820Y-95325599I0J-249999D01*
G01*
X62718820Y-98425601D01*
G75*
G02*
X62468821Y-98675600I-249999J0D01*
G01*
X60888819Y-98675600D01*
G75*
G02*
X60638820Y-98425601I0J249999D01*
G01*
G37*
%TD*%
D16*
%TO.C,BT1*%
X143913380Y-86217760D03*
X123413380Y-86217760D03*
%TD*%
%TO.C,J6*%
G36*
G01*
X137637979Y-68966180D02*
X134837981Y-68966180D01*
G75*
G02*
X134587980Y-68716179I0J250001D01*
G01*
X134587980Y-66516181D01*
G75*
G02*
X134837981Y-66266180I250001J0D01*
G01*
X137637979Y-66266180D01*
G75*
G02*
X137887980Y-66516181I0J-250001D01*
G01*
X137887980Y-68716179D01*
G75*
G02*
X137637979Y-68966180I-250001J0D01*
G01*
G37*
D17*
X136237980Y-63416180D03*
X141737980Y-67616180D03*
X141737980Y-63416180D03*
D18*
X141277980Y-72316180D03*
X141277980Y-58716180D03*
%TD*%
%TO.C,J8*%
G36*
G01*
X136236041Y-46602520D02*
X133136039Y-46602520D01*
G75*
G02*
X132886040Y-46352521I0J249999D01*
G01*
X132886040Y-44772519D01*
G75*
G02*
X133136039Y-44522520I249999J0D01*
G01*
X136236041Y-44522520D01*
G75*
G02*
X136486040Y-44772519I0J-249999D01*
G01*
X136486040Y-46352521D01*
G75*
G02*
X136236041Y-46602520I-249999J0D01*
G01*
G37*
D11*
X134686040Y-40482520D03*
%TD*%
D16*
%TO.C,BT2*%
X113524820Y-94333060D03*
X93024820Y-94333060D03*
%TD*%
M02*
